<?xml version="1.0" encoding="UTF-8"?><svg xmlns="http://www.w3.org/2000/svg" xmlns:xlink="http://www.w3.org/1999/xlink" width="375pt" zoomAndPan="magnify" viewBox="0 0 375 374.999991" height="374.999991pt" preserveAspectRatio="xMidYMid meet" version="1.2"><defs><clipPath xml:id="clip1" id="clip1"><path d="M 69.746094 71 L 305.246094 71 L 305.246094 304 L 69.746094 304 Z M 69.746094 71 "/></clipPath></defs><g xml:id="surface1" id="surface1"><g clip-rule="nonzero" clip-path="url(#clip1)"><path style=" stroke:none;fill-rule:nonzero;fill:rgb(0%,0%,0%);fill-opacity:1;" d="M 187.496094 71.707031 C 122.46875 71.707031 69.746094 124.429688 69.746094 189.457031 C 69.746094 244.632812 107.742188 290.800781 158.960938 303.578125 C 158.414062 301.988281 158.058594 300.144531 158.058594 297.859375 L 158.058594 277.730469 C 153.28125 277.730469 145.273438 277.730469 143.261719 277.730469 C 135.207031 277.730469 128.042969 274.269531 124.570312 267.832031 C 120.710938 260.679688 120.046875 249.738281 110.488281 243.046875 C 107.652344 240.816406 109.8125 238.277344 113.078125 238.621094 C 119.113281 240.328125 124.117188 244.46875 128.828125 250.609375 C 133.519531 256.761719 135.726562 258.15625 144.488281 258.15625 C 148.738281 258.15625 155.09375 257.910156 161.082031 256.96875 C 164.300781 248.796875 169.863281 241.269531 176.664062 237.71875 C 137.453125 233.683594 118.742188 214.175781 118.742188 187.691406 C 118.742188 176.289062 123.597656 165.261719 131.851562 155.96875 C 129.140625 146.746094 125.738281 127.933594 132.890625 120.769531 C 150.53125 120.769531 161.199219 132.210938 163.761719 135.304688 C 172.550781 132.292969 182.207031 130.582031 192.355469 130.582031 C 202.519531 130.582031 212.214844 132.292969 221.027344 135.324219 C 223.558594 132.253906 234.234375 120.769531 251.914062 120.769531 C 259.097656 127.945312 255.652344 146.832031 252.917969 156.039062 C 261.121094 165.308594 265.949219 176.308594 265.949219 187.691406 C 265.949219 214.15625 247.265625 233.65625 208.113281 237.707031 C 218.886719 243.328125 226.746094 259.128906 226.746094 271.03125 L 226.746094 297.859375 C 226.746094 298.878906 226.519531 299.613281 226.402344 300.488281 C 272.285156 284.40625 305.246094 240.835938 305.246094 189.457031 C 305.246094 124.429688 252.523438 71.707031 187.496094 71.707031 Z M 187.496094 71.707031 "/></g></g></svg>