<?xml version="1.0" encoding="UTF-8"?><svg xmlns="http://www.w3.org/2000/svg" xmlns:xlink="http://www.w3.org/1999/xlink" width="375pt" zoomAndPan="magnify" viewBox="0 0 375 374.999991" height="374.999991pt" preserveAspectRatio="xMidYMid meet" version="1.2"><defs><clipPath xml:id="clip1" id="clip1"><path d="M 66.550781 66.550781 L 308.800781 66.550781 L 308.800781 308.800781 L 66.550781 308.800781 Z M 66.550781 66.550781 "/></clipPath></defs><g xml:id="surface1" id="surface1"><g clip-rule="nonzero" clip-path="url(#clip1)"><path style=" stroke:none;fill-rule:nonzero;fill:rgb(0%,46.669006%,70.979309%);fill-opacity:1;" d="M 102.890625 66.550781 L 272.464844 66.550781 C 273.65625 66.550781 274.84375 66.609375 276.027344 66.726562 C 277.210938 66.84375 278.386719 67.019531 279.554688 67.25 C 280.722656 67.484375 281.875 67.769531 283.011719 68.117188 C 284.152344 68.460938 285.269531 68.863281 286.371094 69.316406 C 287.46875 69.773438 288.542969 70.28125 289.59375 70.84375 C 290.644531 71.402344 291.664062 72.015625 292.652344 72.675781 C 293.640625 73.335938 294.597656 74.046875 295.515625 74.800781 C 296.4375 75.554688 297.316406 76.355469 298.160156 77.195312 C 299 78.035156 299.800781 78.917969 300.554688 79.835938 C 301.308594 80.757812 302.015625 81.710938 302.679688 82.703125 C 303.339844 83.691406 303.949219 84.710938 304.511719 85.761719 C 305.074219 86.808594 305.582031 87.882812 306.035156 88.984375 C 306.492188 90.082031 306.890625 91.203125 307.238281 92.339844 C 307.582031 93.480469 307.871094 94.632812 308.105469 95.800781 C 308.335938 96.96875 308.511719 98.144531 308.628906 99.328125 C 308.742188 100.511719 308.800781 101.699219 308.800781 102.890625 L 308.800781 272.464844 C 308.800781 273.65625 308.742188 274.84375 308.628906 276.027344 C 308.511719 277.210938 308.335938 278.386719 308.105469 279.554688 C 307.871094 280.722656 307.582031 281.875 307.238281 283.011719 C 306.890625 284.152344 306.492188 285.269531 306.035156 286.371094 C 305.582031 287.46875 305.074219 288.542969 304.511719 289.59375 C 303.949219 290.644531 303.339844 291.664062 302.679688 292.652344 C 302.015625 293.640625 301.308594 294.597656 300.554688 295.515625 C 299.800781 296.4375 299 297.316406 298.160156 298.160156 C 297.316406 299 296.4375 299.800781 295.515625 300.554688 C 294.597656 301.308594 293.640625 302.015625 292.652344 302.679688 C 291.664062 303.339844 290.644531 303.949219 289.59375 304.511719 C 288.542969 305.074219 287.46875 305.582031 286.371094 306.035156 C 285.269531 306.492188 284.152344 306.890625 283.011719 307.238281 C 281.875 307.582031 280.722656 307.871094 279.554688 308.105469 C 278.386719 308.335938 277.210938 308.511719 276.027344 308.628906 C 274.84375 308.742188 273.65625 308.800781 272.464844 308.800781 L 102.890625 308.800781 C 101.699219 308.800781 100.511719 308.742188 99.328125 308.628906 C 98.144531 308.511719 96.96875 308.335938 95.800781 308.105469 C 94.632812 307.871094 93.480469 307.582031 92.339844 307.238281 C 91.203125 306.890625 90.082031 306.492188 88.984375 306.035156 C 87.882812 305.582031 86.808594 305.074219 85.761719 304.511719 C 84.710938 303.949219 83.691406 303.339844 82.703125 302.679688 C 81.710938 302.015625 80.757812 301.308594 79.835938 300.554688 C 78.917969 299.800781 78.035156 299 77.195312 298.160156 C 76.355469 297.316406 75.554688 296.4375 74.800781 295.515625 C 74.046875 294.597656 73.335938 293.640625 72.675781 292.652344 C 72.015625 291.664062 71.402344 290.644531 70.84375 289.59375 C 70.28125 288.542969 69.773438 287.46875 69.316406 286.371094 C 68.863281 285.269531 68.460938 284.152344 68.117188 283.011719 C 67.769531 281.875 67.484375 280.722656 67.25 279.554688 C 67.019531 278.386719 66.84375 277.210938 66.726562 276.027344 C 66.609375 274.84375 66.550781 273.65625 66.550781 272.464844 L 66.550781 102.890625 C 66.550781 101.699219 66.609375 100.511719 66.726562 99.328125 C 66.84375 98.144531 67.019531 96.96875 67.25 95.800781 C 67.484375 94.632812 67.769531 93.480469 68.117188 92.339844 C 68.460938 91.203125 68.863281 90.082031 69.316406 88.984375 C 69.773438 87.882812 70.28125 86.808594 70.84375 85.761719 C 71.402344 84.710938 72.015625 83.691406 72.675781 82.703125 C 73.335938 81.710938 74.046875 80.757812 74.800781 79.835938 C 75.554688 78.917969 76.355469 78.035156 77.195312 77.195312 C 78.035156 76.355469 78.917969 75.554688 79.835938 74.800781 C 80.757812 74.046875 81.710938 73.335938 82.703125 72.675781 C 83.691406 72.015625 84.710938 71.402344 85.761719 70.84375 C 86.808594 70.28125 87.882812 69.773438 88.984375 69.316406 C 90.082031 68.863281 91.203125 68.460938 92.339844 68.117188 C 93.480469 67.769531 94.632812 67.484375 95.800781 67.25 C 96.96875 67.019531 98.144531 66.84375 99.328125 66.726562 C 100.511719 66.609375 101.699219 66.550781 102.890625 66.550781 Z M 102.890625 66.550781 "/></g><path style=" stroke:none;fill-rule:nonzero;fill:rgb(100%,100%,100%);fill-opacity:1;" d="M 151.246094 131.847656 C 151.246094 132.417969 151.21875 132.992188 151.160156 133.5625 C 151.105469 134.132812 151.019531 134.699219 150.910156 135.261719 C 150.796875 135.824219 150.65625 136.378906 150.492188 136.929688 C 150.324219 137.476562 150.132812 138.015625 149.914062 138.546875 C 149.691406 139.074219 149.449219 139.59375 149.179688 140.097656 C 148.90625 140.605469 148.613281 141.09375 148.292969 141.570312 C 147.976562 142.050781 147.636719 142.507812 147.269531 142.953125 C 146.90625 143.394531 146.523438 143.820312 146.117188 144.226562 C 145.710938 144.628906 145.289062 145.015625 144.84375 145.378906 C 144.402344 145.742188 143.941406 146.082031 143.464844 146.402344 C 142.988281 146.71875 142.496094 147.015625 141.992188 147.285156 C 141.484375 147.554688 140.96875 147.800781 140.4375 148.019531 C 139.910156 148.238281 139.371094 148.433594 138.820312 148.597656 C 138.273438 148.765625 137.714844 148.902344 137.152344 149.015625 C 136.589844 149.128906 136.023438 149.210938 135.453125 149.269531 C 134.882812 149.324219 134.3125 149.351562 133.738281 149.351562 C 133.164062 149.351562 132.59375 149.324219 132.023438 149.269531 C 131.453125 149.210938 130.886719 149.128906 130.324219 149.015625 C 129.761719 148.902344 129.207031 148.765625 128.65625 148.597656 C 128.109375 148.433594 127.570312 148.238281 127.039062 148.019531 C 126.507812 147.800781 125.992188 147.554688 125.484375 147.285156 C 124.980469 147.015625 124.488281 146.71875 124.011719 146.402344 C 123.535156 146.082031 123.074219 145.742188 122.632812 145.378906 C 122.191406 145.015625 121.765625 144.628906 121.359375 144.226562 C 120.953125 143.820312 120.570312 143.394531 120.207031 142.953125 C 119.84375 142.507812 119.5 142.050781 119.183594 141.570312 C 118.863281 141.09375 118.570312 140.605469 118.300781 140.097656 C 118.027344 139.59375 117.785156 139.074219 117.566406 138.546875 C 117.34375 138.015625 117.152344 137.476562 116.984375 136.929688 C 116.820312 136.378906 116.679688 135.824219 116.570312 135.261719 C 116.457031 134.699219 116.371094 134.132812 116.316406 133.5625 C 116.261719 132.992188 116.230469 132.417969 116.230469 131.847656 C 116.230469 131.273438 116.261719 130.699219 116.316406 130.128906 C 116.371094 129.558594 116.457031 128.992188 116.570312 128.429688 C 116.679688 127.867188 116.820312 127.3125 116.984375 126.765625 C 117.152344 126.214844 117.34375 125.675781 117.566406 125.148438 C 117.785156 124.617188 118.027344 124.097656 118.300781 123.59375 C 118.570312 123.089844 118.863281 122.597656 119.183594 122.121094 C 119.5 121.644531 119.84375 121.183594 120.207031 120.738281 C 120.570312 120.296875 120.953125 119.871094 121.359375 119.46875 C 121.765625 119.0625 122.191406 118.675781 122.632812 118.3125 C 123.074219 117.949219 123.535156 117.609375 124.011719 117.289062 C 124.488281 116.972656 124.980469 116.675781 125.484375 116.40625 C 125.992188 116.136719 126.507812 115.890625 127.039062 115.671875 C 127.570312 115.453125 128.109375 115.261719 128.65625 115.09375 C 129.207031 114.925781 129.761719 114.789062 130.324219 114.675781 C 130.886719 114.5625 131.453125 114.480469 132.023438 114.425781 C 132.59375 114.367188 133.164062 114.339844 133.738281 114.339844 C 134.3125 114.339844 134.882812 114.367188 135.453125 114.425781 C 136.023438 114.480469 136.589844 114.5625 137.152344 114.675781 C 137.714844 114.789062 138.273438 114.925781 138.820312 115.09375 C 139.371094 115.261719 139.910156 115.453125 140.4375 115.671875 C 140.96875 115.890625 141.484375 116.136719 141.992188 116.40625 C 142.496094 116.675781 142.988281 116.972656 143.464844 117.289062 C 143.941406 117.609375 144.402344 117.949219 144.84375 118.3125 C 145.289062 118.675781 145.710938 119.0625 146.117188 119.46875 C 146.523438 119.871094 146.90625 120.296875 147.269531 120.738281 C 147.636719 121.183594 147.976562 121.644531 148.292969 122.121094 C 148.613281 122.597656 148.90625 123.089844 149.179688 123.59375 C 149.449219 124.097656 149.691406 124.617188 149.914062 125.148438 C 150.132812 125.675781 150.324219 126.214844 150.492188 126.765625 C 150.65625 127.3125 150.796875 127.867188 150.910156 128.429688 C 151.019531 128.992188 151.105469 129.558594 151.160156 130.128906 C 151.21875 130.699219 151.246094 131.273438 151.246094 131.847656 Z M 151.246094 131.847656 "/><path style="fill-rule:nonzero;fill:rgb(100%,100%,100%);fill-opacity:1;stroke-width:66;stroke-linecap:butt;stroke-linejoin:miter;stroke:rgb(100%,100%,100%);stroke-opacity:1;stroke-miterlimit:4;" d="M 244.00116 194.003226 L 244.00116 391.997062 M 141.999082 194.003226 L 141.999082 391.997062 " transform="matrix(0.473144,0,0,0.473144,66.552202,66.552197)"/><path style=" stroke:none;fill-rule:nonzero;fill:rgb(100%,100%,100%);fill-opacity:1;" d="M 197.140625 199.980469 C 197.140625 190.515625 203.289062 181.054688 214.171875 181.054688 C 225.527344 181.054688 229.785156 189.570312 229.785156 202.34375 L 229.785156 252.023438 L 261.015625 252.023438 L 261.015625 198.558594 C 261.015625 169.699219 245.875 156.449219 225.054688 156.449219 C 208.96875 156.449219 200.925781 165.4375 197.140625 171.589844 "/></g></svg>