<?xml version="1.0" encoding="UTF-8"?><svg xmlns="http://www.w3.org/2000/svg" xmlns:xlink="http://www.w3.org/1999/xlink" width="375pt" zoomAndPan="magnify" viewBox="0 0 375 374.999991" height="374.999991pt" preserveAspectRatio="xMidYMid meet" version="1.2"><defs><clipPath xml:id="clip1" id="clip1"><path d="M 314 136 L 323.863281 136 L 323.863281 159 L 314 159 Z M 314 136 "/></clipPath><clipPath xml:id="clip2" id="clip2"><path d="M 314 159 L 323.863281 159 L 323.863281 183 L 314 183 Z M 314 159 "/></clipPath><clipPath xml:id="clip3" id="clip3"><path d="M 314 184 L 323.863281 184 L 323.863281 207 L 314 207 Z M 314 184 "/></clipPath><clipPath xml:id="clip4" id="clip4"><path d="M 56 266 L 314 266 L 314 286.03125 L 56 286.03125 Z M 56 266 "/></clipPath><clipPath xml:id="clip5" id="clip5"><path d="M 137 88.78125 L 256 88.78125 L 256 132 L 137 132 Z M 137 88.78125 "/></clipPath><clipPath xml:id="clip6" id="clip6"><path d="M 50.863281 113 L 110 113 L 110 279 L 50.863281 279 Z M 50.863281 113 "/></clipPath></defs><g xml:id="surface1" id="surface1"><path style=" stroke:none;fill-rule:nonzero;fill:rgb(11.369324%,11.369324%,11.369324%);fill-opacity:1;" d="M 322.921875 154.320312 C 322.921875 156.414062 321.226562 158.113281 319.128906 158.113281 C 317.035156 158.113281 315.335938 156.414062 315.335938 154.320312 L 315.335938 141.035156 C 315.335938 138.941406 317.035156 137.242188 319.128906 137.242188 C 321.226562 137.242188 322.921875 138.941406 322.921875 141.035156 L 322.921875 154.320312 "/><g clip-rule="nonzero" clip-path="url(#clip1)"><path style=" stroke:none;fill-rule:nonzero;fill:rgb(1.568604%,2.349854%,2.349854%);fill-opacity:1;" d="M 322.921875 154.320312 L 322.085938 154.320312 C 322.085938 155.136719 321.753906 155.871094 321.21875 156.410156 C 320.683594 156.945312 319.945312 157.273438 319.128906 157.273438 C 318.3125 157.273438 317.578125 156.945312 317.042969 156.410156 C 316.503906 155.871094 316.175781 155.136719 316.175781 154.320312 L 316.175781 141.035156 C 316.175781 140.214844 316.503906 139.484375 317.042969 138.945312 C 317.578125 138.410156 318.3125 138.082031 319.128906 138.078125 C 319.945312 138.082031 320.683594 138.410156 321.21875 138.945312 C 321.753906 139.484375 322.085938 140.214844 322.085938 141.035156 L 322.085938 154.320312 L 323.761719 154.320312 L 323.761719 141.035156 C 323.761719 138.476562 321.6875 136.402344 319.128906 136.402344 C 316.570312 136.402344 314.496094 138.476562 314.496094 141.035156 L 314.496094 154.320312 C 314.496094 156.878906 316.570312 158.949219 319.128906 158.949219 C 321.6875 158.949219 323.761719 156.878906 323.761719 154.320312 L 322.921875 154.320312 "/></g><path style=" stroke:none;fill-rule:nonzero;fill:rgb(11.369324%,11.369324%,11.369324%);fill-opacity:1;" d="M 322.921875 177.875 C 322.921875 179.972656 321.226562 181.671875 319.128906 181.671875 C 317.035156 181.671875 315.335938 179.972656 315.335938 177.875 L 315.335938 164.589844 C 315.335938 162.496094 317.035156 160.800781 319.128906 160.800781 C 321.226562 160.800781 322.921875 162.496094 322.921875 164.589844 L 322.921875 177.875 "/><g clip-rule="nonzero" clip-path="url(#clip2)"><path style=" stroke:none;fill-rule:nonzero;fill:rgb(1.568604%,2.349854%,2.349854%);fill-opacity:1;" d="M 322.921875 177.875 L 322.085938 177.875 C 322.085938 178.695312 321.753906 179.425781 321.21875 179.96875 C 320.683594 180.503906 319.945312 180.832031 319.128906 180.832031 C 318.3125 180.832031 317.578125 180.503906 317.042969 179.96875 C 316.503906 179.425781 316.175781 178.695312 316.175781 177.875 L 316.175781 164.589844 C 316.175781 163.773438 316.503906 163.039062 317.042969 162.503906 C 317.578125 161.96875 318.3125 161.636719 319.128906 161.636719 C 319.945312 161.636719 320.683594 161.96875 321.21875 162.503906 C 321.753906 163.039062 322.085938 163.773438 322.085938 164.589844 L 322.085938 177.875 L 323.761719 177.875 L 323.761719 164.589844 C 323.761719 162.03125 321.6875 159.960938 319.128906 159.960938 C 316.570312 159.960938 314.496094 162.03125 314.496094 164.589844 L 314.496094 177.875 C 314.496094 180.433594 316.570312 182.507812 319.128906 182.507812 C 321.6875 182.507812 323.761719 180.433594 323.761719 177.875 L 322.921875 177.875 "/></g><path style=" stroke:none;fill-rule:nonzero;fill:rgb(11.369324%,11.369324%,11.369324%);fill-opacity:1;" d="M 322.921875 202.300781 C 322.921875 204.394531 321.226562 206.089844 319.128906 206.089844 C 317.035156 206.089844 315.335938 204.394531 315.335938 202.300781 L 315.335938 189.015625 C 315.335938 186.917969 317.035156 185.21875 319.128906 185.21875 C 321.226562 185.21875 322.921875 186.917969 322.921875 189.015625 L 322.921875 202.300781 "/><g clip-rule="nonzero" clip-path="url(#clip3)"><path style=" stroke:none;fill-rule:nonzero;fill:rgb(1.568604%,2.349854%,2.349854%);fill-opacity:1;" d="M 322.921875 202.300781 L 322.085938 202.300781 C 322.085938 203.117188 321.753906 203.851562 321.21875 204.386719 C 320.683594 204.921875 319.945312 205.253906 319.128906 205.253906 C 318.3125 205.253906 317.578125 204.921875 317.042969 204.386719 C 316.503906 203.851562 316.175781 203.117188 316.175781 202.300781 L 316.175781 189.015625 C 316.175781 188.195312 316.503906 187.460938 317.042969 186.925781 C 317.578125 186.390625 318.3125 186.0625 319.128906 186.058594 C 319.945312 186.0625 320.683594 186.390625 321.21875 186.925781 C 321.753906 187.460938 322.085938 188.195312 322.085938 189.015625 L 322.085938 202.300781 L 323.761719 202.300781 L 323.761719 189.015625 C 323.761719 186.457031 321.6875 184.382812 319.128906 184.382812 C 316.570312 184.382812 314.496094 186.457031 314.496094 189.015625 L 314.496094 202.300781 C 314.496094 204.855469 316.570312 206.929688 319.128906 206.929688 C 321.6875 206.929688 323.761719 204.855469 323.761719 202.300781 L 322.921875 202.300781 "/></g><path style=" stroke:none;fill-rule:nonzero;fill:rgb(11.369324%,11.369324%,11.369324%);fill-opacity:1;" d="M 312.941406 276.5 C 312.941406 281.328125 309.027344 285.242188 304.199219 285.242188 L 65.617188 285.242188 C 60.792969 285.242188 56.882812 281.328125 56.882812 276.5 C 56.882812 271.675781 60.792969 267.761719 65.617188 267.761719 L 304.199219 267.761719 C 309.027344 267.761719 312.941406 271.675781 312.941406 276.5 "/><g clip-rule="nonzero" clip-path="url(#clip4)"><path style=" stroke:none;fill-rule:nonzero;fill:rgb(1.568604%,2.349854%,2.349854%);fill-opacity:1;" d="M 312.941406 276.5 L 312.101562 276.5 C 312.101562 278.6875 311.21875 280.65625 309.789062 282.085938 C 308.355469 283.519531 306.386719 284.398438 304.199219 284.402344 L 65.617188 284.402344 C 63.4375 284.398438 61.464844 283.519531 60.035156 282.085938 C 58.601562 280.65625 57.71875 278.6875 57.71875 276.5 C 57.71875 274.316406 58.601562 272.347656 60.035156 270.914062 C 61.464844 269.484375 63.4375 268.601562 65.617188 268.601562 L 304.199219 268.601562 C 306.386719 268.601562 308.355469 269.484375 309.789062 270.914062 C 311.21875 272.347656 312.101562 274.316406 312.101562 276.5 L 313.777344 276.5 C 313.777344 271.210938 309.492188 266.925781 304.199219 266.921875 L 65.617188 266.921875 C 60.332031 266.925781 56.042969 271.210938 56.042969 276.5 C 56.042969 281.792969 60.332031 286.078125 65.617188 286.078125 L 304.199219 286.078125 C 309.492188 286.078125 313.777344 281.792969 313.777344 276.5 L 312.941406 276.5 "/></g><path style=" stroke:none;fill-rule:nonzero;fill:rgb(74.508667%,10.978699%,18.03894%);fill-opacity:1;" d="M 98.46875 114.003906 C 98.46875 118.929688 94.476562 122.921875 89.554688 122.921875 L 70.472656 122.921875 C 65.542969 122.921875 61.554688 118.929688 61.554688 114.003906 C 61.554688 109.078125 65.542969 105.085938 70.472656 105.085938 L 89.554688 105.085938 C 94.476562 105.085938 98.46875 109.078125 98.46875 114.003906 "/><path style=" stroke:none;fill-rule:nonzero;fill:rgb(1.568604%,2.349854%,2.349854%);fill-opacity:1;" d="M 98.46875 114.003906 L 97.632812 114.003906 C 97.632812 116.238281 96.730469 118.253906 95.265625 119.71875 C 93.800781 121.179688 91.789062 122.082031 89.554688 122.082031 L 70.472656 122.082031 C 68.234375 122.082031 66.222656 121.179688 64.761719 119.71875 C 63.296875 118.253906 62.394531 116.238281 62.394531 114.003906 C 62.394531 111.769531 63.296875 109.757812 64.761719 108.289062 C 66.222656 106.828125 68.234375 105.925781 70.472656 105.925781 L 89.554688 105.925781 C 91.789062 105.925781 93.800781 106.828125 95.265625 108.289062 C 96.730469 109.757812 97.632812 111.769531 97.632812 114.003906 L 99.308594 114.003906 C 99.308594 108.617188 94.941406 104.25 89.554688 104.246094 L 70.472656 104.246094 C 65.078125 104.25 60.714844 108.617188 60.714844 114.003906 C 60.714844 119.394531 65.082031 123.761719 70.472656 123.761719 L 89.554688 123.761719 C 94.941406 123.761719 99.308594 119.394531 99.308594 114.003906 L 98.46875 114.003906 "/><path style=" stroke:none;fill-rule:nonzero;fill:rgb(18.429565%,18.818665%,19.219971%);fill-opacity:1;" d="M 254.382812 118.910156 C 254.382812 125.515625 255.265625 130.875 249.28125 130.875 L 149.550781 130.875 C 143.5625 130.875 138.707031 125.515625 138.707031 118.910156 C 138.707031 118.910156 153.121094 89.726562 159.109375 89.726562 L 233.984375 89.726562 C 239.96875 89.726562 254.382812 118.910156 254.382812 118.910156 "/><g clip-rule="nonzero" clip-path="url(#clip5)"><path style=" stroke:none;fill-rule:nonzero;fill:rgb(1.568604%,2.349854%,2.349854%);fill-opacity:1;" d="M 254.382812 118.910156 L 253.453125 118.910156 C 253.453125 120.433594 253.5 121.875 253.5 123.183594 C 253.5 124.285156 253.464844 125.292969 253.351562 126.160156 C 253.265625 126.808594 253.140625 127.378906 252.960938 127.84375 C 252.683594 128.550781 252.328125 129.027344 251.789062 129.371094 C 251.25 129.714844 250.464844 129.941406 249.28125 129.941406 L 149.550781 129.941406 C 146.839844 129.941406 144.382812 128.738281 142.574219 126.746094 C 140.769531 124.753906 139.636719 121.984375 139.636719 118.910156 L 138.707031 118.910156 L 139.542969 119.324219 C 139.542969 119.324219 139.597656 119.214844 139.703125 119 C 140.5 117.410156 144.148438 110.210938 148.28125 103.4375 C 150.347656 100.054688 152.535156 96.773438 154.523438 94.378906 C 155.511719 93.183594 156.453125 92.210938 157.269531 91.566406 C 157.675781 91.246094 158.050781 91.007812 158.367188 90.859375 C 158.683594 90.714844 158.9375 90.660156 159.109375 90.660156 L 233.984375 90.660156 C 234.167969 90.660156 234.441406 90.71875 234.789062 90.890625 C 235.441406 91.207031 236.300781 91.894531 237.226562 92.863281 C 238.851562 94.550781 240.714844 97.070312 242.558594 99.875 C 245.332031 104.089844 248.085938 108.957031 250.136719 112.769531 C 251.164062 114.671875 252.019531 116.316406 252.617188 117.476562 C 252.914062 118.058594 253.148438 118.523438 253.304688 118.835938 C 253.464844 119.15625 253.546875 119.324219 253.546875 119.324219 L 254.382812 118.910156 L 253.453125 118.910156 L 254.382812 118.910156 L 255.21875 118.5 C 255.210938 118.488281 251.601562 111.179688 247.226562 103.84375 C 245.039062 100.171875 242.664062 96.5 240.421875 93.707031 C 239.300781 92.308594 238.214844 91.125 237.171875 90.261719 C 236.648438 89.832031 236.136719 89.476562 235.609375 89.21875 C 235.089844 88.964844 234.550781 88.796875 233.984375 88.796875 L 159.109375 88.796875 C 158.542969 88.796875 158.003906 88.964844 157.480469 89.21875 C 156.503906 89.703125 155.542969 90.523438 154.527344 91.570312 C 152.761719 93.410156 150.863281 95.992188 148.976562 98.851562 C 143.339844 107.425781 137.882812 118.480469 137.875 118.5 C 137.8125 118.628906 137.78125 118.769531 137.78125 118.910156 C 137.78125 122.445312 139.074219 125.65625 141.195312 127.996094 C 143.3125 130.335938 146.277344 131.808594 149.550781 131.804688 L 249.28125 131.804688 C 250.539062 131.804688 251.597656 131.589844 252.46875 131.125 C 253.125 130.785156 253.65625 130.300781 254.050781 129.734375 C 254.652344 128.882812 254.964844 127.871094 255.140625 126.773438 C 255.320312 125.671875 255.359375 124.464844 255.359375 123.183594 C 255.359375 121.832031 255.316406 120.398438 255.316406 118.910156 C 255.316406 118.769531 255.277344 118.628906 255.21875 118.5 L 254.382812 118.910156 "/></g><path style=" stroke:none;fill-rule:nonzero;fill:rgb(94.898987%,94.898987%,94.119263%);fill-opacity:1;" d="M 229 117.042969 C 229 121.480469 229.492188 125.070312 226.136719 125.070312 L 170.195312 125.070312 C 166.835938 125.070312 164.113281 121.480469 164.113281 117.042969 C 164.113281 117.042969 172.203125 97.460938 175.554688 97.460938 L 217.554688 97.460938 C 220.914062 97.460938 229 117.042969 229 117.042969 "/><path style=" stroke:none;fill-rule:nonzero;fill:rgb(1.568604%,2.349854%,2.349854%);fill-opacity:1;" d="M 229 117.042969 L 228.066406 117.042969 C 228.066406 118.074219 228.09375 119.042969 228.09375 119.917969 C 228.101562 121.394531 227.996094 122.597656 227.695312 123.25 C 227.550781 123.582031 227.390625 123.765625 227.183594 123.902344 C 226.96875 124.035156 226.65625 124.136719 226.136719 124.136719 L 170.195312 124.136719 C 169.519531 124.136719 168.882812 123.960938 168.28125 123.625 C 167.382812 123.125 166.566406 122.25 165.980469 121.109375 C 165.394531 119.964844 165.042969 118.5625 165.042969 117.042969 L 164.113281 117.042969 L 164.972656 117.398438 C 164.972656 117.398438 165.097656 117.097656 165.324219 116.566406 C 166.117188 114.707031 168.148438 110.035156 170.335938 105.859375 C 171.425781 103.773438 172.558594 101.808594 173.566406 100.40625 C 174.066406 99.707031 174.542969 99.148438 174.925781 98.804688 C 175.117188 98.632812 175.285156 98.519531 175.402344 98.453125 L 175.527344 98.398438 L 175.554688 98.394531 L 217.554688 98.394531 L 217.554688 98.367188 L 217.554688 98.394531 L 217.554688 98.367188 L 217.554688 98.394531 C 217.554688 98.390625 217.65625 98.410156 217.820312 98.519531 C 218.128906 98.710938 218.601562 99.175781 219.109375 99.820312 C 220 100.953125 221.035156 102.640625 222.058594 104.511719 C 223.59375 107.316406 225.117188 110.546875 226.253906 113.070312 C 226.820312 114.328125 227.292969 115.414062 227.625 116.179688 C 227.785156 116.566406 227.914062 116.871094 228.003906 117.078125 C 228.089844 117.289062 228.136719 117.398438 228.136719 117.398438 L 229 117.042969 L 228.066406 117.042969 L 229 117.042969 L 229.859375 116.6875 C 229.851562 116.679688 227.828125 111.769531 225.367188 106.839844 C 224.136719 104.371094 222.800781 101.898438 221.535156 100.003906 C 220.894531 99.054688 220.28125 98.25 219.664062 97.644531 C 219.355469 97.335938 219.046875 97.078125 218.710938 96.882812 C 218.375 96.683594 217.992188 96.535156 217.554688 96.53125 L 175.554688 96.53125 C 175.121094 96.535156 174.738281 96.683594 174.402344 96.882812 C 173.777344 97.257812 173.226562 97.828125 172.640625 98.546875 C 171.625 99.8125 170.558594 101.554688 169.496094 103.480469 C 166.320312 109.253906 163.261719 116.671875 163.253906 116.6875 C 163.207031 116.804688 163.183594 116.921875 163.183594 117.042969 C 163.1875 119.449219 163.917969 121.644531 165.152344 123.28125 C 165.773438 124.097656 166.519531 124.777344 167.375 125.253906 C 168.226562 125.730469 169.1875 126 170.195312 126 L 226.136719 126 C 226.90625 126.003906 227.605469 125.839844 228.175781 125.472656 C 228.605469 125.207031 228.945312 124.832031 229.1875 124.421875 C 229.554688 123.800781 229.726562 123.101562 229.832031 122.351562 C 229.929688 121.597656 229.953125 120.785156 229.953125 119.917969 C 229.953125 119.007812 229.925781 118.042969 229.925781 117.042969 C 229.925781 116.921875 229.902344 116.804688 229.859375 116.6875 L 229 117.042969 "/><path style=" stroke:none;fill-rule:nonzero;fill:rgb(11.369324%,11.369324%,11.369324%);fill-opacity:1;" d="M 318.933594 269.277344 C 318.933594 273.785156 314.722656 277.4375 309.527344 277.4375 L 83.613281 277.4375 C 78.414062 277.4375 74.203125 273.785156 74.203125 269.277344 L 74.203125 127.972656 C 74.203125 123.46875 78.414062 119.8125 83.613281 119.8125 L 309.527344 119.8125 C 314.722656 119.8125 318.933594 123.46875 318.933594 127.972656 L 318.933594 269.277344 "/><path style=" stroke:none;fill-rule:nonzero;fill:rgb(1.568604%,2.349854%,2.349854%);fill-opacity:1;" d="M 318.933594 269.277344 L 318.09375 269.277344 C 318.09375 271.265625 317.171875 273.074219 315.628906 274.414062 C 314.085938 275.753906 311.925781 276.601562 309.527344 276.601562 L 83.613281 276.601562 C 81.210938 276.601562 79.050781 275.753906 77.511719 274.414062 C 75.964844 273.074219 75.046875 271.265625 75.046875 269.277344 L 75.046875 127.972656 C 75.046875 125.988281 75.964844 124.179688 77.511719 122.835938 C 79.050781 121.496094 81.210938 120.648438 83.613281 120.648438 L 309.527344 120.648438 C 311.925781 120.648438 314.085938 121.496094 315.628906 122.835938 C 317.171875 124.179688 318.09375 125.988281 318.09375 127.972656 L 318.09375 269.277344 L 319.769531 269.277344 L 319.769531 127.972656 C 319.773438 125.453125 318.585938 123.179688 316.730469 121.570312 C 314.863281 119.953125 312.320312 118.972656 309.527344 118.972656 L 83.613281 118.972656 C 80.816406 118.972656 78.273438 119.953125 76.410156 121.570312 C 74.550781 123.179688 73.367188 125.453125 73.367188 127.972656 L 73.367188 269.277344 C 73.367188 271.800781 74.550781 274.074219 76.410156 275.683594 C 78.273438 277.296875 80.816406 278.277344 83.613281 278.277344 L 309.527344 278.277344 C 312.320312 278.277344 314.863281 277.296875 316.730469 275.683594 C 318.585938 274.070312 319.773438 271.800781 319.769531 269.277344 L 318.933594 269.277344 "/><path style=" stroke:none;fill-rule:nonzero;fill:rgb(13.729858%,14.118958%,14.118958%);fill-opacity:1;" d="M 108.21875 269.3125 C 108.21875 273.800781 104.007812 277.4375 98.816406 277.4375 L 61.214844 277.4375 C 56.015625 277.4375 51.804688 273.800781 51.804688 269.3125 L 51.804688 122.132812 C 51.804688 117.640625 56.015625 114.003906 61.214844 114.003906 L 98.816406 114.003906 C 104.007812 114.003906 108.21875 117.640625 108.21875 122.132812 L 108.21875 269.3125 "/><g clip-rule="nonzero" clip-path="url(#clip6)"><path style=" stroke:none;fill-rule:nonzero;fill:rgb(1.568604%,2.349854%,2.349854%);fill-opacity:1;" d="M 108.21875 269.3125 L 107.378906 269.3125 C 107.378906 271.289062 106.460938 273.085938 104.917969 274.421875 C 103.375 275.757812 101.214844 276.601562 98.816406 276.601562 L 61.214844 276.601562 C 58.8125 276.601562 56.652344 275.757812 55.109375 274.421875 C 53.566406 273.085938 52.648438 271.289062 52.644531 269.3125 L 52.644531 122.132812 C 52.648438 120.15625 53.566406 118.359375 55.109375 117.019531 C 56.652344 115.6875 58.8125 114.84375 61.214844 114.84375 L 98.816406 114.84375 C 101.214844 114.84375 103.371094 115.6875 104.917969 117.019531 C 106.460938 118.359375 107.378906 120.15625 107.378906 122.132812 L 107.378906 269.3125 L 109.058594 269.3125 L 109.058594 122.132812 C 109.058594 119.617188 107.875 117.351562 106.011719 115.75 C 104.148438 114.144531 101.609375 113.167969 98.816406 113.167969 L 61.214844 113.167969 C 58.421875 113.167969 55.875 114.144531 54.011719 115.75 C 52.152344 117.351562 50.964844 119.617188 50.96875 122.132812 L 50.96875 269.3125 C 50.964844 271.824219 52.152344 274.089844 54.011719 275.691406 C 55.875 277.300781 58.421875 278.277344 61.214844 278.277344 L 98.816406 278.277344 C 101.609375 278.277344 104.148438 277.300781 106.011719 275.691406 C 107.875 274.089844 109.058594 271.824219 109.058594 269.3125 L 108.21875 269.3125 "/></g><path style=" stroke:none;fill-rule:nonzero;fill:rgb(18.429565%,18.818665%,19.219971%);fill-opacity:1;" d="M 274.828125 206.089844 C 274.828125 247.175781 241.523438 280.480469 200.445312 280.480469 C 159.359375 280.480469 126.054688 247.175781 126.054688 206.089844 C 126.054688 165.011719 159.359375 131.703125 200.445312 131.703125 C 241.523438 131.703125 274.828125 165.011719 274.828125 206.089844 "/><path style=" stroke:none;fill-rule:nonzero;fill:rgb(1.568604%,2.349854%,2.349854%);fill-opacity:1;" d="M 274.828125 206.089844 L 273.988281 206.089844 C 273.988281 226.40625 265.757812 244.789062 252.445312 258.097656 C 239.136719 271.410156 220.753906 279.640625 200.445312 279.640625 C 180.128906 279.640625 161.746094 271.410156 148.433594 258.097656 C 135.125 244.789062 126.894531 226.40625 126.894531 206.089844 C 126.894531 185.777344 135.125 167.398438 148.433594 154.085938 C 161.746094 140.773438 180.128906 132.542969 200.445312 132.542969 C 220.753906 132.542969 239.136719 140.773438 252.445312 154.085938 C 265.757812 167.398438 273.988281 185.777344 273.988281 206.089844 L 275.664062 206.089844 C 275.664062 164.546875 241.988281 130.867188 200.445312 130.867188 C 158.894531 130.867188 125.21875 164.546875 125.21875 206.089844 C 125.21875 247.640625 158.894531 281.316406 200.445312 281.320312 C 241.988281 281.316406 275.664062 247.640625 275.664062 206.089844 L 274.828125 206.089844 "/><path style=" stroke:none;fill-rule:nonzero;fill:rgb(45.878601%,47.44873%,48.239136%);fill-opacity:1;" d="M 262.101562 206.089844 C 262.101562 240.152344 234.5 267.761719 200.445312 267.761719 C 166.386719 267.761719 138.777344 240.152344 138.777344 206.089844 C 138.777344 172.035156 166.386719 144.421875 200.445312 144.421875 C 234.5 144.421875 262.101562 172.035156 262.101562 206.089844 "/><path style=" stroke:none;fill-rule:nonzero;fill:rgb(1.568604%,2.349854%,2.349854%);fill-opacity:1;" d="M 262.101562 206.089844 L 261.265625 206.089844 C 261.265625 222.890625 254.460938 238.097656 243.453125 249.105469 C 232.441406 260.117188 217.242188 266.921875 200.445312 266.921875 C 183.644531 266.921875 168.441406 260.117188 157.429688 249.105469 C 146.421875 238.097656 139.617188 222.890625 139.617188 206.089844 C 139.617188 189.292969 146.421875 174.089844 157.429688 163.078125 C 168.441406 152.070312 183.644531 145.265625 200.445312 145.261719 C 217.242188 145.265625 232.441406 152.070312 243.453125 163.078125 C 254.460938 174.089844 261.265625 189.292969 261.265625 206.089844 L 262.945312 206.089844 C 262.945312 171.574219 234.964844 143.585938 200.445312 143.585938 C 165.921875 143.585938 137.941406 171.574219 137.9375 206.089844 C 137.941406 240.617188 165.921875 268.601562 200.445312 268.601562 C 234.964844 268.601562 262.945312 240.617188 262.945312 206.089844 L 262.101562 206.089844 "/><path style=" stroke:none;fill-rule:nonzero;fill:rgb(3.529358%,3.919983%,3.919983%);fill-opacity:1;" d="M 252.707031 206.089844 C 252.707031 234.960938 229.300781 258.359375 200.445312 258.359375 C 171.574219 258.359375 148.175781 234.960938 148.175781 206.089844 C 148.175781 177.226562 171.574219 153.824219 200.445312 153.824219 C 229.300781 153.824219 252.707031 177.226562 252.707031 206.089844 "/><path style=" stroke:none;fill-rule:nonzero;fill:rgb(1.568604%,2.349854%,2.349854%);fill-opacity:1;" d="M 252.707031 206.089844 L 251.867188 206.089844 C 251.867188 220.296875 246.109375 233.148438 236.804688 242.457031 C 227.496094 251.761719 214.640625 257.519531 200.445312 257.519531 C 186.238281 257.519531 173.386719 251.761719 164.074219 242.457031 C 154.769531 233.148438 149.015625 220.296875 149.015625 206.089844 C 149.015625 191.886719 154.769531 179.035156 164.074219 169.726562 C 173.386719 160.417969 186.238281 154.664062 200.445312 154.664062 C 214.640625 154.664062 227.496094 160.417969 236.804688 169.726562 C 246.109375 179.035156 251.867188 191.886719 251.867188 206.089844 L 253.546875 206.089844 C 253.546875 176.761719 229.765625 152.988281 200.445312 152.988281 C 171.109375 152.988281 147.339844 176.761719 147.339844 206.089844 C 147.339844 235.421875 171.109375 259.195312 200.445312 259.195312 C 229.765625 259.195312 253.546875 235.421875 253.546875 206.089844 L 252.707031 206.089844 "/><path style=" stroke:none;fill-rule:nonzero;fill:rgb(94.898987%,94.898987%,94.119263%);fill-opacity:1;" d="M 304.832031 140.136719 C 304.832031 144.949219 300.933594 148.847656 296.121094 148.847656 L 277.867188 148.847656 C 273.054688 148.847656 269.160156 144.949219 269.160156 140.136719 C 269.160156 135.328125 273.054688 131.425781 277.867188 131.425781 L 296.121094 131.425781 C 300.933594 131.425781 304.832031 135.328125 304.832031 140.136719 "/><path style=" stroke:none;fill-rule:nonzero;fill:rgb(1.568604%,2.349854%,2.349854%);fill-opacity:1;" d="M 304.832031 140.136719 L 303.992188 140.136719 C 303.992188 142.3125 303.113281 144.277344 301.6875 145.703125 C 300.261719 147.128906 298.300781 148.007812 296.121094 148.007812 L 277.867188 148.007812 C 275.691406 148.007812 273.730469 147.128906 272.304688 145.703125 C 270.875 144.277344 269.996094 142.3125 269.996094 140.136719 C 269.996094 137.960938 270.875 136 272.304688 134.574219 C 273.730469 133.144531 275.691406 132.265625 277.867188 132.265625 L 296.121094 132.265625 C 298.300781 132.265625 300.261719 133.144531 301.6875 134.574219 C 303.113281 136 303.992188 137.960938 303.992188 140.136719 L 305.667969 140.136719 C 305.667969 134.863281 301.394531 130.585938 296.121094 130.585938 L 277.867188 130.585938 C 272.59375 130.589844 268.320312 134.863281 268.320312 140.136719 C 268.320312 145.414062 272.59375 149.683594 277.867188 149.683594 L 296.121094 149.683594 C 301.394531 149.683594 305.667969 145.414062 305.667969 140.136719 L 304.832031 140.136719 "/><path style=" stroke:none;fill-rule:nonzero;fill:rgb(95.689392%,52.159119%,9.01947%);fill-opacity:1;" d="M 149.972656 134.328125 C 149.972656 136.851562 148.066406 138.890625 145.707031 138.890625 L 114.695312 138.890625 C 112.339844 138.890625 110.429688 136.851562 110.429688 134.328125 C 110.429688 131.808594 112.339844 129.765625 114.695312 129.765625 L 145.707031 129.765625 C 148.066406 129.765625 149.972656 131.808594 149.972656 134.328125 "/><path style=" stroke:none;fill-rule:nonzero;fill:rgb(1.568604%,2.349854%,2.349854%);fill-opacity:1;" d="M 149.972656 134.328125 L 149.136719 134.328125 C 149.136719 135.375 148.742188 136.316406 148.113281 136.984375 C 147.484375 137.652344 146.644531 138.050781 145.707031 138.054688 L 114.695312 138.054688 C 113.761719 138.050781 112.921875 137.652344 112.292969 136.984375 C 111.664062 136.316406 111.269531 135.375 111.269531 134.328125 C 111.269531 133.285156 111.664062 132.347656 112.292969 131.675781 C 112.921875 131.003906 113.761719 130.609375 114.695312 130.605469 L 145.707031 130.605469 C 146.640625 130.609375 147.484375 131.003906 148.113281 131.675781 C 148.742188 132.347656 149.136719 133.28125 149.136719 134.328125 L 150.816406 134.328125 C 150.816406 132.855469 150.257812 131.511719 149.339844 130.53125 C 148.425781 129.550781 147.136719 128.929688 145.707031 128.929688 L 114.695312 128.929688 C 113.273438 128.929688 111.980469 129.550781 111.066406 130.53125 C 110.152344 131.511719 109.59375 132.855469 109.59375 134.328125 C 109.59375 135.804688 110.152344 137.148438 111.066406 138.128906 C 111.980469 139.109375 113.273438 139.730469 114.695312 139.730469 L 145.707031 139.730469 C 147.136719 139.730469 148.425781 139.109375 149.339844 138.128906 C 150.257812 137.148438 150.816406 135.804688 150.816406 134.328125 L 149.972656 134.328125 "/><path style=" stroke:none;fill-rule:nonzero;fill:rgb(74.508667%,10.978699%,18.03894%);fill-opacity:1;" d="M 128.542969 150.230469 C 128.542969 154.585938 125.015625 158.113281 120.664062 158.113281 C 116.308594 158.113281 112.78125 154.585938 112.78125 150.230469 C 112.78125 145.878906 116.308594 142.351562 120.664062 142.351562 C 125.015625 142.351562 128.542969 145.878906 128.542969 150.230469 "/><path style=" stroke:none;fill-rule:nonzero;fill:rgb(1.568604%,2.349854%,2.349854%);fill-opacity:1;" d="M 128.542969 150.230469 L 127.703125 150.230469 C 127.703125 152.179688 126.917969 153.933594 125.640625 155.210938 C 124.363281 156.488281 122.609375 157.273438 120.664062 157.273438 C 118.714844 157.273438 116.960938 156.488281 115.683594 155.210938 C 114.40625 153.933594 113.621094 152.175781 113.621094 150.230469 C 113.621094 148.285156 114.40625 146.527344 115.683594 145.253906 C 116.960938 143.972656 118.714844 143.1875 120.664062 143.1875 C 122.609375 143.1875 124.363281 143.972656 125.640625 145.253906 C 126.917969 146.527344 127.703125 148.285156 127.703125 150.230469 L 129.382812 150.230469 C 129.378906 145.417969 125.480469 141.511719 120.664062 141.511719 C 115.847656 141.511719 111.941406 145.417969 111.941406 150.230469 C 111.941406 155.046875 115.847656 158.949219 120.664062 158.949219 C 125.480469 158.949219 129.378906 155.046875 129.382812 150.230469 L 128.542969 150.230469 "/></g></svg>