<svg xmlns="http://www.w3.org/2000/svg" xmlns:xlink="http://www.w3.org/1999/xlink" width="500" zoomAndPan="magnify" viewBox="0 0 375 374.999991" height="500" preserveAspectRatio="xMidYMid meet" version="1.0"><path fill="#ff7b85" d="M 81.40625 327.234375 L 230.007812 297.230469 C 238.214844 295.570312 243.527344 287.574219 241.871094 279.367188 L 190.257812 23.769531 C 188.597656 15.5625 180.605469 10.253906 172.398438 11.910156 L 23.792969 41.917969 C 15.585938 43.574219 10.277344 51.570312 11.933594 59.777344 L 63.546875 315.375 C 65.203125 323.582031 73.199219 328.890625 81.40625 327.234375 " fill-opacity="1" fill-rule="nonzero"/><path fill="#ffb3b9" d="M 91.421875 306.375 C 88.765625 306.375 86.167969 305.597656 83.902344 304.09375 C 80.867188 302.078125 78.796875 299 78.078125 295.429688 L 33.066406 72.523438 C 31.578125 65.148438 36.367188 57.9375 43.738281 56.449219 L 65.0625 52.144531 L 67.460938 64.03125 L 46.140625 68.335938 C 45.324219 68.503906 44.789062 69.300781 44.957031 70.121094 L 89.964844 293.027344 C 90.128906 293.847656 90.929688 294.378906 91.75 294.214844 L 107.507812 291.03125 L 109.90625 302.921875 L 94.152344 306.101562 C 93.242188 306.285156 92.328125 306.375 91.421875 306.375 " fill-opacity="1" fill-rule="nonzero"/><path fill="#ffb3b9" d="M 79.585938 61.582031 L 77.1875 49.695312 L 159.648438 33.042969 C 167.027344 31.554688 174.234375 36.34375 175.726562 43.714844 L 177.828125 54.121094 L 165.9375 56.519531 L 163.835938 46.117188 C 163.671875 45.296875 162.871094 44.769531 162.050781 44.933594 L 79.585938 61.582031 " fill-opacity="1" fill-rule="nonzero"/><path fill="#ffb3b9" d="M 91.234375 176.90625 C 101.207031 226.082031 127.972656 262.195312 151.019531 257.5625 C 174.070312 252.929688 184.667969 209.304688 174.695312 160.125 C 164.722656 110.949219 137.957031 74.835938 114.910156 79.46875 C 91.859375 84.105469 81.261719 127.730469 91.234375 176.90625 " fill-opacity="1" fill-rule="nonzero"/><path fill="#f5f5f5" d="M 205.722656 42.449219 C 197.636719 40.28125 189.324219 45.082031 187.15625 53.167969 L 119.667969 305.039062 C 117.5 313.128906 122.300781 321.4375 130.390625 323.605469 L 276.824219 362.847656 C 284.910156 365.011719 293.226562 360.214844 295.394531 352.125 L 362.878906 100.253906 C 365.046875 92.167969 360.246094 83.851562 352.160156 81.683594 L 205.722656 42.449219 " fill-opacity="1" fill-rule="nonzero"/><path fill="#ff5a67" d="M 230.285156 243.648438 L 207.699219 187.371094 L 255.398438 149.929688 L 277.988281 206.207031 L 230.285156 243.648438 " fill-opacity="1" fill-rule="nonzero"/><path fill="#ff5a67" d="M 219.949219 71.371094 L 203.523438 85.804688 L 210.53125 106.515625 L 226.953125 92.085938 L 219.949219 71.371094 " fill-opacity="1" fill-rule="nonzero"/><path fill="#ff5a67" d="M 272.019531 298.777344 L 255.59375 313.210938 L 262.601562 333.921875 L 279.023438 319.488281 L 272.019531 298.777344 " fill-opacity="1" fill-rule="nonzero"/></svg>