<?xml version="1.0" encoding="UTF-8"?><svg xmlns="http://www.w3.org/2000/svg" xmlns:xlink="http://www.w3.org/1999/xlink" width="375pt" zoomAndPan="magnify" viewBox="0 0 375 374.999991" height="374.999991pt" preserveAspectRatio="xMidYMid meet" version="1.2"><defs><clipPath xml:id="clip1" id="clip1"><path d="M 32.882812 28.269531 L 341.882812 28.269531 L 341.882812 337.269531 L 32.882812 337.269531 Z M 32.882812 28.269531 "/></clipPath></defs><g xml:id="surface1" id="surface1"><rect x="0" width="375" y="0" height="374.999991" style="fill:rgb(100%,100%,100%);fill-opacity:1;stroke:none;"/><rect x="0" width="375" y="0" height="374.999991" style="fill:rgb(100%,100%,100%);fill-opacity:1;stroke:none;"/><rect x="0" width="375" y="0" height="374.999991" style="fill:rgb(74.119568%,87.449646%,75.289917%);fill-opacity:1;stroke:none;"/><g clip-rule="nonzero" clip-path="url(#clip1)"><path style=" stroke:none;fill-rule:nonzero;fill:rgb(12.159729%,10.5896%,10.5896%);fill-opacity:1;" d="M 257.878906 299.503906 L 248.332031 283.105469 C 247.707031 282.027344 246.332031 281.667969 245.257812 282.289062 C 244.183594 282.914062 243.820312 284.292969 244.445312 285.367188 L 253.976562 301.75 C 235.480469 312.148438 214.335938 318.347656 191.824219 319.082031 L 191.824219 286.671875 C 191.824219 284.191406 189.808594 282.175781 187.324219 282.175781 C 184.84375 282.175781 182.828125 284.191406 182.828125 286.671875 L 182.828125 319.082031 C 160.175781 318.34375 138.910156 312.070312 120.328125 301.554688 L 129.910156 285.199219 C 130.535156 284.128906 130.175781 282.75 129.101562 282.121094 C 128.03125 281.496094 126.652344 281.851562 126.023438 282.929688 L 116.4375 299.300781 C 97.695312 287.863281 81.914062 272.039062 70.527344 253.261719 L 86.929688 243.722656 C 88.003906 243.097656 88.367188 241.71875 87.742188 240.644531 C 87.113281 239.566406 85.738281 239.207031 84.667969 239.832031 L 68.285156 249.367188 C 57.886719 230.867188 51.683594 209.71875 50.953125 187.207031 L 83.355469 187.207031 C 85.84375 187.207031 87.855469 185.191406 87.855469 182.710938 C 87.855469 180.226562 85.84375 178.210938 83.355469 178.210938 L 50.953125 178.210938 C 51.691406 155.558594 57.964844 134.296875 68.480469 115.71875 L 84.835938 125.292969 C 85.191406 125.503906 85.582031 125.601562 85.96875 125.601562 C 86.742188 125.601562 87.492188 125.203125 87.910156 124.492188 C 88.539062 123.421875 88.179688 122.042969 87.105469 121.414062 L 70.734375 111.820312 C 82.167969 93.082031 97.996094 77.296875 116.773438 65.910156 L 126.316406 82.316406 C 126.734375 83.03125 127.484375 83.433594 128.261719 83.433594 C 128.644531 83.433594 129.035156 83.335938 129.390625 83.128906 C 130.464844 82.503906 130.828125 81.128906 130.203125 80.054688 L 120.667969 63.667969 C 139.167969 53.269531 160.316406 47.066406 182.828125 46.335938 L 182.828125 78.746094 C 182.828125 81.230469 184.84375 83.242188 187.324219 83.242188 C 189.808594 83.242188 191.824219 81.230469 191.824219 78.746094 L 191.824219 46.335938 C 214.476562 47.074219 235.738281 53.347656 254.320312 63.863281 L 244.742188 80.21875 C 244.117188 81.289062 244.472656 82.667969 245.546875 83.292969 C 245.902344 83.503906 246.289062 83.601562 246.675781 83.601562 C 247.453125 83.601562 248.203125 83.203125 248.621094 82.488281 L 258.214844 66.117188 C 276.953125 77.554688 292.738281 93.382812 304.125 112.15625 L 287.722656 121.703125 C 286.644531 122.324219 286.28125 123.703125 286.90625 124.773438 C 287.324219 125.492188 288.078125 125.890625 288.851562 125.890625 C 289.234375 125.890625 289.625 125.792969 289.980469 125.585938 L 306.367188 116.058594 C 316.765625 134.554688 322.964844 155.699219 323.699219 178.210938 L 291.289062 178.210938 C 288.804688 178.210938 286.792969 180.226562 286.792969 182.710938 C 286.792969 185.191406 288.804688 187.207031 291.289062 187.207031 L 323.699219 187.207031 C 322.960938 209.859375 316.6875 231.125 306.171875 249.707031 L 289.8125 240.125 C 288.746094 239.492188 287.367188 239.855469 286.738281 240.929688 C 286.113281 242 286.472656 243.378906 287.546875 244.007812 L 303.917969 253.597656 C 292.480469 272.339844 276.652344 288.121094 257.878906 299.503906 Z M 187.324219 28.230469 C 102.144531 28.230469 32.847656 97.53125 32.847656 182.710938 C 32.847656 267.890625 102.144531 337.1875 187.324219 337.1875 C 272.503906 337.1875 341.804688 267.890625 341.804688 182.710938 C 341.804688 97.53125 272.503906 28.230469 187.324219 28.230469 "/></g><path style=" stroke:none;fill-rule:nonzero;fill:rgb(12.159729%,10.5896%,10.5896%);fill-opacity:1;" d="M 256.003906 216.28125 C 255.453125 215.039062 253.636719 215.195312 253.3125 216.519531 L 251.664062 223.1875 L 198.335938 185.054688 C 198.5 184.296875 198.589844 183.519531 198.589844 182.710938 C 198.589844 178.085938 195.804688 174.125 191.824219 172.386719 L 191.824219 126.417969 L 197.0625 128.921875 C 198.289062 129.507812 199.5625 128.210938 198.953125 126.996094 L 188.601562 106.285156 C 188.074219 105.234375 186.574219 105.234375 186.046875 106.285156 L 175.691406 126.996094 C 175.085938 128.210938 176.359375 129.507812 177.585938 128.921875 L 182.828125 126.417969 L 182.828125 172.386719 C 178.847656 174.125 176.054688 178.085938 176.054688 182.710938 C 176.054688 188.933594 181.101562 193.976562 187.324219 193.976562 C 189.4375 193.976562 191.390625 193.359375 193.074219 192.351562 L 245.152344 229.589844 L 240.933594 231.558594 C 239.707031 232.132812 239.898438 233.9375 241.21875 234.242188 L 263.792969 239.40625 C 264.933594 239.667969 265.890625 238.507812 265.410156 237.4375 L 256.003906 216.28125 "/></g></svg>