<svg xmlns="http://www.w3.org/2000/svg" viewBox="0 0 337.15 53.81"><defs><style>.cls-1{isolation:isolate;}.cls-2{fill:#4634d0;}.cls-3{fill:#199bfc;}.cls-4{mix-blend-mode:multiply;}.cls-5{fill:#2ad5d9;}</style></defs><title>DFS_Logo_Full Color_Artboard 10White</title><g class="cls-1"><g id="Layer_1" data-name="Layer 1"><path class="cls-2" d="M118.69,40a6.7,6.7,0,0,1-4.11,1.37,6.94,6.94,0,1,1,0-13.88,6.67,6.67,0,0,1,4,1.32V23.87a1.5,1.5,0,1,1,3,0V39.6a1.54,1.54,0,0,1-1.5,1.65C119.47,41.25,118.91,40.92,118.69,40Zm-4.11-1.59a4,4,0,1,0-4-4A3.93,3.93,0,0,0,114.58,38.39Z"/><path class="cls-2" d="M130.18,30.54c-.38,0-.3-.05-.84-.05a2.54,2.54,0,0,0-2.63,2.82v5.41c0,1.31-.3,2.53-1.46,2.53s-1.53-.76-1.53-2.1V29.6c0-1.21.38-2,1.45-2,.84,0,1.24.56,1.43,1.43a4.61,4.61,0,0,1,3.26-1.48c1.21,0,2,.72,2,1.39A1.47,1.47,0,0,1,130.18,30.54Z"/><path class="cls-2" d="M131.74,34.39a6.92,6.92,0,0,1,7-6.92c3.5,0,6.87,2.91,6.87,6.43a1.57,1.57,0,0,1-1.46,1.56h-8.28a8.89,8.89,0,0,0-.92.06,4,4,0,0,0,3.79,3A6,6,0,0,0,142,37.35a1.29,1.29,0,0,1,.68-.27A1.27,1.27,0,0,1,144,38.34c0,1.91-3.45,3-5.28,3A6.93,6.93,0,0,1,131.74,34.39ZM135,33.12a6.83,6.83,0,0,0,.8.06h5.84c.3,0,.54,0,.81,0a3.93,3.93,0,0,0-7.45,0Z"/><path class="cls-2" d="M159.31,27.77c.83,0,1.29.81,1.29,2.2v8.91c0,1-.19,2.23-1.26,2.23A1.44,1.44,0,0,1,157.78,40a7,7,0,1,1,0-11.11A1.37,1.37,0,0,1,159.31,27.77Zm-5.65,10.62a4,4,0,1,0-4-4A3.92,3.92,0,0,0,153.66,38.39Z"/><path class="cls-2" d="M171.44,33.39a3,3,0,0,0-3-3,2.7,2.7,0,0,0-3,2.8v5.68c0,1.26-.32,2.34-1.45,2.34s-1.45-.89-1.53-2.37v-9c0-1.21.27-2.34,1.5-2.34a1.41,1.41,0,0,1,1.3.88,5.25,5.25,0,0,1,3.12-.94,6,6,0,0,1,4.46,1.8,6,6,0,0,1,4.44-1.8,5.6,5.6,0,0,1,5.95,5.73v5.68c0,1.34-.33,2.37-1.48,2.37s-1.51-1-1.51-2.34V33.39a3,3,0,0,0-5.95-.21v5.7c0,1.45-.32,2.37-1.42,2.37a1.5,1.5,0,0,1-1.51-1.65Z"/><path class="cls-2" d="M189.11,41.35c-2.55,0-4.35-1.34-4.35-2.69a1.26,1.26,0,0,1,1.34-1.26c1.19,0,1.64,1.21,3.12,1.21,1,0,1.48-.54,1.48-1.08s-.37-1.07-1.77-1.8l-1.27-.64c-2.07-1.05-2.77-2.26-2.77-3.85,0-1.91,1.72-3.74,4.49-3.74s4.07,1.77,4.07,2.58a1.22,1.22,0,0,1-1.32,1.21c-1.08,0-1.72-.94-3.07-.94a1,1,0,0,0-1.05.92c0,.56.3.86,1.45,1.53l.33.19c.43.27,1,.48,1.42.75,2,1.1,2.56,2.42,2.56,3.77C193.77,39.44,192.24,41.35,189.11,41.35Z"/><path class="cls-3" d="M197.53,26.29a3.86,3.86,0,0,1,3.93-4.14h.19c2.23,0,3.71,1.69,3.71,2.79a1.2,1.2,0,0,1-1.21,1.19c-1.1-.06-1.24-1.35-2.34-1.4h-.16c-.7,0-1.13.46-1.13,1.72V27.8h2.61c1.08,0,1.86.34,1.86,1.39,0,.89-.7,1.3-1.86,1.3h-2.61v8.6c0,1.29-.46,2.21-1.48,2.21-1.18,0-1.51-.89-1.51-2.21v-8.6h-1c-1.13,0-2-.35-2-1.38s.78-1.31,2-1.31h1Z"/><path class="cls-3" d="M211.71,27.47a6.94,6.94,0,1,1-7,6.92A6.91,6.91,0,0,1,211.71,27.47Zm0,10.9a4,4,0,1,0-4-4A3.93,3.93,0,0,0,211.71,38.37Z"/><path class="cls-3" d="M226.56,30.54c-.38,0-.3-.05-.83-.05a2.55,2.55,0,0,0-2.64,2.82v5.41c0,1.31-.3,2.53-1.45,2.53s-1.54-.76-1.54-2.1V29.6c0-1.21.38-2,1.46-2,.83,0,1.23.56,1.42,1.43a4.61,4.61,0,0,1,3.26-1.48c1.21,0,2,.72,2,1.39A1.47,1.47,0,0,1,226.56,30.54Z"/><path class="cls-2" d="M233.71,41.35c-2.55,0-4.35-1.34-4.35-2.69a1.26,1.26,0,0,1,1.34-1.26c1.19,0,1.64,1.21,3.12,1.21,1,0,1.48-.54,1.48-1.08s-.37-1.07-1.77-1.8l-1.27-.64c-2.07-1.05-2.77-2.26-2.77-3.85,0-1.91,1.72-3.74,4.49-3.74s4.07,1.77,4.07,2.58a1.22,1.22,0,0,1-1.32,1.21c-1.08,0-1.72-.94-3.07-.94a1,1,0,0,0-1,.92c0,.56.3.86,1.45,1.53l.33.19c.43.27,1,.48,1.42.75,2.05,1.1,2.56,2.42,2.56,3.77C238.37,39.44,236.84,41.35,233.71,41.35Z"/><path class="cls-2" d="M249.48,36.83c.38-.43,1.24-1.26,1.77-1.26A1.39,1.39,0,0,1,252.6,37a1.57,1.57,0,0,1-.11.53,6.79,6.79,0,0,1-6.16,3.82,6.94,6.94,0,1,1,0-13.88A7.31,7.31,0,0,1,252,30.4a1.57,1.57,0,0,1,.33,1,1.33,1.33,0,0,1-1.38,1.32,2.52,2.52,0,0,1-1.07-.48,4.41,4.41,0,0,0-3.47-1.75,4,4,0,1,0,0,7.91A4.05,4.05,0,0,0,249.48,36.83Z"/><path class="cls-2" d="M253.75,24.3c0-1.08.27-2.1,1.51-2.1,1.08,0,1.45.81,1.45,2.07v4a5.74,5.74,0,0,1,2.94-.81,5.6,5.6,0,0,1,5.94,5.73v5.95c0,1.15-.48,2.1-1.45,2.1-1.24,0-1.51-1.19-1.51-2.51v-5a3.09,3.09,0,0,0-3-3.36,2.74,2.74,0,0,0-3,2.91V39.6a1.52,1.52,0,0,1-1.5,1.65.86.86,0,0,1-.41-.09h-.05a.85.85,0,0,1-.54-.29l-.08-.08a1.52,1.52,0,0,1-.38-1.1Z"/><path class="cls-2" d="M274,27.47a6.94,6.94,0,1,1-7,6.92A6.92,6.92,0,0,1,274,27.47Zm0,10.9a4,4,0,1,0-4-4A3.93,3.93,0,0,0,274,38.37Z"/><path class="cls-2" d="M289.48,27.47a6.94,6.94,0,1,1-7,6.92A6.91,6.91,0,0,1,289.48,27.47Zm0,10.9a4,4,0,1,0-4-4A3.93,3.93,0,0,0,289.48,38.37Z"/><path class="cls-2" d="M297.76,23.87a1.51,1.51,0,0,1,1.51-1.67,1.49,1.49,0,0,1,1.45,1.67V39.6a1.49,1.49,0,0,1-1.45,1.65,1.51,1.51,0,0,1-1.51-1.65Z"/><path class="cls-2" d="M307.1,41.35c-2.56,0-4.36-1.34-4.36-2.69a1.26,1.26,0,0,1,1.34-1.26c1.19,0,1.64,1.21,3.12,1.21,1,0,1.48-.54,1.48-1.08s-.37-1.07-1.77-1.8l-1.27-.64c-2.07-1.05-2.77-2.26-2.77-3.85,0-1.91,1.72-3.74,4.5-3.74s4.06,1.77,4.06,2.58a1.22,1.22,0,0,1-1.32,1.21c-1.08,0-1.72-.94-3.07-.94a1,1,0,0,0-1.05.92c0,.56.3.86,1.46,1.53l.32.19c.43.27,1,.48,1.42.75,2.05,1.1,2.56,2.42,2.56,3.77C311.75,39.44,310.22,41.35,307.1,41.35Z"/><g class="cls-4"><path class="cls-2" d="M89.63,41.33a1.51,1.51,0,0,1-1.06-.44,1.49,1.49,0,0,1,0-2.12l8.93-8.93A1.5,1.5,0,1,1,99.62,32l-8.93,8.93A1.51,1.51,0,0,1,89.63,41.33Z"/></g><g class="cls-4"><path class="cls-5" d="M98.56,32.4A1.45,1.45,0,0,1,97.5,32L88.57,23a1.5,1.5,0,0,1,2.12-2.12l8.93,8.92a1.51,1.51,0,0,1,0,2.12A1.48,1.48,0,0,1,98.56,32.4Z"/></g><g class="cls-4"><path class="cls-2" d="M26.9,32.4A1.48,1.48,0,0,1,25.84,32a1.51,1.51,0,0,1,0-2.12l8.93-8.92A1.5,1.5,0,0,1,36.89,23L28,32A1.45,1.45,0,0,1,26.9,32.4Z"/></g><g class="cls-4"><path class="cls-5" d="M35.83,41.33a1.49,1.49,0,0,1-1.06-.44L25.84,32A1.5,1.5,0,1,1,28,29.84l8.93,8.93a1.49,1.49,0,0,1,0,2.12A1.51,1.51,0,0,1,35.83,41.33Z"/></g><g class="cls-4"><path class="cls-3" d="M77.43,41.14H49.85a1.5,1.5,0,0,1,0-3H77.43a1.5,1.5,0,0,1,0,3Z"/></g><g class="cls-4"><path class="cls-2" d="M49.76,41a9.54,9.54,0,1,1,0-19.07,1.5,1.5,0,0,1,0,3,6.54,6.54,0,1,0,0,13.07,1.5,1.5,0,0,1,0,3Z"/></g><g class="cls-4"><path class="cls-2" d="M77.33,41a1.5,1.5,0,0,1,0-3,4.18,4.18,0,1,0,0-8.35,1.5,1.5,0,0,1,0-3,7.18,7.18,0,1,1,0,14.35Z"/></g><g class="cls-4"><path class="cls-3" d="M77.37,29.57a1.5,1.5,0,0,1-1.5-1.5,12.61,12.61,0,0,0-25.22,0,1.5,1.5,0,0,1-3,0,15.61,15.61,0,0,1,31.22,0A1.5,1.5,0,0,1,77.37,29.57Z"/></g></g></g></svg>