<svg xmlns="http://www.w3.org/2000/svg" xmlns:xlink="http://www.w3.org/1999/xlink" width="500" zoomAndPan="magnify" viewBox="0 0 375 374.999991" height="500" preserveAspectRatio="xMidYMid meet" version="1.0"><defs><clipPath id="e845e9598e"><path d="M 12 19.414062 L 362.953125 19.414062 L 362.953125 355.414062 L 12 355.414062 Z M 12 19.414062 " clip-rule="nonzero"/></clipPath></defs><g clip-path="url(#e845e9598e)"><path fill="#000000" d="M 349.890625 86.539062 L 351.570312 84.84375 C 358.816406 77.617188 362.789062 68.003906 362.789062 57.769531 C 362.789062 36.664062 345.613281 19.507812 324.488281 19.507812 C 314.265625 19.507812 304.652344 23.492188 297.421875 30.722656 L 273.859375 54.277344 L 156.171875 64.089844 L 64.527344 48.816406 C 60.597656 48.074219 56.828125 50.804688 56.140625 54.746094 L 12.320312 303.015625 C 11.980469 304.925781 12.421875 306.898438 13.546875 308.492188 C 14.671875 310.082031 16.382812 311.160156 18.308594 311.484375 L 83.867188 322.410156 L 85.269531 348.492188 C 85.382812 350.488281 86.304688 352.359375 87.839844 353.660156 C 89.167969 354.785156 90.835938 355.398438 92.554688 355.398438 C 92.832031 355.398438 93.097656 355.382812 93.363281 355.351562 L 206.277344 342.808594 L 281.238281 355.296875 C 281.648438 355.371094 282.058594 355.398438 282.449219 355.398438 C 285.945312 355.398438 289.027344 352.898438 289.625 349.351562 L 292.472656 333.230469 L 356.289062 326.132812 C 360.148438 325.707031 362.996094 322.335938 362.777344 318.464844 Z M 282.449219 66.359375 L 315.929688 99.828125 L 213.285156 202.449219 C 210.90625 196.433594 206.945312 189.265625 199.949219 182.28125 C 192.984375 175.316406 185.824219 171.34375 179.808594 168.976562 Z M 200.988281 211.226562 L 161.019531 221.230469 L 171.027344 181.273438 C 175.746094 182.644531 182.726562 185.683594 189.636719 192.605469 C 196.558594 199.527344 199.613281 206.523438 200.988281 211.226562 Z M 257.867188 70.273438 L 248.648438 79.484375 L 214.816406 73.863281 Z M 99.4375 339.992188 L 98.617188 324.863281 L 153.382812 333.988281 Z M 276.503906 339.683594 L 27.980469 298.28125 L 69.261719 64.398438 L 235.953125 92.175781 L 160.421875 167.695312 C 160.335938 167.78125 160.320312 167.929688 160.25 168.015625 C 159.578125 168.761719 159.089844 169.621094 158.789062 170.613281 C 158.726562 170.789062 158.566406 170.90625 158.523438 171.082031 L 143.917969 229.496094 C 143.289062 231.996094 144.019531 234.621094 145.832031 236.433594 C 147.203125 237.804688 149.070312 238.566406 150.988281 238.566406 C 151.585938 238.566406 152.171875 238.492188 152.753906 238.332031 L 211.183594 223.730469 C 211.359375 223.6875 211.472656 223.527344 211.636719 223.464844 C 212.554688 223.15625 213.386719 222.691406 214.101562 222.078125 C 214.234375 221.960938 214.441406 221.949219 214.570312 221.8125 L 315.039062 121.371094 Z M 295.113281 318.242188 L 333.035156 103.363281 L 336.03125 100.367188 L 347.800781 312.386719 Z M 341.246094 74.519531 L 326.257812 89.503906 L 292.777344 56.03125 L 307.765625 41.035156 C 312.234375 36.550781 318.179688 34.097656 324.519531 34.097656 C 337.5625 34.097656 348.183594 44.714844 348.183594 57.785156 C 348.183594 64.109375 345.714844 70.050781 341.246094 74.519531 Z M 341.246094 74.519531 " fill-opacity="1" fill-rule="nonzero"/></g></svg>