<?xml version="1.0" encoding="UTF-8"?><svg xmlns="http://www.w3.org/2000/svg" xmlns:xlink="http://www.w3.org/1999/xlink" width="375pt" zoomAndPan="magnify" viewBox="0 0 375 374.999991" height="374.999991pt" preserveAspectRatio="xMidYMid meet" version="1.2"><defs><clipPath xml:id="clip1" id="clip1"><path d="M 116 64.296875 L 259 64.296875 L 259 267 L 116 267 Z M 116 64.296875 "/></clipPath></defs><g xml:id="surface1" id="surface1"><rect x="0" width="375" y="0" height="374.999991" style="fill:rgb(100%,100%,100%);fill-opacity:1;stroke:none;"/><rect x="0" width="375" y="0" height="374.999991" style="fill:rgb(100%,100%,100%);fill-opacity:1;stroke:none;"/><rect x="0" width="375" y="0" height="374.999991" style="fill:rgb(72.938538%,87.059021%,97.24884%);fill-opacity:1;stroke:none;"/><path style=" stroke:none;fill-rule:nonzero;fill:rgb(98.039246%,96.078491%,35.289001%);fill-opacity:1;" d="M 293.585938 295.976562 C 288.707031 306.464844 276.261719 311.003906 265.789062 306.113281 L 175.695312 264.023438 C 165.226562 259.136719 160.695312 246.667969 165.578125 236.183594 L 232.980469 91.382812 C 237.863281 80.898438 250.308594 76.359375 260.773438 81.25 L 350.875 123.335938 C 361.34375 128.226562 365.871094 140.691406 360.992188 151.179688 L 293.585938 295.976562 "/><path style=" stroke:none;fill-rule:nonzero;fill:rgb(100%,100%,100%);fill-opacity:1;" d="M 247.347656 88.074219 C 247.203125 87.421875 247.613281 86.773438 248.265625 86.628906 C 249.730469 86.304688 251.234375 86.132812 252.75 86.132812 C 252.957031 86.132812 253.167969 86.140625 253.371094 86.144531 C 254.042969 86.164062 254.566406 86.722656 254.546875 87.394531 C 254.527344 88.0625 253.96875 88.589844 253.300781 88.566406 C 253.113281 88.5625 252.933594 88.558594 252.75 88.558594 C 251.414062 88.558594 250.085938 88.707031 248.792969 88.996094 C 248.703125 89.015625 248.617188 89.023438 248.527344 89.023438 C 247.972656 89.023438 247.476562 88.640625 247.347656 88.074219 Z M 262.074219 91.035156 L 260.441406 90.277344 C 259.5625 89.867188 258.671875 89.535156 257.773438 89.273438 C 257.128906 89.085938 256.757812 88.414062 256.945312 87.773438 C 257.128906 87.128906 257.800781 86.753906 258.445312 86.941406 C 259.464844 87.238281 260.472656 87.613281 261.464844 88.078125 L 263.097656 88.84375 C 263.699219 89.125 263.960938 89.847656 263.679688 90.453125 C 263.476562 90.894531 263.039062 91.152344 262.582031 91.152344 C 262.414062 91.152344 262.238281 91.117188 262.074219 91.035156 Z M 239.054688 92.925781 C 238.617188 92.417969 238.671875 91.65625 239.179688 91.214844 C 240.480469 90.078125 241.914062 89.121094 243.4375 88.351562 C 244.03125 88.054688 244.761719 88.292969 245.0625 88.894531 C 245.363281 89.488281 245.125 90.21875 244.527344 90.519531 C 243.183594 91.199219 241.914062 92.042969 240.765625 93.046875 C 240.535156 93.246094 240.253906 93.34375 239.972656 93.34375 C 239.632812 93.34375 239.296875 93.203125 239.054688 92.925781 Z M 270.847656 95.136719 L 266.457031 93.089844 C 265.855469 92.804688 265.589844 92.085938 265.875 91.476562 C 266.160156 90.871094 266.878906 90.605469 267.480469 90.886719 L 271.871094 92.941406 C 272.476562 93.222656 272.738281 93.945312 272.457031 94.550781 C 272.25 94.992188 271.816406 95.253906 271.359375 95.253906 C 271.1875 95.253906 271.011719 95.214844 270.847656 95.136719 Z M 279.625 99.238281 L 275.238281 97.1875 C 274.632812 96.902344 274.371094 96.183594 274.648438 95.578125 C 274.933594 94.96875 275.652344 94.707031 276.261719 94.988281 L 280.648438 97.039062 C 281.25 97.320312 281.515625 98.042969 281.234375 98.648438 C 281.027344 99.09375 280.59375 99.351562 280.136719 99.351562 C 279.964844 99.351562 279.792969 99.3125 279.625 99.238281 Z M 233.953125 101.101562 C 233.347656 100.816406 233.082031 100.097656 233.367188 99.488281 L 234.019531 98.085938 C 234.519531 97.007812 235.101562 95.996094 235.753906 95.046875 C 236.136719 94.496094 236.890625 94.359375 237.4375 94.738281 C 237.992188 95.121094 238.128906 95.875 237.746094 96.421875 C 237.171875 97.261719 236.65625 98.15625 236.214844 99.109375 L 235.558594 100.511719 C 235.355469 100.953125 234.917969 101.214844 234.460938 101.214844 C 234.289062 101.214844 234.117188 101.179688 233.953125 101.101562 Z M 288.398438 103.335938 L 284.011719 101.285156 C 283.40625 101.003906 283.144531 100.28125 283.425781 99.675781 C 283.710938 99.070312 284.429688 98.804688 285.035156 99.089844 L 289.425781 101.136719 C 290.03125 101.421875 290.292969 102.140625 290.011719 102.75 C 289.804688 103.191406 289.367188 103.449219 288.910156 103.449219 C 288.742188 103.449219 288.566406 103.414062 288.398438 103.335938 Z M 297.175781 107.4375 L 292.789062 105.386719 C 292.183594 105.105469 291.921875 104.382812 292.203125 103.773438 C 292.484375 103.167969 293.207031 102.90625 293.8125 103.191406 L 298.199219 105.238281 C 298.804688 105.519531 299.066406 106.242188 298.785156 106.851562 C 298.582031 107.292969 298.144531 107.550781 297.6875 107.550781 C 297.515625 107.550781 297.34375 107.511719 297.175781 107.4375 Z M 229.859375 109.890625 C 229.253906 109.609375 228.992188 108.886719 229.269531 108.28125 L 231.316406 103.886719 C 231.601562 103.277344 232.324219 103.015625 232.929688 103.296875 C 233.53125 103.582031 233.796875 104.300781 233.515625 104.90625 L 231.46875 109.304688 C 231.261719 109.746094 230.824219 110.003906 230.367188 110.003906 C 230.199219 110.003906 230.023438 109.96875 229.859375 109.890625 Z M 305.953125 111.535156 L 301.5625 109.488281 C 300.957031 109.207031 300.695312 108.480469 300.980469 107.875 C 301.261719 107.265625 301.984375 107.003906 302.589844 107.289062 L 306.976562 109.339844 C 307.582031 109.621094 307.84375 110.34375 307.5625 110.949219 C 307.359375 111.390625 306.917969 111.648438 306.460938 111.648438 C 306.292969 111.648438 306.117188 111.613281 305.953125 111.535156 Z M 314.730469 115.636719 L 310.339844 113.585938 C 309.738281 113.300781 309.472656 112.582031 309.757812 111.972656 C 310.035156 111.367188 310.757812 111.101562 311.367188 111.386719 L 315.75 113.4375 C 316.355469 113.722656 316.621094 114.441406 316.339844 115.046875 C 316.132812 115.488281 315.695312 115.75 315.238281 115.75 C 315.066406 115.75 314.894531 115.714844 314.730469 115.636719 Z M 225.765625 118.683594 C 225.160156 118.402344 224.894531 117.675781 225.179688 117.070312 L 227.230469 112.675781 C 227.507812 112.070312 228.226562 111.808594 228.835938 112.089844 C 229.441406 112.371094 229.703125 113.09375 229.421875 113.699219 L 227.375 118.097656 C 227.167969 118.535156 226.734375 118.796875 226.277344 118.796875 C 226.101562 118.796875 225.929688 118.761719 225.765625 118.683594 Z M 323.507812 119.734375 L 319.113281 117.683594 C 318.511719 117.402344 318.25 116.679688 318.53125 116.074219 C 318.8125 115.46875 319.535156 115.203125 320.140625 115.484375 L 324.527344 117.535156 C 325.132812 117.820312 325.398438 118.542969 325.117188 119.148438 C 324.910156 119.589844 324.472656 119.851562 324.015625 119.851562 C 323.847656 119.851562 323.671875 119.8125 323.507812 119.734375 Z M 332.28125 123.835938 L 327.894531 121.78125 C 327.289062 121.5 327.027344 120.777344 327.308594 120.171875 C 327.589844 119.566406 328.308594 119.304688 328.914062 119.589844 L 333.304688 121.632812 C 333.910156 121.917969 334.171875 122.640625 333.894531 123.246094 C 333.683594 123.691406 333.25 123.945312 332.792969 123.945312 C 332.621094 123.945312 332.449219 123.910156 332.28125 123.835938 Z M 221.675781 127.472656 C 221.066406 127.191406 220.808594 126.46875 221.089844 125.863281 L 223.136719 121.464844 C 223.417969 120.859375 224.136719 120.597656 224.746094 120.878906 C 225.351562 121.164062 225.613281 121.886719 225.328125 122.492188 L 223.28125 126.886719 C 223.078125 127.328125 222.640625 127.585938 222.183594 127.585938 C 222.011719 127.585938 221.839844 127.550781 221.675781 127.472656 Z M 341.058594 127.933594 L 336.667969 125.882812 C 336.066406 125.601562 335.804688 124.878906 336.082031 124.269531 C 336.367188 123.664062 337.089844 123.402344 337.695312 123.6875 L 342.082031 125.734375 C 342.6875 126.015625 342.949219 126.738281 342.667969 127.347656 C 342.464844 127.789062 342.023438 128.046875 341.566406 128.046875 C 341.398438 128.046875 341.226562 128.011719 341.058594 127.933594 Z M 349 132.664062 C 347.921875 131.644531 346.699219 130.742188 345.347656 129.988281 C 344.761719 129.660156 344.554688 128.925781 344.878906 128.339844 C 345.203125 127.753906 345.9375 127.542969 346.523438 127.867188 C 348.050781 128.71875 349.4375 129.742188 350.664062 130.902344 C 351.152344 131.363281 351.171875 132.128906 350.710938 132.617188 C 350.476562 132.867188 350.15625 132.996094 349.832031 132.996094 C 349.535156 132.996094 349.238281 132.886719 349 132.664062 Z M 217.578125 136.265625 C 216.976562 135.980469 216.714844 135.257812 216.992188 134.652344 L 219.042969 130.257812 C 219.324219 129.652344 220.042969 129.390625 220.648438 129.671875 C 221.257812 129.953125 221.519531 130.675781 221.238281 131.285156 L 219.191406 135.679688 C 218.984375 136.121094 218.546875 136.378906 218.089844 136.378906 C 217.921875 136.378906 217.746094 136.34375 217.578125 136.265625 Z M 353.808594 140.273438 C 353.339844 138.832031 352.691406 137.453125 351.878906 136.167969 L 351.882812 136.167969 C 351.523438 135.601562 351.691406 134.851562 352.257812 134.496094 C 352.820312 134.136719 353.570312 134.304688 353.929688 134.871094 C 354.84375 136.328125 355.578125 137.890625 356.113281 139.519531 C 356.316406 140.15625 355.96875 140.84375 355.335938 141.046875 C 355.210938 141.089844 355.085938 141.109375 354.957031 141.109375 C 354.453125 141.109375 353.976562 140.785156 353.808594 140.273438 Z M 213.488281 145.058594 C 212.882812 144.773438 212.621094 144.054688 212.90625 143.445312 L 214.949219 139.046875 C 215.230469 138.441406 215.953125 138.179688 216.558594 138.464844 C 217.164062 138.746094 217.425781 139.46875 217.144531 140.074219 L 215.097656 144.46875 C 214.894531 144.914062 214.457031 145.171875 214 145.171875 C 213.828125 145.171875 213.65625 145.132812 213.488281 145.058594 Z M 355.382812 150.664062 C 354.726562 150.542969 354.292969 149.910156 354.414062 149.25 C 354.613281 148.15625 354.714844 147.054688 354.714844 145.957031 C 354.714844 145.546875 354.699219 145.136719 354.675781 144.726562 C 354.628906 144.054688 355.132812 143.480469 355.800781 143.433594 C 356.464844 143.390625 357.042969 143.890625 357.089844 144.5625 C 357.121094 145.027344 357.132812 145.488281 357.136719 145.957031 C 357.136719 147.199219 357.023438 148.449219 356.796875 149.691406 C 356.6875 150.277344 356.179688 150.6875 355.605469 150.6875 C 355.53125 150.6875 355.457031 150.679688 355.382812 150.664062 Z M 209.398438 153.847656 C 208.792969 153.5625 208.53125 152.84375 208.808594 152.238281 L 210.859375 147.839844 C 211.140625 147.234375 211.863281 146.972656 212.46875 147.253906 C 213.070312 147.535156 213.332031 148.257812 213.054688 148.867188 L 211.003906 153.261719 C 210.800781 153.703125 210.363281 153.960938 209.90625 153.960938 C 209.738281 153.960938 209.5625 153.925781 209.398438 153.847656 Z M 351.585938 159.578125 C 350.980469 159.296875 350.71875 158.574219 351 157.964844 L 353.003906 153.660156 C 353.015625 153.632812 353.03125 153.605469 353.042969 153.578125 C 353.324219 152.96875 354.042969 152.703125 354.648438 152.984375 C 355.253906 153.261719 355.523438 153.980469 355.242188 154.589844 C 355.226562 154.621094 355.214844 154.652344 355.199219 154.6875 L 353.195312 158.992188 C 352.988281 159.433594 352.554688 159.691406 352.097656 159.691406 C 351.921875 159.691406 351.75 159.660156 351.585938 159.578125 Z M 205.304688 162.640625 C 204.699219 162.359375 204.4375 161.636719 204.71875 161.027344 L 206.765625 156.632812 C 207.046875 156.027344 207.769531 155.765625 208.375 156.046875 C 208.980469 156.332031 209.242188 157.050781 208.957031 157.65625 L 206.914062 162.050781 C 206.707031 162.492188 206.269531 162.757812 205.816406 162.757812 C 205.640625 162.757812 205.46875 162.71875 205.304688 162.640625 Z M 347.496094 168.371094 C 346.890625 168.089844 346.628906 167.367188 346.90625 166.757812 L 348.953125 162.363281 C 349.234375 161.753906 349.957031 161.492188 350.566406 161.777344 C 351.167969 162.058594 351.429688 162.78125 351.148438 163.386719 L 349.101562 167.78125 C 348.898438 168.226562 348.457031 168.484375 348.003906 168.484375 C 347.832031 168.484375 347.660156 168.449219 347.496094 168.371094 Z M 201.210938 171.429688 C 200.605469 171.148438 200.34375 170.425781 200.625 169.820312 L 202.671875 165.425781 C 202.957031 164.816406 203.675781 164.554688 204.28125 164.835938 C 204.886719 165.121094 205.148438 165.839844 204.867188 166.449219 L 202.820312 170.847656 C 202.617188 171.285156 202.179688 171.546875 201.722656 171.546875 C 201.550781 171.546875 201.378906 171.507812 201.210938 171.429688 Z M 343.398438 177.160156 C 342.792969 176.878906 342.53125 176.15625 342.8125 175.546875 L 344.863281 171.15625 C 345.144531 170.546875 345.863281 170.285156 346.46875 170.566406 C 347.074219 170.847656 347.335938 171.570312 347.054688 172.179688 L 345.011719 176.574219 C 344.800781 177.015625 344.367188 177.273438 343.910156 177.273438 C 343.738281 177.273438 343.566406 177.238281 343.398438 177.160156 Z M 197.117188 180.222656 C 196.515625 179.941406 196.253906 179.214844 196.535156 178.609375 L 198.578125 174.214844 C 198.863281 173.609375 199.582031 173.347656 200.1875 173.628906 C 200.792969 173.910156 201.054688 174.636719 200.777344 175.242188 L 198.730469 179.636719 C 198.523438 180.074219 198.085938 180.335938 197.628906 180.335938 C 197.460938 180.335938 197.285156 180.300781 197.117188 180.222656 Z M 339.308594 185.953125 C 338.703125 185.667969 338.441406 184.949219 338.722656 184.339844 L 340.769531 179.945312 C 341.050781 179.339844 341.773438 179.074219 342.378906 179.359375 C 342.984375 179.640625 343.246094 180.363281 342.964844 180.96875 L 340.914062 185.363281 C 340.710938 185.804688 340.277344 186.066406 339.820312 186.066406 C 339.648438 186.066406 339.476562 186.03125 339.308594 185.953125 Z M 193.027344 189.015625 C 192.421875 188.730469 192.160156 188.007812 192.441406 187.402344 L 194.488281 183.003906 C 194.769531 182.398438 195.488281 182.136719 196.097656 182.421875 C 196.703125 182.703125 196.964844 183.425781 196.679688 184.03125 L 194.636719 188.425781 C 194.429688 188.871094 193.992188 189.128906 193.539062 189.128906 C 193.363281 189.128906 193.191406 189.089844 193.027344 189.015625 Z M 335.214844 194.742188 C 334.613281 194.457031 334.347656 193.738281 334.628906 193.128906 L 336.675781 188.734375 C 336.960938 188.128906 337.679688 187.867188 338.285156 188.148438 C 338.890625 188.433594 339.152344 189.152344 338.875 189.761719 L 336.824219 194.15625 C 336.621094 194.597656 336.179688 194.855469 335.722656 194.855469 C 335.554688 194.855469 335.378906 194.820312 335.214844 194.742188 Z M 188.9375 197.804688 C 188.332031 197.519531 188.066406 196.796875 188.347656 196.191406 L 190.394531 191.796875 C 190.679688 191.191406 191.398438 190.929688 192.003906 191.210938 C 192.609375 191.492188 192.871094 192.214844 192.589844 192.824219 L 190.542969 197.21875 C 190.339844 197.660156 189.898438 197.917969 189.445312 197.917969 C 189.273438 197.917969 189.101562 197.882812 188.9375 197.804688 Z M 331.125 203.535156 C 330.515625 203.25 330.253906 202.53125 330.539062 201.921875 L 332.585938 197.527344 C 332.867188 196.921875 333.585938 196.660156 334.191406 196.941406 C 334.796875 197.222656 335.0625 197.945312 334.777344 198.554688 L 332.734375 202.949219 C 332.523438 203.386719 332.089844 203.648438 331.632812 203.648438 C 331.460938 203.648438 331.289062 203.613281 331.125 203.535156 Z M 184.84375 206.597656 C 184.234375 206.3125 183.972656 205.59375 184.257812 204.984375 L 186.304688 200.585938 C 186.585938 199.980469 187.304688 199.71875 187.910156 200 C 188.515625 200.285156 188.777344 201.007812 188.496094 201.613281 L 186.453125 206.007812 C 186.246094 206.449219 185.808594 206.710938 185.351562 206.710938 C 185.179688 206.710938 185.007812 206.671875 184.84375 206.597656 Z M 327.03125 212.324219 C 326.425781 212.042969 326.164062 211.324219 326.445312 210.714844 L 328.488281 206.320312 C 328.773438 205.710938 329.496094 205.449219 330.101562 205.730469 C 330.707031 206.015625 330.96875 206.734375 330.6875 207.34375 L 328.640625 211.738281 C 328.433594 212.183594 328 212.441406 327.539062 212.441406 C 327.371094 212.441406 327.199219 212.402344 327.03125 212.324219 Z M 180.75 215.386719 C 180.144531 215.101562 179.882812 214.382812 180.167969 213.777344 L 182.210938 209.382812 C 182.492188 208.773438 183.214844 208.511719 183.820312 208.792969 C 184.425781 209.078125 184.6875 209.796875 184.40625 210.40625 L 182.355469 214.800781 C 182.152344 215.242188 181.71875 215.5 181.261719 215.5 C 181.089844 215.5 180.917969 215.464844 180.75 215.386719 Z M 322.9375 221.113281 C 322.332031 220.835938 322.070312 220.113281 322.351562 219.503906 L 324.398438 215.109375 C 324.683594 214.503906 325.402344 214.242188 326.007812 214.523438 C 326.609375 214.804688 326.875 215.527344 326.59375 216.136719 L 324.546875 220.53125 C 324.339844 220.972656 323.90625 221.230469 323.449219 221.230469 C 323.277344 221.230469 323.101562 221.195312 322.9375 221.113281 Z M 176.65625 224.179688 C 176.054688 223.898438 175.792969 223.175781 176.070312 222.566406 L 178.117188 218.171875 C 178.402344 217.566406 179.121094 217.304688 179.726562 217.585938 C 180.332031 217.867188 180.59375 218.589844 180.316406 219.199219 L 178.265625 223.59375 C 178.0625 224.035156 177.625 224.292969 177.167969 224.292969 C 177 224.292969 176.820312 224.257812 176.65625 224.179688 Z M 318.847656 229.910156 C 318.238281 229.625 317.976562 228.90625 318.261719 228.296875 L 320.308594 223.902344 C 320.589844 223.292969 321.308594 223.03125 321.914062 223.316406 C 322.523438 223.597656 322.78125 224.320312 322.5 224.925781 L 320.453125 229.320312 C 320.246094 229.765625 319.8125 230.023438 319.355469 230.023438 C 319.183594 230.023438 319.011719 229.988281 318.847656 229.910156 Z M 172.566406 232.96875 C 171.960938 232.6875 171.695312 231.964844 171.980469 231.359375 L 174.027344 226.964844 C 174.308594 226.355469 175.027344 226.09375 175.632812 226.375 C 176.238281 226.660156 176.503906 227.378906 176.21875 227.988281 L 174.175781 232.382812 C 173.96875 232.828125 173.535156 233.085938 173.078125 233.085938 C 172.902344 233.085938 172.730469 233.046875 172.566406 232.96875 Z M 314.753906 238.699219 C 314.148438 238.417969 313.886719 237.695312 314.167969 237.089844 L 316.214844 232.695312 C 316.496094 232.085938 317.21875 231.824219 317.824219 232.105469 C 318.429688 232.386719 318.691406 233.109375 318.410156 233.71875 L 316.363281 238.113281 C 316.15625 238.554688 315.71875 238.8125 315.261719 238.8125 C 315.09375 238.8125 314.917969 238.777344 314.753906 238.699219 Z M 170.625 242.378906 C 169.957031 242.367188 169.421875 241.824219 169.429688 241.152344 C 169.449219 239.453125 169.679688 237.746094 170.132812 236.058594 C 170.304688 235.414062 170.972656 235.03125 171.617188 235.203125 C 172.261719 235.378906 172.640625 236.042969 172.472656 236.691406 C 172.070312 238.179688 171.867188 239.683594 171.851562 241.183594 C 171.839844 241.84375 171.300781 242.378906 170.640625 242.378906 C 170.632812 242.378906 170.632812 242.378906 170.625 242.378906 Z M 310.660156 247.492188 C 310.054688 247.210938 309.792969 246.488281 310.074219 245.878906 L 312.121094 241.484375 C 312.402344 240.878906 313.121094 240.613281 313.726562 240.898438 C 314.335938 241.183594 314.597656 241.902344 314.316406 242.507812 L 312.273438 246.90625 C 312.0625 247.34375 311.625 247.609375 311.167969 247.609375 C 311 247.609375 310.824219 247.570312 310.660156 247.492188 Z M 171.816406 251.066406 C 171.019531 249.542969 170.40625 247.925781 170.007812 246.257812 C 169.847656 245.605469 170.25 244.953125 170.898438 244.792969 C 171.546875 244.636719 172.199219 245.039062 172.359375 245.6875 C 172.714844 247.164062 173.25 248.589844 173.957031 249.933594 L 173.960938 249.933594 C 174.273438 250.523438 174.042969 251.257812 173.453125 251.570312 C 173.273438 251.664062 173.078125 251.710938 172.886719 251.710938 C 172.453125 251.710938 172.03125 251.476562 171.816406 251.066406 Z M 306.570312 256.28125 C 305.964844 256 305.699219 255.277344 305.984375 254.671875 L 308.027344 250.277344 C 308.3125 249.667969 309.035156 249.40625 309.640625 249.6875 C 310.246094 249.972656 310.507812 250.691406 310.222656 251.300781 L 308.175781 255.699219 C 307.972656 256.136719 307.535156 256.398438 307.078125 256.398438 C 306.90625 256.398438 306.734375 256.359375 306.570312 256.28125 Z M 178.636719 258.632812 C 177.179688 257.667969 175.882812 256.539062 174.75 255.28125 C 174.304688 254.78125 174.339844 254.015625 174.839844 253.566406 C 175.335938 253.117188 176.101562 253.160156 176.546875 253.65625 C 177.546875 254.765625 178.695312 255.765625 179.976562 256.617188 C 180.53125 256.984375 180.683594 257.738281 180.316406 258.296875 C 180.082031 258.648438 179.695312 258.839844 179.304688 258.839844 C 179.074219 258.839844 178.84375 258.773438 178.636719 258.632812 Z M 187.46875 263.015625 L 183.078125 260.96875 C 182.472656 260.6875 182.210938 259.964844 182.496094 259.355469 C 182.777344 258.75 183.5 258.488281 184.101562 258.769531 L 188.492188 260.820312 C 189.097656 261.101562 189.359375 261.824219 189.078125 262.433594 C 188.871094 262.871094 188.433594 263.128906 187.976562 263.128906 C 187.808594 263.128906 187.632812 263.097656 187.46875 263.015625 Z M 302.476562 265.074219 C 301.871094 264.792969 301.609375 264.070312 301.886719 263.460938 L 303.9375 259.066406 C 304.21875 258.460938 304.941406 258.199219 305.546875 258.480469 C 306.148438 258.761719 306.410156 259.488281 306.132812 260.09375 L 304.085938 264.488281 C 303.878906 264.929688 303.441406 265.1875 302.984375 265.1875 C 302.816406 265.1875 302.640625 265.152344 302.476562 265.074219 Z M 196.242188 267.117188 L 191.855469 265.066406 C 191.25 264.785156 190.988281 264.0625 191.269531 263.457031 C 191.550781 262.847656 192.273438 262.585938 192.878906 262.867188 L 197.265625 264.921875 C 197.871094 265.203125 198.132812 265.925781 197.851562 266.53125 C 197.644531 266.972656 197.210938 267.230469 196.753906 267.230469 C 196.582031 267.230469 196.410156 267.195312 196.242188 267.117188 Z M 205.019531 271.21875 L 200.628906 269.167969 C 200.027344 268.882812 199.761719 268.164062 200.042969 267.558594 C 200.328125 266.949219 201.050781 266.6875 201.65625 266.96875 L 206.042969 269.019531 C 206.648438 269.304688 206.910156 270.023438 206.628906 270.632812 C 206.425781 271.070312 205.984375 271.332031 205.527344 271.332031 C 205.355469 271.332031 205.183594 271.296875 205.019531 271.21875 Z M 298.382812 273.867188 C 297.777344 273.582031 297.515625 272.863281 297.796875 272.257812 L 299.84375 267.859375 C 300.128906 267.25 300.847656 266.988281 301.453125 267.269531 C 302.058594 267.554688 302.320312 268.277344 302.039062 268.882812 L 299.992188 273.277344 C 299.789062 273.722656 299.351562 273.980469 298.894531 273.980469 C 298.722656 273.980469 298.550781 273.941406 298.382812 273.867188 Z M 213.796875 275.320312 L 209.40625 273.265625 C 208.804688 272.980469 208.539062 272.261719 208.820312 271.65625 C 209.105469 271.050781 209.824219 270.785156 210.429688 271.070312 L 214.820312 273.117188 C 215.421875 273.402344 215.683594 274.125 215.40625 274.730469 C 215.199219 275.171875 214.761719 275.433594 214.308594 275.433594 C 214.132812 275.433594 213.960938 275.394531 213.796875 275.320312 Z M 222.574219 279.414062 L 218.183594 277.367188 C 217.578125 277.085938 217.316406 276.359375 217.597656 275.753906 C 217.882812 275.148438 218.601562 274.886719 219.207031 275.171875 L 223.59375 277.214844 C 224.199219 277.5 224.460938 278.222656 224.179688 278.832031 C 223.976562 279.273438 223.539062 279.53125 223.082031 279.53125 C 222.910156 279.53125 222.738281 279.492188 222.574219 279.414062 Z M 294.292969 282.65625 C 293.6875 282.375 293.425781 281.652344 293.707031 281.046875 L 295.75 276.652344 C 296.035156 276.042969 296.753906 275.78125 297.363281 276.0625 C 297.964844 276.347656 298.230469 277.066406 297.949219 277.675781 L 295.898438 282.074219 C 295.695312 282.511719 295.257812 282.769531 294.800781 282.769531 C 294.628906 282.769531 294.457031 282.734375 294.292969 282.65625 Z M 231.347656 283.515625 L 226.960938 281.46875 C 226.355469 281.183594 226.09375 280.460938 226.375 279.851562 C 226.65625 279.246094 227.378906 278.984375 227.984375 279.269531 L 232.375 281.320312 C 232.976562 281.601562 233.238281 282.324219 232.957031 282.933594 C 232.75 283.371094 232.316406 283.628906 231.859375 283.628906 C 231.6875 283.628906 231.511719 283.59375 231.347656 283.515625 Z M 240.125 287.613281 L 235.738281 285.566406 C 235.132812 285.28125 234.871094 284.5625 235.148438 283.953125 C 235.433594 283.347656 236.15625 283.082031 236.761719 283.367188 L 241.148438 285.417969 C 241.753906 285.703125 242.015625 286.421875 241.734375 287.027344 C 241.527344 287.46875 241.09375 287.726562 240.636719 287.726562 C 240.464844 287.726562 240.292969 287.695312 240.125 287.613281 Z M 248.898438 291.714844 L 244.511719 289.667969 C 243.90625 289.382812 243.644531 288.660156 243.925781 288.054688 C 244.210938 287.449219 244.929688 287.183594 245.535156 287.464844 L 249.925781 289.519531 C 250.53125 289.800781 250.792969 290.523438 250.511719 291.128906 C 250.304688 291.570312 249.867188 291.832031 249.410156 291.832031 C 249.242188 291.832031 249.066406 291.792969 248.898438 291.714844 Z M 288.121094 293.800781 C 287.597656 293.378906 287.523438 292.613281 287.945312 292.09375 C 288.882812 290.945312 289.695312 289.660156 290.351562 288.253906 L 291.660156 285.441406 C 291.941406 284.835938 292.660156 284.570312 293.265625 284.855469 C 293.871094 285.140625 294.132812 285.859375 293.851562 286.46875 L 292.546875 289.277344 C 291.804688 290.867188 290.882812 292.324219 289.820312 293.625 C 289.582031 293.921875 289.234375 294.074219 288.882812 294.074219 C 288.613281 294.074219 288.34375 293.988281 288.121094 293.800781 Z M 257.675781 295.816406 L 253.289062 293.765625 C 252.683594 293.480469 252.421875 292.761719 252.703125 292.152344 C 252.984375 291.546875 253.707031 291.285156 254.3125 291.566406 L 258.699219 293.617188 C 259.304688 293.898438 259.566406 294.621094 259.285156 295.226562 C 259.082031 295.667969 258.644531 295.929688 258.1875 295.929688 C 258.015625 295.929688 257.84375 295.890625 257.675781 295.816406 Z M 280.054688 299.019531 C 279.800781 298.402344 280.097656 297.695312 280.714844 297.441406 C 282.113281 296.871094 283.441406 296.125 284.667969 295.222656 C 285.203125 294.824219 285.960938 294.941406 286.359375 295.476562 C 286.757812 296.015625 286.640625 296.773438 286.105469 297.171875 C 284.714844 298.199219 283.210938 299.042969 281.628906 299.6875 C 281.480469 299.746094 281.328125 299.773438 281.171875 299.773438 C 280.695312 299.773438 280.242188 299.492188 280.054688 299.019531 Z M 266.5625 299.898438 C 266.070312 299.710938 265.585938 299.507812 265.101562 299.28125 L 262.066406 297.863281 C 261.457031 297.582031 261.195312 296.859375 261.476562 296.253906 C 261.761719 295.648438 262.484375 295.382812 263.089844 295.667969 L 266.125 297.085938 C 266.550781 297.285156 266.980469 297.464844 267.417969 297.628906 C 268.039062 297.863281 268.359375 298.566406 268.121094 299.191406 C 267.9375 299.675781 267.480469 299.976562 266.988281 299.976562 C 266.84375 299.976562 266.703125 299.953125 266.5625 299.898438 Z M 271.550781 301.101562 C 270.886719 301.023438 270.40625 300.425781 270.480469 299.757812 C 270.550781 299.09375 271.152344 298.613281 271.816406 298.6875 C 272.484375 298.765625 273.148438 298.800781 273.816406 298.800781 C 274.664062 298.800781 275.507812 298.738281 276.34375 298.621094 C 277.003906 298.527344 277.617188 298.988281 277.710938 299.65625 C 277.804688 300.316406 277.34375 300.929688 276.679688 301.023438 C 275.734375 301.15625 274.777344 301.222656 273.816406 301.222656 C 273.0625 301.222656 272.304688 301.183594 271.550781 301.101562 "/><path style=" stroke:none;fill-rule:nonzero;fill:rgb(96.469116%,50.979614%,44.309998%);fill-opacity:1;" d="M 209.207031 236.183594 C 214.089844 246.667969 209.5625 259.136719 199.09375 264.023438 L 108.992188 306.113281 C 98.523438 311.003906 86.078125 306.464844 81.195312 295.980469 L 13.792969 151.179688 C 8.910156 140.691406 13.441406 128.226562 23.910156 123.335938 L 114.007812 81.25 C 124.476562 76.359375 136.921875 80.898438 141.804688 91.382812 L 209.207031 236.183594 "/><path style=" stroke:none;fill-rule:nonzero;fill:rgb(100%,100%,100%);fill-opacity:1;" d="M 117.4375 91.160156 C 117.328125 90.496094 117.773438 89.875 118.433594 89.765625 C 119.519531 89.582031 120.613281 89.492188 121.703125 89.492188 C 122.328125 89.492188 122.949219 89.519531 123.570312 89.582031 C 124.234375 89.644531 124.726562 90.234375 124.664062 90.902344 C 124.597656 91.566406 124.011719 92.058594 123.339844 91.992188 C 122.800781 91.941406 122.25 91.917969 121.703125 91.917969 C 120.746094 91.917969 119.785156 91.996094 118.828125 92.15625 C 118.761719 92.167969 118.695312 92.171875 118.628906 92.171875 C 118.046875 92.171875 117.535156 91.75 117.4375 91.160156 Z M 131.765625 95.070312 C 130.519531 94.207031 129.167969 93.507812 127.75 92.992188 C 127.121094 92.761719 126.800781 92.066406 127.03125 91.4375 C 127.257812 90.804688 127.953125 90.484375 128.582031 90.714844 C 130.191406 91.300781 131.722656 92.09375 133.140625 93.078125 C 133.691406 93.457031 133.828125 94.214844 133.449219 94.765625 C 133.210938 95.105469 132.835938 95.285156 132.453125 95.285156 C 132.214844 95.285156 131.976562 95.21875 131.765625 95.070312 Z M 108.523438 94.921875 C 108.238281 94.3125 108.503906 93.59375 109.109375 93.308594 L 113.246094 91.378906 C 113.332031 91.335938 113.425781 91.296875 113.511719 91.257812 C 114.121094 90.984375 114.839844 91.253906 115.113281 91.863281 C 115.390625 92.476562 115.113281 93.195312 114.507812 93.46875 C 114.425781 93.503906 114.34375 93.539062 114.269531 93.574219 L 110.132812 95.507812 C 109.96875 95.585938 109.792969 95.625 109.621094 95.625 C 109.167969 95.621094 108.726562 95.363281 108.523438 94.921875 Z M 99.746094 99.023438 C 99.464844 98.417969 99.726562 97.691406 100.332031 97.410156 L 104.722656 95.359375 C 105.328125 95.078125 106.046875 95.339844 106.328125 95.945312 C 106.613281 96.554688 106.347656 97.277344 105.742188 97.558594 L 101.355469 99.609375 C 101.191406 99.683594 101.015625 99.722656 100.84375 99.722656 C 100.386719 99.722656 99.953125 99.460938 99.746094 99.023438 Z M 137.578125 101.898438 C 136.902344 100.496094 136.074219 99.234375 135.113281 98.101562 C 134.675781 97.59375 134.738281 96.832031 135.246094 96.394531 C 135.753906 95.960938 136.519531 96.019531 136.957031 96.53125 C 138.046875 97.8125 138.992188 99.257812 139.757812 100.84375 C 140.050781 101.449219 139.796875 102.171875 139.195312 102.460938 C 139.023438 102.542969 138.84375 102.585938 138.667969 102.585938 C 138.21875 102.585938 137.789062 102.332031 137.578125 101.898438 Z M 90.96875 103.121094 C 90.6875 102.515625 90.949219 101.792969 91.554688 101.511719 L 95.945312 99.457031 C 96.550781 99.175781 97.269531 99.441406 97.554688 100.046875 C 97.835938 100.65625 97.574219 101.375 96.96875 101.660156 L 92.578125 103.707031 C 92.414062 103.785156 92.238281 103.820312 92.070312 103.820312 C 91.613281 103.820312 91.175781 103.5625 90.96875 103.121094 Z M 82.191406 107.21875 C 81.914062 106.613281 82.175781 105.894531 82.78125 105.609375 L 87.167969 103.558594 C 87.777344 103.277344 88.496094 103.539062 88.773438 104.148438 C 89.058594 104.753906 88.796875 105.472656 88.191406 105.757812 L 83.804688 107.808594 C 83.636719 107.886719 83.464844 107.921875 83.292969 107.921875 C 82.835938 107.921875 82.398438 107.660156 82.191406 107.21875 Z M 141.664062 110.675781 L 139.621094 106.277344 C 139.335938 105.671875 139.601562 104.949219 140.207031 104.664062 C 140.8125 104.382812 141.53125 104.644531 141.8125 105.253906 L 143.859375 109.648438 C 144.144531 110.253906 143.878906 110.976562 143.273438 111.261719 C 143.109375 111.335938 142.9375 111.375 142.761719 111.375 C 142.308594 111.375 141.871094 111.117188 141.664062 110.675781 Z M 73.417969 111.320312 C 73.132812 110.710938 73.398438 109.992188 74.003906 109.710938 L 78.390625 107.660156 C 78.996094 107.375 79.71875 107.640625 80 108.246094 C 80.28125 108.851562 80.019531 109.574219 79.414062 109.859375 L 75.027344 111.910156 C 74.859375 111.984375 74.6875 112.019531 74.515625 112.019531 C 74.058594 112.019531 73.621094 111.761719 73.417969 111.320312 Z M 64.640625 115.421875 C 64.359375 114.8125 64.621094 114.09375 65.226562 113.804688 L 69.617188 111.757812 C 70.222656 111.476562 70.941406 111.738281 71.222656 112.34375 C 71.507812 112.949219 71.242188 113.671875 70.636719 113.957031 L 66.25 116.007812 C 66.085938 116.082031 65.910156 116.121094 65.738281 116.121094 C 65.285156 116.121094 64.847656 115.863281 64.640625 115.421875 Z M 145.757812 119.464844 L 143.710938 115.070312 C 143.425781 114.464844 143.691406 113.738281 144.296875 113.457031 C 144.902344 113.175781 145.625 113.4375 145.90625 114.042969 L 147.949219 118.4375 C 148.234375 119.042969 147.972656 119.769531 147.363281 120.050781 C 147.199219 120.128906 147.027344 120.164062 146.855469 120.164062 C 146.398438 120.164062 145.960938 119.90625 145.757812 119.464844 Z M 55.867188 119.519531 C 55.582031 118.914062 55.847656 118.191406 56.453125 117.90625 L 60.839844 115.859375 C 61.445312 115.574219 62.167969 115.835938 62.449219 116.445312 C 62.730469 117.050781 62.464844 117.777344 61.863281 118.054688 L 57.472656 120.105469 C 57.308594 120.183594 57.132812 120.21875 56.960938 120.21875 C 56.503906 120.21875 56.070312 119.960938 55.867188 119.519531 Z M 47.089844 123.621094 C 46.804688 123.011719 47.066406 122.289062 47.671875 122.007812 L 52.0625 119.957031 C 52.667969 119.675781 53.386719 119.9375 53.671875 120.542969 C 53.953125 121.152344 53.691406 121.875 53.085938 122.15625 L 48.699219 124.207031 C 48.535156 124.285156 48.359375 124.316406 48.1875 124.316406 C 47.734375 124.316406 47.296875 124.058594 47.089844 123.621094 Z M 38.3125 127.71875 C 38.03125 127.109375 38.292969 126.390625 38.898438 126.109375 L 43.285156 124.058594 C 43.890625 123.773438 44.613281 124.035156 44.894531 124.644531 C 45.179688 125.25 44.914062 125.972656 44.308594 126.257812 L 39.921875 128.304688 C 39.753906 128.382812 39.582031 128.417969 39.410156 128.417969 C 38.953125 128.417969 38.515625 128.160156 38.3125 127.71875 Z M 149.847656 128.253906 L 147.804688 123.859375 C 147.519531 123.253906 147.785156 122.53125 148.390625 122.25 C 148.996094 121.964844 149.714844 122.226562 150 122.835938 L 152.046875 127.230469 C 152.328125 127.839844 152.066406 128.558594 151.460938 128.84375 C 151.292969 128.917969 151.117188 128.957031 150.949219 128.957031 C 150.492188 128.957031 150.054688 128.699219 149.847656 128.253906 Z M 29.664062 132.058594 C 29.3125 131.488281 29.488281 130.742188 30.054688 130.390625 C 30.722656 129.976562 31.421875 129.601562 32.144531 129.261719 L 34.511719 128.15625 C 35.113281 127.875 35.835938 128.136719 36.121094 128.742188 C 36.402344 129.347656 36.140625 130.070312 35.535156 130.355469 L 33.167969 131.460938 C 32.527344 131.757812 31.914062 132.089844 31.328125 132.453125 C 31.128906 132.574219 30.910156 132.632812 30.691406 132.632812 C 30.289062 132.632812 29.890625 132.429688 29.664062 132.058594 Z M 153.941406 137.046875 L 151.894531 132.652344 C 151.613281 132.042969 151.875 131.320312 152.480469 131.039062 C 153.085938 130.757812 153.808594 131.023438 154.089844 131.628906 L 156.136719 136.023438 C 156.417969 136.628906 156.15625 137.351562 155.550781 137.632812 C 155.386719 137.710938 155.210938 137.746094 155.039062 137.746094 C 154.582031 137.746094 154.148438 137.488281 153.941406 137.046875 Z M 23.523438 139.441406 C 22.9375 139.121094 22.722656 138.386719 23.042969 137.796875 C 23.863281 136.296875 24.875 134.894531 26.066406 133.640625 C 26.527344 133.152344 27.292969 133.132812 27.78125 133.59375 C 28.265625 134.054688 28.289062 134.820312 27.828125 135.308594 C 26.78125 136.410156 25.886719 137.644531 25.167969 138.964844 C 24.945312 139.363281 24.53125 139.589844 24.105469 139.589844 C 23.910156 139.589844 23.707031 139.542969 23.523438 139.441406 Z M 158.035156 145.835938 L 155.988281 141.441406 C 155.707031 140.835938 155.96875 140.117188 156.570312 139.832031 C 157.179688 139.550781 157.902344 139.8125 158.183594 140.417969 L 160.230469 144.8125 C 160.511719 145.421875 160.246094 146.144531 159.640625 146.425781 C 159.480469 146.503906 159.304688 146.539062 159.132812 146.539062 C 158.679688 146.539062 158.238281 146.28125 158.035156 145.835938 Z M 20.570312 147.699219 C 20.570312 147.621094 20.570312 147.542969 20.570312 147.464844 C 20.570312 145.808594 20.777344 144.171875 21.171875 142.589844 C 21.332031 141.941406 21.992188 141.542969 22.636719 141.707031 C 23.289062 141.867188 23.683594 142.527344 23.519531 143.179688 C 23.171875 144.570312 22.992188 146.011719 22.992188 147.464844 C 22.992188 147.53125 22.992188 147.601562 22.996094 147.671875 C 23 148.339844 22.464844 148.890625 21.796875 148.898438 C 21.792969 148.898438 21.789062 148.898438 21.78125 148.898438 C 21.121094 148.898438 20.582031 148.367188 20.570312 147.699219 Z M 162.125 154.632812 L 160.082031 150.234375 C 159.796875 149.625 160.0625 148.90625 160.667969 148.621094 C 161.273438 148.339844 161.992188 148.601562 162.273438 149.210938 L 164.320312 153.605469 C 164.605469 154.214844 164.339844 154.933594 163.734375 155.214844 C 163.570312 155.292969 163.398438 155.332031 163.222656 155.332031 C 162.769531 155.332031 162.335938 155.070312 162.125 154.632812 Z M 23.171875 157.480469 L 22.453125 155.933594 C 21.976562 154.910156 21.59375 153.859375 21.300781 152.800781 C 21.121094 152.152344 21.496094 151.484375 22.140625 151.304688 C 22.785156 151.125 23.453125 151.503906 23.632812 152.152344 C 23.890625 153.082031 24.226562 154.007812 24.648438 154.914062 L 25.367188 156.457031 C 25.648438 157.0625 25.386719 157.78125 24.78125 158.066406 C 24.613281 158.144531 24.441406 158.179688 24.269531 158.179688 C 23.8125 158.179688 23.378906 157.921875 23.171875 157.480469 Z M 166.222656 163.421875 L 164.171875 159.027344 C 163.890625 158.417969 164.152344 157.699219 164.757812 157.417969 C 165.363281 157.132812 166.085938 157.394531 166.371094 158 L 168.414062 162.394531 C 168.695312 163.003906 168.433594 163.726562 167.828125 164.007812 C 167.660156 164.085938 167.488281 164.125 167.316406 164.125 C 166.859375 164.125 166.421875 163.859375 166.222656 163.421875 Z M 27.265625 166.273438 L 25.21875 161.875 C 24.9375 161.269531 25.199219 160.546875 25.804688 160.265625 C 26.410156 159.980469 27.128906 160.242188 27.410156 160.847656 L 29.457031 165.246094 C 29.742188 165.855469 29.480469 166.574219 28.875 166.859375 C 28.707031 166.9375 28.535156 166.972656 28.363281 166.972656 C 27.90625 166.972656 27.472656 166.710938 27.265625 166.273438 Z M 170.3125 172.214844 L 168.265625 167.816406 C 167.984375 167.210938 168.246094 166.488281 168.851562 166.207031 C 169.457031 165.921875 170.175781 166.183594 170.460938 166.792969 L 172.507812 171.1875 C 172.789062 171.796875 172.527344 172.515625 171.921875 172.800781 C 171.757812 172.875 171.578125 172.914062 171.410156 172.914062 C 170.953125 172.914062 170.515625 172.652344 170.3125 172.214844 Z M 31.359375 175.0625 L 29.3125 170.664062 C 29.027344 170.058594 29.292969 169.339844 29.898438 169.054688 C 30.503906 168.769531 31.222656 169.035156 31.503906 169.644531 L 33.550781 174.039062 C 33.835938 174.644531 33.574219 175.363281 32.964844 175.648438 C 32.800781 175.726562 32.628906 175.761719 32.453125 175.761719 C 31.996094 175.761719 31.5625 175.503906 31.359375 175.0625 Z M 174.402344 181.003906 L 172.359375 176.609375 C 172.074219 176.003906 172.335938 175.277344 172.941406 174.996094 C 173.550781 174.714844 174.269531 174.976562 174.550781 175.582031 L 176.597656 179.980469 C 176.878906 180.585938 176.617188 181.308594 176.011719 181.589844 C 175.847656 181.667969 175.675781 181.703125 175.5 181.703125 C 175.046875 181.703125 174.609375 181.445312 174.402344 181.003906 Z M 35.449219 183.855469 L 33.402344 179.457031 C 33.121094 178.851562 33.382812 178.128906 33.988281 177.847656 C 34.59375 177.566406 35.3125 177.828125 35.597656 178.433594 L 37.644531 182.828125 C 37.925781 183.433594 37.664062 184.160156 37.058594 184.4375 C 36.894531 184.519531 36.71875 184.554688 36.550781 184.554688 C 36.09375 184.554688 35.65625 184.296875 35.449219 183.855469 Z M 178.496094 189.792969 L 176.449219 185.398438 C 176.167969 184.792969 176.429688 184.074219 177.035156 183.789062 C 177.640625 183.507812 178.363281 183.765625 178.644531 184.375 L 180.691406 188.769531 C 180.972656 189.378906 180.710938 190.097656 180.101562 190.382812 C 179.9375 190.457031 179.765625 190.496094 179.597656 190.496094 C 179.140625 190.496094 178.699219 190.238281 178.496094 189.792969 Z M 39.539062 192.644531 L 37.496094 188.246094 C 37.214844 187.640625 37.476562 186.921875 38.082031 186.636719 C 38.6875 186.355469 39.410156 186.617188 39.6875 187.222656 L 41.734375 191.621094 C 42.019531 192.226562 41.757812 192.949219 41.152344 193.230469 C 40.988281 193.308594 40.8125 193.347656 40.640625 193.347656 C 40.1875 193.347656 39.75 193.085938 39.539062 192.644531 Z M 182.589844 198.585938 L 180.542969 194.191406 C 180.261719 193.585938 180.523438 192.863281 181.132812 192.578125 C 181.734375 192.296875 182.453125 192.558594 182.734375 193.167969 L 184.785156 197.5625 C 185.066406 198.167969 184.804688 198.886719 184.199219 199.171875 C 184.03125 199.25 183.859375 199.285156 183.6875 199.285156 C 183.230469 199.285156 182.796875 199.027344 182.589844 198.585938 Z M 43.632812 201.4375 L 41.585938 197.042969 C 41.304688 196.433594 41.566406 195.710938 42.175781 195.429688 C 42.78125 195.148438 43.5 195.410156 43.785156 196.015625 L 45.828125 200.410156 C 46.113281 201.015625 45.847656 201.738281 45.242188 202.023438 C 45.074219 202.101562 44.902344 202.136719 44.730469 202.136719 C 44.273438 202.136719 43.839844 201.878906 43.632812 201.4375 Z M 186.683594 207.375 L 184.636719 202.984375 C 184.351562 202.375 184.613281 201.652344 185.21875 201.371094 C 185.828125 201.085938 186.546875 201.351562 186.832031 201.957031 L 188.875 206.351562 C 189.15625 206.960938 188.894531 207.683594 188.292969 207.964844 C 188.125 208.042969 187.949219 208.078125 187.777344 208.078125 C 187.320312 208.078125 186.886719 207.820312 186.683594 207.375 Z M 47.726562 210.226562 L 45.679688 205.832031 C 45.398438 205.226562 45.664062 204.503906 46.265625 204.21875 C 46.871094 203.9375 47.589844 204.199219 47.875 204.804688 L 49.921875 209.203125 C 50.203125 209.8125 49.941406 210.53125 49.335938 210.816406 C 49.171875 210.890625 48.996094 210.929688 48.824219 210.929688 C 48.371094 210.929688 47.933594 210.667969 47.726562 210.226562 Z M 190.773438 216.171875 L 188.726562 211.773438 C 188.445312 211.164062 188.707031 210.445312 189.3125 210.160156 C 189.917969 209.878906 190.636719 210.140625 190.921875 210.75 L 192.96875 215.144531 C 193.25 215.753906 192.988281 216.472656 192.382812 216.757812 C 192.21875 216.832031 192.042969 216.871094 191.875 216.871094 C 191.417969 216.871094 190.976562 216.613281 190.773438 216.171875 Z M 51.820312 219.019531 L 49.773438 214.621094 C 49.488281 214.015625 49.753906 213.292969 50.359375 213.011719 C 50.964844 212.726562 51.6875 212.992188 51.964844 213.597656 L 54.015625 217.996094 C 54.296875 218.601562 54.035156 219.324219 53.429688 219.605469 C 53.261719 219.683594 53.089844 219.71875 52.914062 219.71875 C 52.460938 219.71875 52.023438 219.460938 51.820312 219.019531 Z M 194.863281 224.960938 L 192.820312 220.566406 C 192.535156 219.960938 192.800781 219.238281 193.40625 218.957031 C 194.011719 218.671875 194.730469 218.933594 195.011719 219.539062 L 197.058594 223.933594 C 197.34375 224.542969 197.082031 225.265625 196.476562 225.546875 C 196.308594 225.625 196.136719 225.660156 195.964844 225.660156 C 195.507812 225.660156 195.070312 225.398438 194.863281 224.960938 Z M 55.910156 227.8125 L 53.863281 223.417969 C 53.582031 222.808594 53.84375 222.085938 54.449219 221.804688 C 55.054688 221.519531 55.777344 221.785156 56.0625 222.390625 L 58.105469 226.785156 C 58.386719 227.390625 58.125 228.113281 57.519531 228.398438 C 57.355469 228.476562 57.179688 228.511719 57.011719 228.511719 C 56.554688 228.511719 56.117188 228.25 55.910156 227.8125 Z M 60.003906 236.601562 L 57.957031 232.207031 C 57.675781 231.597656 57.9375 230.878906 58.542969 230.59375 C 59.152344 230.308594 59.871094 230.574219 60.152344 231.179688 L 62.199219 235.578125 C 62.480469 236.183594 62.21875 236.90625 61.613281 237.1875 C 61.449219 237.265625 61.273438 237.300781 61.101562 237.300781 C 60.648438 237.300781 60.210938 237.042969 60.003906 236.601562 Z M 199.726562 236.765625 C 199.460938 235.304688 199.007812 233.859375 198.351562 232.449219 L 196.910156 229.355469 L 196.914062 229.359375 C 196.628906 228.75 196.890625 228.03125 197.496094 227.746094 C 198.101562 227.460938 198.824219 227.722656 199.105469 228.332031 L 200.546875 231.425781 C 201.289062 233.023438 201.804688 234.671875 202.105469 236.328125 C 202.226562 236.988281 201.789062 237.617188 201.132812 237.738281 C 201.058594 237.75 200.984375 237.753906 200.914062 237.753906 C 200.339844 237.753906 199.828125 237.347656 199.726562 236.765625 Z M 64.097656 245.394531 L 62.050781 240.996094 C 61.765625 240.390625 62.03125 239.667969 62.636719 239.386719 C 63.242188 239.101562 63.964844 239.367188 64.246094 239.972656 L 66.289062 244.367188 C 66.574219 244.976562 66.308594 245.695312 65.703125 245.980469 C 65.539062 246.058594 65.367188 246.09375 65.191406 246.09375 C 64.738281 246.09375 64.300781 245.832031 64.097656 245.394531 Z M 199.765625 247.253906 C 199.136719 247.03125 198.800781 246.339844 199.019531 245.710938 C 199.515625 244.285156 199.832031 242.796875 199.949219 241.28125 C 200.003906 240.613281 200.585938 240.113281 201.253906 240.167969 C 201.917969 240.21875 202.414062 240.804688 202.363281 241.472656 C 202.230469 243.195312 201.871094 244.890625 201.304688 246.507812 C 201.132812 247.007812 200.664062 247.320312 200.164062 247.320312 C 200.03125 247.320312 199.894531 247.296875 199.765625 247.253906 Z M 68.191406 254.183594 L 66.140625 249.789062 C 65.859375 249.183594 66.125 248.460938 66.726562 248.179688 C 67.332031 247.894531 68.054688 248.15625 68.339844 248.761719 L 70.386719 253.160156 C 70.664062 253.765625 70.402344 254.488281 69.796875 254.773438 C 69.632812 254.847656 69.457031 254.886719 69.289062 254.886719 C 68.832031 254.886719 68.394531 254.625 68.191406 254.183594 Z M 193.914062 254.871094 C 193.472656 254.367188 193.523438 253.601562 194.023438 253.160156 C 195.171875 252.148438 196.167969 251.003906 197.003906 249.761719 C 197.375 249.203125 198.128906 249.058594 198.683594 249.429688 C 199.238281 249.800781 199.382812 250.554688 199.011719 251.113281 C 198.066406 252.527344 196.925781 253.832031 195.625 254.980469 C 195.390625 255.183594 195.109375 255.285156 194.824219 255.285156 C 194.488281 255.285156 194.152344 255.144531 193.914062 254.871094 Z M 185.335938 259.339844 C 185.050781 258.730469 185.316406 258.007812 185.921875 257.726562 L 189.832031 255.902344 C 189.980469 255.832031 190.128906 255.761719 190.277344 255.683594 C 190.871094 255.386719 191.601562 255.628906 191.902344 256.226562 C 192.199219 256.824219 191.957031 257.554688 191.359375 257.855469 C 191.191406 257.9375 191.027344 258.019531 190.855469 258.101562 L 186.945312 259.925781 C 186.78125 260.003906 186.605469 260.039062 186.4375 260.039062 C 185.980469 260.039062 185.539062 259.78125 185.335938 259.339844 Z M 72.28125 262.976562 L 70.234375 258.582031 C 69.953125 257.972656 70.214844 257.25 70.820312 256.96875 C 71.425781 256.6875 72.148438 256.949219 72.429688 257.554688 L 74.476562 261.949219 C 74.757812 262.558594 74.496094 263.277344 73.890625 263.5625 C 73.722656 263.640625 73.550781 263.675781 73.378906 263.675781 C 72.921875 263.675781 72.484375 263.414062 72.28125 262.976562 Z M 176.558594 263.441406 C 176.277344 262.832031 176.542969 262.105469 177.148438 261.828125 L 181.535156 259.777344 C 182.140625 259.492188 182.859375 259.757812 183.140625 260.359375 C 183.425781 260.96875 183.164062 261.691406 182.558594 261.976562 L 178.167969 264.023438 C 178.003906 264.101562 177.832031 264.136719 177.660156 264.136719 C 177.203125 264.136719 176.765625 263.878906 176.558594 263.441406 Z M 167.785156 267.539062 C 167.5 266.929688 167.761719 266.210938 168.371094 265.925781 L 172.757812 263.875 C 173.363281 263.589844 174.082031 263.855469 174.367188 264.464844 C 174.648438 265.070312 174.386719 265.792969 173.785156 266.074219 L 169.390625 268.125 C 169.226562 268.203125 169.050781 268.238281 168.882812 268.238281 C 168.425781 268.238281 167.988281 267.980469 167.785156 267.539062 Z M 159.007812 271.636719 C 158.726562 271.03125 158.988281 270.308594 159.59375 270.023438 L 163.984375 267.972656 C 164.589844 267.691406 165.308594 267.957031 165.589844 268.5625 C 165.871094 269.167969 165.609375 269.890625 165.003906 270.175781 L 160.617188 272.222656 C 160.453125 272.300781 160.277344 272.339844 160.105469 272.339844 C 159.652344 272.339844 159.214844 272.074219 159.007812 271.636719 Z M 76.375 271.765625 L 74.328125 267.371094 C 74.042969 266.765625 74.304688 266.046875 74.914062 265.761719 C 75.519531 265.476562 76.238281 265.738281 76.523438 266.34375 L 78.566406 270.742188 C 78.847656 271.351562 78.585938 272.070312 77.980469 272.355469 C 77.816406 272.433594 77.644531 272.46875 77.472656 272.46875 C 77.015625 272.46875 76.578125 272.207031 76.375 271.765625 Z M 150.230469 275.738281 C 149.949219 275.128906 150.214844 274.410156 150.820312 274.125 L 155.207031 272.074219 C 155.8125 271.792969 156.53125 272.058594 156.816406 272.660156 C 157.09375 273.269531 156.832031 273.988281 156.230469 274.273438 L 151.839844 276.324219 C 151.675781 276.402344 151.5 276.4375 151.332031 276.4375 C 150.875 276.4375 150.4375 276.179688 150.230469 275.738281 Z M 141.453125 279.835938 C 141.171875 279.226562 141.433594 278.507812 142.039062 278.222656 L 146.429688 276.175781 C 147.035156 275.890625 147.753906 276.15625 148.039062 276.757812 C 148.320312 277.367188 148.058594 278.089844 147.453125 278.371094 L 143.066406 280.425781 C 142.898438 280.5 142.726562 280.539062 142.554688 280.539062 C 142.097656 280.539062 141.664062 280.28125 141.453125 279.835938 Z M 80.464844 280.5625 L 78.417969 276.164062 C 78.136719 275.554688 78.398438 274.835938 79.003906 274.550781 C 79.613281 274.265625 80.332031 274.53125 80.613281 275.140625 L 82.660156 279.535156 C 82.941406 280.140625 82.679688 280.859375 82.078125 281.148438 C 81.910156 281.222656 81.734375 281.257812 81.566406 281.257812 C 81.109375 281.257812 80.671875 281 80.464844 280.5625 Z M 132.679688 283.9375 C 132.398438 283.328125 132.660156 282.605469 133.265625 282.324219 L 137.652344 280.277344 C 138.257812 279.988281 138.980469 280.253906 139.261719 280.859375 C 139.542969 281.46875 139.28125 282.191406 138.675781 282.472656 L 134.285156 284.523438 C 134.121094 284.597656 133.949219 284.632812 133.777344 284.632812 C 133.320312 284.632812 132.882812 284.378906 132.679688 283.9375 Z M 123.902344 288.035156 C 123.621094 287.429688 123.882812 286.707031 124.488281 286.421875 L 128.878906 284.371094 C 129.480469 284.089844 130.203125 284.351562 130.484375 284.960938 C 130.769531 285.570312 130.503906 286.289062 129.898438 286.574219 L 125.511719 288.621094 C 125.347656 288.699219 125.171875 288.734375 125 288.734375 C 124.546875 288.734375 124.109375 288.476562 123.902344 288.035156 Z M 84.933594 289.390625 C 84.25 288.425781 83.644531 287.382812 83.125 286.277344 L 82.515625 284.957031 C 82.230469 284.351562 82.492188 283.625 83.097656 283.34375 C 83.703125 283.0625 84.425781 283.324219 84.707031 283.929688 L 85.320312 285.25 C 85.777344 286.230469 86.308594 287.144531 86.910156 287.992188 C 87.296875 288.542969 87.164062 289.296875 86.617188 289.683594 C 86.40625 289.835938 86.160156 289.90625 85.921875 289.90625 C 85.539062 289.90625 85.167969 289.726562 84.933594 289.390625 Z M 115.128906 292.136719 C 114.84375 291.527344 115.105469 290.808594 115.714844 290.523438 L 120.101562 288.472656 C 120.707031 288.1875 121.425781 288.453125 121.707031 289.0625 C 121.992188 289.667969 121.730469 290.390625 121.121094 290.671875 L 116.734375 292.71875 C 116.570312 292.800781 116.398438 292.835938 116.226562 292.835938 C 115.769531 292.835938 115.332031 292.574219 115.128906 292.136719 Z M 92.746094 295.949219 C 91.199219 295.21875 89.742188 294.292969 88.414062 293.179688 C 87.902344 292.75 87.835938 291.984375 88.265625 291.46875 C 88.691406 290.957031 89.457031 290.890625 89.96875 291.320312 C 91.136719 292.296875 92.414062 293.113281 93.777344 293.753906 C 94.382812 294.039062 94.640625 294.761719 94.355469 295.367188 C 94.152344 295.804688 93.71875 296.066406 93.261719 296.066406 C 93.089844 296.066406 92.914062 296.027344 92.746094 295.949219 Z M 106.261719 296.019531 C 106.046875 295.390625 106.378906 294.699219 107.011719 294.484375 C 107.589844 294.285156 108.167969 294.050781 108.730469 293.785156 L 111.324219 292.574219 C 111.929688 292.289062 112.648438 292.554688 112.933594 293.160156 C 113.21875 293.765625 112.957031 294.488281 112.351562 294.773438 L 109.753906 295.984375 C 109.113281 296.28125 108.457031 296.546875 107.800781 296.773438 C 107.671875 296.820312 107.535156 296.839844 107.40625 296.839844 C 106.90625 296.839844 106.4375 296.523438 106.261719 296.019531 Z M 97.636719 297.527344 C 96.980469 297.402344 96.546875 296.769531 96.667969 296.113281 C 96.789062 295.457031 97.421875 295.019531 98.082031 295.140625 C 99.136719 295.339844 100.214844 295.441406 101.296875 295.441406 C 101.726562 295.441406 102.160156 295.425781 102.585938 295.394531 C 103.257812 295.34375 103.835938 295.84375 103.886719 296.511719 C 103.933594 297.183594 103.433594 297.761719 102.765625 297.8125 C 102.277344 297.847656 101.785156 297.863281 101.296875 297.867188 C 100.0625 297.863281 98.835938 297.75 97.636719 297.527344 "/><g clip-rule="nonzero" clip-path="url(#clip1)"><path style=" stroke:none;fill-rule:nonzero;fill:rgb(56.079102%,83.529663%,47.059631%);fill-opacity:1;" d="M 258.011719 245.054688 C 258.011719 256.628906 248.652344 266.007812 237.097656 266.007812 L 137.683594 266.007812 C 126.132812 266.007812 116.769531 256.628906 116.769531 245.054688 L 116.769531 85.289062 C 116.769531 73.71875 126.132812 64.339844 137.683594 64.339844 L 237.097656 64.339844 C 248.652344 64.339844 258.011719 73.71875 258.011719 85.289062 L 258.011719 245.054688 "/></g><path style=" stroke:none;fill-rule:nonzero;fill:rgb(100%,100%,100%);fill-opacity:1;" d="M 141.664062 73.535156 C 140.992188 73.535156 140.453125 72.992188 140.453125 72.320312 C 140.453125 71.652344 140.992188 71.109375 141.664062 71.109375 L 146.503906 71.109375 C 147.171875 71.109375 147.714844 71.652344 147.714844 72.320312 C 147.714844 72.992188 147.171875 73.535156 146.503906 73.535156 Z M 151.347656 73.535156 C 150.675781 73.535156 150.136719 72.992188 150.136719 72.320312 C 150.136719 71.652344 150.675781 71.109375 151.347656 71.109375 L 156.1875 71.109375 C 156.855469 71.109375 157.398438 71.652344 157.398438 72.320312 C 157.398438 72.992188 156.855469 73.535156 156.1875 73.535156 Z M 161.03125 73.535156 C 160.359375 73.535156 159.820312 72.992188 159.820312 72.320312 C 159.820312 71.652344 160.359375 71.109375 161.03125 71.109375 L 165.871094 71.109375 C 166.539062 71.109375 167.082031 71.652344 167.082031 72.320312 C 167.082031 72.992188 166.539062 73.535156 165.871094 73.535156 Z M 170.714844 73.535156 C 170.042969 73.535156 169.503906 72.992188 169.503906 72.320312 C 169.503906 71.652344 170.042969 71.109375 170.714844 71.109375 L 175.554688 71.109375 C 176.222656 71.109375 176.765625 71.652344 176.765625 72.320312 C 176.765625 72.992188 176.222656 73.535156 175.554688 73.535156 Z M 180.398438 73.535156 C 179.726562 73.535156 179.1875 72.992188 179.1875 72.320312 C 179.1875 71.652344 179.726562 71.109375 180.398438 71.109375 L 185.238281 71.109375 C 185.90625 71.109375 186.449219 71.652344 186.449219 72.320312 C 186.449219 72.992188 185.90625 73.535156 185.238281 73.535156 Z M 190.078125 73.535156 C 189.410156 73.535156 188.871094 72.992188 188.871094 72.320312 C 188.871094 71.652344 189.410156 71.109375 190.078125 71.109375 L 194.921875 71.109375 C 195.589844 71.109375 196.132812 71.652344 196.132812 72.320312 C 196.132812 72.992188 195.589844 73.535156 194.921875 73.535156 Z M 199.761719 73.535156 C 199.09375 73.535156 198.554688 72.992188 198.554688 72.320312 C 198.554688 71.652344 199.09375 71.109375 199.761719 71.109375 L 204.605469 71.109375 C 205.273438 71.109375 205.816406 71.652344 205.816406 72.320312 C 205.816406 72.992188 205.273438 73.535156 204.605469 73.535156 Z M 209.445312 73.535156 C 208.777344 73.535156 208.238281 72.992188 208.238281 72.320312 C 208.238281 71.652344 208.777344 71.109375 209.445312 71.109375 L 214.289062 71.109375 C 214.957031 71.109375 215.5 71.652344 215.5 72.320312 C 215.5 72.992188 214.957031 73.535156 214.289062 73.535156 Z M 219.128906 73.535156 C 218.460938 73.535156 217.921875 72.992188 217.921875 72.320312 C 217.921875 71.652344 218.460938 71.109375 219.128906 71.109375 L 223.972656 71.109375 C 224.640625 71.109375 225.183594 71.652344 225.183594 72.320312 C 225.183594 72.992188 224.640625 73.535156 223.972656 73.535156 Z M 233.625 73.539062 C 233.46875 73.535156 233.316406 73.535156 233.160156 73.535156 L 228.8125 73.535156 C 228.144531 73.535156 227.605469 72.992188 227.605469 72.320312 C 227.605469 71.652344 228.144531 71.109375 228.8125 71.109375 L 233.160156 71.109375 C 233.335938 71.109375 233.511719 71.113281 233.6875 71.117188 C 234.355469 71.132812 234.882812 71.691406 234.867188 72.355469 C 234.847656 73.015625 234.3125 73.539062 233.65625 73.539062 C 233.648438 73.539062 233.632812 73.539062 233.625 73.539062 Z M 131.316406 75.265625 C 131 74.679688 131.210938 73.941406 131.796875 73.621094 C 133.285156 72.800781 134.886719 72.167969 136.574219 71.738281 C 137.222656 71.574219 137.878906 71.964844 138.042969 72.613281 C 138.207031 73.261719 137.816406 73.921875 137.167969 74.085938 C 135.683594 74.464844 134.273438 75.027344 132.960938 75.746094 C 132.777344 75.847656 132.578125 75.894531 132.378906 75.894531 C 131.953125 75.894531 131.539062 75.667969 131.316406 75.265625 Z M 242.261719 75.992188 C 240.964844 75.234375 239.570312 74.636719 238.097656 74.21875 L 238.101562 74.21875 C 237.453125 74.035156 237.082031 73.367188 237.265625 72.71875 C 237.445312 72.074219 238.117188 71.703125 238.757812 71.886719 C 240.429688 72.359375 242.015625 73.042969 243.480469 73.902344 C 244.058594 74.242188 244.253906 74.980469 243.917969 75.5625 C 243.6875 75.945312 243.285156 76.160156 242.871094 76.160156 C 242.660156 76.160156 242.449219 76.109375 242.261719 75.992188 Z M 124.730469 82.257812 C 124.164062 81.898438 124 81.148438 124.363281 80.585938 C 125.285156 79.132812 126.390625 77.804688 127.640625 76.636719 C 128.128906 76.175781 128.894531 76.203125 129.351562 76.691406 C 129.808594 77.179688 129.785156 77.949219 129.296875 78.402344 C 128.191406 79.4375 127.21875 80.609375 126.402344 81.890625 C 126.167969 82.253906 125.777344 82.449219 125.382812 82.449219 C 125.15625 82.449219 124.929688 82.386719 124.730469 82.257812 Z M 248.648438 82.320312 C 247.863281 81.015625 246.921875 79.816406 245.847656 78.753906 L 245.847656 78.757812 C 245.371094 78.28125 245.371094 77.515625 245.839844 77.042969 C 246.308594 76.566406 247.078125 76.558594 247.554688 77.03125 C 248.769531 78.234375 249.835938 79.59375 250.71875 81.070312 C 251.066406 81.644531 250.878906 82.390625 250.304688 82.734375 C 250.109375 82.851562 249.894531 82.90625 249.683594 82.90625 C 249.273438 82.90625 248.871094 82.699219 248.648438 82.320312 Z M 122.324219 91.566406 C 121.660156 91.523438 121.152344 90.949219 121.195312 90.277344 C 121.304688 88.53125 121.640625 86.835938 122.164062 85.234375 C 122.371094 84.59375 123.054688 84.246094 123.6875 84.457031 C 124.324219 84.664062 124.671875 85.351562 124.464844 85.984375 C 124 87.398438 123.710938 88.890625 123.609375 90.433594 C 123.570312 91.078125 123.035156 91.570312 122.402344 91.570312 C 122.378906 91.570312 122.347656 91.570312 122.324219 91.566406 Z M 251.199219 90.9375 C 251.140625 89.386719 250.890625 87.886719 250.464844 86.464844 C 250.277344 85.820312 250.644531 85.148438 251.285156 84.957031 C 251.921875 84.769531 252.597656 85.136719 252.789062 85.777344 C 253.269531 87.394531 253.550781 89.09375 253.617188 90.847656 C 253.640625 91.519531 253.121094 92.078125 252.453125 92.105469 C 252.4375 92.105469 252.421875 92.105469 252.40625 92.105469 C 251.757812 92.105469 251.21875 91.59375 251.199219 90.9375 Z M 121.152344 100.054688 L 121.152344 95.203125 C 121.152344 94.535156 121.691406 93.992188 122.363281 93.992188 C 123.03125 93.992188 123.570312 94.535156 123.570312 95.203125 L 123.570312 100.054688 C 123.570312 100.722656 123.03125 101.269531 122.363281 101.269531 C 121.691406 101.269531 121.152344 100.722656 121.152344 100.054688 Z M 251.210938 100.59375 L 251.210938 95.746094 C 251.210938 95.070312 251.753906 94.53125 252.421875 94.53125 C 253.089844 94.53125 253.632812 95.070312 253.632812 95.746094 L 253.632812 100.59375 C 253.632812 101.261719 253.089844 101.808594 252.421875 101.808594 C 251.753906 101.808594 251.210938 101.261719 251.210938 100.59375 Z M 121.152344 109.753906 L 121.152344 104.90625 C 121.152344 104.234375 121.691406 103.691406 122.363281 103.691406 C 123.03125 103.691406 123.570312 104.234375 123.570312 104.90625 L 123.570312 109.753906 C 123.570312 110.425781 123.03125 110.972656 122.363281 110.972656 C 121.691406 110.972656 121.152344 110.425781 121.152344 109.753906 Z M 251.210938 110.296875 L 251.210938 105.445312 C 251.210938 104.773438 251.753906 104.234375 252.421875 104.234375 C 253.089844 104.234375 253.632812 104.773438 253.632812 105.445312 L 253.632812 110.296875 C 253.632812 110.960938 253.089844 111.507812 252.421875 111.507812 C 251.753906 111.507812 251.210938 110.960938 251.210938 110.296875 Z M 121.152344 119.457031 L 121.152344 114.605469 C 121.152344 113.9375 121.691406 113.394531 122.363281 113.394531 C 123.03125 113.394531 123.570312 113.9375 123.570312 114.605469 L 123.570312 119.457031 C 123.570312 120.128906 123.03125 120.667969 122.363281 120.667969 C 121.691406 120.667969 121.152344 120.128906 121.152344 119.457031 Z M 251.210938 119.996094 L 251.210938 115.144531 C 251.210938 114.472656 251.753906 113.929688 252.421875 113.929688 C 253.089844 113.929688 253.632812 114.472656 253.632812 115.144531 L 253.632812 119.996094 C 253.632812 120.664062 253.089844 121.207031 252.421875 121.207031 C 251.753906 121.207031 251.210938 120.664062 251.210938 119.996094 Z M 121.152344 129.15625 L 121.152344 124.304688 C 121.152344 123.636719 121.691406 123.09375 122.363281 123.09375 C 123.03125 123.09375 123.570312 123.636719 123.570312 124.304688 L 123.570312 129.15625 C 123.570312 129.828125 123.03125 130.367188 122.363281 130.367188 C 121.691406 130.367188 121.152344 129.828125 121.152344 129.15625 Z M 251.210938 129.695312 L 251.210938 124.84375 C 251.210938 124.171875 251.753906 123.628906 252.421875 123.628906 C 253.089844 123.628906 253.632812 124.171875 253.632812 124.84375 L 253.632812 129.695312 C 253.632812 130.363281 253.089844 130.90625 252.421875 130.90625 C 251.753906 130.90625 251.210938 130.363281 251.210938 129.695312 Z M 121.152344 138.855469 L 121.152344 134.003906 C 121.152344 133.335938 121.691406 132.792969 122.363281 132.792969 C 123.03125 132.792969 123.570312 133.335938 123.570312 134.003906 L 123.570312 138.855469 C 123.570312 139.527344 123.03125 140.066406 122.363281 140.066406 C 121.691406 140.066406 121.152344 139.527344 121.152344 138.855469 Z M 251.210938 139.394531 L 251.210938 134.546875 C 251.210938 133.875 251.753906 133.328125 252.421875 133.328125 C 253.089844 133.328125 253.632812 133.875 253.632812 134.546875 L 253.632812 139.394531 C 253.632812 140.066406 253.089844 140.609375 252.421875 140.609375 C 251.753906 140.609375 251.210938 140.066406 251.210938 139.394531 Z M 121.152344 148.554688 L 121.152344 143.707031 C 121.152344 143.035156 121.691406 142.496094 122.363281 142.496094 C 123.03125 142.496094 123.570312 143.035156 123.570312 143.707031 L 123.570312 148.554688 C 123.570312 149.226562 123.03125 149.769531 122.363281 149.769531 C 121.691406 149.769531 121.152344 149.226562 121.152344 148.554688 Z M 251.210938 149.09375 L 251.210938 144.242188 C 251.210938 143.578125 251.753906 143.035156 252.421875 143.035156 C 253.089844 143.035156 253.632812 143.578125 253.632812 144.242188 L 253.632812 149.09375 C 253.632812 149.765625 253.089844 150.308594 252.421875 150.308594 C 251.753906 150.308594 251.210938 149.765625 251.210938 149.09375 Z M 121.152344 158.257812 L 121.152344 153.40625 C 121.152344 152.738281 121.691406 152.195312 122.363281 152.195312 C 123.03125 152.195312 123.570312 152.738281 123.570312 153.40625 L 123.570312 158.257812 C 123.570312 158.925781 123.03125 159.46875 122.363281 159.46875 C 121.691406 159.46875 121.152344 158.925781 121.152344 158.257812 Z M 251.210938 158.792969 L 251.210938 153.941406 C 251.210938 153.277344 251.753906 152.734375 252.421875 152.734375 C 253.089844 152.734375 253.632812 153.277344 253.632812 153.941406 L 253.632812 158.792969 C 253.632812 159.464844 253.089844 160.007812 252.421875 160.007812 C 251.753906 160.007812 251.210938 159.464844 251.210938 158.792969 Z M 121.152344 167.957031 L 121.152344 163.105469 C 121.152344 162.4375 121.691406 161.898438 122.363281 161.898438 C 123.03125 161.898438 123.570312 162.4375 123.570312 163.105469 L 123.570312 167.957031 C 123.570312 168.625 123.03125 169.167969 122.363281 169.167969 C 121.691406 169.167969 121.152344 168.625 121.152344 167.957031 Z M 251.210938 168.492188 L 251.210938 163.644531 C 251.210938 162.976562 251.753906 162.433594 252.421875 162.433594 C 253.089844 162.433594 253.632812 162.976562 253.632812 163.644531 L 253.632812 168.492188 C 253.632812 169.164062 253.089844 169.707031 252.421875 169.707031 C 251.753906 169.707031 251.210938 169.164062 251.210938 168.492188 Z M 121.152344 177.660156 L 121.152344 172.808594 C 121.152344 172.136719 121.691406 171.59375 122.363281 171.59375 C 123.03125 171.59375 123.570312 172.136719 123.570312 172.808594 L 123.570312 177.660156 C 123.570312 178.324219 123.03125 178.871094 122.363281 178.871094 C 121.691406 178.871094 121.152344 178.324219 121.152344 177.660156 Z M 251.210938 178.195312 L 251.210938 173.347656 C 251.210938 172.675781 251.753906 172.132812 252.421875 172.132812 C 253.089844 172.132812 253.632812 172.675781 253.632812 173.347656 L 253.632812 178.195312 C 253.632812 178.867188 253.089844 179.40625 252.421875 179.40625 C 251.753906 179.40625 251.210938 178.867188 251.210938 178.195312 Z M 121.152344 187.355469 L 121.152344 182.511719 C 121.152344 181.835938 121.691406 181.292969 122.363281 181.292969 C 123.03125 181.292969 123.570312 181.835938 123.570312 182.511719 L 123.570312 187.355469 C 123.570312 188.027344 123.03125 188.570312 122.363281 188.570312 C 121.691406 188.570312 121.152344 188.027344 121.152344 187.355469 Z M 251.210938 187.894531 L 251.210938 183.046875 C 251.210938 182.378906 251.753906 181.835938 252.421875 181.835938 C 253.089844 181.835938 253.632812 182.378906 253.632812 183.046875 L 253.632812 187.894531 C 253.632812 188.566406 253.089844 189.105469 252.421875 189.105469 C 251.753906 189.105469 251.210938 188.566406 251.210938 187.894531 Z M 121.152344 197.058594 L 121.152344 192.207031 C 121.152344 191.539062 121.691406 190.996094 122.363281 190.996094 C 123.03125 190.996094 123.570312 191.539062 123.570312 192.207031 L 123.570312 197.058594 C 123.570312 197.726562 123.03125 198.269531 122.363281 198.269531 C 121.691406 198.269531 121.152344 197.726562 121.152344 197.058594 Z M 251.210938 197.59375 L 251.210938 192.742188 C 251.210938 192.078125 251.753906 191.535156 252.421875 191.535156 C 253.089844 191.535156 253.632812 192.078125 253.632812 192.742188 L 253.632812 197.59375 C 253.632812 198.265625 253.089844 198.804688 252.421875 198.804688 C 251.753906 198.804688 251.210938 198.265625 251.210938 197.59375 Z M 121.152344 206.757812 L 121.152344 201.90625 C 121.152344 201.238281 121.691406 200.695312 122.363281 200.695312 C 123.03125 200.695312 123.570312 201.238281 123.570312 201.90625 L 123.570312 206.757812 C 123.570312 207.425781 123.03125 207.96875 122.363281 207.96875 C 121.691406 207.96875 121.152344 207.425781 121.152344 206.757812 Z M 251.210938 207.296875 L 251.210938 202.445312 C 251.210938 201.773438 251.753906 201.234375 252.421875 201.234375 C 253.089844 201.234375 253.632812 201.773438 253.632812 202.445312 L 253.632812 207.296875 C 253.632812 207.964844 253.089844 208.507812 252.421875 208.507812 C 251.753906 208.507812 251.210938 207.964844 251.210938 207.296875 Z M 121.152344 216.457031 L 121.152344 211.609375 C 121.152344 210.9375 121.691406 210.394531 122.363281 210.394531 C 123.03125 210.394531 123.570312 210.9375 123.570312 211.609375 L 123.570312 216.457031 C 123.570312 217.128906 123.03125 217.671875 122.363281 217.671875 C 121.691406 217.671875 121.152344 217.128906 121.152344 216.457031 Z M 251.210938 216.996094 L 251.210938 212.148438 C 251.210938 211.476562 251.753906 210.933594 252.421875 210.933594 C 253.089844 210.933594 253.632812 211.476562 253.632812 212.148438 L 253.632812 216.996094 C 253.632812 217.664062 253.089844 218.207031 252.421875 218.207031 C 251.753906 218.207031 251.210938 217.664062 251.210938 216.996094 Z M 121.152344 226.15625 L 121.152344 221.308594 C 121.152344 220.636719 121.691406 220.09375 122.363281 220.09375 C 123.03125 220.09375 123.570312 220.636719 123.570312 221.308594 L 123.570312 226.15625 C 123.570312 226.828125 123.03125 227.371094 122.363281 227.371094 C 121.691406 227.371094 121.152344 226.828125 121.152344 226.15625 Z M 251.210938 226.699219 L 251.210938 221.847656 C 251.210938 221.175781 251.753906 220.636719 252.421875 220.636719 C 253.089844 220.636719 253.632812 221.175781 253.632812 221.847656 L 253.632812 226.699219 C 253.632812 227.363281 253.089844 227.90625 252.421875 227.90625 C 251.753906 227.90625 251.210938 227.363281 251.210938 226.699219 Z M 121.152344 235.859375 L 121.152344 231.007812 C 121.152344 230.339844 121.691406 229.796875 122.363281 229.796875 C 123.03125 229.796875 123.570312 230.339844 123.570312 231.007812 L 123.570312 235.859375 C 123.570312 236.527344 123.03125 237.070312 122.363281 237.070312 C 121.691406 237.070312 121.152344 236.527344 121.152344 235.859375 Z M 251.519531 244.703125 C 250.875 244.535156 250.480469 243.875 250.644531 243.226562 C 251.015625 241.792969 251.210938 240.285156 251.210938 238.726562 C 251.210938 238.175781 251.582031 237.707031 252.09375 237.5625 C 251.582031 237.417969 251.210938 236.949219 251.210938 236.398438 L 251.210938 231.546875 C 251.210938 230.875 251.753906 230.332031 252.421875 230.332031 C 253.089844 230.332031 253.632812 230.875 253.632812 231.546875 L 253.632812 236.398438 C 253.632812 236.949219 253.257812 237.417969 252.75 237.5625 C 253.257812 237.707031 253.632812 238.175781 253.632812 238.726562 C 253.632812 240.488281 253.40625 242.195312 252.996094 243.828125 C 252.851562 244.378906 252.359375 244.742188 251.820312 244.742188 C 251.722656 244.742188 251.621094 244.726562 251.519531 244.703125 Z M 122.414062 245.835938 C 121.828125 244.246094 121.433594 242.570312 121.257812 240.828125 C 121.1875 240.160156 121.675781 239.566406 122.339844 239.5 C 123.003906 239.429688 123.601562 239.914062 123.667969 240.582031 C 123.820312 242.121094 124.167969 243.597656 124.683594 244.996094 C 124.917969 245.625 124.597656 246.324219 123.96875 246.554688 C 123.832031 246.601562 123.691406 246.628906 123.550781 246.628906 C 123.058594 246.628906 122.59375 246.324219 122.414062 245.835938 Z M 246.375 252.820312 C 245.886719 252.363281 245.859375 251.59375 246.320312 251.105469 C 247.351562 250.003906 248.25 248.773438 248.980469 247.441406 C 249.304688 246.851562 250.042969 246.636719 250.625 246.964844 C 251.210938 247.285156 251.425781 248.023438 251.101562 248.613281 C 250.269531 250.125 249.257812 251.519531 248.082031 252.765625 C 247.847656 253.019531 247.523438 253.148438 247.199219 253.148438 C 246.90625 253.148438 246.609375 253.039062 246.375 252.820312 Z M 128.207031 254.21875 C 126.914062 253.09375 125.761719 251.808594 124.78125 250.394531 C 124.402344 249.84375 124.539062 249.089844 125.089844 248.707031 C 125.640625 248.324219 126.394531 248.460938 126.773438 249.011719 C 127.636719 250.261719 128.652344 251.394531 129.792969 252.386719 C 130.296875 252.828125 130.355469 253.59375 129.914062 254.101562 C 129.675781 254.375 129.335938 254.515625 129 254.515625 C 128.71875 254.515625 128.4375 254.417969 128.207031 254.21875 Z M 237.964844 257.457031 C 237.761719 256.820312 238.105469 256.136719 238.742188 255.929688 C 240.195312 255.457031 241.566406 254.808594 242.835938 254 C 243.394531 253.636719 244.148438 253.804688 244.503906 254.371094 C 244.863281 254.933594 244.695312 255.683594 244.132812 256.042969 C 242.695312 256.957031 241.140625 257.699219 239.488281 258.234375 C 239.363281 258.277344 239.238281 258.296875 239.117188 258.296875 C 238.605469 258.296875 238.128906 257.96875 237.964844 257.457031 Z M 137.320312 258.78125 C 135.617188 258.417969 133.988281 257.839844 132.472656 257.078125 C 131.875 256.777344 131.636719 256.046875 131.929688 255.449219 C 132.230469 254.855469 132.960938 254.609375 133.554688 254.910156 C 134.890625 255.582031 136.324219 256.089844 137.824219 256.40625 C 138.480469 256.550781 138.894531 257.195312 138.757812 257.851562 C 138.632812 258.417969 138.132812 258.808594 137.570312 258.808594 C 137.488281 258.808594 137.402344 258.800781 137.320312 258.78125 Z M 142.382812 259.238281 C 141.710938 259.238281 141.171875 258.695312 141.171875 258.023438 C 141.171875 257.351562 141.710938 256.8125 142.382812 256.8125 L 147.222656 256.8125 C 147.890625 256.8125 148.433594 257.351562 148.433594 258.023438 C 148.433594 258.695312 147.890625 259.238281 147.222656 259.238281 Z M 152.066406 259.238281 C 151.394531 259.238281 150.855469 258.695312 150.855469 258.023438 C 150.855469 257.351562 151.394531 256.8125 152.066406 256.8125 L 156.90625 256.8125 C 157.574219 256.8125 158.117188 257.351562 158.117188 258.023438 C 158.117188 258.695312 157.574219 259.238281 156.90625 259.238281 Z M 161.75 259.238281 C 161.078125 259.238281 160.539062 258.695312 160.539062 258.023438 C 160.539062 257.351562 161.078125 256.8125 161.75 256.8125 L 166.589844 256.8125 C 167.257812 256.8125 167.800781 257.351562 167.800781 258.023438 C 167.800781 258.695312 167.257812 259.238281 166.589844 259.238281 Z M 171.433594 259.238281 C 170.761719 259.238281 170.222656 258.695312 170.222656 258.023438 C 170.222656 257.351562 170.761719 256.8125 171.433594 256.8125 L 176.273438 256.8125 C 176.941406 256.8125 177.484375 257.351562 177.484375 258.023438 C 177.484375 258.695312 176.941406 259.238281 176.273438 259.238281 Z M 181.113281 259.238281 C 180.445312 259.238281 179.90625 258.695312 179.90625 258.023438 C 179.90625 257.351562 180.445312 256.8125 181.113281 256.8125 L 185.957031 256.8125 C 186.628906 256.8125 187.167969 257.351562 187.167969 258.023438 C 187.167969 258.695312 186.628906 259.238281 185.957031 259.238281 Z M 190.796875 259.238281 C 190.128906 259.238281 189.589844 258.695312 189.589844 258.023438 C 189.589844 257.351562 190.128906 256.8125 190.796875 256.8125 L 195.640625 256.8125 C 196.308594 256.8125 196.851562 257.351562 196.851562 258.023438 C 196.851562 258.695312 196.308594 259.238281 195.640625 259.238281 Z M 200.480469 259.238281 C 199.8125 259.238281 199.273438 258.695312 199.273438 258.023438 C 199.273438 257.351562 199.8125 256.8125 200.480469 256.8125 L 205.324219 256.8125 C 205.992188 256.8125 206.535156 257.351562 206.535156 258.023438 C 206.535156 258.695312 205.992188 259.238281 205.324219 259.238281 Z M 210.164062 259.238281 C 209.496094 259.238281 208.957031 258.695312 208.957031 258.023438 C 208.957031 257.351562 209.496094 256.8125 210.164062 256.8125 L 215.007812 256.8125 C 215.675781 256.8125 216.21875 257.351562 216.21875 258.023438 C 216.21875 258.695312 215.675781 259.238281 215.007812 259.238281 Z M 219.847656 259.238281 C 219.179688 259.238281 218.640625 258.695312 218.640625 258.023438 C 218.640625 257.351562 219.179688 256.8125 219.847656 256.8125 L 224.691406 256.8125 C 225.359375 256.8125 225.902344 257.351562 225.902344 258.023438 C 225.902344 258.695312 225.359375 259.238281 224.691406 259.238281 Z M 228.324219 258.023438 C 228.324219 257.351562 228.863281 256.808594 229.53125 256.808594 L 233.160156 256.808594 C 233.542969 256.808594 233.925781 256.800781 234.300781 256.777344 C 234.964844 256.734375 235.542969 257.242188 235.582031 257.910156 C 235.621094 258.582031 235.117188 259.15625 234.445312 259.195312 C 234.023438 259.222656 233.597656 259.238281 233.160156 259.238281 L 229.53125 259.238281 C 228.863281 259.238281 228.324219 258.695312 228.324219 258.023438 "/><path style=" stroke:none;fill-rule:nonzero;fill:rgb(98.039246%,96.078491%,35.289001%);fill-opacity:1;" d="M 40.308594 141.097656 L 34.84375 156.132812 L 55.320312 146.570312 Z M 40.308594 141.097656 "/><path style=" stroke:none;fill-rule:nonzero;fill:rgb(96.469116%,50.979614%,44.309998%);fill-opacity:1;" d="M 335.074219 138.699219 L 335.25 146.625 L 341.863281 150.972656 L 334.398438 153.585938 L 332.3125 161.230469 L 327.523438 154.925781 L 319.621094 155.300781 L 324.128906 148.789062 L 321.324219 141.375 L 328.902344 143.660156 L 335.074219 138.699219 "/><path style=" stroke:none;fill-rule:nonzero;fill:rgb(100%,100%,100%);fill-opacity:1;" d="M 173.394531 197.25 L 151.949219 179.21875 L 147.085938 151.601562 L 161.085938 127.316406 L 187.390625 117.726562 L 213.699219 127.316406 L 227.699219 151.601562 L 222.835938 179.21875 L 201.390625 197.25 L 173.394531 197.25 "/></g></svg>