<?xml version="1.0" encoding="UTF-8"?><svg xmlns="http://www.w3.org/2000/svg" xmlns:xlink="http://www.w3.org/1999/xlink" width="375pt" zoomAndPan="magnify" viewBox="0 0 375 374.999991" height="374.999991pt" preserveAspectRatio="xMidYMid meet" version="1.2"><defs><clipPath xml:id="clip1" id="clip1"><path d="M 35.152344 34.339844 L 339.722656 34.339844 L 339.722656 340.242188 L 35.152344 340.242188 Z M 35.152344 34.339844 "/></clipPath><clipPath xml:id="clip2" id="clip2"><path d="M 303.167969 187.382812 C 303.167969 176.058594 341.445312 155.863281 339.21875 144.417969 C 337.191406 133.980469 287.496094 141.304688 283.605469 135.546875 C 280.976562 131.660156 307.128906 84.457031 301.917969 78.398438 C 295.988281 71.527344 245.636719 97.875 240.367188 94.734375 C 236.101562 92.199219 240.667969 37.40625 229.296875 34.773438 C 217.03125 31.925781 193.996094 80.070312 187.527344 80.121094 C 181.769531 80.167969 158.023438 31.925781 145.757812 34.773438 C 134.382812 37.40625 136.101562 91.835938 131.839844 94.375 C 126.566406 97.515625 79.066406 71.527344 73.140625 78.398438 C 67.929688 84.457031 94.078125 131.660156 91.449219 135.546875 C 87.558594 141.304688 37.863281 133.980469 35.835938 144.417969 C 33.609375 155.863281 71.886719 176.058594 71.886719 187.382812 C 71.886719 198.699219 33.609375 218.890625 35.835938 230.34375 C 37.863281 240.785156 87.558594 233.445312 91.449219 239.207031 C 94.078125 243.105469 67.929688 290.304688 73.140625 296.351562 C 79.066406 303.234375 126.566406 277.238281 131.839844 280.378906 C 136.101562 282.925781 134.382812 337.355469 145.757812 339.988281 C 158.023438 342.824219 181.769531 294.582031 187.527344 294.636719 C 193.996094 294.691406 217.03125 342.824219 229.296875 339.988281 C 240.667969 337.355469 236.101562 282.5625 240.367188 280.019531 C 245.636719 276.878906 295.988281 303.234375 301.917969 296.351562 C 307.128906 290.304688 280.976562 243.105469 283.605469 239.207031 C 287.496094 233.445312 337.191406 240.785156 339.21875 230.34375 C 341.445312 218.890625 303.167969 198.699219 303.167969 187.382812 Z M 303.167969 187.382812 "/></clipPath><clipPath xml:id="clip3" id="clip3"><path d="M 303.171875 187.367188 C 303.171875 176.058594 341.445312 155.859375 339.21875 144.410156 C 337.191406 133.972656 287.5 141.304688 283.609375 135.546875 C 280.980469 131.648438 307.128906 84.457031 301.917969 78.402344 C 295.988281 71.519531 245.636719 97.875 240.367188 94.730469 C 236.101562 92.1875 240.667969 37.398438 229.296875 34.765625 C 217.03125 31.917969 193.996094 80.058594 187.527344 80.117188 C 181.769531 80.160156 158.023438 31.917969 145.757812 34.765625 C 134.382812 37.398438 136.101562 91.832031 131.839844 94.375 C 126.566406 97.503906 79.066406 71.519531 73.140625 78.402344 C 67.929688 84.457031 94.078125 131.648438 91.449219 135.546875 C 87.558594 141.304688 37.863281 133.972656 35.835938 144.410156 C 33.613281 155.859375 71.886719 176.058594 71.886719 187.367188 C 71.886719 198.695312 33.613281 218.886719 35.835938 230.339844 C 37.863281 240.777344 87.558594 233.445312 91.449219 239.203125 C 94.078125 243.101562 67.929688 290.296875 73.140625 296.347656 C 79.066406 303.226562 126.566406 277.230469 131.839844 280.375 C 136.101562 282.917969 134.382812 337.347656 145.757812 339.984375 C 158.023438 342.828125 181.769531 294.574219 187.527344 294.632812 C 193.996094 294.691406 217.03125 342.828125 229.296875 339.984375 C 240.667969 337.347656 236.101562 282.5625 240.367188 280.019531 C 245.636719 276.875 295.988281 303.226562 301.917969 296.347656 C 307.128906 290.296875 280.980469 243.101562 283.609375 239.203125 C 287.5 233.445312 337.191406 240.777344 339.21875 230.339844 C 341.445312 218.886719 303.171875 198.695312 303.171875 187.367188 "/></clipPath><radialGradient gradientTransform="matrix(1.000773,0,0,-0.999227,187.52704,187.380976)" xmlns:xlink="http://www.w3.org/1999/xlink" id="radial0" gradientUnits="userSpaceOnUse" xlink:show="other" xlink:type="simple" r="193.99667" cx="0" fx="0" cy="0" fy="0" xml:id="radial0" xlink:actuate="onLoad"><stop style="stop-color:rgb(100%,100%,100%);stop-opacity:1;" offset="0"/><stop style="stop-color:rgb(99.995422%,99.995422%,100%);stop-opacity:1;" offset="0.5"/><stop style="stop-color:rgb(99.795532%,99.795532%,100%);stop-opacity:1;" offset="0.53125"/><stop style="stop-color:rgb(99.598694%,99.598694%,99.804688%);stop-opacity:1;" offset="0.542969"/><stop style="stop-color:rgb(99.578857%,99.578857%,99.603271%);stop-opacity:1;" offset="0.554688"/><stop style="stop-color:rgb(99.378967%,99.378967%,99.598694%);stop-opacity:1;" offset="0.566406"/><stop style="stop-color:rgb(99.198914%,99.188232%,99.598694%);stop-opacity:1;" offset="0.570312"/><stop style="stop-color:rgb(99.19281%,98.988342%,99.59259%);stop-opacity:1;" offset="0.574219"/><stop style="stop-color:rgb(98.991394%,98.797607%,99.3927%);stop-opacity:1;" offset="0.578125"/><stop style="stop-color:rgb(98.600769%,98.600769%,99.198914%);stop-opacity:1;" offset="0.582031"/><stop style="stop-color:rgb(98.402405%,98.338318%,99.134827%);stop-opacity:1;" offset="0.585938"/><stop style="stop-color:rgb(98.399353%,98.135376%,98.934937%);stop-opacity:1;" offset="0.589844"/><stop style="stop-color:rgb(98.199463%,97.975159%,98.799133%);stop-opacity:1;" offset="0.601562"/><stop style="stop-color:rgb(97.979736%,97.761536%,98.799133%);stop-opacity:1;" offset="0.605469"/><stop style="stop-color:rgb(97.769165%,97.434998%,98.7854%);stop-opacity:1;" offset="0.609375"/><stop style="stop-color:rgb(97.438049%,97.290039%,98.576355%);stop-opacity:1;" offset="0.613281"/><stop style="stop-color:rgb(97.294617%,97.090149%,98.190308%);stop-opacity:1;" offset="0.617188"/><stop style="stop-color:rgb(97.094727%,96.899414%,97.999573%);stop-opacity:1;" offset="0.621094"/><stop style="stop-color:rgb(96.704102%,96.704102%,97.999573%);stop-opacity:1;" offset="0.625"/><stop style="stop-color:rgb(96.504211%,96.313477%,97.808838%);stop-opacity:1;" offset="0.628906"/><stop style="stop-color:rgb(96.313477%,95.922852%,97.608948%);stop-opacity:1;" offset="0.632812"/><stop style="stop-color:rgb(95.932007%,95.71228%,97.599792%);stop-opacity:1;" offset="0.636719"/><stop style="stop-color:rgb(95.716858%,95.521545%,97.467041%);stop-opacity:1;" offset="0.640625"/><stop style="stop-color:rgb(95.477295%,95.100403%,97.116089%);stop-opacity:1;" offset="0.644531"/><stop style="stop-color:rgb(95.06073%,94.659424%,96.899414%);stop-opacity:1;" offset="0.648438"/><stop style="stop-color:rgb(94.670105%,94.268799%,96.887207%);stop-opacity:1;" offset="0.652344"/><stop style="stop-color:rgb(94.27948%,93.878174%,96.679688%);stop-opacity:1;" offset="0.65625"/><stop style="stop-color:rgb(93.888855%,93.487549%,96.289062%);stop-opacity:1;" offset="0.660156"/><stop style="stop-color:rgb(93.49823%,93.096924%,95.898438%);stop-opacity:1;" offset="0.664062"/><stop style="stop-color:rgb(93.107605%,92.706299%,95.700073%);stop-opacity:1;" offset="0.667969"/><stop style="stop-color:rgb(92.71698%,92.362976%,95.509338%);stop-opacity:1;" offset="0.671875"/><stop style="stop-color:rgb(92.372131%,91.838074%,95.309448%);stop-opacity:1;" offset="0.675781"/><stop style="stop-color:rgb(92.030334%,91.25061%,95.118713%);stop-opacity:1;" offset="0.679688"/><stop style="stop-color:rgb(91.644287%,90.844727%,94.744873%);stop-opacity:1;" offset="0.683594"/><stop style="stop-color:rgb(91.203308%,90.383911%,94.303894%);stop-opacity:1;" offset="0.6875"/><stop style="stop-color:rgb(90.763855%,89.743042%,93.878174%);stop-opacity:1;" offset="0.691406"/><stop style="stop-color:rgb(90.361023%,89.172363%,93.687439%);stop-opacity:1;" offset="0.695312"/><stop style="stop-color:rgb(89.770508%,88.781738%,93.481445%);stop-opacity:1;" offset="0.699219"/><stop style="stop-color:rgb(89.189148%,88.389587%,93.09082%);stop-opacity:1;" offset="0.703125"/><stop style="stop-color:rgb(88.601685%,87.852478%,92.700195%);stop-opacity:1;" offset="0.707031"/><stop style="stop-color:rgb(88.012695%,87.120056%,92.356873%);stop-opacity:1;" offset="0.710938"/><stop style="stop-color:rgb(87.478638%,86.526489%,92.016602%);stop-opacity:1;" offset="0.714844"/><stop style="stop-color:rgb(86.938477%,85.945129%,91.812134%);stop-opacity:1;" offset="0.71875"/><stop style="stop-color:rgb(86.538696%,85.354614%,91.621399%);stop-opacity:1;" offset="0.722656"/><stop style="stop-color:rgb(85.873413%,84.674072%,91.197205%);stop-opacity:1;" offset="0.726562"/><stop style="stop-color:rgb(85.032654%,83.833313%,90.757751%);stop-opacity:1;" offset="0.730469"/><stop style="stop-color:rgb(84.451294%,83.255005%,90.367126%);stop-opacity:1;" offset="0.734375"/><stop style="stop-color:rgb(83.860779%,82.714844%,89.976501%);stop-opacity:1;" offset="0.738281"/><stop style="stop-color:rgb(83.280945%,82.180786%,89.585876%);stop-opacity:1;" offset="0.742188"/><stop style="stop-color:rgb(82.740784%,81.590271%,89.195251%);stop-opacity:1;" offset="0.746094"/><stop style="stop-color:rgb(82.008362%,80.809021%,88.804626%);stop-opacity:1;" offset="0.75"/><stop style="stop-color:rgb(81.417847%,80.027771%,88.414001%);stop-opacity:1;" offset="0.753906"/><stop style="stop-color:rgb(80.836487%,79.431152%,88.023376%);stop-opacity:1;" offset="0.757812"/><stop style="stop-color:rgb(80.064392%,78.849792%,87.677002%);stop-opacity:1;" offset="0.761719"/><stop style="stop-color:rgb(79.283142%,78.083801%,87.159729%);stop-opacity:1;" offset="0.765625"/><stop style="stop-color:rgb(78.407288%,77.252197%,86.523438%);stop-opacity:1;" offset="0.769531"/><stop style="stop-color:rgb(77.575684%,76.420593%,86.05957%);stop-opacity:1;" offset="0.773438"/><stop style="stop-color:rgb(76.84021%,75.639343%,85.668945%);stop-opacity:1;" offset="0.777344"/><stop style="stop-color:rgb(76.05896%,74.858093%,85.27832%);stop-opacity:1;" offset="0.78125"/><stop style="stop-color:rgb(75.27771%,74.076843%,84.887695%);stop-opacity:1;" offset="0.785156"/><stop style="stop-color:rgb(74.49646%,73.295593%,84.49707%);stop-opacity:1;" offset="0.789062"/><stop style="stop-color:rgb(73.71521%,72.563171%,83.912659%);stop-opacity:1;" offset="0.792969"/><stop style="stop-color:rgb(72.93396%,71.643066%,83.322144%);stop-opacity:1;" offset="0.796875"/><stop style="stop-color:rgb(72.013855%,70.663452%,82.925415%);stop-opacity:1;" offset="0.800781"/><stop style="stop-color:rgb(71.083069%,69.871521%,82.400513%);stop-opacity:1;" offset="0.804688"/><stop style="stop-color:rgb(70.289612%,69.090271%,81.860352%);stop-opacity:1;" offset="0.808594"/><stop style="stop-color:rgb(69.407654%,68.212891%,81.404114%);stop-opacity:1;" offset="0.8125"/><stop style="stop-color:rgb(68.515015%,67.381287%,80.947876%);stop-opacity:1;" offset="0.816406"/><stop style="stop-color:rgb(67.584229%,66.635132%,80.357361%);stop-opacity:1;" offset="0.820312"/><stop style="stop-color:rgb(66.65802%,65.653992%,79.782104%);stop-opacity:1;" offset="0.824219"/><stop style="stop-color:rgb(65.67688%,64.683533%,79.389954%);stop-opacity:1;" offset="0.828125"/><stop style="stop-color:rgb(64.701843%,63.902283%,78.80249%);stop-opacity:1;" offset="0.832031"/><stop style="stop-color:rgb(63.728333%,63.121033%,78.213501%);stop-opacity:1;" offset="0.835938"/><stop style="stop-color:rgb(62.794495%,62.199402%,77.819824%);stop-opacity:1;" offset="0.839844"/><stop style="stop-color:rgb(61.872864%,61.26709%,77.29187%);stop-opacity:1;" offset="0.84375"/><stop style="stop-color:rgb(60.894775%,60.476685%,76.750183%);stop-opacity:1;" offset="0.847656"/><stop style="stop-color:rgb(59.796143%,59.394836%,76.274109%);stop-opacity:1;" offset="0.851562"/><stop style="stop-color:rgb(58.700562%,58.319092%,75.63324%);stop-opacity:1;" offset="0.855469"/><stop style="stop-color:rgb(57.754517%,57.572937%,75.05188%);stop-opacity:1;" offset="0.859375"/><stop style="stop-color:rgb(56.637573%,56.637573%,74.452209%);stop-opacity:1;" offset="0.863281"/><stop style="stop-color:rgb(55.665588%,55.671692%,73.675537%);stop-opacity:1;" offset="0.867188"/><stop style="stop-color:rgb(54.684448%,54.890442%,73.094177%);stop-opacity:1;" offset="0.871094"/><stop style="stop-color:rgb(53.512573%,54.109192%,72.703552%);stop-opacity:1;" offset="0.875"/><stop style="stop-color:rgb(52.578735%,53.137207%,72.169495%);stop-opacity:1;" offset="0.878906"/><stop style="stop-color:rgb(51.657104%,52.201843%,71.629333%);stop-opacity:1;" offset="0.882812"/><stop style="stop-color:rgb(50.497437%,51.278687%,71.051025%);stop-opacity:1;" offset="0.886719"/><stop style="stop-color:rgb(49.325562%,50.302124%,70.458984%);stop-opacity:1;" offset="0.890625"/><stop style="stop-color:rgb(48.252869%,49.423218%,69.821167%);stop-opacity:1;" offset="0.894531"/><stop style="stop-color:rgb(47.631836%,48.776245%,69.398499%);stop-opacity:1;" offset="0.898438"/><stop style="stop-color:rgb(47.499084%,48.599243%,69.398499%);stop-opacity:1;" offset="1"/></radialGradient><clipPath xml:id="clip4" id="clip4"><path d="M 33.074219 31.710938 L 342.074219 31.710938 L 342.074219 342.960938 L 33.074219 342.960938 Z M 33.074219 31.710938 "/></clipPath><clipPath xml:id="clip5" id="clip5"><path d="M 111.070312 120.0625 L 273.75 120.0625 L 273.75 268.957031 L 111.070312 268.957031 Z M 111.070312 120.0625 "/></clipPath><clipPath xml:id="clip6" id="clip6"><path d="M 182.679688 121.9375 C 172.476562 128.058594 159.082031 138.898438 151.277344 154.066406 C 145.132812 166.003906 141.523438 176.453125 142.171875 193.480469 C 142.667969 206.519531 146.789062 223.992188 166.863281 234.015625 C 184.714844 242.921875 209.039062 240.46875 224.585938 219.324219 C 230.207031 211.683594 234.753906 200.503906 232.210938 190.089844 C 230.875 184.613281 226.4375 174.578125 214.191406 173.808594 C 208.425781 173.460938 201.75 175.398438 198.59375 180.847656 C 195.238281 186.640625 196.382812 190.140625 198.519531 198.988281 C 200.878906 208.710938 199.515625 212.621094 195.238281 217.792969 C 190.527344 223.484375 179.003906 223.871094 173.019531 220.515625 C 164.253906 215.617188 159.472656 208.425781 159.070312 195.933594 C 158.53125 179.167969 164.578125 166.714844 177.1875 156.394531 C 197.230469 139.980469 222.890625 141.042969 243.304688 150.871094 C 253.46875 155.761719 272.691406 168.800781 273.558594 195.152344 C 274.582031 226.433594 246.875 260.671875 212.742188 266.792969 C 172.957031 273.910156 132.410156 262.0625 117.207031 224 C 105.578125 194.90625 111.386719 160.886719 134.855469 137.820312 C 153.257812 119.738281 171.070312 119.648438 182.679688 121.9375 Z M 182.679688 121.9375 "/></clipPath><clipPath xml:id="clip7" id="clip7"><path d="M 182.679688 121.933594 C 172.476562 128.050781 159.085938 138.898438 151.277344 154.058594 C 145.132812 165.992188 141.527344 176.445312 142.171875 193.480469 C 142.667969 206.511719 146.789062 223.992188 166.863281 234.011719 C 184.714844 242.917969 209.039062 240.460938 224.585938 219.324219 C 230.207031 211.671875 234.753906 200.5 232.214844 190.078125 C 230.875 184.601562 226.4375 174.566406 214.195312 173.808594 C 208.425781 173.445312 201.75 175.390625 198.59375 180.832031 C 195.238281 186.632812 196.382812 190.144531 198.523438 198.972656 C 200.878906 208.707031 199.515625 212.617188 195.238281 217.789062 C 190.53125 223.472656 179.003906 223.871094 173.019531 220.507812 C 164.253906 215.601562 159.472656 208.410156 159.070312 195.929688 C 158.53125 179.164062 164.578125 166.714844 177.191406 156.382812 C 197.230469 139.972656 222.890625 141.035156 243.308594 150.863281 C 253.46875 155.761719 272.691406 168.792969 273.558594 195.152344 C 274.585938 226.4375 246.875 260.671875 212.742188 266.785156 C 172.957031 273.902344 132.410156 262.054688 117.207031 223.992188 C 105.578125 194.898438 111.386719 160.875 134.855469 137.820312 C 153.257812 119.730469 171.070312 119.640625 182.679688 121.933594 "/></clipPath><clipPath xml:id="clip8" id="clip8"><path d="M 105.664062 277.628906 L 102.167969 119.726562 L 274.5 115.917969 L 278 273.824219 Z M 105.664062 277.628906 "/></clipPath><radialGradient gradientTransform="matrix(1.058621,-0.0233809,-0.0208452,-0.94089,190.48238,194.383405)" xmlns:xlink="http://www.w3.org/1999/xlink" id="radial1" gradientUnits="userSpaceOnUse" xlink:show="other" xlink:type="simple" r="96.216043" cx="0" fx="0" cy="0" fy="0" xml:id="radial1" xlink:actuate="onLoad"><stop style="stop-color:rgb(94.898987%,30.999756%,48.999023%);stop-opacity:1;" offset="0"/><stop style="stop-color:rgb(94.898987%,30.999756%,48.999023%);stop-opacity:1;" offset="0.5"/><stop style="stop-color:rgb(94.798279%,30.999756%,48.898315%);stop-opacity:1;" offset="0.625"/><stop style="stop-color:rgb(94.616699%,30.999756%,48.71521%);stop-opacity:1;" offset="0.648438"/><stop style="stop-color:rgb(94.421387%,30.905151%,48.616028%);stop-opacity:1;" offset="0.667969"/><stop style="stop-color:rgb(94.204712%,30.705261%,48.419189%);stop-opacity:1;" offset="0.675781"/><stop style="stop-color:rgb(93.92395%,30.4245%,48.219299%);stop-opacity:1;" offset="0.683594"/><stop style="stop-color:rgb(93.482971%,30.023193%,47.999573%);stop-opacity:1;" offset="0.6875"/><stop style="stop-color:rgb(92.84668%,29.78363%,47.787476%);stop-opacity:1;" offset="0.691406"/><stop style="stop-color:rgb(92.326355%,29.573059%,47.625732%);stop-opacity:1;" offset="0.695312"/><stop style="stop-color:rgb(91.981506%,29.182434%,47.288513%);stop-opacity:1;" offset="0.699219"/><stop style="stop-color:rgb(91.590881%,28.791809%,47.097778%);stop-opacity:1;" offset="0.703125"/><stop style="stop-color:rgb(91.200256%,28.401184%,46.90094%);stop-opacity:1;" offset="0.707031"/><stop style="stop-color:rgb(90.617371%,28.010559%,46.510315%);stop-opacity:1;" offset="0.710938"/><stop style="stop-color:rgb(90.026855%,27.66571%,46.307373%);stop-opacity:1;" offset="0.714844"/><stop style="stop-color:rgb(89.628601%,27.325439%,46.116638%);stop-opacity:1;" offset="0.71875"/><stop style="stop-color:rgb(89.059448%,26.937866%,45.73822%);stop-opacity:1;" offset="0.722656"/><stop style="stop-color:rgb(88.401794%,26.696777%,45.320129%);stop-opacity:1;" offset="0.726562"/><stop style="stop-color:rgb(87.788391%,26.457214%,45.080566%);stop-opacity:1;" offset="0.730469"/><stop style="stop-color:rgb(87.251282%,26.066589%,44.866943%);stop-opacity:1;" offset="0.734375"/><stop style="stop-color:rgb(86.660767%,25.675964%,44.476318%);stop-opacity:1;" offset="0.738281"/><stop style="stop-color:rgb(86.080933%,25.285339%,44.090271%);stop-opacity:1;" offset="0.742188"/><stop style="stop-color:rgb(85.490417%,24.894714%,43.899536%);stop-opacity:1;" offset="0.746094"/><stop style="stop-color:rgb(84.90448%,24.504089%,43.704224%);stop-opacity:1;" offset="0.75"/><stop style="stop-color:rgb(84.32312%,24.113464%,43.313599%);stop-opacity:1;" offset="0.753906"/><stop style="stop-color:rgb(83.731079%,23.722839%,42.922974%);stop-opacity:1;" offset="0.757812"/><stop style="stop-color:rgb(83.149719%,23.332214%,42.712402%);stop-opacity:1;" offset="0.761719"/><stop style="stop-color:rgb(82.603455%,22.941589%,42.565918%);stop-opacity:1;" offset="0.765625"/><stop style="stop-color:rgb(81.973267%,22.550964%,42.195129%);stop-opacity:1;" offset="0.769531"/><stop style="stop-color:rgb(81.138611%,22.160339%,41.760254%);stop-opacity:1;" offset="0.773438"/><stop style="stop-color:rgb(80.557251%,21.769714%,41.381836%);stop-opacity:1;" offset="0.777344"/><stop style="stop-color:rgb(79.966736%,21.379089%,41.191101%);stop-opacity:1;" offset="0.78125"/><stop style="stop-color:rgb(79.385376%,20.988464%,40.988159%);stop-opacity:1;" offset="0.785156"/><stop style="stop-color:rgb(78.796387%,20.597839%,40.597534%);stop-opacity:1;" offset="0.789062"/><stop style="stop-color:rgb(78.015137%,20.207214%,40.206909%);stop-opacity:1;" offset="0.792969"/><stop style="stop-color:rgb(77.470398%,19.62738%,39.816284%);stop-opacity:1;" offset="0.796875"/><stop style="stop-color:rgb(76.939392%,19.036865%,39.610291%);stop-opacity:1;" offset="0.800781"/><stop style="stop-color:rgb(76.171875%,18.814087%,39.419556%);stop-opacity:1;" offset="0.804688"/><stop style="stop-color:rgb(75.564575%,18.623352%,39.044189%);stop-opacity:1;" offset="0.808594"/><stop style="stop-color:rgb(74.884033%,18.203735%,38.60321%);stop-opacity:1;" offset="0.8125"/><stop style="stop-color:rgb(74.043274%,17.765808%,38.179016%);stop-opacity:1;" offset="0.816406"/><stop style="stop-color:rgb(73.461914%,17.425537%,37.988281%);stop-opacity:1;" offset="0.820312"/><stop style="stop-color:rgb(72.866821%,17.082214%,37.783813%);stop-opacity:1;" offset="0.824219"/><stop style="stop-color:rgb(72.137451%,16.691589%,37.443542%);stop-opacity:1;" offset="0.828125"/><stop style="stop-color:rgb(71.798706%,16.300964%,37.298584%);stop-opacity:1;" offset="0.832031"/><stop style="stop-color:rgb(71.798706%,16.1026%,37.298584%);stop-opacity:1;" offset="0.835938"/><stop style="stop-color:rgb(71.798706%,16.099548%,37.298584%);stop-opacity:1;" offset="1"/></radialGradient></defs><g xml:id="surface1" id="surface1"><rect x="0" width="375" y="0" height="374.999991" style="fill:rgb(100%,100%,100%);fill-opacity:1;stroke:none;"/><rect x="0" width="375" y="0" height="374.999991" style="fill:rgb(100%,100%,100%);fill-opacity:1;stroke:none;"/><rect x="0" width="375" y="0" height="374.999991" style="fill:rgb(87.838745%,42.349243%,19.219971%);fill-opacity:1;stroke:none;"/><g clip-rule="nonzero" clip-path="url(#clip1)"><g clip-rule="nonzero" clip-path="url(#clip2)"><g clip-rule="nonzero" clip-path="url(#clip3)"><path style=" stroke:none;fill-rule:nonzero;fill:url(#radial0);" d="M 35.152344 340.242188 L 35.152344 34.339844 L 339.722656 34.339844 L 339.722656 340.242188 Z M 35.152344 340.242188 "/></g></g></g><g clip-rule="nonzero" clip-path="url(#clip4)"><path style=" stroke:none;fill-rule:nonzero;fill:rgb(47.44873%,48.629761%,69.40918%);fill-opacity:1;" d="M 303.167969 187.378906 L 305.878906 187.378906 C 305.878906 187.070312 305.945312 186.640625 306.132812 186.125 C 306.472656 185.144531 307.242188 183.839844 308.378906 182.414062 C 310.371094 179.878906 313.4375 176.949219 316.898438 173.90625 C 322.09375 169.332031 328.164062 164.492188 333.042969 159.789062 C 335.480469 157.4375 337.628906 155.121094 339.242188 152.78125 C 340.050781 151.617188 340.722656 150.445312 341.21875 149.222656 C 341.707031 148.011719 342.023438 146.734375 342.023438 145.40625 C 342.023438 144.898438 341.976562 144.402344 341.886719 143.910156 L 341.882812 143.898438 C 341.660156 142.722656 341.0625 141.648438 340.308594 140.832031 C 339.59375 140.058594 338.753906 139.460938 337.84375 138.964844 C 336.125 138.054688 334.132812 137.457031 331.878906 136.992188 C 327.945312 136.199219 323.214844 135.839844 318.21875 135.667969 C 310.730469 135.394531 302.648438 135.519531 296.25 135.300781 C 293.0625 135.195312 290.289062 134.988281 288.328125 134.644531 C 287.359375 134.484375 286.589844 134.277344 286.144531 134.089844 C 285.921875 133.996094 285.78125 133.917969 285.738281 133.894531 L 285.722656 133.886719 L 285.292969 134.414062 L 285.855469 134.03125 C 285.78125 133.929688 285.726562 133.886719 285.722656 133.886719 L 285.292969 134.414062 L 285.855469 134.03125 L 284.449219 134.976562 L 286.117188 134.621094 C 286.089844 134.515625 286.042969 134.3125 285.855469 134.03125 L 284.449219 134.976562 L 286.117188 134.621094 L 285.355469 134.785156 L 286.132812 134.714844 L 286.117188 134.621094 L 285.355469 134.785156 L 286.132812 134.714844 L 286.074219 134.722656 L 286.132812 134.714844 L 286.074219 134.722656 L 286.132812 134.714844 L 286.132812 134.6875 C 286.128906 134.585938 286.164062 134.195312 286.285156 133.675781 C 286.5 132.695312 286.964844 131.21875 287.601562 129.46875 C 288.726562 126.390625 290.390625 122.429688 292.246094 118.097656 C 295.035156 111.597656 298.261719 104.265625 300.804688 97.664062 C 302.078125 94.355469 303.183594 91.21875 303.988281 88.421875 C 304.390625 87.023438 304.71875 85.714844 304.945312 84.480469 C 305.175781 83.246094 305.3125 82.105469 305.316406 81.011719 C 305.3125 80.261719 305.25 79.535156 305.0625 78.796875 C 304.875 78.070312 304.550781 77.308594 303.972656 76.644531 C 303.589844 76.191406 303.140625 75.835938 302.671875 75.558594 C 301.96875 75.144531 301.230469 74.902344 300.488281 74.753906 C 299.738281 74.601562 298.976562 74.546875 298.1875 74.546875 C 296.3125 74.546875 294.238281 74.867188 291.9375 75.375 C 287.917969 76.261719 283.214844 77.78125 278.246094 79.546875 C 270.804688 82.210938 262.785156 85.433594 255.992188 87.984375 C 252.59375 89.261719 249.503906 90.367188 246.976562 91.128906 C 245.722656 91.519531 244.601562 91.820312 243.6875 92.015625 C 242.777344 92.214844 242.054688 92.289062 241.679688 92.289062 L 241.5 92.28125 L 241.441406 92.28125 L 241.242188 93.269531 L 241.757812 92.40625 C 241.558594 92.289062 241.449219 92.28125 241.441406 92.28125 L 241.242188 93.269531 L 241.757812 92.40625 L 240.988281 93.699219 L 242.257812 92.867188 C 242.226562 92.824219 242.105469 92.625 241.757812 92.40625 L 240.988281 93.699219 L 242.257812 92.867188 L 241.972656 93.050781 L 242.273438 92.878906 L 242.257812 92.867188 L 241.972656 93.050781 L 242.273438 92.878906 C 242.261719 92.878906 242.101562 92.511719 241.976562 91.933594 C 241.722656 90.851562 241.488281 89.054688 241.3125 86.875 C 240.996094 83.039062 240.8125 77.945312 240.582031 72.449219 C 240.226562 64.207031 239.773438 55.082031 238.519531 47.636719 C 237.882812 43.902344 237.066406 40.59375 235.84375 37.898438 C 235.226562 36.550781 234.5 35.339844 233.546875 34.3125 C 232.605469 33.300781 231.371094 32.46875 229.910156 32.136719 C 229.351562 31.996094 228.777344 31.941406 228.21875 31.941406 C 227.019531 31.941406 225.871094 32.207031 224.777344 32.640625 C 222.726562 33.449219 220.828125 34.800781 218.910156 36.503906 C 215.574219 39.464844 212.210938 43.546875 208.863281 48.027344 C 203.859375 54.746094 198.929688 62.390625 194.808594 68.285156 C 192.753906 71.226562 190.894531 73.738281 189.410156 75.410156 C 188.675781 76.253906 188.03125 76.863281 187.601562 77.199219 C 187.386719 77.355469 187.234375 77.4375 187.191406 77.460938 L 187.179688 77.460938 L 187.355469 77.878906 L 187.25 77.4375 L 187.179688 77.460938 L 187.355469 77.878906 L 187.25 77.4375 L 187.511719 78.578125 L 187.503906 77.414062 C 187.390625 77.414062 187.304688 77.425781 187.25 77.4375 L 187.511719 78.578125 L 187.503906 77.414062 L 187.527344 77.414062 L 187.527344 79.859375 L 187.574219 77.414062 L 187.527344 77.414062 L 187.527344 79.859375 L 187.574219 77.414062 L 187.519531 77.414062 L 187.519531 78.613281 L 187.980469 77.496094 C 187.953125 77.484375 187.804688 77.414062 187.519531 77.414062 L 187.519531 78.613281 L 187.980469 77.496094 L 187.941406 77.597656 L 187.988281 77.496094 L 187.980469 77.496094 L 187.941406 77.597656 L 187.988281 77.496094 C 187.957031 77.484375 187.636719 77.277344 187.234375 76.898438 C 186.457031 76.183594 185.347656 74.878906 184.09375 73.242188 C 181.890625 70.351562 179.183594 66.363281 176.238281 62.03125 C 171.808594 55.519531 166.84375 48.238281 161.945312 42.472656 C 159.488281 39.578125 157.058594 37.070312 154.617188 35.191406 C 153.390625 34.246094 152.160156 33.460938 150.878906 32.886719 C 149.601562 32.3125 148.253906 31.941406 146.835938 31.941406 C 146.273438 31.941406 145.703125 31.996094 145.140625 32.136719 L 145.144531 32.136719 C 143.921875 32.414062 142.851562 33.035156 141.972656 33.820312 C 141.144531 34.554688 140.464844 35.429688 139.863281 36.390625 C 138.746094 38.207031 137.882812 40.375 137.140625 42.820312 C 135.851562 47.105469 134.945312 52.292969 134.21875 57.734375 C 133.136719 65.878906 132.484375 74.613281 131.796875 81.449219 C 131.453125 84.847656 131.097656 87.785156 130.707031 89.835938 C 130.511719 90.863281 130.300781 91.671875 130.128906 92.117188 C 130.089844 92.234375 130.050781 92.316406 130.023438 92.371094 L 129.980469 92.46875 L 129.976562 92.46875 L 131.132812 93.191406 L 130.449219 92.050781 C 130.070312 92.28125 129.988281 92.46875 129.976562 92.46875 L 131.132812 93.191406 L 130.449219 92.050781 L 130.941406 92.878906 L 130.75 91.925781 C 130.746094 91.925781 130.636719 91.933594 130.449219 92.050781 L 130.941406 92.878906 L 130.75 91.925781 L 130.699219 91.925781 L 130.527344 91.933594 C 130.261719 91.933594 129.792969 91.890625 129.207031 91.785156 C 128.105469 91.578125 126.578125 91.164062 124.804688 90.589844 C 121.683594 89.5625 117.769531 88.066406 113.53125 86.378906 C 107.167969 83.855469 100.070312 80.929688 93.574219 78.613281 C 90.320312 77.460938 87.21875 76.457031 84.40625 75.71875 C 81.585938 75.003906 79.066406 74.53125 76.824219 74.53125 C 75.78125 74.53125 74.785156 74.628906 73.808594 74.925781 C 73.316406 75.074219 72.832031 75.285156 72.367188 75.558594 C 71.902344 75.835938 71.457031 76.203125 71.082031 76.644531 C 70.503906 77.308594 70.179688 78.070312 69.992188 78.796875 C 69.804688 79.535156 69.738281 80.261719 69.738281 81.011719 C 69.742188 82.785156 70.097656 84.707031 70.648438 86.886719 C 71.621094 90.679688 73.257812 95.210938 75.171875 100.015625 C 78.042969 107.230469 81.535156 115.039062 84.292969 121.585938 C 85.671875 124.859375 86.867188 127.8125 87.699219 130.148438 C 88.113281 131.324219 88.4375 132.335938 88.640625 133.144531 C 88.851562 133.941406 88.929688 134.550781 88.921875 134.6875 L 88.921875 134.714844 L 88.933594 134.714844 L 88.921875 134.714844 L 88.933594 134.714844 L 88.921875 134.714844 L 89.859375 134.792969 L 88.957031 134.539062 C 88.925781 134.644531 88.921875 134.703125 88.921875 134.714844 L 89.859375 134.792969 L 88.957031 134.539062 L 90.679688 135.035156 L 89.195312 134.042969 C 89.054688 134.25 88.992188 134.425781 88.957031 134.539062 L 90.679688 135.035156 L 89.195312 134.042969 L 89.199219 134.03125 L 89.933594 134.53125 L 89.300781 133.90625 L 89.199219 134.03125 L 89.933594 134.53125 L 89.300781 133.90625 L 89.609375 134.207031 L 89.324219 133.886719 L 89.300781 133.90625 L 89.609375 134.207031 L 89.324219 133.886719 L 89.417969 133.988281 L 89.328125 133.886719 L 89.324219 133.886719 L 89.417969 133.988281 L 89.328125 133.886719 C 89.328125 133.886719 89.269531 133.929688 89.140625 133.988281 C 88.886719 134.113281 88.402344 134.285156 87.75 134.433594 C 86.527344 134.734375 84.738281 134.957031 82.625 135.105469 C 78.917969 135.367188 74.195312 135.414062 69.195312 135.460938 C 61.691406 135.519531 53.585938 135.554688 47.003906 136.375 C 43.703125 136.800781 40.789062 137.386719 38.367188 138.410156 C 37.160156 138.933594 36.058594 139.5625 35.121094 140.453125 C 34.1875 141.328125 33.433594 142.527344 33.171875 143.898438 C 33.078125 144.394531 33.03125 144.898438 33.03125 145.40625 C 33.03125 146.480469 33.238281 147.527344 33.578125 148.53125 C 34.222656 150.421875 35.3125 152.183594 36.671875 153.960938 C 39.054688 157.058594 42.3125 160.179688 45.875 163.347656 C 51.210938 168.085938 57.253906 172.90625 61.859375 177.285156 C 64.160156 179.460938 66.097656 181.535156 67.375 183.332031 C 68.015625 184.230469 68.488281 185.050781 68.78125 185.742188 C 69.074219 186.445312 69.179688 186.988281 69.175781 187.378906 C 69.175781 187.6875 69.109375 188.117188 68.925781 188.632812 C 68.585938 189.613281 67.816406 190.917969 66.675781 192.34375 C 64.6875 194.871094 61.621094 197.808594 58.160156 200.851562 C 52.960938 205.425781 46.886719 210.265625 42.015625 214.96875 C 39.578125 217.320312 37.429688 219.636719 35.8125 221.972656 C 35.007812 223.140625 34.332031 224.3125 33.835938 225.535156 C 33.34375 226.746094 33.03125 228.023438 33.03125 229.351562 C 33.03125 229.84375 33.078125 230.351562 33.171875 230.859375 C 33.398438 232.035156 33.992188 233.109375 34.746094 233.925781 C 35.460938 234.695312 36.300781 235.296875 37.214844 235.789062 C 38.925781 236.703125 40.925781 237.300781 43.171875 237.761719 C 47.105469 238.558594 51.839844 238.902344 56.839844 239.085938 C 64.328125 239.363281 72.410156 239.238281 78.800781 239.457031 C 81.988281 239.5625 84.769531 239.765625 86.722656 240.113281 C 87.699219 240.273438 88.464844 240.480469 88.914062 240.664062 C 89.136719 240.761719 89.273438 240.835938 89.316406 240.863281 L 89.328125 240.871094 L 89.761719 240.34375 L 89.199219 240.726562 C 89.273438 240.828125 89.328125 240.871094 89.328125 240.871094 L 89.761719 240.34375 L 89.199219 240.726562 L 90.609375 239.78125 L 88.9375 240.136719 C 88.960938 240.238281 89.011719 240.445312 89.199219 240.726562 L 90.609375 239.78125 L 88.9375 240.136719 L 89.691406 239.972656 L 88.921875 240.042969 L 88.9375 240.136719 L 89.691406 239.972656 L 88.921875 240.042969 L 88.96875 240.035156 L 88.921875 240.035156 L 88.921875 240.042969 L 88.96875 240.035156 L 88.921875 240.035156 L 88.921875 240.054688 C 88.925781 240.171875 88.886719 240.5625 88.773438 241.082031 C 88.554688 242.0625 88.09375 243.535156 87.453125 245.285156 C 86.328125 248.363281 84.664062 252.328125 82.804688 256.660156 C 80.019531 263.160156 76.796875 270.480469 74.246094 277.09375 C 72.972656 280.402344 71.867188 283.535156 71.0625 286.328125 C 70.664062 287.730469 70.335938 289.042969 70.105469 290.277344 C 69.878906 291.511719 69.738281 292.648438 69.738281 293.746094 C 69.738281 294.492188 69.804688 295.21875 69.992188 295.960938 C 70.175781 296.6875 70.503906 297.445312 71.085938 298.113281 C 71.457031 298.550781 71.902344 298.921875 72.367188 299.195312 C 73.066406 299.613281 73.804688 299.867188 74.542969 300.015625 C 75.285156 300.164062 76.042969 300.222656 76.824219 300.222656 C 78.648438 300.222656 80.648438 299.910156 82.851562 299.402344 C 86.703125 298.53125 91.171875 297.042969 95.886719 295.300781 C 102.941406 292.695312 110.523438 289.527344 116.957031 287.027344 C 120.175781 285.785156 123.105469 284.703125 125.5 283.949219 C 126.691406 283.570312 127.753906 283.28125 128.621094 283.097656 C 129.492188 282.902344 130.175781 282.824219 130.527344 282.824219 L 130.699219 282.832031 L 130.746094 282.832031 L 130.769531 282.707031 L 130.742188 282.832031 L 130.746094 282.832031 L 130.769531 282.707031 L 130.742188 282.832031 L 130.992188 281.796875 L 130.449219 282.707031 C 130.605469 282.796875 130.710938 282.824219 130.742188 282.832031 L 130.992188 281.796875 L 130.449219 282.707031 L 131.179688 281.484375 L 129.984375 282.304688 C 130.011719 282.335938 130.117188 282.5 130.449219 282.707031 L 131.179688 281.484375 L 129.984375 282.304688 L 130.125 282.210938 L 129.980469 282.289062 L 129.984375 282.304688 L 130.125 282.210938 L 129.980469 282.289062 C 130.003906 282.316406 130.179688 282.707031 130.335938 283.28125 C 130.640625 284.378906 130.953125 286.148438 131.234375 288.328125 C 131.734375 292.144531 132.167969 297.214844 132.671875 302.664062 C 133.433594 310.859375 134.34375 319.929688 135.960938 327.328125 C 136.777344 331.027344 137.75 334.3125 139.089844 336.972656 C 139.765625 338.3125 140.535156 339.496094 141.503906 340.488281 C 142.472656 341.480469 143.695312 342.285156 145.144531 342.621094 C 145.707031 342.761719 146.273438 342.816406 146.835938 342.816406 C 148.03125 342.816406 149.183594 342.550781 150.28125 342.125 C 152.339844 341.308594 154.257812 339.957031 156.195312 338.261719 C 159.566406 335.289062 162.984375 331.210938 166.371094 326.71875 C 171.449219 320 176.429688 312.347656 180.542969 306.445312 C 182.59375 303.496094 184.4375 300.972656 185.882812 299.292969 C 186.597656 298.460938 187.226562 297.839844 187.632812 297.515625 C 187.832031 297.351562 187.976562 297.269531 187.988281 297.261719 L 187.894531 297.066406 L 187.972656 297.269531 L 187.988281 297.261719 L 187.894531 297.066406 L 187.972656 297.269531 L 187.519531 296.097656 L 187.519531 297.34375 C 187.78125 297.34375 187.929688 297.285156 187.972656 297.269531 L 187.519531 296.097656 L 187.519531 297.34375 L 187.519531 294.808594 L 187.453125 297.34375 L 187.519531 297.34375 L 187.519531 294.808594 L 187.453125 297.34375 L 187.519531 294.714844 L 187.277344 297.332031 L 187.453125 297.34375 L 187.519531 294.714844 L 187.277344 297.332031 L 187.503906 297.34375 L 187.511719 296.441406 L 187.179688 297.296875 C 187.1875 297.296875 187.289062 297.34375 187.503906 297.34375 L 187.511719 296.441406 L 187.179688 297.296875 L 187.230469 297.316406 C 187.367188 297.386719 187.730469 297.640625 188.175781 298.058594 C 189.023438 298.839844 190.167969 300.164062 191.445312 301.835938 C 193.695312 304.761719 196.398438 308.753906 199.316406 313.058594 C 203.695312 319.527344 208.554688 326.730469 213.347656 332.421875 C 215.753906 335.265625 218.132812 337.746094 220.53125 339.601562 C 221.734375 340.535156 222.945312 341.308594 224.214844 341.882812 C 225.476562 342.445312 226.8125 342.816406 228.21875 342.816406 C 228.777344 342.816406 229.347656 342.761719 229.910156 342.621094 C 231.140625 342.34375 232.226562 341.699219 233.089844 340.890625 C 233.90625 340.140625 234.5625 339.242188 235.125 338.261719 C 236.179688 336.417969 236.933594 334.230469 237.5625 331.765625 C 238.644531 327.445312 239.296875 322.234375 239.75 316.761719 C 240.425781 308.542969 240.640625 299.75 240.992188 292.894531 C 241.167969 289.460938 241.382812 286.511719 241.683594 284.457031 C 241.828125 283.433594 242.003906 282.625 242.148438 282.1875 C 242.183594 282.082031 242.214844 281.992188 242.242188 281.945312 L 242.273438 281.863281 L 242 281.726562 L 242.257812 281.898438 L 242.273438 281.863281 L 242 281.726562 L 242.257812 281.898438 L 240.980469 281.046875 L 241.757812 282.351562 C 242.097656 282.128906 242.21875 281.945312 242.257812 281.898438 L 240.980469 281.046875 L 241.757812 282.351562 L 241.25 281.496094 L 241.441406 282.476562 C 241.445312 282.476562 241.554688 282.464844 241.757812 282.351562 L 241.25 281.496094 L 241.441406 282.476562 L 241.5 282.476562 L 241.679688 282.464844 C 241.960938 282.464844 242.453125 282.507812 243.070312 282.625 C 244.234375 282.832031 245.839844 283.261719 247.714844 283.847656 C 251.003906 284.894531 255.132812 286.429688 259.609375 288.144531 C 266.328125 290.726562 273.835938 293.699219 280.683594 296.0625 C 284.105469 297.238281 287.367188 298.265625 290.3125 299.003906 C 293.265625 299.738281 295.878906 300.199219 298.183594 300.210938 C 299.242188 300.210938 300.246094 300.109375 301.226562 299.820312 C 301.714844 299.667969 302.203125 299.472656 302.671875 299.195312 C 303.140625 298.921875 303.589844 298.566406 303.972656 298.113281 C 304.550781 297.433594 304.875 296.6875 305.0625 295.945312 C 305.253906 295.21875 305.3125 294.492188 305.316406 293.746094 C 305.308594 291.972656 304.960938 290.046875 304.40625 287.871094 C 303.4375 284.066406 301.792969 279.546875 299.882812 274.742188 C 297.015625 267.527344 293.519531 259.703125 290.761719 253.171875 C 289.382812 249.898438 288.1875 246.945312 287.355469 244.605469 C 286.941406 243.433594 286.621094 242.40625 286.414062 241.609375 C 286.199219 240.816406 286.121094 240.207031 286.132812 240.054688 L 286.132812 240.035156 L 286.105469 240.035156 L 286.132812 240.042969 L 286.132812 240.035156 L 286.105469 240.035156 L 286.132812 240.042969 L 285.175781 239.964844 L 286.089844 240.226562 C 286.125 240.113281 286.128906 240.054688 286.132812 240.042969 L 285.175781 239.964844 L 286.089844 240.226562 L 284.363281 239.71875 L 285.851562 240.726562 C 285.996094 240.515625 286.058594 240.34375 286.089844 240.226562 L 284.363281 239.71875 L 285.851562 240.726562 L 285.855469 240.726562 L 285.121094 240.226562 L 285.753906 240.851562 L 285.855469 240.726562 L 285.121094 240.226562 L 285.753906 240.851562 L 285.445312 240.550781 L 285.726562 240.871094 L 285.753906 240.851562 L 285.445312 240.550781 L 285.726562 240.871094 L 285.636719 240.769531 L 285.722656 240.871094 L 285.726562 240.871094 L 285.636719 240.769531 L 285.722656 240.871094 C 285.722656 240.871094 285.785156 240.828125 285.914062 240.769531 C 286.164062 240.644531 286.652344 240.472656 287.300781 240.308594 C 288.53125 240.019531 290.316406 239.800781 292.429688 239.652344 C 296.136719 239.386719 300.863281 239.339844 305.859375 239.292969 C 313.367188 239.238281 321.472656 239.203125 328.054688 238.375 C 331.351562 237.957031 334.265625 237.367188 336.683594 236.34375 C 337.894531 235.824219 338.996094 235.191406 339.933594 234.304688 C 340.863281 233.429688 341.621094 232.230469 341.882812 230.859375 C 341.980469 230.351562 342.023438 229.84375 342.023438 229.351562 C 342.023438 228.277344 341.8125 227.226562 341.476562 226.226562 C 340.832031 224.335938 339.742188 222.570312 338.382812 220.796875 C 336 217.699219 332.742188 214.578125 329.179688 211.40625 C 323.839844 206.671875 317.800781 201.851562 313.195312 197.472656 C 310.890625 195.296875 308.957031 193.21875 307.679688 191.421875 C 307.039062 190.523438 306.566406 189.707031 306.277344 189.015625 C 305.984375 188.3125 305.878906 187.769531 305.878906 187.378906 L 300.460938 187.378906 C 300.460938 188.441406 300.671875 189.464844 301.015625 190.429688 C 301.671875 192.265625 302.765625 193.96875 304.121094 195.699219 C 306.503906 198.707031 309.753906 201.769531 313.308594 204.910156 C 318.640625 209.597656 324.675781 214.425781 329.269531 218.863281 C 331.570312 221.074219 333.5 223.195312 334.777344 225.050781 C 335.421875 225.972656 335.894531 226.824219 336.191406 227.5625 C 336.488281 228.289062 336.601562 228.886719 336.601562 229.351562 C 336.601562 229.523438 336.585938 229.683594 336.558594 229.820312 C 336.527344 229.949219 336.496094 230.050781 336.300781 230.269531 C 336.121094 230.46875 335.78125 230.742188 335.261719 231.019531 C 334.292969 231.550781 332.734375 232.066406 330.796875 232.460938 C 327.398438 233.152344 322.878906 233.507812 318.019531 233.683594 C 310.722656 233.945312 302.667969 233.820312 296.066406 234.050781 C 292.757812 234.164062 289.820312 234.363281 287.402344 234.777344 C 286.191406 234.984375 285.109375 235.25 284.113281 235.640625 C 283.617188 235.851562 283.132812 236.078125 282.667969 236.402344 C 282.199219 236.722656 281.742188 237.128906 281.359375 237.695312 L 281.363281 237.683594 C 281.050781 238.15625 280.902344 238.601562 280.816406 238.992188 C 280.730469 239.386719 280.710938 239.734375 280.710938 240.054688 C 280.714844 240.792969 280.824219 241.484375 280.988281 242.242188 C 281.300781 243.640625 281.828125 245.265625 282.507812 247.144531 C 283.703125 250.414062 285.394531 254.4375 287.261719 258.792969 C 290.0625 265.316406 293.265625 272.601562 295.746094 279.039062 C 296.984375 282.253906 298.042969 285.265625 298.777344 287.824219 C 299.144531 289.101562 299.429688 290.265625 299.617188 291.269531 C 299.804688 292.285156 299.894531 293.136719 299.894531 293.746094 C 299.894531 294.164062 299.851562 294.460938 299.8125 294.597656 L 299.789062 294.679688 L 299.78125 294.703125 L 300.21875 294.898438 L 299.859375 294.589844 L 299.78125 294.703125 L 300.21875 294.898438 L 299.859375 294.589844 L 299.863281 294.589844 L 300.132812 294.816406 L 299.90625 294.542969 L 299.863281 294.589844 L 300.132812 294.816406 L 299.90625 294.542969 L 299.984375 294.632812 L 299.914062 294.542969 L 299.90625 294.542969 L 299.984375 294.632812 L 299.914062 294.542969 L 299.820312 294.574219 C 299.621094 294.671875 299.039062 294.808594 298.183594 294.792969 C 296.945312 294.792969 295.179688 294.5625 293.113281 294.101562 C 289.488281 293.296875 284.925781 291.832031 280.066406 290.105469 C 272.769531 287.5 264.785156 284.285156 257.898438 281.707031 C 254.453125 280.410156 251.28125 279.273438 248.5625 278.441406 C 247.203125 278.027344 245.957031 277.695312 244.824219 277.449219 C 243.6875 277.207031 242.675781 277.058594 241.679688 277.050781 C 241.261719 277.050781 240.84375 277.085938 240.398438 277.160156 C 239.953125 277.257812 239.476562 277.40625 238.976562 277.695312 C 238.355469 278.074219 237.988281 278.523438 237.722656 278.929688 C 237.214844 279.722656 236.988281 280.457031 236.769531 281.300781 C 236.375 282.855469 236.140625 284.757812 235.9375 287.0625 C 235.597656 291.058594 235.414062 296.1875 235.179688 301.6875 C 234.832031 309.925781 234.375 319.019531 233.199219 326.058594 C 232.621094 329.574219 231.839844 332.570312 230.929688 334.566406 C 230.480469 335.566406 230.003906 336.304688 229.59375 336.734375 C 229.179688 337.167969 228.90625 337.296875 228.683594 337.351562 L 228.6875 337.351562 C 228.542969 337.378906 228.390625 337.398438 228.21875 337.398438 C 227.851562 337.398438 227.367188 337.316406 226.761719 337.078125 C 225.628906 336.640625 224.136719 335.660156 222.519531 334.207031 C 219.675781 331.695312 216.445312 327.820312 213.214844 323.488281 C 208.355469 316.980469 203.460938 309.398438 199.257812 303.371094 C 197.152344 300.363281 195.226562 297.734375 193.480469 295.753906 C 192.597656 294.761719 191.765625 293.929688 190.886719 293.261719 C 190.441406 292.917969 189.984375 292.617188 189.449219 292.375 C 188.917969 292.132812 188.300781 291.9375 187.550781 291.925781 L 187.527344 294.632812 L 187.78125 291.9375 C 187.636719 291.925781 187.519531 291.925781 187.519531 291.925781 C 186.878906 291.925781 186.351562 292.085938 185.902344 292.257812 C 185.042969 292.628906 184.40625 293.121094 183.761719 293.699219 C 182.5625 294.773438 181.355469 296.199219 180.003906 297.953125 C 177.652344 301.007812 174.917969 305.03125 171.960938 309.382812 C 167.527344 315.90625 162.582031 323.144531 157.917969 328.652344 C 155.59375 331.394531 153.335938 333.710938 151.351562 335.246094 C 150.367188 336.007812 149.449219 336.570312 148.675781 336.925781 C 147.894531 337.273438 147.273438 337.398438 146.835938 337.398438 C 146.660156 337.398438 146.511719 337.378906 146.371094 337.351562 C 146.167969 337.308594 145.925781 337.191406 145.574219 336.890625 C 145.253906 336.605469 144.867188 336.144531 144.472656 335.507812 C 143.730469 334.320312 142.984375 332.539062 142.335938 330.371094 C 141.183594 326.566406 140.292969 321.601562 139.59375 316.308594 C 138.539062 308.371094 137.886719 299.703125 137.191406 292.765625 C 136.839844 289.296875 136.484375 286.265625 136.03125 283.90625 C 135.800781 282.707031 135.554688 281.679688 135.21875 280.769531 C 135.046875 280.308594 134.855469 279.871094 134.574219 279.421875 C 134.289062 278.972656 133.917969 278.476562 133.230469 278.0625 C 132.734375 277.761719 132.253906 277.613281 131.808594 277.53125 C 131.367188 277.441406 130.945312 277.40625 130.527344 277.40625 C 129.78125 277.414062 129.03125 277.507812 128.230469 277.648438 C 126.730469 277.921875 125.03125 278.40625 123.117188 279.03125 C 119.777344 280.113281 115.800781 281.644531 111.527344 283.351562 C 105.125 285.886719 98.066406 288.789062 91.75 291.039062 C 88.59375 292.167969 85.625 293.121094 83.050781 293.792969 C 80.480469 294.460938 78.277344 294.816406 76.824219 294.808594 C 76.15625 294.808594 75.65625 294.738281 75.394531 294.644531 C 75.265625 294.609375 75.195312 294.574219 75.167969 294.554688 L 75.160156 294.554688 L 75.039062 294.726562 L 75.195312 294.589844 L 75.160156 294.554688 L 75.039062 294.726562 L 75.195312 294.589844 L 74.796875 294.921875 L 75.273438 294.691406 L 75.195312 294.589844 L 74.796875 294.921875 L 75.273438 294.691406 L 75.269531 294.691406 C 75.238281 294.632812 75.15625 294.289062 75.160156 293.746094 C 75.15625 292.746094 75.402344 291.132812 75.898438 289.207031 C 76.765625 285.820312 78.335938 281.4375 80.210938 276.734375 C 83.019531 269.671875 86.5 261.882812 89.289062 255.269531 C 90.6875 251.957031 91.914062 248.941406 92.8125 246.402344 C 93.257812 245.136719 93.625 243.996094 93.894531 242.960938 C 94.15625 241.921875 94.335938 241.023438 94.347656 240.054688 C 94.34375 239.734375 94.320312 239.386719 94.238281 238.992188 C 94.152344 238.601562 94.007812 238.164062 93.695312 237.695312 C 93.363281 237.210938 92.972656 236.839844 92.574219 236.539062 C 91.792969 235.960938 90.980469 235.632812 90.101562 235.34375 C 88.460938 234.835938 86.542969 234.558594 84.308594 234.351562 C 80.414062 234.007812 75.601562 233.9375 70.492188 233.890625 C 62.84375 233.832031 54.539062 233.808594 48.191406 233.070312 C 45.023438 232.703125 42.347656 232.136719 40.640625 231.421875 C 39.789062 231.078125 39.195312 230.695312 38.882812 230.410156 C 38.730469 230.257812 38.636719 230.144531 38.585938 230.050781 C 38.535156 229.960938 38.511719 229.902344 38.496094 229.820312 C 38.46875 229.683594 38.453125 229.523438 38.453125 229.351562 C 38.453125 228.980469 38.527344 228.519531 38.714844 227.953125 C 39.0625 226.90625 39.832031 225.570312 40.972656 224.09375 C 42.960938 221.5 46.023438 218.519531 49.480469 215.453125 C 54.667969 210.839844 60.734375 206.027344 65.597656 201.40625 C 68.035156 199.089844 70.175781 196.816406 71.792969 194.558594 C 72.597656 193.425781 73.277344 192.289062 73.777344 191.113281 C 74.273438 189.925781 74.597656 188.679688 74.597656 187.378906 C 74.597656 186.316406 74.382812 185.292969 74.035156 184.328125 C 73.382812 182.492188 72.292969 180.777344 70.933594 179.054688 C 68.554688 176.050781 65.300781 172.984375 61.742188 169.847656 C 56.414062 165.160156 50.378906 160.332031 45.78125 155.894531 C 43.484375 153.679688 41.554688 151.5625 40.273438 149.703125 C 39.632812 148.785156 39.160156 147.929688 38.863281 147.195312 C 38.566406 146.453125 38.449219 145.855469 38.453125 145.40625 C 38.453125 145.234375 38.46875 145.082031 38.496094 144.933594 C 38.523438 144.808594 38.558594 144.703125 38.753906 144.484375 C 38.9375 144.28125 39.277344 144.011719 39.792969 143.726562 C 40.757812 143.203125 42.324219 142.6875 44.257812 142.296875 C 47.652344 141.605469 52.179688 141.25 57.039062 141.074219 C 64.332031 140.808594 72.386719 140.933594 78.988281 140.707031 C 82.296875 140.589844 85.238281 140.394531 87.652344 139.980469 C 88.863281 139.769531 89.945312 139.507812 90.941406 139.117188 C 91.441406 138.90625 91.921875 138.679688 92.390625 138.355469 C 92.851562 138.035156 93.316406 137.617188 93.691406 137.0625 L 93.699219 137.054688 C 94.007812 136.59375 94.152344 136.15625 94.238281 135.761719 C 94.320312 135.367188 94.34375 135.023438 94.347656 134.6875 C 94.339844 133.953125 94.230469 133.273438 94.066406 132.515625 C 93.753906 131.117188 93.226562 129.492188 92.546875 127.613281 C 91.347656 124.34375 89.65625 120.320312 87.789062 115.964844 C 84.992188 109.441406 81.789062 102.15625 79.308594 95.714844 C 78.070312 92.5 77.011719 89.492188 76.277344 86.933594 C 75.910156 85.652344 75.625 84.492188 75.4375 83.488281 C 75.246094 82.472656 75.160156 81.621094 75.164062 81.011719 C 75.160156 80.59375 75.203125 80.296875 75.242188 80.160156 L 75.273438 80.050781 L 74.835938 79.859375 L 75.195312 80.167969 L 75.273438 80.050781 L 74.835938 79.859375 L 75.195312 80.167969 L 74.980469 79.984375 L 75.164062 80.203125 L 75.195312 80.167969 L 74.980469 79.984375 L 75.164062 80.203125 L 75.121094 80.148438 L 75.160156 80.203125 L 75.164062 80.203125 L 75.121094 80.148438 L 75.160156 80.203125 C 75.160156 80.203125 75.273438 80.121094 75.5625 80.066406 C 75.839844 79.996094 76.273438 79.941406 76.824219 79.949219 C 78 79.941406 79.679688 80.167969 81.644531 80.628906 C 85.085938 81.414062 89.40625 82.832031 94.003906 84.535156 C 100.914062 87.085938 108.460938 90.230469 114.992188 92.765625 C 118.261719 94.042969 121.277344 95.148438 123.871094 95.96875 C 125.171875 96.371094 126.367188 96.707031 127.464844 96.949219 C 128.5625 97.191406 129.546875 97.339844 130.527344 97.339844 C 130.945312 97.339844 131.367188 97.316406 131.808594 97.226562 C 132.253906 97.144531 132.734375 96.992188 133.226562 96.695312 C 133.828125 96.335938 134.1875 95.910156 134.453125 95.519531 C 134.964844 94.757812 135.222656 94.042969 135.476562 93.214844 C 135.925781 91.679688 136.25 89.78125 136.5625 87.496094 C 137.09375 83.519531 137.53125 78.441406 138.035156 72.96875 C 138.789062 64.785156 139.703125 55.75 141.222656 48.753906 C 141.972656 45.25 142.894531 42.265625 143.910156 40.261719 C 144.40625 39.257812 144.925781 38.507812 145.371094 38.058594 C 145.820312 37.609375 146.136719 37.460938 146.371094 37.40625 L 146.375 37.40625 C 146.511719 37.371094 146.660156 37.355469 146.835938 37.355469 C 147.207031 37.355469 147.695312 37.4375 148.3125 37.679688 C 149.457031 38.117188 150.972656 39.105469 152.613281 40.558594 C 155.496094 43.082031 158.773438 46.957031 162.042969 51.289062 C 166.960938 57.8125 171.910156 65.394531 176.09375 71.398438 C 178.183594 74.417969 180.082031 77.023438 181.769531 78.996094 C 182.621094 79.976562 183.40625 80.792969 184.238281 81.472656 C 184.65625 81.804688 185.089844 82.105469 185.605469 82.359375 C 186.117188 82.601562 186.730469 82.820312 187.519531 82.832031 L 187.519531 80.367188 L 187.472656 82.832031 L 187.519531 82.832031 L 187.519531 80.367188 L 187.472656 82.832031 L 187.550781 82.832031 C 188.15625 82.820312 188.683594 82.683594 189.144531 82.507812 C 190.027344 82.164062 190.710938 81.667969 191.390625 81.09375 C 192.65625 80.007812 193.910156 78.570312 195.289062 76.800781 C 197.699219 73.738281 200.441406 69.707031 203.386719 65.351562 C 207.804688 58.824219 212.6875 51.578125 217.285156 46.078125 C 219.574219 43.335938 221.804688 41.03125 223.757812 39.503906 C 224.734375 38.742188 225.636719 38.175781 226.402344 37.832031 C 227.167969 37.480469 227.78125 37.355469 228.21875 37.355469 C 228.390625 37.355469 228.542969 37.371094 228.683594 37.40625 C 228.875 37.449219 229.085938 37.542969 229.40625 37.839844 C 229.703125 38.105469 230.058594 38.554688 230.417969 39.175781 C 231.09375 40.355469 231.757812 42.136719 232.300781 44.316406 C 233.265625 48.132812 233.910156 53.121094 234.347656 58.445312 C 235.007812 66.433594 235.21875 75.167969 235.578125 82.140625 C 235.757812 85.632812 235.96875 88.683594 236.3125 91.082031 C 236.488281 92.28125 236.691406 93.316406 236.996094 94.25 C 237.148438 94.722656 237.328125 95.175781 237.605469 95.648438 C 237.882812 96.09375 238.261719 96.625 238.976562 97.0625 C 239.476562 97.351562 239.957031 97.5 240.398438 97.59375 C 240.84375 97.671875 241.261719 97.699219 241.679688 97.707031 C 242.4375 97.699219 243.203125 97.605469 244.03125 97.464844 C 245.578125 97.179688 247.347656 96.695312 249.351562 96.0625 C 252.847656 94.957031 257.042969 93.398438 261.554688 91.671875 C 268.3125 89.078125 275.777344 86.117188 282.449219 83.808594 C 285.785156 82.671875 288.917969 81.691406 291.632812 81.011719 C 294.34375 80.320312 296.660156 79.949219 298.1875 79.960938 C 298.882812 79.960938 299.398438 80.03125 299.671875 80.121094 C 299.804688 80.160156 299.882812 80.203125 299.90625 80.214844 L 300.136719 79.925781 L 299.863281 80.167969 L 299.90625 80.214844 L 300.136719 79.925781 L 299.863281 80.167969 L 300.253906 79.832031 L 299.78125 80.050781 L 299.859375 80.167969 L 300.253906 79.832031 L 299.78125 80.050781 L 299.789062 80.066406 C 299.8125 80.121094 299.898438 80.46875 299.894531 81.011719 C 299.902344 82.011719 299.652344 83.625 299.152344 85.550781 C 298.292969 88.929688 296.71875 93.316406 294.84375 98.019531 C 292.03125 105.074219 288.554688 112.875 285.761719 119.488281 C 284.363281 122.796875 283.144531 125.816406 282.242188 128.351562 C 281.792969 129.621094 281.425781 130.761719 281.160156 131.796875 C 280.898438 132.835938 280.71875 133.734375 280.710938 134.6875 C 280.710938 135.023438 280.734375 135.367188 280.816406 135.761719 C 280.902344 136.15625 281.050781 136.601562 281.359375 137.0625 C 281.6875 137.546875 282.082031 137.917969 282.480469 138.21875 C 283.257812 138.792969 284.074219 139.125 284.949219 139.40625 C 286.59375 139.921875 288.507812 140.199219 290.742188 140.40625 C 294.636719 140.75 299.453125 140.820312 304.5625 140.855469 C 312.210938 140.925781 320.519531 140.949219 326.867188 141.683594 C 330.03125 142.054688 332.707031 142.621094 334.414062 143.332031 C 335.269531 143.679688 335.859375 144.058594 336.167969 144.347656 C 336.324219 144.5 336.417969 144.609375 336.46875 144.703125 C 336.523438 144.796875 336.542969 144.855469 336.558594 144.933594 L 336.558594 144.925781 C 336.585938 145.074219 336.601562 145.234375 336.601562 145.40625 C 336.601562 145.777344 336.527344 146.234375 336.339844 146.804688 C 335.988281 147.839844 335.21875 149.1875 334.078125 150.664062 C 332.089844 153.253906 329.03125 156.238281 325.574219 159.304688 C 320.386719 163.914062 314.324219 168.730469 309.453125 173.351562 C 307.019531 175.667969 304.875 177.929688 303.261719 180.199219 C 302.453125 181.328125 301.777344 182.46875 301.277344 183.644531 C 300.78125 184.832031 300.460938 186.074219 300.460938 187.378906 L 303.167969 187.378906 "/></g><g clip-rule="nonzero" clip-path="url(#clip5)"><g clip-rule="nonzero" clip-path="url(#clip6)"><g clip-rule="nonzero" clip-path="url(#clip7)"><g clip-rule="nonzero" clip-path="url(#clip8)"><path style=" stroke:none;fill-rule:nonzero;fill:url(#radial1);" d="M 111.148438 272.546875 L 107.773438 120.136719 L 273.667969 116.472656 L 277.046875 268.882812 Z M 111.148438 272.546875 "/></g></g></g></g><path style=" stroke:none;fill-rule:nonzero;fill:rgb(71.369934%,16.079712%,37.249756%);fill-opacity:1;" d="M 182.679688 121.945312 L 181.285156 119.625 C 176.023438 122.78125 169.972656 127.125 164.203125 132.664062 C 158.429688 138.195312 152.9375 144.925781 148.867188 152.84375 C 145.988281 158.425781 143.605469 163.792969 141.949219 169.707031 C 140.292969 175.613281 139.382812 182.03125 139.386719 189.652344 C 139.386719 190.929688 139.410156 192.246094 139.464844 193.589844 C 139.722656 200.351562 140.910156 208.367188 144.746094 216.085938 C 146.664062 219.953125 149.246094 223.722656 152.679688 227.199219 C 156.105469 230.664062 160.386719 233.808594 165.652344 236.445312 C 172.308594 239.765625 179.796875 241.59375 187.457031 241.59375 C 194.5 241.59375 201.691406 240.039062 208.441406 236.667969 C 215.195312 233.300781 221.496094 228.113281 226.769531 220.933594 C 229.164062 217.679688 231.363281 213.828125 232.984375 209.640625 C 234.601562 205.449219 235.640625 200.902344 235.644531 196.246094 C 235.644531 193.996094 235.394531 191.707031 234.84375 189.453125 C 234.097656 186.421875 232.546875 182.175781 229.359375 178.425781 C 227.761719 176.558594 225.746094 174.832031 223.246094 173.511719 C 220.75 172.203125 217.78125 171.324219 214.359375 171.113281 C 213.863281 171.082031 213.363281 171.074219 212.855469 171.074219 C 209.800781 171.074219 206.605469 171.632812 203.660156 172.960938 C 200.726562 174.28125 198.023438 176.414062 196.242188 179.492188 C 195.402344 180.957031 194.773438 182.351562 194.363281 183.769531 C 193.949219 185.175781 193.765625 186.597656 193.765625 188.011719 C 193.769531 189.742188 194.023438 191.457031 194.402344 193.316406 C 194.789062 195.183594 195.304688 197.21875 195.886719 199.625 C 196.632812 202.691406 196.957031 205.054688 196.957031 206.945312 C 196.949219 208.871094 196.636719 210.289062 196.042969 211.664062 C 195.445312 213.050781 194.503906 214.4375 193.148438 216.070312 C 192.164062 217.257812 190.636719 218.261719 188.730469 218.929688 C 186.835938 219.605469 184.597656 219.953125 182.390625 219.941406 C 179.289062 219.953125 176.246094 219.25 174.34375 218.160156 C 170.265625 215.875 167.3125 213.191406 165.246094 209.707031 C 163.1875 206.199219 161.972656 201.777344 161.78125 195.851562 C 161.757812 195.195312 161.746094 194.546875 161.746094 193.90625 C 161.75 186.375 163.183594 179.921875 166.011719 174.148438 C 168.84375 168.375 173.097656 163.253906 178.90625 158.492188 C 189.289062 150.003906 201.15625 146.441406 213.074219 146.429688 C 223.09375 146.429688 233.136719 148.980469 242.128906 153.3125 C 246.96875 155.644531 254.011719 159.957031 259.863281 166.742188 C 262.789062 170.136719 265.425781 174.140625 267.390625 178.84375 C 269.351562 183.5625 270.636719 188.984375 270.847656 195.25 C 270.863281 195.773438 270.871094 196.316406 270.871094 196.855469 C 270.871094 204.152344 269.25 211.664062 266.28125 218.910156 C 261.832031 229.785156 254.347656 240.039062 244.957031 248.09375 C 235.5625 256.148438 224.285156 261.976562 212.265625 264.128906 C 205.191406 265.394531 198.105469 266.042969 191.164062 266.042969 C 175.5 266.042969 160.578125 262.722656 148.152344 255.699219 C 135.722656 248.671875 125.730469 238.007812 119.722656 223 C 115.984375 213.644531 114.109375 203.75 114.109375 193.90625 C 114.113281 174.160156 121.632812 154.621094 136.753906 139.757812 C 143.335938 133.292969 149.75 129.277344 155.765625 126.859375 C 161.78125 124.453125 167.414062 123.628906 172.460938 123.628906 C 176.015625 123.628906 179.273438 124.035156 182.152344 124.605469 L 182.679688 121.945312 L 181.285156 119.625 L 182.679688 121.945312 L 183.207031 119.296875 C 180.050781 118.667969 176.433594 118.207031 172.460938 118.207031 C 166.816406 118.207031 160.457031 119.140625 153.742188 121.847656 C 147.03125 124.539062 139.992188 128.980469 132.949219 135.898438 C 116.757812 151.808594 108.683594 172.796875 108.6875 193.90625 C 108.6875 204.4375 110.691406 215.007812 114.683594 225 C 121.125 241.152344 132.070312 252.859375 145.484375 260.414062 C 158.898438 267.980469 174.738281 271.453125 191.164062 271.453125 C 198.445312 271.453125 205.847656 270.769531 213.21875 269.453125 C 230.714844 266.308594 246.417969 256.171875 257.796875 242.878906 C 263.484375 236.226562 268.097656 228.773438 271.296875 220.953125 C 274.5 213.140625 276.292969 204.957031 276.292969 196.855469 C 276.292969 196.261719 276.289062 195.664062 276.265625 195.074219 C 276.039062 188.15625 274.601562 182.066406 272.398438 176.765625 C 269.089844 168.816406 264.074219 162.683594 258.925781 158.078125 C 253.769531 153.457031 248.476562 150.355469 244.484375 148.433594 C 234.824219 143.792969 224.019531 141.023438 213.074219 141.023438 C 200.078125 141.011719 186.859375 144.972656 175.46875 154.304688 C 169.1875 159.449219 164.363281 165.199219 161.144531 171.761719 C 157.917969 178.335938 156.320312 185.683594 156.324219 193.90625 C 156.324219 194.613281 156.335938 195.3125 156.359375 196.027344 C 156.570312 202.59375 157.949219 208.003906 160.574219 212.445312 C 163.1875 216.894531 167.007812 220.273438 171.691406 222.890625 C 174.730469 224.574219 178.515625 225.351562 182.390625 225.363281 C 185.148438 225.363281 187.949219 224.949219 190.546875 224.035156 C 193.128906 223.109375 195.539062 221.679688 197.328125 219.527344 C 198.839844 217.691406 200.121094 215.886719 201.015625 213.828125 C 201.917969 211.773438 202.386719 209.488281 202.378906 206.945312 C 202.375 204.4375 201.957031 201.667969 201.15625 198.347656 C 200.566406 195.917969 200.058594 193.917969 199.71875 192.226562 C 199.367188 190.542969 199.1875 189.191406 199.1875 188.011719 C 199.191406 187.046875 199.304688 186.1875 199.570312 185.277344 C 199.832031 184.363281 200.265625 183.375 200.9375 182.207031 C 202.074219 180.25 203.789062 178.84375 205.898438 177.886719 C 207.996094 176.941406 210.476562 176.480469 212.855469 176.480469 C 213.25 176.480469 213.636719 176.492188 214.023438 176.527344 C 216.726562 176.6875 218.902344 177.351562 220.722656 178.304688 C 223.449219 179.734375 225.414062 181.871094 226.847656 184.164062 C 228.277344 186.453125 229.132812 188.90625 229.578125 190.730469 C 230.019531 192.542969 230.222656 194.390625 230.222656 196.246094 C 230.222656 200.085938 229.351562 204.003906 227.925781 207.695312 C 226.5 211.378906 224.523438 214.839844 222.398438 217.730469 C 217.597656 224.253906 211.984375 228.839844 206.015625 231.828125 C 200.046875 234.808594 193.703125 236.171875 187.457031 236.179688 C 180.667969 236.179688 173.984375 234.546875 168.078125 231.597656 C 163.304688 229.210938 159.539062 226.421875 156.535156 223.386719 C 152.035156 218.84375 149.230469 213.730469 147.480469 208.542969 C 145.734375 203.351562 145.058594 198.097656 144.882812 193.390625 C 144.835938 192.105469 144.808594 190.863281 144.808594 189.652344 C 144.808594 182.449219 145.65625 176.589844 147.171875 171.15625 C 148.691406 165.738281 150.894531 160.734375 153.6875 155.316406 C 157.417969 148.046875 162.527344 141.769531 167.957031 136.566406 C 173.382812 131.359375 179.128906 127.234375 184.074219 124.265625 C 185.039062 123.695312 185.542969 122.585938 185.351562 121.484375 C 185.15625 120.382812 184.308594 119.515625 183.207031 119.296875 L 182.679688 121.945312 "/></g></svg>