<svg xmlns="http://www.w3.org/2000/svg" xmlns:xlink="http://www.w3.org/1999/xlink" width="500" zoomAndPan="magnify" viewBox="0 0 375 374.999991" height="500" preserveAspectRatio="xMidYMid meet" version="1.0"><defs><clipPath id="92fbf155fd"><path d="M 100.742188 95 L 273.992188 95 L 273.992188 257.640625 L 100.742188 257.640625 Z M 100.742188 95 " clip-rule="nonzero"/></clipPath><clipPath id="93c5fb1569"><path d="M 0 95 L 101.25 95 L 101.25 262 L 0 262 Z M 0 95 " clip-rule="nonzero"/></clipPath><clipPath id="568e592a20"><path d="M 267.070312 95.242188 L 370.570312 95.242188 L 370.570312 266.992188 L 267.070312 266.992188 Z M 267.070312 95.242188 " clip-rule="nonzero"/></clipPath></defs><path fill="#ffffff" d="M 188.402344 255.6875 C 187.941406 255.6875 187.480469 255.6875 187.132812 255.6875 C 186.902344 255.6875 186.558594 255.6875 186.328125 255.6875 C 176.292969 255.6875 169.832031 251.191406 163.605469 246.695312 C 159.335938 243.699219 155.300781 240.816406 150.453125 240.011719 C 148.148438 239.664062 145.839844 239.433594 143.535156 239.433594 C 139.496094 239.433594 136.265625 240.011719 133.960938 240.472656 C 132.574219 240.703125 131.308594 240.933594 130.382812 240.933594 C 129.460938 240.933594 128.308594 240.703125 127.960938 239.203125 C 127.617188 237.820312 127.269531 236.550781 127.039062 235.285156 C 126.347656 232.058594 125.769531 229.980469 124.5 229.867188 C 108.582031 227.445312 103.96875 224.101562 103.046875 221.683594 C 102.933594 221.335938 102.816406 220.992188 102.816406 220.644531 C 102.816406 219.722656 103.394531 218.917969 104.316406 218.800781 C 128.769531 214.765625 139.726562 189.753906 140.1875 188.714844 C 140.1875 188.714844 140.1875 188.601562 140.1875 188.601562 C 141.6875 185.605469 142.035156 182.953125 141.113281 180.761719 C 139.382812 176.84375 133.960938 175.113281 130.382812 173.960938 C 129.460938 173.730469 128.652344 173.386719 127.960938 173.15625 C 120.695312 170.273438 120.117188 167.390625 120.464844 165.894531 C 120.925781 163.355469 124.386719 161.511719 127.15625 161.511719 C 127.960938 161.511719 128.539062 161.628906 129.117188 161.859375 C 132.34375 163.355469 135.34375 164.164062 137.882812 164.164062 C 141.34375 164.164062 142.957031 162.664062 143.074219 162.550781 C 142.957031 160.9375 142.839844 159.207031 142.726562 157.363281 C 142.035156 145.835938 141.113281 131.425781 144.800781 123.242188 C 155.761719 98.691406 179.058594 96.730469 185.867188 96.730469 C 186.097656 96.730469 188.863281 96.730469 188.863281 96.730469 L 189.328125 96.730469 C 196.246094 96.730469 219.546875 98.691406 230.503906 123.242188 C 234.195312 131.425781 233.273438 145.835938 232.582031 157.363281 L 232.582031 157.824219 C 232.464844 159.4375 232.351562 161.050781 232.351562 162.550781 C 232.582031 162.78125 233.964844 164.046875 237.078125 164.164062 C 239.5 164.046875 242.269531 163.355469 245.269531 161.859375 C 246.191406 161.398438 247.113281 161.398438 247.808594 161.398438 C 248.84375 161.398438 249.882812 161.628906 250.691406 161.972656 C 253.113281 162.894531 254.726562 164.507812 254.84375 166.355469 C 254.84375 168.082031 253.574219 170.617188 247.230469 173.15625 C 246.539062 173.386719 245.730469 173.730469 244.808594 173.960938 C 241.230469 175.113281 235.695312 176.84375 234.082031 180.761719 C 233.15625 182.953125 233.503906 185.605469 235.003906 188.601562 C 235.003906 188.601562 235.003906 188.714844 235.003906 188.714844 C 235.464844 189.753906 246.421875 214.765625 270.875 218.800781 C 271.800781 218.917969 272.375 219.722656 272.375 220.644531 C 272.375 220.992188 272.261719 221.335938 272.144531 221.683594 C 271.105469 223.988281 266.609375 227.445312 250.691406 229.867188 C 249.421875 230.097656 248.84375 231.710938 248.152344 235.285156 C 247.921875 236.550781 247.574219 237.820312 247.230469 239.203125 C 246.882812 240.355469 246.191406 240.933594 244.921875 240.933594 L 244.691406 240.933594 C 243.886719 240.933594 242.617188 240.816406 241.117188 240.472656 C 238.464844 239.894531 235.347656 239.433594 231.542969 239.433594 C 229.351562 239.433594 226.929688 239.664062 224.621094 240.011719 C 219.894531 240.816406 215.742188 243.699219 211.472656 246.695312 C 204.898438 251.191406 198.4375 255.6875 188.402344 255.6875 Z M 188.402344 255.6875 " fill-opacity="1" fill-rule="nonzero"/><g clip-path="url(#92fbf155fd)"><path fill="#020202" d="M 189.09375 98.574219 C 195.671875 98.574219 218.046875 100.304688 228.660156 124.050781 C 232.121094 131.886719 231.195312 145.953125 230.503906 157.363281 C 230.390625 159.207031 230.273438 160.9375 230.160156 162.550781 L 230.160156 163.242188 L 230.621094 163.816406 C 230.851562 164.046875 232.582031 165.894531 236.617188 166.125 L 236.847656 166.125 C 239.5 166.007812 242.5 165.199219 245.730469 163.703125 C 246.191406 163.472656 246.882812 163.355469 247.574219 163.355469 C 248.382812 163.355469 249.191406 163.472656 249.882812 163.816406 L 250 163.816406 C 251.730469 164.394531 252.882812 165.546875 252.882812 166.585938 C 252.882812 167.160156 252.421875 169.234375 246.421875 171.65625 C 245.847656 171.886719 245.039062 172.117188 244.117188 172.464844 C 240.195312 173.730469 234.195312 175.574219 232.234375 180.300781 C 231.082031 182.953125 231.425781 186.066406 233.15625 189.636719 C 233.851562 191.25 245.152344 216.609375 270.414062 220.761719 C 270.414062 220.875 270.414062 220.992188 270.300781 221.222656 C 269.839844 222.257812 267.183594 225.71875 250.230469 228.367188 C 247.574219 228.828125 246.882812 231.710938 246.191406 235.167969 C 245.960938 236.4375 245.613281 237.707031 245.269531 238.972656 C 245.152344 239.320312 245.152344 239.433594 244.691406 239.433594 C 244.691406 239.433594 244.578125 239.433594 244.460938 239.433594 C 243.65625 239.433594 242.617188 239.320312 241.230469 238.972656 C 238.808594 238.511719 235.582031 237.9375 231.3125 237.9375 C 229.003906 237.9375 226.582031 238.167969 224.160156 238.511719 C 218.96875 239.320312 214.703125 242.316406 210.320312 245.542969 C 204.320312 249.808594 198.09375 254.1875 188.632812 254.1875 C 188.171875 254.1875 187.828125 254.1875 187.367188 254.1875 L 187.132812 254.1875 C 186.902344 254.1875 186.671875 254.1875 186.441406 254.1875 C 176.984375 254.1875 170.753906 249.808594 164.757812 245.542969 C 160.257812 242.429688 156.105469 239.433594 150.914062 238.511719 C 148.492188 238.167969 146.070312 237.9375 143.765625 237.9375 C 139.613281 237.9375 136.265625 238.628906 133.84375 239.089844 C 132.574219 239.320312 131.421875 239.550781 130.613281 239.550781 C 130.039062 239.550781 130.039062 239.550781 129.808594 239.089844 C 129.460938 237.820312 129.117188 236.550781 128.886719 235.285156 C 128.078125 231.828125 127.5 228.828125 124.847656 228.484375 C 107.890625 225.832031 105.125 222.375 104.777344 221.335938 C 104.664062 221.222656 104.664062 220.992188 104.664062 220.875 C 129.921875 216.726562 141.226562 191.367188 141.917969 189.753906 C 143.648438 186.179688 143.996094 183.066406 142.839844 180.417969 C 140.882812 175.691406 134.882812 173.847656 130.960938 172.578125 C 130.039062 172.347656 129.230469 172.003906 128.652344 171.769531 C 123.578125 169.695312 121.964844 167.738281 122.195312 166.46875 C 122.425781 165.085938 124.964844 163.585938 127.039062 163.585938 C 127.5 163.585938 127.960938 163.703125 128.308594 163.816406 C 131.769531 165.433594 135 166.238281 137.765625 166.238281 C 142.148438 166.238281 144.109375 164.164062 144.339844 163.933594 L 144.800781 163.355469 L 144.800781 162.664062 C 144.6875 161.050781 144.570312 159.207031 144.457031 157.476562 C 143.535156 145.953125 142.726562 131.886719 146.1875 124.050781 C 156.683594 100.421875 179.058594 98.574219 185.636719 98.574219 C 185.75 98.574219 188.632812 98.574219 188.632812 98.574219 C 188.75 98.574219 188.863281 98.574219 189.09375 98.574219 M 189.09375 95.003906 C 188.980469 95.003906 188.75 95.003906 188.632812 95.003906 C 188.632812 95.003906 185.867188 95.003906 185.636719 95.003906 C 178.484375 95.003906 154.261719 96.960938 142.839844 122.550781 C 139.035156 131.195312 139.957031 145.722656 140.648438 157.476562 C 140.765625 158.863281 140.882812 160.246094 140.882812 161.742188 C 140.304688 162.089844 139.265625 162.433594 137.535156 162.433594 C 135.230469 162.433594 132.574219 161.742188 129.578125 160.359375 C 128.769531 160.015625 127.847656 159.785156 126.808594 159.785156 C 123.234375 159.785156 119.082031 162.089844 118.386719 165.546875 C 117.925781 168.082031 119.082031 171.65625 127.039062 174.882812 C 127.730469 175.113281 128.652344 175.460938 129.578125 175.691406 C 132.921875 176.726562 137.882812 178.339844 139.265625 181.570312 C 139.957031 183.183594 139.726562 185.375 138.457031 187.910156 C 138.457031 188.023438 138.457031 188.023438 138.34375 188.140625 C 137.882812 189.175781 127.269531 213.269531 103.855469 217.1875 C 102.007812 217.53125 100.742188 219.148438 100.855469 220.875 C 100.855469 221.453125 100.972656 221.914062 101.203125 222.488281 C 102.933594 226.640625 110.429688 229.636719 123.925781 231.710938 C 124.386719 232.289062 124.847656 234.476562 125.195312 235.859375 C 125.425781 237.128906 125.769531 238.511719 126.230469 239.894531 C 126.691406 241.277344 127.730469 242.890625 130.382812 242.890625 C 131.539062 242.890625 132.808594 242.660156 134.304688 242.316406 C 136.613281 241.855469 139.613281 241.277344 143.535156 241.277344 C 145.726562 241.277344 147.917969 241.507812 150.109375 241.855469 C 154.492188 242.546875 158.183594 245.199219 162.449219 248.195312 C 168.5625 252.574219 175.601562 257.53125 186.210938 257.53125 C 186.558594 257.53125 186.789062 257.53125 187.132812 257.53125 C 187.480469 257.53125 187.941406 257.53125 188.402344 257.53125 C 199.015625 257.53125 205.9375 252.574219 212.164062 248.195312 C 216.433594 245.199219 220.238281 242.546875 224.621094 241.855469 C 226.8125 241.507812 229.121094 241.277344 231.195312 241.277344 C 234.886719 241.277344 237.773438 241.738281 240.425781 242.199219 C 242.039062 242.546875 243.421875 242.660156 244.347656 242.660156 L 244.578125 242.660156 C 246.539062 242.660156 248.039062 241.625 248.613281 239.664062 C 249.074219 238.28125 249.304688 237.011719 249.652344 235.628906 C 249.882812 234.363281 250.460938 232.171875 250.804688 231.597656 C 264.417969 229.519531 271.796875 226.523438 273.527344 222.375 C 273.757812 221.796875 273.875 221.335938 273.875 220.761719 C 273.992188 218.917969 272.722656 217.300781 270.875 217.070312 C 247.34375 213.152344 236.734375 189.0625 236.386719 188.023438 C 236.386719 187.910156 236.386719 187.910156 236.273438 187.792969 C 235.003906 185.257812 234.773438 183.066406 235.464844 181.453125 C 236.847656 178.226562 241.808594 176.726562 245.152344 175.574219 C 246.078125 175.230469 247 175 247.691406 174.769531 C 253.574219 172.464844 256.457031 169.582031 256.457031 166.355469 C 256.457031 163.816406 254.382812 161.511719 251.152344 160.359375 C 250.113281 159.898438 248.84375 159.667969 247.574219 159.667969 C 246.769531 159.667969 245.5 159.785156 244.230469 160.359375 C 241.460938 161.628906 238.925781 162.320312 236.734375 162.433594 C 235.347656 162.320312 234.3125 161.972656 233.851562 161.742188 C 233.964844 160.589844 233.964844 159.324219 234.082031 158.054688 L 234.082031 157.59375 C 234.773438 145.835938 235.695312 131.195312 231.890625 122.667969 C 220.46875 96.960938 196.246094 95.003906 189.09375 95.003906 Z M 189.09375 95.003906 " fill-opacity="1" fill-rule="nonzero"/></g><g clip-path="url(#93c5fb1569)"><path fill="#f6f514" d="M 83.578125 261.960938 L 0.015625 178.792969 L 84.160156 95.050781 L 101.269531 112.078125 L 34.234375 178.792969 L 100.6875 244.933594 L 83.578125 261.960938 " fill-opacity="1" fill-rule="nonzero"/></g><g clip-path="url(#568e592a20)"><path fill="#f6f514" d="M 285.132812 95.433594 L 370.554688 180.835938 L 284.542969 266.828125 L 267.050781 249.34375 L 335.574219 180.835938 L 267.644531 112.917969 L 285.132812 95.433594 " fill-opacity="1" fill-rule="nonzero"/></g></svg>