<svg xmlns="http://www.w3.org/2000/svg" xmlns:xlink="http://www.w3.org/1999/xlink" width="500" zoomAndPan="magnify" viewBox="0 0 375 374.999991" height="500" preserveAspectRatio="xMidYMid meet" version="1.0"><defs><clipPath id="4a889e3ab1"><path d="M 53.195312 43.035156 L 299 43.035156 L 299 321.707031 L 53.195312 321.707031 Z M 53.195312 43.035156 " clip-rule="nonzero"/></clipPath></defs><g clip-path="url(#4a889e3ab1)"><path fill="#c8c6c6" d="M 298.929688 321.707031 L 188.601562 321.707031 C 187.101562 321.707031 185.601562 321.671875 184.105469 321.597656 C 182.605469 321.523438 181.109375 321.414062 179.617188 321.269531 C 178.125 321.121094 176.636719 320.933594 175.152344 320.71875 C 173.667969 320.496094 172.191406 320.238281 170.722656 319.945312 C 169.25 319.652344 167.785156 319.324219 166.332031 318.960938 C 164.878906 318.59375 163.433594 318.195312 161.996094 317.757812 C 160.5625 317.324219 159.136719 316.851562 157.722656 316.347656 C 156.3125 315.839844 154.914062 315.300781 153.527344 314.726562 C 152.140625 314.152344 150.773438 313.542969 149.414062 312.902344 C 148.058594 312.261719 146.71875 311.582031 145.398438 310.878906 C 144.074219 310.167969 142.769531 309.429688 141.484375 308.660156 C 140.195312 307.886719 138.929688 307.085938 137.683594 306.25 C 136.433594 305.414062 135.210938 304.550781 134.003906 303.65625 C 132.800781 302.761719 131.617188 301.839844 130.457031 300.886719 C 129.300781 299.933594 128.164062 298.953125 127.050781 297.945312 C 125.941406 296.9375 124.855469 295.902344 123.792969 294.839844 C 122.730469 293.777344 121.699219 292.691406 120.691406 291.578125 C 119.683594 290.46875 118.707031 289.332031 117.753906 288.171875 C 116.804688 287.011719 115.882812 285.824219 114.988281 284.621094 C 114.09375 283.414062 113.230469 282.191406 112.394531 280.941406 C 111.566406 279.691406 110.761719 278.425781 109.992188 277.136719 C 109.21875 275.847656 108.480469 274.542969 107.773438 273.21875 C 107.066406 271.894531 106.390625 270.554688 105.75 269.195312 C 105.109375 267.839844 104.5 266.464844 103.925781 265.082031 C 103.355469 263.691406 102.8125 262.292969 102.308594 260.882812 C 101.800781 259.46875 101.332031 258.042969 100.898438 256.605469 C 100.460938 255.167969 100.058594 253.722656 99.699219 252.265625 C 99.332031 250.808594 99.003906 249.34375 98.714844 247.871094 C 98.421875 246.402344 98.160156 244.921875 97.941406 243.433594 C 97.722656 241.953125 97.539062 240.460938 97.390625 238.96875 C 97.246094 237.472656 97.136719 235.976562 97.058594 234.476562 C 96.988281 232.976562 96.949219 231.476562 96.949219 229.976562 L 96.949219 133.894531 C 96.949219 124.769531 93.910156 113.027344 79.140625 109.117188 L 53.515625 102.160156 L 156.023438 102.160156 L 156.023438 43.035156 L 298.929688 102.59375 Z M 93.910156 109.550781 C 95.585938 111.085938 97.078125 112.785156 98.378906 114.652344 C 99.683594 116.515625 100.765625 118.5 101.628906 120.605469 C 102.492188 122.707031 103.113281 124.882812 103.5 127.125 C 103.882812 129.367188 104.015625 131.625 103.902344 133.894531 L 103.902344 229.976562 C 103.902344 231.363281 103.933594 232.75 104.003906 234.136719 C 104.070312 235.519531 104.171875 236.90625 104.308594 238.285156 C 104.441406 239.667969 104.613281 241.042969 104.816406 242.414062 C 105.019531 243.789062 105.257812 245.15625 105.53125 246.515625 C 105.800781 247.875 106.101562 249.230469 106.4375 250.574219 C 106.777344 251.921875 107.144531 253.257812 107.546875 254.585938 C 107.949219 255.914062 108.386719 257.230469 108.851562 258.535156 C 109.320312 259.84375 109.816406 261.136719 110.347656 262.417969 C 110.878906 263.703125 111.4375 264.96875 112.035156 266.222656 C 112.625 267.476562 113.25 268.714844 113.902344 269.9375 C 114.554688 271.164062 115.238281 272.371094 115.949219 273.558594 C 116.664062 274.75 117.40625 275.921875 118.175781 277.078125 C 118.945312 278.230469 119.746094 279.363281 120.570312 280.476562 C 121.394531 281.589844 122.246094 282.683594 123.125 283.757812 C 124.007812 284.832031 124.910156 285.878906 125.84375 286.910156 C 126.773438 287.933594 127.730469 288.941406 128.707031 289.921875 C 129.691406 290.90625 130.691406 291.859375 131.722656 292.789062 C 132.746094 293.722656 133.796875 294.628906 134.867188 295.511719 C 135.941406 296.390625 137.03125 297.242188 138.144531 298.070312 C 139.257812 298.894531 140.390625 299.695312 141.542969 300.464844 C 142.695312 301.234375 143.867188 301.976562 145.054688 302.691406 C 146.246094 303.402344 147.449219 304.085938 148.671875 304.742188 C 149.898438 305.398438 151.132812 306.019531 152.386719 306.613281 C 153.640625 307.207031 154.90625 307.765625 156.1875 308.300781 C 157.46875 308.832031 158.761719 309.328125 160.066406 309.796875 C 161.371094 310.265625 162.6875 310.699219 164.015625 311.101562 C 165.339844 311.503906 166.675781 311.871094 168.019531 312.214844 C 169.363281 312.550781 170.71875 312.851562 172.078125 313.121094 C 173.433594 313.394531 174.800781 313.628906 176.175781 313.835938 C 177.542969 314.039062 178.917969 314.210938 180.296875 314.34375 C 181.675781 314.480469 183.058594 314.582031 184.445312 314.648438 C 185.832031 314.71875 187.214844 314.753906 188.601562 314.753906 L 291.546875 314.753906 L 291.546875 107.375 L 162.972656 53.46875 L 162.972656 109.550781 Z M 93.910156 109.550781 " fill-opacity="1" fill-rule="nonzero"/></g><path fill="#ffffff" d="M 185.558594 299.539062 C 184.414062 299.539062 183.265625 299.507812 182.121094 299.453125 C 180.976562 299.394531 179.832031 299.3125 178.691406 299.199219 C 177.550781 299.085938 176.410156 298.949219 175.277344 298.777344 C 174.140625 298.613281 173.011719 298.417969 171.886719 298.191406 C 170.761719 297.96875 169.640625 297.722656 168.53125 297.445312 C 167.414062 297.164062 166.308594 296.859375 165.210938 296.527344 C 164.113281 296.195312 163.023438 295.839844 161.941406 295.449219 C 160.863281 295.066406 159.792969 294.652344 158.730469 294.214844 C 157.671875 293.777344 156.621094 293.316406 155.585938 292.828125 C 154.546875 292.335938 153.519531 291.824219 152.511719 291.285156 C 151.496094 290.742188 150.5 290.179688 149.511719 289.59375 C 148.527344 289.007812 147.558594 288.390625 146.601562 287.757812 C 145.648438 287.125 144.707031 286.460938 143.78125 285.78125 C 142.859375 285.097656 141.957031 284.398438 141.066406 283.667969 C 140.179688 282.945312 139.308594 282.195312 138.457031 281.425781 C 137.601562 280.660156 136.769531 279.871094 135.957031 279.0625 C 135.144531 278.25 134.351562 277.421875 133.574219 276.574219 C 132.804688 275.730469 132.050781 274.859375 131.320312 273.976562 C 130.589844 273.089844 129.882812 272.191406 129.191406 271.269531 C 128.507812 270.347656 127.84375 269.414062 127.203125 268.460938 C 126.5625 267.507812 125.945312 266.542969 125.351562 265.558594 C 124.757812 264.578125 124.1875 263.582031 123.640625 262.570312 C 123.097656 261.5625 122.578125 260.539062 122.082031 259.5 C 121.585938 258.464844 121.117188 257.417969 120.671875 256.359375 C 120.230469 255.300781 119.8125 254.230469 119.421875 253.15625 C 119.03125 252.074219 118.664062 250.984375 118.324219 249.890625 C 117.988281 248.789062 117.675781 247.6875 117.394531 246.574219 C 117.105469 245.464844 116.851562 244.34375 116.621094 243.222656 C 116.390625 242.09375 116.1875 240.964844 116.011719 239.832031 C 115.835938 238.695312 115.691406 237.558594 115.574219 236.414062 C 115.453125 235.273438 115.363281 234.128906 115.300781 232.984375 C 115.234375 231.835938 115.203125 230.691406 115.195312 229.542969 L 115.195312 123.460938 L 158.628906 123.460938 L 158.628906 220.410156 C 158.628906 243.453125 164.277344 261.277344 191.640625 272.582031 L 252.015625 299.539062 Z M 185.558594 299.539062 " fill-opacity="1" fill-rule="nonzero"/><path fill="#010101" d="M 156.457031 125.636719 L 156.457031 220.410156 C 156.457031 242.148438 161.667969 262.148438 191.207031 274.320312 L 242.460938 297.796875 L 185.558594 297.796875 C 184.445312 297.796875 183.332031 297.769531 182.210938 297.714844 C 181.097656 297.660156 179.988281 297.578125 178.875 297.46875 C 177.765625 297.359375 176.660156 297.222656 175.554688 297.058594 C 174.449219 296.894531 173.351562 296.703125 172.257812 296.488281 C 171.160156 296.265625 170.074219 296.023438 168.988281 295.753906 C 167.90625 295.480469 166.832031 295.183594 165.765625 294.859375 C 164.699219 294.535156 163.636719 294.183594 162.585938 293.808594 C 161.535156 293.429688 160.496094 293.03125 159.460938 292.601562 C 158.433594 292.171875 157.414062 291.71875 156.402344 291.246094 C 155.394531 290.765625 154.398438 290.265625 153.414062 289.738281 C 152.429688 289.210938 151.457031 288.660156 150.5 288.085938 C 149.542969 287.511719 148.601562 286.914062 147.675781 286.296875 C 146.746094 285.675781 145.832031 285.03125 144.9375 284.363281 C 144.039062 283.699219 143.160156 283.011719 142.296875 282.304688 C 141.433594 281.59375 140.589844 280.867188 139.761719 280.113281 C 138.9375 279.367188 138.128906 278.59375 137.339844 277.808594 C 136.550781 277.015625 135.78125 276.207031 135.03125 275.378906 C 134.28125 274.550781 133.554688 273.703125 132.84375 272.84375 C 132.136719 271.980469 131.449219 271.097656 130.785156 270.199219 C 130.121094 269.304688 129.480469 268.390625 128.859375 267.460938 C 128.238281 266.53125 127.640625 265.589844 127.066406 264.628906 C 126.496094 263.671875 125.945312 262.699219 125.417969 261.71875 C 124.890625 260.734375 124.390625 259.734375 123.914062 258.722656 C 123.433594 257.714844 122.984375 256.695312 122.554688 255.660156 C 122.132812 254.628906 121.726562 253.589844 121.351562 252.539062 C 120.976562 251.484375 120.625 250.425781 120.300781 249.355469 C 119.976562 248.289062 119.679688 247.210938 119.410156 246.128906 C 119.136719 245.042969 118.894531 243.953125 118.675781 242.855469 C 118.457031 241.761719 118.269531 240.660156 118.105469 239.554688 C 117.941406 238.453125 117.804688 237.34375 117.695312 236.230469 C 117.585938 235.121094 117.503906 234.007812 117.449219 232.890625 C 117.394531 231.773438 117.363281 230.660156 117.363281 229.542969 L 117.363281 125.636719 L 156.457031 125.636719 M 160.367188 121.289062 L 113.023438 121.289062 L 113.023438 229.542969 C 113.027344 230.726562 113.066406 231.910156 113.128906 233.089844 C 113.195312 234.269531 113.285156 235.449219 113.410156 236.628906 C 113.53125 237.804688 113.683594 238.980469 113.863281 240.148438 C 114.046875 241.320312 114.253906 242.484375 114.488281 243.644531 C 114.726562 244.804688 114.992188 245.957031 115.28125 247.101562 C 115.578125 248.25 115.898438 249.390625 116.246094 250.519531 C 116.597656 251.648438 116.972656 252.773438 117.375 253.886719 C 117.78125 254.996094 118.210938 256.101562 118.667969 257.191406 C 119.125 258.285156 119.609375 259.363281 120.121094 260.429688 C 120.628906 261.5 121.164062 262.554688 121.726562 263.59375 C 122.289062 264.636719 122.878906 265.664062 123.488281 266.675781 C 124.097656 267.6875 124.734375 268.6875 125.394531 269.667969 C 126.058594 270.652344 126.742188 271.613281 127.449219 272.566406 C 128.15625 273.511719 128.886719 274.441406 129.640625 275.355469 C 130.394531 276.265625 131.171875 277.160156 131.964844 278.035156 C 132.761719 278.910156 133.582031 279.765625 134.417969 280.601562 C 135.261719 281.433594 136.117188 282.246094 136.996094 283.039062 C 137.875 283.828125 138.773438 284.601562 139.691406 285.351562 C 140.605469 286.101562 141.539062 286.824219 142.488281 287.527344 C 143.441406 288.230469 144.410156 288.910156 145.394531 289.5625 C 146.378906 290.222656 147.378906 290.851562 148.394531 291.457031 C 149.414062 292.0625 150.441406 292.644531 151.484375 293.199219 C 152.527344 293.757812 153.585938 294.285156 154.65625 294.792969 C 155.726562 295.296875 156.808594 295.773438 157.902344 296.226562 C 158.992188 296.675781 160.097656 297.101562 161.210938 297.496094 C 162.328125 297.894531 163.449219 298.265625 164.582031 298.609375 C 165.710938 298.949219 166.851562 299.261719 168 299.550781 C 169.148438 299.835938 170.300781 300.09375 171.460938 300.324219 C 172.621094 300.554688 173.789062 300.757812 174.957031 300.929688 C 176.125 301.101562 177.300781 301.246094 178.480469 301.363281 C 179.652344 301.480469 180.832031 301.566406 182.015625 301.621094 C 183.195312 301.679688 184.378906 301.710938 185.558594 301.710938 L 261.570312 301.710938 L 244.199219 293.882812 L 192.511719 270.84375 C 166.015625 259.539062 160.367188 242.585938 160.367188 220.410156 Z M 160.367188 121.289062 " fill-opacity="1" fill-rule="nonzero"/><path fill="#ffce04" d="M 199.023438 263.886719 C 172.09375 251.710938 172.09375 236.0625 172.527344 217.804688 L 172.527344 66.945312 L 282.855469 113.027344 L 282.855469 298.230469 Z M 199.023438 263.886719 " fill-opacity="1" fill-rule="nonzero"/><path fill="#010101" d="M 174.265625 69.117188 L 281.554688 114.332031 L 281.554688 296.058594 L 199.460938 262.582031 C 173.398438 250.410156 173.832031 236.0625 173.832031 217.804688 L 173.832031 69.117188 M 170.792969 64.769531 L 170.792969 214.757812 C 170.792969 234.324219 169.054688 251.710938 198.589844 265.191406 L 284.59375 300.40625 L 284.59375 112.160156 L 171.226562 64.769531 Z M 170.792969 64.769531 " fill-opacity="1" fill-rule="nonzero"/><path fill="#010101" d="M 160.367188 48.6875 L 160.367188 220.410156 C 160.367188 242.148438 165.144531 262.148438 194.679688 274.320312 L 295.019531 316.492188 L 295.019531 105.203125 Z M 284.59375 300.40625 L 199.023438 264.757812 C 169.488281 251.277344 171.226562 233.890625 171.226562 214.324219 L 171.226562 64.769531 L 284.59375 112.160156 Z M 101.292969 106.074219 L 81.316406 106.074219 C 94.78125 109.550781 101.292969 119.984375 101.292969 133.894531 L 101.292969 229.542969 C 101.300781 230.976562 101.34375 232.410156 101.421875 233.84375 C 101.496094 235.277344 101.609375 236.707031 101.757812 238.136719 C 101.902344 239.5625 102.085938 240.984375 102.300781 242.40625 C 102.515625 243.824219 102.769531 245.238281 103.050781 246.644531 C 103.339844 248.050781 103.65625 249.449219 104.007812 250.839844 C 104.359375 252.230469 104.75 253.613281 105.171875 254.988281 C 105.589844 256.355469 106.042969 257.71875 106.53125 259.070312 C 107.019531 260.417969 107.535156 261.757812 108.089844 263.082031 C 108.640625 264.40625 109.226562 265.71875 109.839844 267.015625 C 110.457031 268.308594 111.101562 269.589844 111.78125 270.855469 C 112.460938 272.117188 113.167969 273.363281 113.90625 274.59375 C 114.648438 275.828125 115.414062 277.035156 116.214844 278.230469 C 117.011719 279.421875 117.839844 280.59375 118.691406 281.746094 C 119.550781 282.898438 120.429688 284.027344 121.34375 285.136719 C 122.253906 286.246094 123.1875 287.332031 124.152344 288.394531 C 125.117188 289.460938 126.105469 290.5 127.117188 291.511719 C 128.132812 292.527344 129.171875 293.519531 130.234375 294.480469 C 131.296875 295.445312 132.382812 296.382812 133.488281 297.296875 C 134.59375 298.207031 135.726562 299.089844 136.878906 299.945312 C 138.027344 300.804688 139.199219 301.628906 140.390625 302.425781 C 141.582031 303.226562 142.792969 303.996094 144.023438 304.734375 C 145.25 305.476562 146.496094 306.183594 147.757812 306.863281 C 149.023438 307.542969 150.304688 308.1875 151.597656 308.804688 C 152.890625 309.421875 154.199219 310.007812 155.527344 310.558594 C 156.847656 311.113281 158.183594 311.632812 159.535156 312.121094 C 160.882812 312.605469 162.242188 313.0625 163.613281 313.480469 C 164.984375 313.902344 166.363281 314.292969 167.753906 314.644531 C 169.144531 314.996094 170.542969 315.316406 171.949219 315.601562 C 173.351562 315.886719 174.761719 316.140625 176.183594 316.351562 C 177.601562 316.570312 179.023438 316.753906 180.449219 316.898438 C 181.875 317.046875 183.304688 317.160156 184.738281 317.234375 C 186.167969 317.308594 187.601562 317.355469 189.035156 317.359375 L 295.019531 317.359375 L 295.019531 106.074219 Z M 275.472656 297.796875 L 189.035156 297.796875 C 187.921875 297.789062 186.804688 297.753906 185.695312 297.695312 C 184.582031 297.632812 183.472656 297.542969 182.363281 297.429688 C 181.253906 297.316406 180.152344 297.171875 179.050781 297.003906 C 177.949219 296.832031 176.855469 296.636719 175.761719 296.414062 C 174.667969 296.191406 173.582031 295.941406 172.503906 295.667969 C 171.421875 295.390625 170.351562 295.089844 169.289062 294.761719 C 168.222656 294.433594 167.167969 294.082031 166.117188 293.699219 C 165.070312 293.324219 164.035156 292.917969 163.003906 292.484375 C 161.976562 292.058594 160.960938 291.601562 159.953125 291.121094 C 158.949219 290.644531 157.953125 290.140625 156.976562 289.609375 C 155.992188 289.082031 155.027344 288.53125 154.070312 287.957031 C 153.113281 287.382812 152.175781 286.78125 151.25 286.164062 C 150.324219 285.539062 149.414062 284.898438 148.519531 284.234375 C 147.628906 283.566406 146.75 282.878906 145.890625 282.171875 C 145.027344 281.464844 144.1875 280.734375 143.359375 279.984375 C 142.535156 279.238281 141.726562 278.46875 140.941406 277.679688 C 140.152344 276.890625 139.382812 276.085938 138.636719 275.257812 C 137.886719 274.433594 137.160156 273.589844 136.449219 272.726562 C 135.746094 271.867188 135.058594 270.988281 134.394531 270.09375 C 133.730469 269.195312 133.085938 268.285156 132.464844 267.359375 C 131.84375 266.433594 131.25 265.492188 130.671875 264.539062 C 130.101562 263.582031 129.546875 262.613281 129.019531 261.628906 C 128.492188 260.652344 127.992188 259.65625 127.507812 258.648438 C 127.03125 257.640625 126.578125 256.625 126.144531 255.59375 C 125.71875 254.566406 125.3125 253.527344 124.933594 252.476562 C 124.554688 251.429688 124.199219 250.371094 123.871094 249.308594 C 123.542969 248.238281 123.246094 247.167969 122.96875 246.085938 C 122.695312 245.007812 122.445312 243.921875 122.222656 242.828125 C 122 241.734375 121.804688 240.636719 121.632812 239.535156 C 121.464844 238.433594 121.320312 237.328125 121.207031 236.21875 C 121.09375 235.109375 121.003906 233.996094 120.945312 232.886719 C 120.882812 231.769531 120.847656 230.65625 120.839844 229.542969 L 120.839844 125.636719 L 275.472656 125.636719 Z M 275.472656 297.796875 " fill-opacity="1" fill-rule="nonzero"/><path fill="#010101" d="M 255.925781 152.589844 L 255.925781 229.976562 L 222.046875 229.976562 C 217.035156 230.152344 212.113281 229.574219 207.277344 228.238281 C 205.398438 227.742188 203.613281 227.011719 201.917969 226.054688 C 200.226562 225.097656 198.683594 223.945312 197.289062 222.585938 C 195.203125 220.773438 193.609375 218.601562 192.511719 216.0625 C 192.078125 215.195312 192.078125 213.890625 191.640625 213.023438 C 190.304688 208.332031 189.726562 203.546875 189.902344 198.675781 L 189.902344 164.761719 C 189.84375 162.105469 189.121094 159.640625 187.730469 157.371094 C 186.25 155.308594 184.367188 153.710938 182.085938 152.589844 L 209.449219 152.589844 L 209.449219 197.371094 C 209.355469 200.425781 209.5 203.46875 209.882812 206.5 C 210.585938 208.460938 211.457031 210.34375 212.492188 212.152344 C 213.859375 213.523438 215.449219 214.535156 217.265625 215.195312 L 223.785156 216.0625 L 237.25 216.0625 L 237.25 152.589844 Z M 255.925781 152.589844 " fill-opacity="1" fill-rule="nonzero"/></svg>