<svg xmlns="http://www.w3.org/2000/svg" xmlns:xlink="http://www.w3.org/1999/xlink" width="500" zoomAndPan="magnify" viewBox="0 0 375 374.999991" height="500" preserveAspectRatio="xMidYMid meet" version="1.0"><defs><clipPath id="fdced2a5bd"><path d="M 125 49.789062 L 275 49.789062 L 275 112 L 125 112 Z M 125 49.789062 " clip-rule="nonzero"/></clipPath><clipPath id="7fc2366272"><path d="M 18 94 L 359.398438 94 L 359.398438 310 L 18 310 Z M 18 94 " clip-rule="nonzero"/></clipPath><clipPath id="789abfea3a"><path d="M 18 90 L 359.398438 90 L 359.398438 139 L 18 139 Z M 18 90 " clip-rule="nonzero"/></clipPath><clipPath id="6ed35a21bf"><path d="M 15.898438 288 L 358 288 L 358 314 L 15.898438 314 Z M 15.898438 288 " clip-rule="nonzero"/></clipPath><clipPath id="61cc732d32"><path d="M 94 123 L 296 123 L 296 325.039062 L 94 325.039062 Z M 94 123 " clip-rule="nonzero"/></clipPath></defs><path fill="#29242c" d="M 103.308594 85.796875 C 103.308594 90.859375 99.203125 94.96875 94.132812 94.96875 L 81.050781 94.96875 C 75.984375 94.96875 71.878906 90.859375 71.878906 85.796875 L 71.878906 67.457031 C 71.878906 62.394531 75.984375 58.289062 81.050781 58.289062 L 94.132812 58.289062 C 99.203125 58.289062 103.308594 62.394531 103.308594 67.457031 L 103.308594 85.796875 " fill-opacity="1" fill-rule="nonzero"/><path fill="#3f3a48" d="M 125.105469 99.660156 C 125.105469 104.726562 120.992188 108.828125 115.921875 108.828125 L 56.492188 108.828125 C 51.425781 108.828125 47.308594 104.726562 47.308594 99.660156 L 47.308594 81.324219 C 47.308594 76.261719 51.425781 72.15625 56.492188 72.15625 L 115.921875 72.15625 C 120.992188 72.15625 125.105469 76.261719 125.105469 81.324219 L 125.105469 99.660156 " fill-opacity="1" fill-rule="nonzero"/><g clip-path="url(#fdced2a5bd)"><path fill="#c1c0c1" d="M 274.402344 98.074219 C 274.402344 105.296875 269.019531 111.152344 262.386719 111.152344 L 137.117188 111.152344 C 130.480469 111.152344 125.105469 105.296875 125.105469 98.074219 L 148.863281 58.996094 C 152.183594 53.445312 154.242188 49.835938 160.882812 49.835938 L 238.625 49.835938 C 245.261719 49.835938 246.667969 52.121094 250.640625 58.996094 L 274.402344 98.074219 " fill-opacity="1" fill-rule="nonzero"/></g><path fill="#544446" d="M 245.039062 91.160156 C 245.039062 95.539062 241.777344 99.09375 237.75 99.09375 L 161.753906 99.09375 C 157.726562 99.09375 154.46875 95.539062 154.46875 91.160156 L 168.882812 67.453125 C 170.894531 64.085938 172.144531 61.898438 176.171875 61.898438 L 223.335938 61.898438 C 227.355469 61.898438 228.210938 63.28125 230.621094 67.453125 L 245.039062 91.160156 " fill-opacity="1" fill-rule="nonzero"/><g clip-path="url(#7fc2366272)"><path fill="#29242c" d="M 359.472656 291.171875 C 359.472656 301.253906 350.941406 309.425781 340.429688 309.425781 L 37.34375 309.425781 C 26.832031 309.425781 18.304688 301.253906 18.304688 291.171875 L 18.304688 113.21875 C 18.304688 103.136719 26.832031 94.96875 37.34375 94.96875 L 340.429688 94.96875 C 350.941406 94.96875 359.472656 103.136719 359.472656 113.21875 L 359.472656 291.171875 " fill-opacity="1" fill-rule="nonzero"/></g><g clip-path="url(#789abfea3a)"><path fill="#d3d2d2" d="M 359.445312 108.925781 C 359.128906 98.691406 350.75 90.492188 340.429688 90.492188 L 37.34375 90.492188 C 27.027344 90.492188 18.648438 98.691406 18.339844 108.925781 L 18.304688 138.320312 L 359.445312 138.320312 L 359.445312 108.925781 " fill-opacity="1" fill-rule="nonzero"/></g><g clip-path="url(#6ed35a21bf)"><path fill="#d3d2d2" d="M 15.929688 288.035156 L 15.929688 294.886719 C 15.929688 305.386719 24.453125 313.898438 34.972656 313.898438 L 338.054688 313.898438 C 348.566406 313.898438 357.09375 305.386719 357.09375 294.886719 L 357.09375 288.035156 L 15.929688 288.035156 " fill-opacity="1" fill-rule="nonzero"/></g><path fill="#ffffff" d="M 18.304688 148.609375 L 354.71875 148.609375 L 354.71875 145.410156 L 18.304688 145.410156 Z M 18.304688 148.609375 " fill-opacity="1" fill-rule="nonzero"/><g clip-path="url(#61cc732d32)"><path fill="#e9e9e9" d="M 295.980469 224.324219 C 295.980469 279.976562 250.796875 325.097656 195.050781 325.097656 C 139.316406 325.097656 94.132812 279.976562 94.132812 224.324219 C 94.132812 168.667969 139.316406 123.550781 195.050781 123.550781 C 250.796875 123.550781 295.980469 168.667969 295.980469 224.324219 " fill-opacity="1" fill-rule="nonzero"/></g><path fill="#181418" d="M 286.011719 224.324219 C 286.011719 274.480469 245.289062 315.140625 195.050781 315.140625 C 144.820312 315.140625 104.097656 274.480469 104.097656 224.324219 C 104.097656 174.164062 144.820312 133.5 195.050781 133.5 C 245.289062 133.5 286.011719 174.164062 286.011719 224.324219 " fill-opacity="1" fill-rule="nonzero"/><path fill="#29242c" d="M 279.300781 224.324219 C 279.300781 270.777344 241.582031 308.441406 195.050781 308.441406 C 148.523438 308.441406 110.808594 270.777344 110.808594 224.324219 C 110.808594 177.863281 148.523438 140.207031 195.050781 140.207031 C 241.582031 140.207031 279.300781 177.863281 279.300781 224.324219 " fill-opacity="1" fill-rule="nonzero"/><path fill="#403334" d="M 254.855469 224.324219 C 254.855469 257.304688 228.085938 284.039062 195.050781 284.039062 C 162.023438 284.039062 135.25 257.304688 135.25 224.324219 C 135.25 191.34375 162.023438 164.601562 195.050781 164.601562 C 228.085938 164.601562 254.855469 191.34375 254.855469 224.324219 " fill-opacity="1" fill-rule="nonzero"/><path fill="#544446" d="M 245.40625 224.324219 C 245.40625 252.085938 222.863281 274.601562 195.050781 274.601562 C 167.246094 274.601562 144.703125 252.085938 144.703125 224.324219 C 144.703125 196.554688 167.246094 174.046875 195.050781 174.046875 C 222.863281 174.046875 245.40625 196.554688 245.40625 224.324219 " fill-opacity="1" fill-rule="nonzero"/><path fill="#d3d2d2" d="M 71.878906 267.539062 C 71.878906 276.621094 64.5 283.984375 55.40625 283.984375 C 46.3125 283.984375 38.9375 276.621094 38.9375 267.539062 C 38.9375 258.457031 46.3125 251.09375 55.40625 251.09375 C 64.5 251.09375 71.878906 258.457031 71.878906 267.539062 " fill-opacity="1" fill-rule="nonzero"/><path fill="#9e9c9d" d="M 64.332031 267.539062 C 64.332031 272.464844 60.335938 276.449219 55.40625 276.449219 C 50.476562 276.449219 46.484375 272.464844 46.484375 267.539062 C 46.484375 262.617188 50.476562 258.628906 55.40625 258.628906 C 60.335938 258.628906 64.332031 262.617188 64.332031 267.539062 " fill-opacity="1" fill-rule="nonzero"/><path fill="#8e7d7d" d="M 157.835938 222.292969 C 155.738281 222.292969 154.46875 221.019531 154.46875 218.023438 C 154.46875 198.183594 170.570312 182.101562 190.4375 182.101562 C 207.304688 182.101562 169.609375 222.292969 157.835938 222.292969 " fill-opacity="1" fill-rule="nonzero"/><path fill="#9e9c9d" d="M 336.390625 123.515625 C 336.390625 128.011719 333.074219 131.65625 328.992188 131.65625 L 281.117188 131.65625 C 277.027344 131.65625 273.722656 128.011719 273.722656 123.515625 L 273.722656 107.234375 C 273.722656 102.734375 277.027344 99.09375 281.117188 99.09375 L 328.992188 99.09375 C 333.074219 99.09375 336.390625 102.734375 336.390625 107.234375 L 336.390625 123.515625 " fill-opacity="1" fill-rule="nonzero"/><path fill="#544446" d="M 326.214844 120.875 C 326.214844 123.910156 323.976562 126.367188 321.222656 126.367188 L 288.886719 126.367188 C 286.125 126.367188 283.894531 123.910156 283.894531 120.875 L 283.894531 109.878906 C 283.894531 106.84375 286.125 104.378906 288.886719 104.378906 L 321.222656 104.378906 C 323.976562 104.378906 326.214844 106.84375 326.214844 109.878906 L 326.214844 120.875 " fill-opacity="1" fill-rule="nonzero"/><path fill="#544446" d="M 333.929688 198.953125 L 333.929688 174.785156 C 333.929688 170.574219 330.507812 167.15625 326.289062 167.15625 C 322.074219 167.15625 318.652344 170.574219 318.652344 174.785156 L 318.652344 198.953125 C 314.902344 201.425781 312.429688 205.664062 312.429688 210.484375 C 312.429688 218.125 318.636719 224.324219 326.289062 224.324219 C 333.941406 224.324219 340.148438 218.125 340.148438 210.484375 C 340.148438 205.664062 337.675781 201.425781 333.929688 198.953125 " fill-opacity="1" fill-rule="nonzero"/></svg>