<?xml version="1.0" encoding="UTF-8"?><svg xmlns="http://www.w3.org/2000/svg" xmlns:xlink="http://www.w3.org/1999/xlink" width="375pt" zoomAndPan="magnify" viewBox="0 0 375 374.999991" height="374.999991pt" preserveAspectRatio="xMidYMid meet" version="1.2"><defs><clipPath xml:id="clip1" id="clip1"><path d="M 82.441406 89 L 233 89 L 233 304 L 82.441406 304 Z M 82.441406 89 "/></clipPath><clipPath xml:id="clip2" id="clip2"><path d="M 98 67.941406 L 292.4375 67.941406 L 292.4375 307.191406 L 98 307.191406 Z M 98 67.941406 "/></clipPath></defs><g xml:id="surface1" id="surface1"><path style=" stroke:none;fill-rule:nonzero;fill:rgb(85.099792%,85.099792%,85.099792%);fill-opacity:1;" d="M 86.089844 292.371094 C 86.128906 297.554688 90.367188 301.734375 95.546875 301.691406 L 221.101562 300.71875 C 226.28125 300.675781 230.453125 296.433594 230.410156 291.242188 L 228.9375 101.359375 C 228.898438 96.171875 224.664062 91.992188 219.480469 92.035156 L 93.933594 93.011719 C 88.75 93.050781 84.574219 97.292969 84.617188 102.480469 L 86.089844 292.371094 "/><g clip-rule="nonzero" clip-path="url(#clip1)"><path style=" stroke:none;fill-rule:nonzero;fill:rgb(0%,0%,0%);fill-opacity:1;" d="M 86.089844 292.371094 L 83.921875 292.386719 C 83.945312 295.558594 85.253906 298.4375 87.339844 300.507812 C 89.421875 302.578125 92.308594 303.863281 95.472656 303.863281 L 95.511719 303.863281 L 95.515625 303.042969 L 95.496094 303.863281 L 95.511719 303.863281 L 95.515625 303.042969 L 95.496094 303.863281 L 95.566406 303.863281 L 221.113281 302.886719 L 221.117188 302.886719 C 224.285156 302.863281 227.164062 301.550781 229.226562 299.464844 C 231.296875 297.378906 232.578125 294.488281 232.578125 291.320312 L 232.578125 291.28125 L 231.949219 291.28125 L 232.578125 291.292969 L 232.578125 291.28125 L 231.949219 291.28125 L 232.578125 291.292969 L 232.578125 291.226562 L 231.105469 101.34375 C 231.082031 98.171875 229.777344 95.289062 227.691406 93.21875 C 225.609375 91.148438 222.722656 89.863281 219.554688 89.863281 C 219.546875 89.863281 219.496094 89.863281 219.402344 89.863281 L 219.480469 92.035156 L 219.464844 89.863281 L 93.914062 90.839844 C 90.746094 90.863281 87.867188 92.171875 85.800781 94.261719 C 83.730469 96.34375 82.445312 99.238281 82.449219 102.40625 C 82.449219 102.414062 82.445312 102.464844 82.449219 102.554688 L 84.617188 102.480469 L 82.449219 102.496094 L 83.921875 292.386719 L 88.257812 292.351562 L 86.785156 102.464844 L 86.78125 102.40625 L 86.785156 102.40625 C 86.785156 100.417969 87.582031 98.632812 88.878906 97.320312 C 90.179688 96.007812 91.960938 95.195312 93.949219 95.183594 L 219.496094 94.207031 L 219.558594 94.203125 L 219.519531 93.148438 L 219.523438 94.203125 L 219.558594 94.203125 L 219.519531 93.148438 L 219.523438 94.203125 L 219.554688 94.203125 C 221.539062 94.207031 223.324219 95 224.636719 96.300781 C 225.945312 97.605469 226.753906 99.382812 226.769531 101.375 L 228.242188 291.257812 L 230.410156 291.242188 L 228.242188 291.191406 C 228.242188 291.265625 228.242188 291.3125 228.242188 291.320312 C 228.242188 293.308594 227.445312 295.09375 226.148438 296.410156 C 224.847656 297.71875 223.070312 298.53125 221.082031 298.546875 L 95.53125 299.519531 L 95.546875 301.691406 L 95.597656 299.519531 C 95.523438 299.519531 95.480469 299.519531 95.472656 299.519531 C 93.488281 299.519531 91.707031 298.722656 90.394531 297.425781 C 89.085938 296.121094 88.273438 294.34375 88.257812 292.351562 L 86.089844 292.371094 "/></g><path style=" stroke:none;fill-rule:nonzero;fill:rgb(92.939758%,33.329773%,39.608765%);fill-opacity:1;" d="M 101.8125 125.832031 C 109.046875 125.777344 114.871094 119.855469 114.8125 112.613281 C 114.804688 111.578125 114.667969 110.582031 114.4375 109.617188 L 199.234375 108.960938 C 199.019531 109.929688 198.894531 110.929688 198.902344 111.960938 C 198.957031 119.203125 204.871094 125.03125 212.105469 124.976562 C 212.875 124.96875 213.617188 124.886719 214.351562 124.75 L 215.464844 268.082031 C 214.730469 267.964844 213.984375 267.890625 213.222656 267.894531 C 205.980469 267.949219 200.164062 273.875 200.21875 281.117188 C 200.222656 282.148438 200.363281 283.148438 200.59375 284.109375 L 115.796875 284.773438 C 116.011719 283.808594 116.132812 282.804688 116.125 281.773438 C 116.070312 274.523438 110.160156 268.699219 102.917969 268.75 C 102.152344 268.757812 101.40625 268.84375 100.679688 268.976562 L 99.566406 125.644531 C 100.296875 125.765625 101.042969 125.839844 101.8125 125.832031 "/><path style=" stroke:none;fill-rule:nonzero;fill:rgb(0%,0%,0%);fill-opacity:1;" d="M 101.8125 125.832031 L 101.828125 128.003906 C 106.015625 127.972656 109.816406 126.242188 112.550781 123.480469 C 115.285156 120.726562 116.980469 116.90625 116.980469 112.722656 L 116.980469 112.597656 C 116.972656 111.378906 116.808594 110.214844 116.546875 109.113281 L 114.4375 109.617188 L 114.453125 111.789062 L 199.25 111.132812 L 199.234375 108.960938 L 197.121094 108.488281 C 196.878906 109.558594 196.734375 110.691406 196.734375 111.875 C 196.734375 111.886719 196.730469 111.941406 196.734375 112.027344 L 198.902344 111.960938 L 196.734375 111.976562 C 196.765625 116.171875 198.492188 119.980469 201.25 122.714844 C 204.007812 125.453125 207.820312 127.148438 212 127.148438 L 212.132812 127.148438 C 213.035156 127.136719 213.90625 127.042969 214.742188 126.886719 L 214.351562 124.75 L 212.183594 124.769531 L 213.296875 268.097656 L 215.464844 268.082031 L 215.804688 265.9375 C 215.007812 265.8125 214.164062 265.722656 213.273438 265.722656 L 213.238281 265.722656 C 213.210938 265.722656 213.167969 265.722656 213.105469 265.726562 L 213.222656 267.894531 L 213.203125 265.722656 C 209.011719 265.753906 205.207031 267.488281 202.476562 270.25 C 199.738281 273.011719 198.046875 276.832031 198.046875 281.019531 C 198.046875 281.039062 198.046875 281.101562 198.050781 281.195312 L 200.21875 281.117188 L 198.050781 281.132812 C 198.054688 282.355469 198.222656 283.519531 198.488281 284.613281 L 200.59375 284.109375 L 200.578125 281.9375 L 115.777344 282.601562 L 115.796875 284.773438 L 117.914062 285.246094 C 118.152344 284.171875 118.292969 283.035156 118.292969 281.859375 L 118.292969 281.757812 C 118.261719 277.5625 116.535156 273.75 113.773438 271.015625 C 111.019531 268.273438 107.203125 266.578125 103.011719 266.578125 C 102.996094 266.578125 102.9375 266.578125 102.835938 266.582031 L 102.917969 268.75 L 102.898438 266.578125 C 101.984375 266.589844 101.109375 266.691406 100.285156 266.84375 L 100.679688 268.976562 L 102.847656 268.960938 L 101.734375 125.625 L 99.566406 125.644531 L 99.21875 127.785156 C 100.003906 127.914062 100.839844 128.003906 101.722656 128.003906 L 101.828125 128.003906 L 101.8125 125.832031 L 101.832031 123.660156 C 101.773438 123.660156 101.738281 123.660156 101.722656 123.660156 C 101.128906 123.660156 100.535156 123.601562 99.917969 123.5 C 99.28125 123.398438 98.644531 123.578125 98.15625 123.996094 C 97.667969 124.414062 97.394531 125.015625 97.398438 125.660156 L 98.511719 268.996094 C 98.515625 269.640625 98.804688 270.242188 99.300781 270.652344 C 99.792969 271.0625 100.4375 271.226562 101.074219 271.113281 C 101.703125 270.996094 102.320312 270.925781 102.9375 270.921875 L 103 270.917969 L 102.972656 270.140625 L 102.976562 270.921875 L 103 270.917969 L 102.972656 270.140625 L 102.976562 270.921875 L 103.011719 270.921875 C 106.027344 270.921875 108.738281 272.128906 110.71875 274.097656 C 112.703125 276.066406 113.933594 278.773438 113.957031 281.792969 L 116.125 281.773438 L 113.957031 281.75 C 113.957031 281.808594 113.957031 281.847656 113.957031 281.859375 C 113.957031 282.679688 113.859375 283.5 113.679688 284.296875 C 113.539062 284.941406 113.695312 285.621094 114.109375 286.132812 C 114.523438 286.648438 115.152344 286.949219 115.8125 286.941406 L 200.613281 286.28125 C 201.269531 286.273438 201.894531 285.96875 202.304688 285.445312 C 202.707031 284.925781 202.855469 284.246094 202.703125 283.601562 C 202.507812 282.777344 202.390625 281.945312 202.382812 281.101562 L 202.382812 281.035156 L 201.71875 281.0625 L 202.382812 281.058594 L 202.382812 281.035156 L 201.71875 281.0625 L 202.382812 281.058594 L 202.382812 281.019531 C 202.386719 278.007812 203.589844 275.296875 205.554688 273.304688 C 207.523438 271.320312 210.222656 270.089844 213.238281 270.066406 L 213.335938 270.0625 L 213.25 268.441406 L 213.257812 270.066406 L 213.335938 270.0625 L 213.25 268.441406 L 213.257812 270.066406 L 213.253906 269.28125 L 213.253906 270.066406 L 213.257812 270.066406 L 213.253906 269.28125 L 213.253906 270.066406 L 213.273438 270.066406 C 213.875 270.066406 214.492188 270.125 215.121094 270.226562 C 215.753906 270.324219 216.394531 270.144531 216.878906 269.726562 C 217.359375 269.3125 217.636719 268.699219 217.632812 268.0625 L 216.523438 124.734375 C 216.515625 124.089844 216.230469 123.488281 215.734375 123.082031 C 215.238281 122.667969 214.59375 122.5 213.964844 122.617188 C 213.328125 122.734375 212.710938 122.800781 212.078125 122.804688 L 212.105469 124.976562 L 212.125 122.804688 C 212.0625 122.804688 212.023438 122.804688 212 122.804688 C 208.996094 122.804688 206.289062 121.597656 204.304688 119.628906 C 202.320312 117.660156 201.09375 114.960938 201.070312 111.945312 L 201.070312 111.894531 L 200.40625 111.914062 L 201.070312 111.914062 L 201.070312 111.894531 L 200.40625 111.914062 L 201.070312 111.914062 L 201.070312 111.875 C 201.070312 111.054688 201.171875 110.242188 201.347656 109.433594 C 201.492188 108.789062 201.335938 108.109375 200.921875 107.597656 C 200.507812 107.082031 199.875 106.785156 199.21875 106.789062 L 114.421875 107.449219 C 113.761719 107.453125 113.136719 107.761719 112.730469 108.28125 C 112.324219 108.800781 112.175781 109.480469 112.328125 110.125 C 112.527344 110.949219 112.636719 111.777344 112.644531 112.628906 L 114.8125 112.613281 L 112.644531 112.59375 C 112.644531 112.65625 112.644531 112.695312 112.644531 112.722656 C 112.640625 115.726562 111.4375 118.4375 109.472656 120.425781 C 107.503906 122.410156 104.804688 123.636719 101.792969 123.660156 L 101.8125 125.832031 L 101.832031 123.660156 L 101.8125 125.832031 "/><path style=" stroke:none;fill-rule:nonzero;fill:rgb(85.099792%,85.099792%,85.099792%);fill-opacity:1;" d="M 101.316406 260.484375 C 99.972656 265.5 102.9375 270.660156 107.945312 272.003906 L 229.195312 304.636719 C 234.199219 305.980469 239.347656 303.011719 240.699219 298 L 289.9375 114.621094 C 291.285156 109.609375 288.316406 104.453125 283.308594 103.105469 L 162.0625 70.472656 C 157.054688 69.128906 151.90625 72.09375 150.558594 77.105469 L 101.316406 260.484375 "/><g clip-rule="nonzero" clip-path="url(#clip2)"><path style=" stroke:none;fill-rule:nonzero;fill:rgb(0%,0%,0%);fill-opacity:1;" d="M 101.316406 260.484375 L 99.222656 259.925781 C 98.957031 260.925781 98.824219 261.9375 98.824219 262.933594 C 98.824219 265.492188 99.675781 267.933594 101.167969 269.910156 C 102.65625 271.890625 104.808594 273.410156 107.382812 274.101562 L 228.628906 306.734375 L 228.632812 306.734375 C 229.628906 307.003906 230.640625 307.128906 231.628906 307.128906 C 234.1875 307.128906 236.625 306.28125 238.601562 304.785156 C 240.578125 303.292969 242.097656 301.140625 242.789062 298.5625 L 292.035156 115.183594 C 292.300781 114.183594 292.429688 113.171875 292.429688 112.175781 C 292.429688 109.617188 291.578125 107.179688 290.085938 105.199219 C 288.59375 103.222656 286.445312 101.699219 283.871094 101.003906 L 162.625 68.375 C 161.625 68.105469 160.613281 67.980469 159.621094 67.980469 C 157.066406 67.980469 154.628906 68.828125 152.652344 70.324219 C 150.675781 71.8125 149.15625 73.96875 148.464844 76.542969 L 99.222656 259.925781 L 101.316406 260.484375 L 103.410156 261.050781 L 152.652344 77.671875 C 153.089844 76.050781 154.027344 74.726562 155.265625 73.785156 C 156.503906 72.851562 158.03125 72.320312 159.621094 72.320312 C 160.238281 72.320312 160.867188 72.398438 161.5 72.570312 L 282.746094 105.199219 C 284.363281 105.636719 285.6875 106.578125 286.628906 107.816406 C 287.566406 109.058594 288.09375 110.585938 288.09375 112.175781 C 288.09375 112.796875 288.015625 113.425781 287.84375 114.058594 L 238.605469 297.433594 C 238.167969 299.054688 237.226562 300.382812 235.988281 301.320312 C 234.746094 302.257812 233.21875 302.789062 231.628906 302.789062 C 231.011719 302.789062 230.382812 302.710938 229.753906 302.542969 L 108.507812 269.90625 C 106.886719 269.472656 105.5625 268.53125 104.625 267.292969 C 103.691406 266.054688 103.160156 264.523438 103.160156 262.933594 C 103.160156 262.316406 103.242188 261.683594 103.410156 261.050781 L 101.316406 260.484375 "/></g><path style=" stroke:none;fill-rule:nonzero;fill:rgb(92.939758%,33.329773%,39.608765%);fill-opacity:1;" d="M 209.03125 137.636719 C 209.03125 137.636719 201.113281 167.132812 223.011719 194.925781 C 190.144531 207.972656 182.226562 237.472656 182.226562 237.472656 C 182.226562 237.472656 190.140625 207.972656 168.242188 180.179688 C 201.113281 167.132812 209.03125 137.636719 209.03125 137.636719 "/><path style=" stroke:none;fill-rule:nonzero;fill:rgb(0%,0%,0%);fill-opacity:1;" d="M 209.03125 137.636719 L 206.9375 137.074219 C 206.902344 137.207031 205.46875 142.582031 205.46875 150.914062 C 205.46875 156.675781 206.152344 163.855469 208.476562 171.683594 C 210.804688 179.507812 214.773438 187.976562 221.308594 196.269531 L 223.011719 194.925781 L 222.214844 192.90625 C 213.761719 196.257812 206.894531 200.683594 201.363281 205.429688 C 193.0625 212.546875 187.773438 220.371094 184.550781 226.429688 C 181.328125 232.488281 180.164062 236.785156 180.132812 236.90625 C 179.984375 237.460938 180.0625 238.058594 180.347656 238.554688 C 180.632812 239.050781 181.113281 239.417969 181.660156 239.566406 C 182.222656 239.71875 182.804688 239.640625 183.308594 239.351562 C 183.8125 239.0625 184.167969 238.59375 184.320312 238.035156 C 184.355469 237.898438 185.785156 232.527344 185.789062 224.195312 C 185.789062 218.433594 185.101562 211.253906 182.773438 203.425781 C 180.449219 195.601562 176.480469 187.128906 169.945312 178.835938 L 168.242188 180.179688 L 169.042969 182.199219 C 177.492188 178.84375 184.363281 174.421875 189.890625 169.679688 C 198.191406 162.5625 203.480469 154.734375 206.703125 148.679688 C 209.925781 142.617188 211.089844 138.320312 211.121094 138.199219 C 211.433594 137.042969 210.746094 135.851562 209.589844 135.539062 C 208.4375 135.230469 207.246094 135.914062 206.9375 137.074219 L 209.03125 137.636719 L 206.9375 137.074219 L 207.507812 137.226562 L 206.9375 137.070312 L 206.9375 137.074219 L 207.507812 137.226562 L 206.9375 137.070312 C 206.917969 137.136719 204.949219 144.320312 199.027344 153.003906 C 196.066406 157.347656 192.125 162.070312 186.949219 166.484375 C 181.773438 170.902344 175.367188 175.019531 167.441406 178.164062 C 166.804688 178.417969 166.328125 178.953125 166.148438 179.617188 C 165.96875 180.28125 166.113281 180.984375 166.539062 181.523438 C 172.714844 189.363281 176.433594 197.308594 178.617188 204.664062 C 180.804688 212.019531 181.453125 218.777344 181.453125 224.195312 C 181.453125 228.109375 181.113281 231.324219 180.777344 233.539062 C 180.613281 234.648438 180.445312 235.507812 180.324219 236.082031 C 180.261719 236.367188 180.210938 236.582031 180.179688 236.722656 C 180.160156 236.792969 180.148438 236.84375 180.140625 236.875 L 180.132812 236.90625 L 180.128906 236.910156 L 180.96875 237.132812 L 180.132812 236.90625 L 180.128906 236.910156 L 180.96875 237.132812 L 180.132812 236.90625 C 179.820312 238.066406 180.503906 239.257812 181.660156 239.566406 C 182.820312 239.878906 184.007812 239.191406 184.320312 238.035156 L 183.761719 237.882812 L 184.320312 238.035156 L 183.761719 237.882812 L 184.320312 238.035156 C 184.335938 237.972656 186.308594 230.789062 192.226562 222.101562 C 195.1875 217.757812 199.128906 213.039062 204.304688 208.621094 C 209.480469 204.203125 215.890625 200.085938 223.8125 196.941406 C 224.453125 196.6875 224.929688 196.152344 225.105469 195.484375 C 225.285156 194.824219 225.140625 194.121094 224.714844 193.578125 C 218.539062 185.742188 214.824219 177.800781 212.636719 170.445312 C 210.449219 163.09375 209.800781 156.332031 209.800781 150.914062 C 209.800781 147 210.140625 143.785156 210.476562 141.570312 C 210.644531 140.460938 210.8125 139.601562 210.933594 139.027344 C 210.992188 138.738281 211.042969 138.527344 211.078125 138.386719 C 211.09375 138.316406 211.105469 138.265625 211.117188 138.234375 L 211.121094 138.203125 L 211.125 138.195312 L 210.351562 137.992188 L 211.121094 138.199219 L 211.125 138.195312 L 210.351562 137.992188 L 211.121094 138.199219 C 211.433594 137.042969 210.746094 135.851562 209.589844 135.539062 C 208.4375 135.230469 207.246094 135.914062 206.9375 137.074219 L 209.03125 137.636719 "/></g></svg>