<svg xmlns="http://www.w3.org/2000/svg" xmlns:xlink="http://www.w3.org/1999/xlink" width="500" zoomAndPan="magnify" viewBox="0 0 375 374.999991" height="500" preserveAspectRatio="xMidYMid meet" version="1.0"><defs><g/><clipPath id="9701ef7288"><path d="M 15.765625 15.765625 L 359.265625 15.765625 L 359.265625 359.265625 L 15.765625 359.265625 Z M 15.765625 15.765625 " clip-rule="nonzero"/></clipPath><clipPath id="6904026e9f"><path d="M 87.070312 187.5 L 287.707031 187.5 L 287.707031 311.0625 L 87.070312 311.0625 Z M 87.070312 187.5 " clip-rule="nonzero"/></clipPath><clipPath id="9561377ae2"><path d="M 37.5 179.691406 L 64 179.691406 L 64 205.941406 L 37.5 205.941406 Z M 37.5 179.691406 " clip-rule="nonzero"/></clipPath><clipPath id="7d4d1da217"><path d="M 58 192 L 72 192 L 72 205.941406 L 58 205.941406 Z M 58 192 " clip-rule="nonzero"/></clipPath><clipPath id="03cb178a0b"><path d="M 233.828125 33.855469 L 261 33.855469 L 261 60 L 233.828125 60 Z M 233.828125 33.855469 " clip-rule="nonzero"/></clipPath><clipPath id="c0cbebd78e"><path d="M 255 46 L 268.328125 46 L 268.328125 60.105469 L 255 60.105469 Z M 255 46 " clip-rule="nonzero"/></clipPath><clipPath id="54959e7ed3"><path d="M 303.046875 249.351562 L 330 249.351562 L 330 275.601562 L 303.046875 275.601562 Z M 303.046875 249.351562 " clip-rule="nonzero"/></clipPath><clipPath id="90f4ddaf7b"><path d="M 324 262 L 337.546875 262 L 337.546875 275.601562 L 324 275.601562 Z M 324 262 " clip-rule="nonzero"/></clipPath></defs><g clip-path="url(#9701ef7288)"><path fill="#f9dbd2" d="M 359.265625 187.515625 C 359.265625 190.324219 359.195312 193.136719 359.058594 195.941406 C 358.921875 198.75 358.714844 201.550781 358.4375 204.347656 C 358.164062 207.148438 357.820312 209.933594 357.40625 212.714844 C 356.992188 215.496094 356.511719 218.265625 355.964844 221.023438 C 355.417969 223.777344 354.800781 226.519531 354.117188 229.246094 C 353.433594 231.972656 352.683594 234.679688 351.871094 237.371094 C 351.054688 240.0625 350.171875 242.730469 349.226562 245.375 C 348.277344 248.023438 347.265625 250.644531 346.191406 253.242188 C 345.117188 255.835938 343.976562 258.40625 342.773438 260.949219 C 341.574219 263.488281 340.308594 266 338.984375 268.476562 C 337.660156 270.957031 336.273438 273.402344 334.828125 275.8125 C 333.382812 278.222656 331.882812 280.597656 330.320312 282.933594 C 328.757812 285.269531 327.140625 287.570312 325.464844 289.828125 C 323.792969 292.082031 322.0625 294.300781 320.28125 296.472656 C 318.496094 298.644531 316.660156 300.773438 314.773438 302.855469 C 312.886719 304.9375 310.949219 306.972656 308.960938 308.960938 C 306.972656 310.949219 304.9375 312.886719 302.855469 314.773438 C 300.773438 316.660156 298.644531 318.496094 296.472656 320.28125 C 294.300781 322.0625 292.082031 323.792969 289.828125 325.464844 C 287.570312 327.140625 285.269531 328.757812 282.933594 330.320312 C 280.597656 331.882812 278.222656 333.382812 275.8125 334.828125 C 273.402344 336.273438 270.957031 337.660156 268.476562 338.984375 C 266 340.308594 263.488281 341.574219 260.949219 342.773438 C 258.40625 343.976562 255.835938 345.117188 253.242188 346.191406 C 250.644531 347.265625 248.023438 348.277344 245.375 349.226562 C 242.730469 350.171875 240.0625 351.054688 237.371094 351.871094 C 234.679688 352.683594 231.972656 353.433594 229.246094 354.117188 C 226.519531 354.800781 223.777344 355.417969 221.023438 355.964844 C 218.265625 356.511719 215.496094 356.992188 212.714844 357.40625 C 209.933594 357.820312 207.148438 358.164062 204.347656 358.4375 C 201.550781 358.714844 198.75 358.921875 195.941406 359.058594 C 193.136719 359.195312 190.324219 359.265625 187.515625 359.265625 C 184.703125 359.265625 181.894531 359.195312 179.085938 359.058594 C 176.28125 358.921875 173.476562 358.714844 170.679688 358.4375 C 167.882812 358.164062 165.09375 357.820312 162.3125 357.40625 C 159.535156 356.992188 156.765625 356.511719 154.007812 355.964844 C 151.25 355.417969 148.507812 354.800781 145.78125 354.117188 C 143.054688 353.433594 140.347656 352.683594 137.660156 351.871094 C 134.96875 351.054688 132.300781 350.171875 129.652344 349.226562 C 127.007812 348.277344 124.386719 347.265625 121.789062 346.191406 C 119.191406 345.117188 116.625 343.976562 114.082031 342.773438 C 111.542969 341.574219 109.03125 340.308594 106.550781 338.984375 C 104.074219 337.660156 101.628906 336.273438 99.21875 334.828125 C 96.808594 333.382812 94.433594 331.882812 92.097656 330.320312 C 89.757812 328.757812 87.460938 327.140625 85.203125 325.464844 C 82.945312 323.792969 80.730469 322.0625 78.558594 320.28125 C 76.386719 318.496094 74.257812 316.660156 72.175781 314.773438 C 70.09375 312.886719 68.058594 310.949219 66.070312 308.960938 C 64.082031 306.972656 62.144531 304.9375 60.257812 302.855469 C 58.367188 300.773438 56.535156 298.644531 54.75 296.472656 C 52.96875 294.300781 51.238281 292.082031 49.5625 289.828125 C 47.890625 287.570312 46.273438 285.269531 44.710938 282.933594 C 43.148438 280.597656 41.644531 278.222656 40.199219 275.8125 C 38.753906 273.402344 37.371094 270.957031 36.046875 268.476562 C 34.71875 266 33.457031 263.488281 32.253906 260.949219 C 31.054688 258.40625 29.914062 255.835938 28.839844 253.242188 C 27.761719 250.644531 26.75 248.023438 25.804688 245.375 C 24.859375 242.730469 23.976562 240.0625 23.160156 237.371094 C 22.34375 234.679688 21.59375 231.972656 20.910156 229.246094 C 20.230469 226.519531 19.613281 223.777344 19.066406 221.023438 C 18.515625 218.265625 18.035156 215.496094 17.625 212.714844 C 17.210938 209.933594 16.867188 207.148438 16.59375 204.347656 C 16.316406 201.550781 16.109375 198.75 15.972656 195.941406 C 15.832031 193.136719 15.765625 190.324219 15.765625 187.515625 C 15.765625 184.703125 15.832031 181.894531 15.972656 179.085938 C 16.109375 176.28125 16.316406 173.476562 16.59375 170.679688 C 16.867188 167.882812 17.210938 165.09375 17.625 162.3125 C 18.035156 159.535156 18.515625 156.765625 19.066406 154.007812 C 19.613281 151.25 20.230469 148.507812 20.910156 145.78125 C 21.59375 143.054688 22.34375 140.347656 23.160156 137.660156 C 23.976562 134.96875 24.859375 132.300781 25.804688 129.652344 C 26.75 127.007812 27.761719 124.386719 28.839844 121.789062 C 29.914062 119.191406 31.054688 116.625 32.253906 114.082031 C 33.457031 111.542969 34.71875 109.03125 36.046875 106.550781 C 37.371094 104.074219 38.753906 101.628906 40.199219 99.21875 C 41.644531 96.808594 43.148438 94.433594 44.710938 92.097656 C 46.273438 89.757812 47.890625 87.460938 49.5625 85.203125 C 51.238281 82.945312 52.96875 80.730469 54.75 78.558594 C 56.535156 76.386719 58.367188 74.257812 60.257812 72.175781 C 62.144531 70.09375 64.082031 68.058594 66.070312 66.070312 C 68.058594 64.082031 70.09375 62.144531 72.175781 60.257812 C 74.257812 58.367188 76.386719 56.535156 78.558594 54.75 C 80.730469 52.96875 82.945312 51.238281 85.203125 49.5625 C 87.460938 47.890625 89.757812 46.273438 92.097656 44.710938 C 94.433594 43.148438 96.808594 41.644531 99.21875 40.199219 C 101.628906 38.753906 104.074219 37.371094 106.550781 36.046875 C 109.03125 34.71875 111.542969 33.457031 114.082031 32.253906 C 116.625 31.054688 119.191406 29.914062 121.789062 28.839844 C 124.386719 27.761719 127.007812 26.75 129.652344 25.804688 C 132.300781 24.859375 134.96875 23.976562 137.660156 23.160156 C 140.347656 22.34375 143.054688 21.59375 145.78125 20.910156 C 148.507812 20.230469 151.25 19.613281 154.007812 19.066406 C 156.765625 18.515625 159.535156 18.035156 162.3125 17.625 C 165.09375 17.210938 167.882812 16.867188 170.679688 16.59375 C 173.476562 16.316406 176.28125 16.109375 179.085938 15.972656 C 181.894531 15.832031 184.703125 15.765625 187.515625 15.765625 C 190.324219 15.765625 193.136719 15.832031 195.941406 15.972656 C 198.75 16.109375 201.550781 16.316406 204.347656 16.59375 C 207.148438 16.867188 209.933594 17.210938 212.714844 17.625 C 215.496094 18.035156 218.265625 18.515625 221.023438 19.066406 C 223.777344 19.613281 226.519531 20.230469 229.246094 20.910156 C 231.972656 21.59375 234.679688 22.34375 237.371094 23.160156 C 240.0625 23.976562 242.730469 24.859375 245.375 25.804688 C 248.023438 26.75 250.644531 27.761719 253.242188 28.839844 C 255.835938 29.914062 258.40625 31.054688 260.949219 32.253906 C 263.488281 33.457031 266 34.71875 268.476562 36.046875 C 270.957031 37.371094 273.402344 38.753906 275.8125 40.199219 C 278.222656 41.644531 280.597656 43.148438 282.933594 44.710938 C 285.269531 46.273438 287.570312 47.890625 289.828125 49.5625 C 292.082031 51.238281 294.300781 52.96875 296.472656 54.75 C 298.644531 56.535156 300.773438 58.367188 302.855469 60.257812 C 304.9375 62.144531 306.972656 64.082031 308.960938 66.070312 C 310.949219 68.058594 312.886719 70.09375 314.773438 72.175781 C 316.660156 74.257812 318.496094 76.386719 320.28125 78.558594 C 322.0625 80.730469 323.792969 82.945312 325.464844 85.203125 C 327.140625 87.460938 328.757812 89.757812 330.320312 92.097656 C 331.882812 94.433594 333.382812 96.808594 334.828125 99.21875 C 336.273438 101.628906 337.660156 104.074219 338.984375 106.550781 C 340.308594 109.03125 341.574219 111.542969 342.773438 114.082031 C 343.976562 116.625 345.117188 119.191406 346.191406 121.789062 C 347.265625 124.386719 348.277344 127.007812 349.226562 129.652344 C 350.171875 132.300781 351.054688 134.96875 351.871094 137.660156 C 352.683594 140.347656 353.433594 143.054688 354.117188 145.78125 C 354.800781 148.507812 355.417969 151.25 355.964844 154.007812 C 356.511719 156.765625 356.992188 159.535156 357.40625 162.3125 C 357.820312 165.09375 358.164062 167.882812 358.4375 170.679688 C 358.714844 173.476562 358.921875 176.28125 359.058594 179.085938 C 359.195312 181.894531 359.265625 184.703125 359.265625 187.515625 Z M 359.265625 187.515625 " fill-opacity="1" fill-rule="nonzero"/></g><g clip-path="url(#6904026e9f)"><path fill="#8d6f60" d="M 97.652344 225.511719 L 277.144531 225.511719 C 280.457031 225.511719 283.148438 228.207031 283.148438 231.539062 L 283.148438 300.484375 C 283.148438 303.800781 280.457031 306.511719 277.144531 306.511719 L 97.652344 306.511719 C 94.320312 306.511719 91.632812 303.800781 91.632812 300.484375 L 91.632812 231.539062 C 91.632812 228.207031 94.320312 225.511719 97.652344 225.511719 Z M 224.847656 187.519531 L 221.910156 187.714844 C 222.515625 196.328125 219.433594 204.800781 213.429688 211.027344 C 211.632812 212.902344 208.800781 213.363281 206.484375 212.167969 L 195.511719 206.496094 C 192.289062 204.820312 188.316406 206.085938 186.640625 209.332031 C 186.160156 210.261719 185.910156 211.296875 185.910156 212.347656 L 185.910156 220.945312 L 97.652344 220.945312 C 91.808594 220.945312 87.070312 225.691406 87.070312 231.539062 L 87.070312 300.484375 C 87.070312 306.332031 91.808594 311.0625 97.652344 311.0625 L 277.144531 311.0625 C 282.96875 311.0625 287.707031 306.332031 287.707031 300.484375 L 287.707031 231.539062 C 287.707031 225.691406 282.96875 220.945312 277.144531 220.945312 L 188.867188 220.945312 L 188.867188 212.347656 C 188.867188 210.332031 190.488281 208.707031 192.5 208.707031 C 193.070312 208.707031 193.640625 208.851562 194.160156 209.117188 L 205.128906 214.792969 C 208.605469 216.59375 212.84375 215.898438 215.550781 213.078125 C 222.125 206.246094 225.507812 196.972656 224.847656 187.519531 " fill-opacity="1" fill-rule="nonzero"/></g><path fill="#8d6f60" d="M 110.457031 232.398438 L 101.054688 232.398438 C 100.074219 232.398438 99.289062 233.199219 99.289062 234.164062 L 99.289062 240.761719 C 99.289062 241.742188 100.074219 242.527344 101.054688 242.527344 L 110.457031 242.527344 C 111.4375 242.527344 112.222656 241.742188 112.222656 240.761719 L 112.222656 234.164062 C 112.222656 233.199219 111.4375 232.398438 110.457031 232.398438 " fill-opacity="1" fill-rule="nonzero"/><path fill="#8d6f60" d="M 131.300781 232.398438 L 121.894531 232.398438 C 120.914062 232.398438 120.128906 233.199219 120.128906 234.164062 L 120.128906 240.761719 C 120.128906 241.742188 120.914062 242.527344 121.894531 242.527344 L 131.300781 242.527344 C 132.277344 242.527344 133.0625 241.742188 133.0625 240.761719 L 133.0625 234.164062 C 133.0625 233.199219 132.277344 232.398438 131.300781 232.398438 " fill-opacity="1" fill-rule="nonzero"/><path fill="#8d6f60" d="M 152.140625 232.398438 L 142.734375 232.398438 C 141.753906 232.398438 140.972656 233.199219 140.972656 234.164062 L 140.972656 240.761719 C 140.972656 241.742188 141.753906 242.527344 142.734375 242.527344 L 152.140625 242.527344 C 153.117188 242.527344 153.902344 241.742188 153.902344 240.761719 L 153.902344 234.164062 C 153.902344 233.199219 153.117188 232.398438 152.140625 232.398438 " fill-opacity="1" fill-rule="nonzero"/><path fill="#8d6f60" d="M 172.980469 232.398438 L 163.574219 232.398438 C 162.59375 232.398438 161.8125 233.199219 161.8125 234.164062 L 161.8125 240.761719 C 161.8125 241.742188 162.59375 242.527344 163.574219 242.527344 L 172.980469 242.527344 C 173.960938 242.527344 174.742188 241.742188 174.742188 240.761719 L 174.742188 234.164062 C 174.742188 233.199219 173.960938 232.398438 172.980469 232.398438 " fill-opacity="1" fill-rule="nonzero"/><path fill="#8d6f60" d="M 193.820312 232.398438 L 184.414062 232.398438 C 183.433594 232.398438 182.652344 233.199219 182.652344 234.164062 L 182.652344 240.761719 C 182.652344 241.742188 183.433594 242.527344 184.414062 242.527344 L 193.820312 242.527344 C 194.800781 242.527344 195.582031 241.742188 195.582031 240.761719 L 195.582031 234.164062 C 195.582031 233.199219 194.800781 232.398438 193.820312 232.398438 " fill-opacity="1" fill-rule="nonzero"/><path fill="#8d6f60" d="M 214.660156 232.398438 L 205.253906 232.398438 C 204.277344 232.398438 203.492188 233.199219 203.492188 234.164062 L 203.492188 240.761719 C 203.492188 241.742188 204.277344 242.527344 205.253906 242.527344 L 214.660156 242.527344 C 215.640625 242.527344 216.421875 241.742188 216.421875 240.761719 L 216.421875 234.164062 C 216.421875 233.199219 215.640625 232.398438 214.660156 232.398438 " fill-opacity="1" fill-rule="nonzero"/><path fill="#8d6f60" d="M 235.5 232.398438 L 226.09375 232.398438 C 225.117188 232.398438 224.332031 233.199219 224.332031 234.164062 L 224.332031 240.761719 C 224.332031 241.742188 225.117188 242.527344 226.09375 242.527344 L 235.5 242.527344 C 236.480469 242.527344 237.265625 241.742188 237.265625 240.761719 L 237.265625 234.164062 C 237.265625 233.199219 236.480469 232.398438 235.5 232.398438 " fill-opacity="1" fill-rule="nonzero"/><path fill="#8d6f60" d="M 256.339844 232.398438 L 246.9375 232.398438 C 245.957031 232.398438 245.171875 233.199219 245.171875 234.164062 L 245.171875 240.761719 C 245.171875 241.742188 245.957031 242.527344 246.9375 242.527344 L 256.339844 242.527344 C 257.320312 242.527344 258.105469 241.742188 258.105469 240.761719 L 258.105469 234.164062 C 258.105469 233.199219 257.320312 232.398438 256.339844 232.398438 " fill-opacity="1" fill-rule="nonzero"/><path fill="#8d6f60" d="M 277.199219 232.398438 L 267.777344 232.398438 C 266.796875 232.398438 266.011719 233.199219 266.011719 234.164062 L 266.011719 240.761719 C 266.011719 241.742188 266.796875 242.527344 267.777344 242.527344 L 277.199219 242.527344 C 278.160156 242.527344 278.945312 241.742188 278.945312 240.761719 L 278.945312 234.164062 C 278.945312 233.199219 278.160156 232.398438 277.199219 232.398438 " fill-opacity="1" fill-rule="nonzero"/><path fill="#8d6f60" d="M 118.472656 251.714844 L 101.054688 251.714844 C 100.074219 251.714844 99.289062 252.5 99.289062 253.480469 L 99.289062 260.082031 C 99.289062 261.042969 100.074219 261.847656 101.054688 261.847656 L 118.472656 261.847656 C 119.453125 261.847656 120.238281 261.042969 120.238281 260.082031 L 120.238281 253.480469 C 120.238281 252.5 119.453125 251.714844 118.472656 251.714844 " fill-opacity="1" fill-rule="nonzero"/><path fill="#8d6f60" d="M 142.449219 251.714844 L 133.042969 251.714844 C 132.066406 251.714844 131.28125 252.5 131.28125 253.480469 L 131.28125 260.082031 C 131.28125 261.042969 132.066406 261.847656 133.042969 261.847656 L 142.449219 261.847656 C 143.429688 261.847656 144.210938 261.042969 144.210938 260.082031 L 144.210938 253.480469 C 144.210938 252.5 143.429688 251.714844 142.449219 251.714844 " fill-opacity="1" fill-rule="nonzero"/><path fill="#8d6f60" d="M 163.074219 251.714844 L 153.652344 251.714844 C 152.691406 251.714844 151.890625 252.5 151.890625 253.480469 L 151.890625 260.082031 C 151.890625 261.042969 152.691406 261.847656 153.652344 261.847656 L 163.074219 261.847656 C 164.039062 261.847656 164.839844 261.042969 164.839844 260.082031 L 164.839844 253.480469 C 164.839844 252.5 164.039062 251.714844 163.074219 251.714844 " fill-opacity="1" fill-rule="nonzero"/><path fill="#8d6f60" d="M 183.683594 251.714844 L 174.28125 251.714844 C 173.300781 251.714844 172.515625 252.5 172.515625 253.480469 L 172.515625 260.082031 C 172.515625 261.042969 173.300781 261.847656 174.28125 261.847656 L 183.683594 261.847656 C 184.664062 261.847656 185.449219 261.042969 185.449219 260.082031 L 185.449219 253.480469 C 185.449219 252.5 184.664062 251.714844 183.683594 251.714844 " fill-opacity="1" fill-rule="nonzero"/><path fill="#8d6f60" d="M 204.3125 251.714844 L 194.90625 251.714844 C 193.925781 251.714844 193.144531 252.5 193.144531 253.480469 L 193.144531 260.082031 C 193.144531 261.042969 193.925781 261.847656 194.90625 261.847656 L 204.3125 261.847656 C 205.289062 261.847656 206.074219 261.042969 206.074219 260.082031 L 206.074219 253.480469 C 206.074219 252.5 205.289062 251.714844 204.3125 251.714844 " fill-opacity="1" fill-rule="nonzero"/><path fill="#8d6f60" d="M 224.9375 251.714844 L 215.515625 251.714844 C 214.554688 251.714844 213.75 252.5 213.75 253.480469 L 213.75 260.082031 C 213.75 261.042969 214.554688 261.847656 215.515625 261.847656 L 224.9375 261.847656 C 225.898438 261.847656 226.699219 261.042969 226.699219 260.082031 L 226.699219 253.480469 C 226.699219 252.5 225.898438 251.714844 224.9375 251.714844 " fill-opacity="1" fill-rule="nonzero"/><path fill="#8d6f60" d="M 245.5625 251.714844 L 236.140625 251.714844 C 235.160156 251.714844 234.378906 252.5 234.378906 253.480469 L 234.378906 260.082031 C 234.378906 261.042969 235.160156 261.847656 236.140625 261.847656 L 245.5625 261.847656 C 246.527344 261.847656 247.308594 261.042969 247.308594 260.082031 L 247.308594 253.480469 C 247.308594 252.5 246.527344 251.714844 245.5625 251.714844 " fill-opacity="1" fill-rule="nonzero"/><path fill="#8d6f60" d="M 273.726562 251.714844 L 256.304688 251.714844 C 255.324219 251.714844 254.542969 252.5 254.542969 253.480469 L 254.542969 260.082031 C 254.542969 261.042969 255.324219 261.847656 256.304688 261.847656 L 273.726562 261.847656 C 274.703125 261.847656 275.488281 261.042969 275.488281 260.082031 L 275.488281 253.480469 C 275.488281 252.5 274.703125 251.714844 273.726562 251.714844 " fill-opacity="1" fill-rule="nonzero"/><path fill="#8d6f60" d="M 110.457031 270.855469 L 101.054688 270.855469 C 100.074219 270.855469 99.289062 271.640625 99.289062 272.621094 L 99.289062 279.203125 C 99.289062 280.183594 100.074219 280.96875 101.054688 280.96875 L 110.457031 280.96875 C 111.4375 280.96875 112.222656 280.183594 112.222656 279.203125 L 112.222656 272.621094 C 112.222656 271.640625 111.4375 270.855469 110.457031 270.855469 " fill-opacity="1" fill-rule="nonzero"/><path fill="#8d6f60" d="M 131.140625 270.855469 L 121.734375 270.855469 C 120.753906 270.855469 119.96875 271.640625 119.96875 272.621094 L 119.96875 279.203125 C 119.96875 280.183594 120.753906 280.96875 121.734375 280.96875 L 131.140625 280.96875 C 132.117188 280.96875 132.902344 280.183594 132.902344 279.203125 L 132.902344 272.621094 C 132.902344 271.640625 132.117188 270.855469 131.140625 270.855469 " fill-opacity="1" fill-rule="nonzero"/><path fill="#8d6f60" d="M 151.835938 270.855469 L 142.414062 270.855469 C 141.433594 270.855469 140.652344 271.640625 140.652344 272.621094 L 140.652344 279.203125 C 140.652344 280.183594 141.433594 280.96875 142.414062 280.96875 L 151.835938 280.96875 C 152.796875 280.96875 153.582031 280.183594 153.582031 279.203125 L 153.582031 272.621094 C 153.582031 271.640625 152.796875 270.855469 151.835938 270.855469 " fill-opacity="1" fill-rule="nonzero"/><path fill="#8d6f60" d="M 172.5 270.855469 L 163.09375 270.855469 C 162.113281 270.855469 161.332031 271.640625 161.332031 272.621094 L 161.332031 279.203125 C 161.332031 280.183594 162.113281 280.96875 163.09375 280.96875 L 172.5 280.96875 C 173.476562 280.96875 174.261719 280.183594 174.261719 279.203125 L 174.261719 272.621094 C 174.261719 271.640625 173.476562 270.855469 172.5 270.855469 " fill-opacity="1" fill-rule="nonzero"/><path fill="#8d6f60" d="M 193.195312 270.855469 L 183.773438 270.855469 C 182.792969 270.855469 182.011719 271.640625 182.011719 272.621094 L 182.011719 279.203125 C 182.011719 280.183594 182.792969 280.96875 183.773438 280.96875 L 193.195312 280.96875 C 194.160156 280.96875 194.941406 280.183594 194.941406 279.203125 L 194.941406 272.621094 C 194.941406 271.640625 194.160156 270.855469 193.195312 270.855469 " fill-opacity="1" fill-rule="nonzero"/><path fill="#8d6f60" d="M 213.875 270.855469 L 204.453125 270.855469 C 203.492188 270.855469 202.691406 271.640625 202.691406 272.621094 L 202.691406 279.203125 C 202.691406 280.183594 203.492188 280.96875 204.453125 280.96875 L 213.875 280.96875 C 214.839844 280.96875 215.640625 280.183594 215.640625 279.203125 L 215.640625 272.621094 C 215.640625 271.640625 214.839844 270.855469 213.875 270.855469 " fill-opacity="1" fill-rule="nonzero"/><path fill="#8d6f60" d="M 234.554688 270.855469 L 225.132812 270.855469 C 224.171875 270.855469 223.371094 271.640625 223.371094 272.621094 L 223.371094 279.203125 C 223.371094 280.183594 224.171875 280.96875 225.132812 280.96875 L 234.554688 280.96875 C 235.519531 280.96875 236.320312 280.183594 236.320312 279.203125 L 236.320312 272.621094 C 236.320312 271.640625 235.519531 270.855469 234.554688 270.855469 " fill-opacity="1" fill-rule="nonzero"/><path fill="#8d6f60" d="M 255.234375 270.855469 L 245.8125 270.855469 C 244.851562 270.855469 244.050781 271.640625 244.050781 272.621094 L 244.050781 279.203125 C 244.050781 280.183594 244.851562 280.96875 245.8125 280.96875 L 255.234375 280.96875 C 256.214844 280.96875 257 280.183594 257 279.203125 L 257 272.621094 C 257 271.640625 256.214844 270.855469 255.234375 270.855469 " fill-opacity="1" fill-rule="nonzero"/><path fill="#8d6f60" d="M 275.917969 270.855469 L 266.492188 270.855469 C 265.53125 270.855469 264.746094 271.640625 264.746094 272.621094 L 264.746094 279.203125 C 264.746094 280.183594 265.53125 280.96875 266.492188 280.96875 L 275.917969 280.96875 C 276.894531 280.96875 277.679688 280.183594 277.679688 279.203125 L 277.679688 272.621094 C 277.679688 271.640625 276.894531 270.855469 275.917969 270.855469 " fill-opacity="1" fill-rule="nonzero"/><path fill="#8d6f60" d="M 110.457031 290.28125 L 101.054688 290.28125 C 100.074219 290.28125 99.289062 291.066406 99.289062 292.046875 L 99.289062 298.644531 C 99.289062 299.609375 100.074219 300.410156 101.054688 300.410156 L 110.457031 300.410156 C 111.4375 300.410156 112.222656 299.609375 112.222656 298.644531 L 112.222656 292.046875 C 112.222656 291.066406 111.4375 290.28125 110.457031 290.28125 " fill-opacity="1" fill-rule="nonzero"/><path fill="#8d6f60" d="M 131.90625 290.28125 L 122.480469 290.28125 C 121.503906 290.28125 120.71875 291.066406 120.71875 292.046875 L 120.71875 298.644531 C 120.71875 299.609375 121.503906 300.410156 122.480469 300.410156 L 131.90625 300.410156 C 132.867188 300.410156 133.667969 299.609375 133.667969 298.644531 L 133.667969 292.046875 C 133.667969 291.066406 132.867188 290.28125 131.90625 290.28125 " fill-opacity="1" fill-rule="nonzero"/><path fill="#8d6f60" d="M 234.554688 290.28125 L 225.132812 290.28125 C 224.171875 290.28125 223.371094 291.066406 223.371094 292.046875 L 223.371094 298.644531 C 223.371094 299.609375 224.171875 300.410156 225.132812 300.410156 L 234.554688 300.410156 C 235.519531 300.410156 236.320312 299.609375 236.320312 298.644531 L 236.320312 292.046875 C 236.320312 291.066406 235.519531 290.28125 234.554688 290.28125 " fill-opacity="1" fill-rule="nonzero"/><path fill="#8d6f60" d="M 255.234375 290.28125 L 245.8125 290.28125 C 244.851562 290.28125 244.050781 291.066406 244.050781 292.046875 L 244.050781 298.644531 C 244.050781 299.609375 244.851562 300.410156 245.8125 300.410156 L 255.234375 300.410156 C 256.214844 300.410156 257 299.609375 257 298.644531 L 257 292.046875 C 257 291.066406 256.214844 290.28125 255.234375 290.28125 " fill-opacity="1" fill-rule="nonzero"/><path fill="#8d6f60" d="M 275.917969 290.28125 L 266.492188 290.28125 C 265.53125 290.28125 264.746094 291.066406 264.746094 292.046875 L 264.746094 298.644531 C 264.746094 299.609375 265.53125 300.410156 266.492188 300.410156 L 275.917969 300.410156 C 276.894531 300.410156 277.679688 299.609375 277.679688 298.644531 L 277.679688 292.046875 C 277.679688 291.066406 276.894531 290.28125 275.917969 290.28125 " fill-opacity="1" fill-rule="nonzero"/><path fill="#8d6f60" d="M 213.039062 290.246094 L 143.375 290.246094 C 142.394531 290.246094 141.613281 291.046875 141.613281 292.011719 L 141.613281 298.378906 C 141.613281 299.339844 142.394531 300.144531 143.375 300.144531 L 213.039062 300.144531 C 214.019531 300.144531 214.800781 299.339844 214.800781 298.378906 L 214.800781 292.011719 C 214.800781 291.046875 214.019531 290.246094 213.039062 290.246094 " fill-opacity="1" fill-rule="nonzero"/><g clip-path="url(#9561377ae2)"><path fill="#ffffff" d="M 50.917969 186.683594 C 50.996094 187.414062 51.199219 188.113281 51.519531 188.78125 C 51.839844 189.445312 52.261719 190.039062 52.789062 190.558594 C 53.3125 191.082031 53.910156 191.5 54.578125 191.820312 C 55.246094 192.140625 55.949219 192.339844 56.6875 192.417969 C 59.019531 192.648438 61.355469 192.753906 63.695312 192.734375 C 61.355469 192.714844 59.019531 192.824219 56.6875 193.054688 C 55.949219 193.132812 55.246094 193.332031 54.578125 193.652344 C 53.910156 193.972656 53.3125 194.390625 52.789062 194.914062 C 52.261719 195.433594 51.839844 196.027344 51.519531 196.691406 C 51.199219 197.359375 50.996094 198.054688 50.917969 198.789062 C 50.683594 201.105469 50.578125 203.429688 50.597656 205.757812 C 50.617188 203.429688 50.511719 201.105469 50.277344 198.789062 C 50.199219 198.054688 49.996094 197.359375 49.675781 196.691406 C 49.355469 196.027344 48.933594 195.433594 48.410156 194.914062 C 47.882812 194.390625 47.289062 193.96875 46.617188 193.652344 C 45.949219 193.332031 45.246094 193.132812 44.507812 193.054688 C 42.179688 192.824219 39.84375 192.714844 37.5 192.734375 C 39.84375 192.753906 42.179688 192.648438 44.507812 192.417969 C 45.246094 192.339844 45.949219 192.136719 46.617188 191.820312 C 47.289062 191.5 47.882812 191.082031 48.410156 190.558594 C 48.933594 190.039062 49.355469 189.445312 49.675781 188.777344 C 49.996094 188.113281 50.199219 187.414062 50.277344 186.683594 C 50.511719 184.363281 50.617188 182.042969 50.597656 179.714844 C 50.578125 182.042969 50.683594 184.363281 50.917969 186.683594 Z M 50.917969 186.683594 " fill-opacity="1" fill-rule="nonzero"/></g><g clip-path="url(#7d4d1da217)"><path fill="#ffffff" d="M 65.539062 196.261719 C 65.582031 196.632812 65.683594 196.988281 65.84375 197.324219 C 66.007812 197.660156 66.222656 197.960938 66.488281 198.222656 C 66.753906 198.488281 67.054688 198.699219 67.394531 198.863281 C 67.730469 199.023438 68.085938 199.125 68.460938 199.164062 C 69.640625 199.28125 70.820312 199.335938 72.007812 199.324219 C 70.820312 199.316406 69.640625 199.371094 68.460938 199.484375 C 68.085938 199.527344 67.730469 199.628906 67.394531 199.789062 C 67.054688 199.949219 66.753906 200.164062 66.488281 200.425781 C 66.222656 200.691406 66.007812 200.992188 65.84375 201.328125 C 65.683594 201.664062 65.582031 202.019531 65.539062 202.390625 C 65.421875 203.5625 65.371094 204.738281 65.378906 205.914062 C 65.386719 204.738281 65.335938 203.5625 65.21875 202.390625 C 65.175781 202.019531 65.074219 201.664062 64.914062 201.328125 C 64.75 200.992188 64.535156 200.691406 64.269531 200.425781 C 64.003906 200.164062 63.703125 199.949219 63.363281 199.789062 C 63.027344 199.628906 62.671875 199.527344 62.296875 199.484375 C 61.117188 199.371094 59.9375 199.316406 58.75 199.324219 C 59.9375 199.335938 61.117188 199.28125 62.296875 199.164062 C 62.671875 199.125 63.027344 199.023438 63.363281 198.863281 C 63.703125 198.699219 64.003906 198.488281 64.269531 198.222656 C 64.535156 197.960938 64.75 197.660156 64.914062 197.324219 C 65.074219 196.988281 65.175781 196.632812 65.21875 196.261719 C 65.335938 195.089844 65.390625 193.914062 65.378906 192.734375 C 65.371094 193.914062 65.421875 195.089844 65.539062 196.261719 Z M 65.539062 196.261719 " fill-opacity="1" fill-rule="nonzero"/></g><path fill="#ffffff" d="M 60.558594 183.257812 C 60.582031 183.484375 60.644531 183.699219 60.746094 183.90625 C 60.84375 184.113281 60.972656 184.292969 61.136719 184.457031 C 61.296875 184.617188 61.484375 184.746094 61.6875 184.84375 C 61.894531 184.945312 62.113281 185.003906 62.339844 185.03125 C 63.0625 185.101562 63.78125 185.132812 64.507812 185.128906 C 63.78125 185.121094 63.0625 185.15625 62.339844 185.226562 C 62.113281 185.25 61.894531 185.3125 61.6875 185.410156 C 61.480469 185.511719 61.296875 185.640625 61.136719 185.800781 C 60.972656 185.960938 60.84375 186.144531 60.746094 186.351562 C 60.644531 186.554688 60.582031 186.773438 60.558594 187 C 60.488281 187.714844 60.453125 188.433594 60.460938 189.152344 C 60.464844 188.433594 60.433594 187.714844 60.359375 187 C 60.335938 186.773438 60.273438 186.554688 60.175781 186.351562 C 60.074219 186.144531 59.945312 185.960938 59.78125 185.800781 C 59.621094 185.640625 59.4375 185.511719 59.230469 185.410156 C 59.023438 185.3125 58.804688 185.25 58.578125 185.226562 C 57.859375 185.15625 57.136719 185.121094 56.414062 185.128906 C 57.136719 185.132812 57.859375 185.101562 58.578125 185.03125 C 58.804688 185.003906 59.023438 184.945312 59.230469 184.84375 C 59.4375 184.746094 59.621094 184.617188 59.78125 184.457031 C 59.945312 184.292969 60.074219 184.109375 60.175781 183.90625 C 60.273438 183.699219 60.335938 183.484375 60.359375 183.257812 C 60.433594 182.542969 60.464844 181.824219 60.460938 181.105469 C 60.453125 181.824219 60.488281 182.542969 60.558594 183.257812 Z M 60.558594 183.257812 " fill-opacity="1" fill-rule="nonzero"/><g fill="#ffc1b2" fill-opacity="0.302"><g transform="translate(65.337334, 160.325834)"><g><path d="M 113.746094 -2.25 C 113.746094 -2.75 113.496094 -3.125 113.121094 -3.375 C 110.246094 -5.75 108.371094 -8.75 107.371094 -12.5 L 77.496094 -115.746094 C 76.871094 -117.746094 77.246094 -119.621094 78.746094 -121.121094 C 79.121094 -121.746094 79.121094 -122.371094 78.871094 -123.121094 C 78.496094 -123.871094 77.871094 -124.246094 77.121094 -124.246094 L 44.125 -124.246094 C 43.375 -124.246094 42.75 -123.871094 42.375 -123.121094 C 42 -122.371094 42 -121.746094 42.5 -121.121094 C 44 -119.621094 44.375 -117.746094 43.75 -115.746094 L 14 -12.375 C 13 -8.875 11 -5.875 8.125 -3.375 C 7.75 -3 7.5 -2.625 7.5 -2.25 C 7.375 -1.625 7.5 -1.125 7.875 -0.625 C 8.25 -0.125 8.75 0 9.5 0 L 38.5 0 C 39.25 0 39.875 -0.25 40.125 -1 C 40.375 -1.75 40.375 -2.375 39.875 -3 C 38.375 -4.5 38 -6.375 38.5 -8.375 L 42.375 -21.375 C 42.75 -22.75 43.5 -23.875 44.625 -24.625 C 45.625 -25.375 46.875 -25.875 48.375 -25.875 L 72.996094 -25.875 C 74.371094 -25.875 75.621094 -25.375 76.746094 -24.625 C 77.746094 -23.875 78.496094 -22.75 78.996094 -21.375 L 82.746094 -8.375 C 83.246094 -6.375 82.746094 -4.625 81.496094 -3.125 L 81.496094 -3 C 80.996094 -2.25 80.996094 -1.625 81.371094 -1 C 81.621094 -0.25 82.246094 0 83.121094 0 L 111.871094 0 C 112.496094 0 112.996094 -0.125 113.371094 -0.625 C 113.746094 -1.125 113.871094 -1.625 113.746094 -2.25 Z M 68.746094 -50.621094 L 52.621094 -50.621094 C 52.121094 -50.621094 51.746094 -50.746094 51.496094 -51.121094 C 51.121094 -51.496094 50.996094 -51.996094 51.246094 -52.496094 L 59.371094 -80.371094 C 59.496094 -80.996094 59.871094 -81.371094 60.621094 -81.371094 C 61.371094 -81.371094 61.746094 -80.996094 61.996094 -80.371094 L 69.996094 -52.496094 C 70.121094 -51.996094 69.996094 -51.496094 69.746094 -51.121094 C 69.496094 -50.746094 69.121094 -50.621094 68.746094 -50.621094 Z M 68.746094 -50.621094 "/></g></g></g><g fill="#ffc1b2" fill-opacity="0.502"><g transform="translate(68.645405, 161.730026)"><g><path d="M 113.746094 -2.25 C 113.746094 -2.75 113.496094 -3.125 113.121094 -3.375 C 110.246094 -5.75 108.371094 -8.75 107.371094 -12.5 L 77.496094 -115.746094 C 76.871094 -117.746094 77.246094 -119.621094 78.746094 -121.121094 C 79.121094 -121.746094 79.121094 -122.371094 78.871094 -123.121094 C 78.496094 -123.871094 77.871094 -124.246094 77.121094 -124.246094 L 44.125 -124.246094 C 43.375 -124.246094 42.75 -123.871094 42.375 -123.121094 C 42 -122.371094 42 -121.746094 42.5 -121.121094 C 44 -119.621094 44.375 -117.746094 43.75 -115.746094 L 14 -12.375 C 13 -8.875 11 -5.875 8.125 -3.375 C 7.75 -3 7.5 -2.625 7.5 -2.25 C 7.375 -1.625 7.5 -1.125 7.875 -0.625 C 8.25 -0.125 8.75 0 9.5 0 L 38.5 0 C 39.25 0 39.875 -0.25 40.125 -1 C 40.375 -1.75 40.375 -2.375 39.875 -3 C 38.375 -4.5 38 -6.375 38.5 -8.375 L 42.375 -21.375 C 42.75 -22.75 43.5 -23.875 44.625 -24.625 C 45.625 -25.375 46.875 -25.875 48.375 -25.875 L 72.996094 -25.875 C 74.371094 -25.875 75.621094 -25.375 76.746094 -24.625 C 77.746094 -23.875 78.496094 -22.75 78.996094 -21.375 L 82.746094 -8.375 C 83.246094 -6.375 82.746094 -4.625 81.496094 -3.125 L 81.496094 -3 C 80.996094 -2.25 80.996094 -1.625 81.371094 -1 C 81.621094 -0.25 82.246094 0 83.121094 0 L 111.871094 0 C 112.496094 0 112.996094 -0.125 113.371094 -0.625 C 113.746094 -1.125 113.871094 -1.625 113.746094 -2.25 Z M 68.746094 -50.621094 L 52.621094 -50.621094 C 52.121094 -50.621094 51.746094 -50.746094 51.496094 -51.121094 C 51.121094 -51.496094 50.996094 -51.996094 51.246094 -52.496094 L 59.371094 -80.371094 C 59.496094 -80.996094 59.871094 -81.371094 60.621094 -81.371094 C 61.371094 -81.371094 61.746094 -80.996094 61.996094 -80.371094 L 69.996094 -52.496094 C 70.121094 -51.996094 69.996094 -51.496094 69.746094 -51.121094 C 69.496094 -50.746094 69.121094 -50.621094 68.746094 -50.621094 Z M 68.746094 -50.621094 "/></g></g></g><g fill="#fffaef" fill-opacity="1"><g transform="translate(71.953476, 163.13422)"><g><path d="M 113.746094 -2.25 C 113.746094 -2.75 113.496094 -3.125 113.121094 -3.375 C 110.246094 -5.75 108.371094 -8.75 107.371094 -12.5 L 77.496094 -115.746094 C 76.871094 -117.746094 77.246094 -119.621094 78.746094 -121.121094 C 79.121094 -121.746094 79.121094 -122.371094 78.871094 -123.121094 C 78.496094 -123.871094 77.871094 -124.246094 77.121094 -124.246094 L 44.125 -124.246094 C 43.375 -124.246094 42.75 -123.871094 42.375 -123.121094 C 42 -122.371094 42 -121.746094 42.5 -121.121094 C 44 -119.621094 44.375 -117.746094 43.75 -115.746094 L 14 -12.375 C 13 -8.875 11 -5.875 8.125 -3.375 C 7.75 -3 7.5 -2.625 7.5 -2.25 C 7.375 -1.625 7.5 -1.125 7.875 -0.625 C 8.25 -0.125 8.75 0 9.5 0 L 38.5 0 C 39.25 0 39.875 -0.25 40.125 -1 C 40.375 -1.75 40.375 -2.375 39.875 -3 C 38.375 -4.5 38 -6.375 38.5 -8.375 L 42.375 -21.375 C 42.75 -22.75 43.5 -23.875 44.625 -24.625 C 45.625 -25.375 46.875 -25.875 48.375 -25.875 L 72.996094 -25.875 C 74.371094 -25.875 75.621094 -25.375 76.746094 -24.625 C 77.746094 -23.875 78.496094 -22.75 78.996094 -21.375 L 82.746094 -8.375 C 83.246094 -6.375 82.746094 -4.625 81.496094 -3.125 L 81.496094 -3 C 80.996094 -2.25 80.996094 -1.625 81.371094 -1 C 81.621094 -0.25 82.246094 0 83.121094 0 L 111.871094 0 C 112.496094 0 112.996094 -0.125 113.371094 -0.625 C 113.746094 -1.125 113.871094 -1.625 113.746094 -2.25 Z M 68.746094 -50.621094 L 52.621094 -50.621094 C 52.121094 -50.621094 51.746094 -50.746094 51.496094 -51.121094 C 51.121094 -51.496094 50.996094 -51.996094 51.246094 -52.496094 L 59.371094 -80.371094 C 59.496094 -80.996094 59.871094 -81.371094 60.621094 -81.371094 C 61.371094 -81.371094 61.746094 -80.996094 61.996094 -80.371094 L 69.996094 -52.496094 C 70.121094 -51.996094 69.996094 -51.496094 69.746094 -51.121094 C 69.496094 -50.746094 69.121094 -50.621094 68.746094 -50.621094 Z M 68.746094 -50.621094 "/></g></g></g><g fill="#ffc1b2" fill-opacity="0.302"><g transform="translate(156.208134, 189.845328)"><g><path d="M 129.960938 -10.078125 L 129.960938 -109.199219 C 129.960938 -111.839844 130.800781 -114.238281 132.71875 -116.28125 C 133.199219 -116.878906 133.320312 -117.480469 133.078125 -118.199219 C 132.71875 -118.921875 132.238281 -119.28125 131.519531 -119.28125 L 106.199219 -119.28125 L 106.078125 -119.160156 L 106.078125 -119.28125 L 102.839844 -119.28125 C 102 -119.28125 101.398438 -118.921875 101.160156 -118.199219 C 100.800781 -117.480469 100.800781 -116.878906 101.28125 -116.28125 C 101.761719 -115.558594 101.640625 -115.078125 101.160156 -114.71875 L 76.441406 -91.921875 C 75.601562 -91.199219 74.640625 -90.960938 73.679688 -90.960938 C 72.71875 -90.960938 71.878906 -91.199219 71.160156 -91.921875 L 46.078125 -114.960938 C 45.601562 -115.320312 45.601562 -115.679688 46.078125 -116.160156 C 46.558594 -116.761719 46.679688 -117.480469 46.441406 -118.199219 C 46.078125 -118.921875 45.480469 -119.28125 44.640625 -119.28125 L 16.320312 -119.28125 C 15.480469 -119.28125 14.878906 -118.921875 14.640625 -118.199219 C 14.28125 -117.480469 14.28125 -116.878906 14.761719 -116.28125 L 14.878906 -116.160156 C 16.679688 -114.121094 17.640625 -111.71875 17.640625 -109.078125 L 17.640625 -10.199219 C 17.640625 -7.441406 16.679688 -5.039062 14.878906 -3.121094 L 14.761719 -3 C 14.28125 -2.28125 14.28125 -1.679688 14.640625 -0.960938 C 14.878906 -0.238281 15.480469 0 16.320312 0 L 42.839844 0 C 43.558594 0 44.160156 -0.238281 44.519531 -0.960938 C 44.761719 -1.679688 44.761719 -2.28125 44.398438 -3 L 44.160156 -3.238281 C 42.238281 -5.160156 41.398438 -7.558594 41.398438 -10.320312 L 41.398438 -83.039062 C 41.398438 -83.761719 41.640625 -84.238281 42.359375 -84.480469 C 43.078125 -84.71875 43.679688 -84.71875 44.28125 -84.238281 L 71.160156 -59.28125 C 71.878906 -58.558594 72.71875 -58.199219 73.800781 -58.199219 C 74.761719 -58.199219 75.71875 -58.558594 76.441406 -59.28125 L 103.320312 -84.238281 C 103.800781 -84.71875 104.398438 -84.71875 105.121094 -84.480469 C 105.839844 -84.238281 106.199219 -83.761719 106.199219 -83.039062 L 106.199219 -10.441406 C 106.199219 -7.800781 105.238281 -5.398438 103.320312 -3.359375 L 103.078125 -3 C 102.601562 -2.28125 102.601562 -1.679688 102.960938 -0.960938 C 103.199219 -0.238281 103.800781 0 104.640625 0 L 131.519531 0 C 132.238281 0 132.71875 -0.238281 133.078125 -0.960938 C 133.320312 -1.679688 133.199219 -2.28125 132.71875 -3 C 130.800781 -4.921875 129.960938 -7.320312 129.960938 -10.078125 Z M 129.960938 -10.078125 "/></g></g></g><g fill="#ffc1b2" fill-opacity="0.502"><g transform="translate(159.383915, 191.193371)"><g><path d="M 129.960938 -10.078125 L 129.960938 -109.199219 C 129.960938 -111.839844 130.800781 -114.238281 132.71875 -116.28125 C 133.199219 -116.878906 133.320312 -117.480469 133.078125 -118.199219 C 132.71875 -118.921875 132.238281 -119.28125 131.519531 -119.28125 L 106.199219 -119.28125 L 106.078125 -119.160156 L 106.078125 -119.28125 L 102.839844 -119.28125 C 102 -119.28125 101.398438 -118.921875 101.160156 -118.199219 C 100.800781 -117.480469 100.800781 -116.878906 101.28125 -116.28125 C 101.761719 -115.558594 101.640625 -115.078125 101.160156 -114.71875 L 76.441406 -91.921875 C 75.601562 -91.199219 74.640625 -90.960938 73.679688 -90.960938 C 72.71875 -90.960938 71.878906 -91.199219 71.160156 -91.921875 L 46.078125 -114.960938 C 45.601562 -115.320312 45.601562 -115.679688 46.078125 -116.160156 C 46.558594 -116.761719 46.679688 -117.480469 46.441406 -118.199219 C 46.078125 -118.921875 45.480469 -119.28125 44.640625 -119.28125 L 16.320312 -119.28125 C 15.480469 -119.28125 14.878906 -118.921875 14.640625 -118.199219 C 14.28125 -117.480469 14.28125 -116.878906 14.761719 -116.28125 L 14.878906 -116.160156 C 16.679688 -114.121094 17.640625 -111.71875 17.640625 -109.078125 L 17.640625 -10.199219 C 17.640625 -7.441406 16.679688 -5.039062 14.878906 -3.121094 L 14.761719 -3 C 14.28125 -2.28125 14.28125 -1.679688 14.640625 -0.960938 C 14.878906 -0.238281 15.480469 0 16.320312 0 L 42.839844 0 C 43.558594 0 44.160156 -0.238281 44.519531 -0.960938 C 44.761719 -1.679688 44.761719 -2.28125 44.398438 -3 L 44.160156 -3.238281 C 42.238281 -5.160156 41.398438 -7.558594 41.398438 -10.320312 L 41.398438 -83.039062 C 41.398438 -83.761719 41.640625 -84.238281 42.359375 -84.480469 C 43.078125 -84.71875 43.679688 -84.71875 44.28125 -84.238281 L 71.160156 -59.28125 C 71.878906 -58.558594 72.71875 -58.199219 73.800781 -58.199219 C 74.761719 -58.199219 75.71875 -58.558594 76.441406 -59.28125 L 103.320312 -84.238281 C 103.800781 -84.71875 104.398438 -84.71875 105.121094 -84.480469 C 105.839844 -84.238281 106.199219 -83.761719 106.199219 -83.039062 L 106.199219 -10.441406 C 106.199219 -7.800781 105.238281 -5.398438 103.320312 -3.359375 L 103.078125 -3 C 102.601562 -2.28125 102.601562 -1.679688 102.960938 -0.960938 C 103.199219 -0.238281 103.800781 0 104.640625 0 L 131.519531 0 C 132.238281 0 132.71875 -0.238281 133.078125 -0.960938 C 133.320312 -1.679688 133.199219 -2.28125 132.71875 -3 C 130.800781 -4.921875 129.960938 -7.320312 129.960938 -10.078125 Z M 129.960938 -10.078125 "/></g></g></g><g fill="#fffaef" fill-opacity="1"><g transform="translate(162.559695, 192.541408)"><g><path d="M 129.960938 -10.078125 L 129.960938 -109.199219 C 129.960938 -111.839844 130.800781 -114.238281 132.71875 -116.28125 C 133.199219 -116.878906 133.320312 -117.480469 133.078125 -118.199219 C 132.71875 -118.921875 132.238281 -119.28125 131.519531 -119.28125 L 106.199219 -119.28125 L 106.078125 -119.160156 L 106.078125 -119.28125 L 102.839844 -119.28125 C 102 -119.28125 101.398438 -118.921875 101.160156 -118.199219 C 100.800781 -117.480469 100.800781 -116.878906 101.28125 -116.28125 C 101.761719 -115.558594 101.640625 -115.078125 101.160156 -114.71875 L 76.441406 -91.921875 C 75.601562 -91.199219 74.640625 -90.960938 73.679688 -90.960938 C 72.71875 -90.960938 71.878906 -91.199219 71.160156 -91.921875 L 46.078125 -114.960938 C 45.601562 -115.320312 45.601562 -115.679688 46.078125 -116.160156 C 46.558594 -116.761719 46.679688 -117.480469 46.441406 -118.199219 C 46.078125 -118.921875 45.480469 -119.28125 44.640625 -119.28125 L 16.320312 -119.28125 C 15.480469 -119.28125 14.878906 -118.921875 14.640625 -118.199219 C 14.28125 -117.480469 14.28125 -116.878906 14.761719 -116.28125 L 14.878906 -116.160156 C 16.679688 -114.121094 17.640625 -111.71875 17.640625 -109.078125 L 17.640625 -10.199219 C 17.640625 -7.441406 16.679688 -5.039062 14.878906 -3.121094 L 14.761719 -3 C 14.28125 -2.28125 14.28125 -1.679688 14.640625 -0.960938 C 14.878906 -0.238281 15.480469 0 16.320312 0 L 42.839844 0 C 43.558594 0 44.160156 -0.238281 44.519531 -0.960938 C 44.761719 -1.679688 44.761719 -2.28125 44.398438 -3 L 44.160156 -3.238281 C 42.238281 -5.160156 41.398438 -7.558594 41.398438 -10.320312 L 41.398438 -83.039062 C 41.398438 -83.761719 41.640625 -84.238281 42.359375 -84.480469 C 43.078125 -84.71875 43.679688 -84.71875 44.28125 -84.238281 L 71.160156 -59.28125 C 71.878906 -58.558594 72.71875 -58.199219 73.800781 -58.199219 C 74.761719 -58.199219 75.71875 -58.558594 76.441406 -59.28125 L 103.320312 -84.238281 C 103.800781 -84.71875 104.398438 -84.71875 105.121094 -84.480469 C 105.839844 -84.238281 106.199219 -83.761719 106.199219 -83.039062 L 106.199219 -10.441406 C 106.199219 -7.800781 105.238281 -5.398438 103.320312 -3.359375 L 103.078125 -3 C 102.601562 -2.28125 102.601562 -1.679688 102.960938 -0.960938 C 103.199219 -0.238281 103.800781 0 104.640625 0 L 131.519531 0 C 132.238281 0 132.71875 -0.238281 133.078125 -0.960938 C 133.320312 -1.679688 133.199219 -2.28125 132.71875 -3 C 130.800781 -4.921875 129.960938 -7.320312 129.960938 -10.078125 Z M 129.960938 -10.078125 "/></g></g></g><g clip-path="url(#03cb178a0b)"><path fill="#ffffff" d="M 247.246094 40.847656 C 247.328125 41.578125 247.527344 42.277344 247.847656 42.945312 C 248.167969 43.609375 248.589844 44.203125 249.117188 44.722656 C 249.640625 45.246094 250.238281 45.664062 250.90625 45.984375 C 251.574219 46.304688 252.277344 46.503906 253.015625 46.582031 C 255.347656 46.8125 257.683594 46.917969 260.023438 46.898438 C 257.683594 46.882812 255.347656 46.988281 253.015625 47.21875 C 252.277344 47.296875 251.574219 47.496094 250.90625 47.816406 C 250.238281 48.136719 249.640625 48.554688 249.117188 49.078125 C 248.589844 49.597656 248.167969 50.191406 247.847656 50.855469 C 247.527344 51.523438 247.328125 52.222656 247.246094 52.953125 C 247.011719 55.269531 246.90625 57.59375 246.925781 59.921875 C 246.945312 57.59375 246.839844 55.269531 246.605469 52.953125 C 246.527344 52.222656 246.324219 51.523438 246.003906 50.855469 C 245.683594 50.191406 245.261719 49.597656 244.738281 49.078125 C 244.210938 48.554688 243.617188 48.136719 242.945312 47.816406 C 242.277344 47.496094 241.574219 47.296875 240.835938 47.21875 C 238.507812 46.988281 236.171875 46.878906 233.828125 46.898438 C 236.171875 46.917969 238.507812 46.8125 240.835938 46.582031 C 241.574219 46.503906 242.277344 46.300781 242.945312 45.984375 C 243.617188 45.664062 244.210938 45.246094 244.738281 44.722656 C 245.261719 44.203125 245.683594 43.609375 246.003906 42.945312 C 246.324219 42.277344 246.527344 41.578125 246.605469 40.847656 C 246.839844 38.527344 246.945312 36.207031 246.925781 33.878906 C 246.90625 36.207031 247.011719 38.527344 247.246094 40.847656 Z M 247.246094 40.847656 " fill-opacity="1" fill-rule="nonzero"/></g><g clip-path="url(#c0cbebd78e)"><path fill="#ffffff" d="M 261.867188 50.425781 C 261.910156 50.796875 262.011719 51.152344 262.171875 51.488281 C 262.335938 51.824219 262.550781 52.125 262.816406 52.386719 C 263.082031 52.652344 263.382812 52.863281 263.722656 53.027344 C 264.058594 53.1875 264.414062 53.289062 264.789062 53.328125 C 265.96875 53.445312 267.148438 53.5 268.335938 53.488281 C 267.148438 53.480469 265.96875 53.535156 264.789062 53.648438 C 264.414062 53.691406 264.058594 53.792969 263.722656 53.953125 C 263.382812 54.113281 263.082031 54.328125 262.816406 54.589844 C 262.550781 54.855469 262.335938 55.15625 262.171875 55.492188 C 262.011719 55.828125 261.910156 56.183594 261.867188 56.554688 C 261.75 57.726562 261.699219 58.902344 261.707031 60.078125 C 261.71875 58.902344 261.664062 57.726562 261.546875 56.554688 C 261.503906 56.183594 261.402344 55.828125 261.242188 55.492188 C 261.078125 55.15625 260.863281 54.855469 260.597656 54.589844 C 260.332031 54.328125 260.03125 54.113281 259.691406 53.953125 C 259.355469 53.792969 259 53.691406 258.625 53.648438 C 257.445312 53.535156 256.265625 53.480469 255.078125 53.488281 C 256.265625 53.5 257.445312 53.445312 258.625 53.328125 C 259 53.289062 259.355469 53.1875 259.691406 53.027344 C 260.03125 52.863281 260.332031 52.652344 260.597656 52.386719 C 260.863281 52.125 261.078125 51.824219 261.242188 51.488281 C 261.402344 51.152344 261.503906 50.796875 261.546875 50.425781 C 261.664062 49.253906 261.71875 48.078125 261.707031 46.898438 C 261.699219 48.078125 261.75 49.253906 261.867188 50.425781 Z M 261.867188 50.425781 " fill-opacity="1" fill-rule="nonzero"/></g><path fill="#ffffff" d="M 256.886719 37.421875 C 256.910156 37.648438 256.972656 37.863281 257.074219 38.070312 C 257.171875 38.277344 257.300781 38.457031 257.464844 38.621094 C 257.625 38.78125 257.8125 38.910156 258.015625 39.007812 C 258.222656 39.109375 258.441406 39.167969 258.667969 39.195312 C 259.390625 39.265625 260.109375 39.296875 260.835938 39.292969 C 260.109375 39.285156 259.390625 39.320312 258.667969 39.390625 C 258.441406 39.414062 258.222656 39.476562 258.015625 39.574219 C 257.8125 39.675781 257.625 39.804688 257.464844 39.964844 C 257.300781 40.125 257.171875 40.308594 257.074219 40.515625 C 256.972656 40.71875 256.910156 40.9375 256.886719 41.164062 C 256.816406 41.878906 256.78125 42.597656 256.789062 43.316406 C 256.792969 42.597656 256.761719 41.878906 256.6875 41.164062 C 256.664062 40.9375 256.601562 40.71875 256.503906 40.515625 C 256.402344 40.308594 256.273438 40.125 256.113281 39.964844 C 255.949219 39.804688 255.765625 39.675781 255.558594 39.574219 C 255.351562 39.476562 255.132812 39.414062 254.90625 39.390625 C 254.1875 39.320312 253.464844 39.285156 252.742188 39.292969 C 253.464844 39.296875 254.1875 39.265625 254.90625 39.195312 C 255.132812 39.167969 255.351562 39.109375 255.558594 39.007812 C 255.765625 38.910156 255.949219 38.78125 256.109375 38.621094 C 256.273438 38.457031 256.402344 38.277344 256.503906 38.070312 C 256.601562 37.863281 256.664062 37.648438 256.6875 37.421875 C 256.761719 36.707031 256.792969 35.988281 256.789062 35.269531 C 256.78125 35.988281 256.816406 36.707031 256.886719 37.421875 Z M 256.886719 37.421875 " fill-opacity="1" fill-rule="nonzero"/><g clip-path="url(#54959e7ed3)"><path fill="#ffffff" d="M 316.464844 256.34375 C 316.542969 257.078125 316.746094 257.777344 317.066406 258.441406 C 317.386719 259.105469 317.808594 259.699219 318.332031 260.222656 C 318.859375 260.742188 319.453125 261.164062 320.125 261.484375 C 320.792969 261.800781 321.496094 262 322.234375 262.082031 C 324.5625 262.3125 326.902344 262.417969 329.242188 262.398438 C 326.902344 262.378906 324.5625 262.484375 322.234375 262.714844 C 321.496094 262.796875 320.792969 262.996094 320.125 263.316406 C 319.457031 263.632812 318.859375 264.054688 318.332031 264.574219 C 317.808594 265.097656 317.386719 265.691406 317.066406 266.355469 C 316.746094 267.019531 316.542969 267.71875 316.464844 268.453125 C 316.230469 270.769531 316.125 273.09375 316.144531 275.421875 C 316.164062 273.09375 316.058594 270.769531 315.824219 268.453125 C 315.746094 267.71875 315.542969 267.019531 315.222656 266.355469 C 314.902344 265.691406 314.480469 265.097656 313.957031 264.574219 C 313.429688 264.054688 312.832031 263.632812 312.164062 263.316406 C 311.496094 262.996094 310.792969 262.796875 310.054688 262.714844 C 307.726562 262.484375 305.386719 262.378906 303.046875 262.398438 C 305.386719 262.417969 307.726562 262.3125 310.054688 262.082031 C 310.792969 262 311.496094 261.800781 312.164062 261.484375 C 312.832031 261.164062 313.429688 260.742188 313.957031 260.222656 C 314.480469 259.699219 314.902344 259.105469 315.222656 258.441406 C 315.542969 257.777344 315.746094 257.078125 315.824219 256.34375 C 316.058594 254.027344 316.164062 251.703125 316.144531 249.375 C 316.125 251.703125 316.230469 254.027344 316.464844 256.34375 Z M 316.464844 256.34375 " fill-opacity="1" fill-rule="nonzero"/></g><g clip-path="url(#90f4ddaf7b)"><path fill="#ffffff" d="M 331.085938 265.925781 C 331.128906 266.296875 331.230469 266.648438 331.390625 266.984375 C 331.554688 267.324219 331.769531 267.621094 332.035156 267.886719 C 332.296875 268.152344 332.601562 268.363281 332.9375 268.523438 C 333.277344 268.6875 333.632812 268.785156 334.007812 268.828125 C 335.1875 268.945312 336.367188 268.996094 337.554688 268.988281 C 336.367188 268.980469 335.1875 269.03125 334.007812 269.148438 C 333.632812 269.191406 333.277344 269.289062 332.9375 269.453125 C 332.601562 269.613281 332.296875 269.824219 332.035156 270.089844 C 331.769531 270.355469 331.554688 270.652344 331.390625 270.992188 C 331.230469 271.328125 331.128906 271.679688 331.085938 272.050781 C 330.96875 273.222656 330.914062 274.398438 330.925781 275.578125 C 330.933594 274.398438 330.882812 273.222656 330.765625 272.050781 C 330.722656 271.679688 330.621094 271.328125 330.460938 270.992188 C 330.296875 270.652344 330.082031 270.355469 329.816406 270.089844 C 329.550781 269.824219 329.25 269.613281 328.910156 269.453125 C 328.574219 269.289062 328.21875 269.1875 327.84375 269.148438 C 326.664062 269.03125 325.480469 268.980469 324.296875 268.988281 C 325.480469 268.996094 326.664062 268.945312 327.84375 268.828125 C 328.21875 268.785156 328.574219 268.6875 328.910156 268.523438 C 329.25 268.363281 329.550781 268.152344 329.816406 267.886719 C 330.082031 267.621094 330.296875 267.324219 330.460938 266.984375 C 330.621094 266.648438 330.722656 266.296875 330.765625 265.925781 C 330.882812 264.753906 330.9375 263.578125 330.925781 262.398438 C 330.917969 263.578125 330.96875 264.753906 331.085938 265.925781 Z M 331.085938 265.925781 " fill-opacity="1" fill-rule="nonzero"/></g><path fill="#ffffff" d="M 326.105469 252.921875 C 326.128906 253.148438 326.191406 253.363281 326.289062 253.570312 C 326.390625 253.773438 326.519531 253.957031 326.683594 254.117188 C 326.84375 254.28125 327.027344 254.410156 327.234375 254.507812 C 327.441406 254.605469 327.660156 254.667969 327.886719 254.691406 C 328.609375 254.765625 329.328125 254.796875 330.054688 254.792969 C 329.328125 254.785156 328.609375 254.816406 327.886719 254.890625 C 327.660156 254.914062 327.441406 254.976562 327.234375 255.074219 C 327.027344 255.171875 326.84375 255.300781 326.683594 255.464844 C 326.519531 255.625 326.390625 255.808594 326.289062 256.011719 C 326.191406 256.21875 326.128906 256.433594 326.105469 256.660156 C 326.03125 257.378906 326 258.09375 326.007812 258.816406 C 326.011719 258.09375 325.980469 257.378906 325.90625 256.660156 C 325.882812 256.433594 325.820312 256.21875 325.722656 256.011719 C 325.621094 255.808594 325.492188 255.625 325.328125 255.464844 C 325.167969 255.300781 324.984375 255.171875 324.777344 255.074219 C 324.570312 254.976562 324.351562 254.914062 324.125 254.890625 C 323.40625 254.816406 322.683594 254.785156 321.960938 254.792969 C 322.683594 254.796875 323.40625 254.765625 324.125 254.691406 C 324.351562 254.667969 324.570312 254.605469 324.777344 254.507812 C 324.984375 254.410156 325.167969 254.28125 325.328125 254.117188 C 325.492188 253.957031 325.621094 253.773438 325.722656 253.570312 C 325.820312 253.363281 325.882812 253.148438 325.90625 252.921875 C 325.980469 252.203125 326.011719 251.488281 326.007812 250.765625 C 326 251.488281 326.03125 252.203125 326.105469 252.921875 Z M 326.105469 252.921875 " fill-opacity="1" fill-rule="nonzero"/></svg>