<?xml version="1.0" encoding="UTF-8"?><svg xmlns="http://www.w3.org/2000/svg" xmlns:xlink="http://www.w3.org/1999/xlink" width="375pt" zoomAndPan="magnify" viewBox="0 0 375 374.999991" height="374.999991pt" preserveAspectRatio="xMidYMid meet" version="1.2"><g xml:id="surface1" id="surface1"><rect x="0" width="375" y="0" height="374.999991" style="fill:rgb(100%,100%,100%);fill-opacity:1;stroke:none;"/><rect x="0" width="375" y="0" height="374.999991" style="fill:rgb(100%,100%,100%);fill-opacity:1;stroke:none;"/><rect x="0" width="375" y="0" height="374.999991" style="fill:rgb(100%,100%,100%);fill-opacity:1;stroke:none;"/><path style=" stroke:none;fill-rule:nonzero;fill:rgb(100%,98.81897%,0%);fill-opacity:1;" d="M 335.347656 -29.710938 C 373.5625 -29.710938 404.539062 1.265625 404.539062 39.480469 L 404.539062 335.347656 C 404.539062 373.5625 373.5625 404.539062 335.347656 404.539062 L 39.480469 404.539062 C 1.265625 404.539062 -29.710938 373.5625 -29.710938 335.347656 L -29.710938 39.480469 C -29.710938 1.265625 1.265625 -29.710938 39.480469 -29.710938 Z M 335.347656 -29.710938 "/><path style=" stroke:none;fill-rule:nonzero;fill:rgb(100%,100%,100%);fill-opacity:1;" d="M 189.152344 336.796875 C 188.28125 336.796875 187.414062 336.796875 186.835938 336.796875 C 186.253906 336.796875 185.675781 336.796875 185.386719 336.796875 C 166.570312 336.796875 154.410156 328.109375 142.832031 320.003906 C 134.722656 314.214844 127.199219 309.003906 118.222656 307.554688 C 113.878906 306.6875 109.539062 306.398438 105.195312 306.398438 C 97.667969 306.398438 91.589844 307.554688 87.246094 308.425781 C 84.640625 309.003906 82.324219 309.292969 80.589844 309.292969 C 78.851562 309.292969 76.824219 309.003906 75.957031 306.109375 C 75.085938 303.503906 74.796875 301.1875 74.21875 298.871094 C 72.769531 292.792969 71.902344 289.027344 69.296875 288.738281 C 39.480469 284.105469 30.792969 277.738281 29.058594 273.394531 C 28.765625 272.816406 28.765625 272.238281 28.476562 271.367188 C 28.476562 269.632812 29.636719 268.183594 31.371094 267.894531 C 77.402344 260.367188 97.957031 213.46875 98.828125 211.441406 C 98.828125 211.441406 98.828125 211.441406 98.828125 211.152344 C 101.722656 205.363281 102.300781 200.441406 100.5625 196.386719 C 97.378906 188.859375 87.246094 185.675781 80.296875 183.648438 C 78.5625 183.070312 77.113281 182.492188 75.667969 182.203125 C 62.058594 176.703125 60.902344 171.203125 61.480469 168.597656 C 62.347656 163.675781 68.71875 160.488281 73.929688 160.488281 C 75.375 160.488281 76.535156 160.78125 77.691406 161.359375 C 83.773438 164.253906 89.273438 165.699219 94.195312 165.699219 C 100.851562 165.699219 103.746094 162.804688 104.039062 162.515625 C 103.746094 159.332031 103.746094 156.148438 103.457031 152.671875 C 102.011719 130.960938 100.273438 104.039062 107.222656 88.40625 C 127.777344 42.085938 171.492188 38.609375 184.519531 38.609375 C 184.808594 38.609375 190.308594 38.609375 190.308594 38.609375 L 191.175781 38.609375 C 204.203125 38.609375 247.917969 42.085938 268.472656 88.40625 C 275.421875 103.746094 273.683594 130.960938 272.238281 152.671875 L 272.238281 153.542969 C 271.949219 156.4375 271.949219 159.621094 271.65625 162.226562 C 271.949219 162.515625 274.554688 165.121094 280.632812 165.410156 C 285.265625 165.121094 290.476562 163.675781 295.976562 161.070312 C 297.714844 160.199219 299.449219 160.199219 300.898438 160.199219 C 302.925781 160.199219 304.660156 160.488281 306.398438 161.359375 C 311.03125 163.09375 313.925781 166.28125 314.214844 169.464844 C 314.214844 172.648438 311.898438 177.570312 300.027344 182.203125 C 298.871094 182.78125 297.132812 183.070312 295.6875 183.648438 C 288.738281 185.675781 278.605469 189.152344 275.421875 196.386719 C 273.683594 200.441406 274.261719 205.363281 277.160156 211.152344 C 277.160156 211.152344 277.160156 211.152344 277.160156 211.441406 C 278.027344 213.46875 298.582031 260.367188 344.613281 267.894531 C 346.347656 268.183594 347.507812 269.632812 347.507812 271.367188 C 347.507812 271.949219 347.21875 272.527344 346.929688 273.394531 C 344.902344 277.738281 336.507812 284.105469 306.6875 288.738281 C 304.371094 289.027344 303.214844 292.210938 301.765625 298.871094 C 301.1875 301.1875 300.609375 303.792969 300.027344 306.109375 C 299.449219 308.425781 298.003906 309.292969 295.6875 309.292969 L 295.398438 309.292969 C 293.949219 309.292969 291.632812 309.003906 288.738281 308.425781 C 283.816406 307.554688 278.027344 306.398438 270.789062 306.398438 C 266.445312 306.398438 262.105469 306.6875 257.761719 307.554688 C 248.789062 309.003906 241.261719 314.503906 233.15625 320.003906 C 219.835938 328.109375 207.96875 336.796875 189.152344 336.796875 Z M 189.152344 336.796875 "/><path style=" stroke:none;fill-rule:nonzero;fill:rgb(1.179504%,1.179504%,1.179504%);fill-opacity:1;" d="M 190.019531 41.503906 C 202.179688 41.503906 244.445312 44.691406 264.132812 89.273438 C 270.789062 104.039062 269.050781 130.382812 267.605469 151.804688 C 267.316406 155.277344 267.316406 158.464844 267.027344 161.648438 L 267.027344 163.09375 L 267.894531 163.964844 C 268.183594 164.253906 271.65625 168.015625 279.183594 168.304688 C 284.105469 168.015625 289.894531 166.570312 295.976562 163.675781 C 296.84375 163.386719 298.003906 163.09375 299.449219 163.09375 C 300.898438 163.09375 302.34375 163.386719 303.792969 163.964844 L 304.082031 163.964844 C 307.265625 165.121094 309.582031 167.148438 309.582031 169.175781 C 309.582031 170.332031 308.714844 174.097656 297.421875 178.726562 C 296.265625 179.308594 294.816406 179.597656 293.082031 180.175781 C 285.554688 182.492188 274.554688 185.964844 270.789062 194.941406 C 268.761719 199.863281 269.34375 205.941406 272.527344 212.308594 C 273.972656 215.496094 295.109375 262.972656 342.585938 270.789062 C 342.585938 271.078125 342.585938 271.367188 342.296875 271.65625 C 341.425781 273.683594 336.507812 280.054688 304.660156 284.976562 C 299.738281 285.84375 298.582031 291.34375 297.132812 297.714844 C 296.554688 300.027344 295.976562 302.34375 295.398438 304.949219 C 295.109375 305.820312 295.109375 305.820312 294.238281 305.820312 C 294.238281 305.820312 293.949219 305.820312 293.949219 305.820312 C 292.503906 305.820312 290.476562 305.53125 287.871094 304.949219 C 283.238281 304.082031 277.160156 302.925781 269.34375 302.925781 C 265 302.925781 260.367188 303.214844 255.734375 304.082031 C 245.890625 305.820312 238.074219 311.320312 229.679688 317.109375 C 218.390625 325.214844 206.808594 333.320312 188.859375 333.320312 C 187.992188 333.320312 187.414062 333.320312 186.546875 333.320312 L 185.964844 333.320312 C 185.386719 333.320312 185.097656 333.320312 184.519531 333.320312 C 166.859375 333.320312 154.988281 325.214844 143.699219 317.109375 C 135.304688 311.320312 127.488281 305.53125 117.644531 304.082031 C 113.011719 303.214844 108.667969 302.925781 104.039062 302.925781 C 96.222656 302.925781 89.851562 304.082031 85.507812 304.949219 C 82.902344 305.53125 80.878906 305.820312 79.429688 305.820312 C 78.273438 305.820312 78.273438 305.820312 77.984375 304.949219 C 77.402344 302.632812 76.824219 300.027344 76.246094 297.714844 C 74.796875 291.34375 73.640625 285.554688 68.71875 284.976562 C 36.875 280.054688 31.664062 273.394531 31.082031 271.65625 C 31.082031 271.367188 30.792969 271.078125 30.792969 270.789062 C 78.273438 262.972656 99.40625 215.496094 100.851562 212.308594 C 104.039062 205.652344 104.617188 199.863281 102.589844 194.941406 C 98.828125 185.964844 87.535156 182.492188 80.296875 180.175781 C 78.5625 179.597656 77.113281 179.308594 75.957031 178.730469 C 66.402344 174.964844 63.507812 171.203125 63.796875 168.886719 C 64.375 166.28125 69.007812 163.386719 73.0625 163.386719 C 73.929688 163.386719 74.796875 163.675781 75.378906 163.675781 C 82.035156 166.859375 87.824219 168.304688 93.035156 168.304688 C 101.433594 168.304688 104.90625 164.542969 105.484375 163.964844 L 106.351562 163.09375 L 106.351562 161.648438 C 106.0625 158.464844 106.0625 155.277344 105.773438 151.804688 C 104.328125 130.382812 102.878906 104.039062 109.25 89.273438 C 129.511719 44.980469 171.203125 41.503906 183.648438 41.503906 C 183.9375 41.503906 189.441406 41.503906 189.441406 41.503906 C 189.730469 41.503906 190.019531 41.503906 190.019531 41.503906 M 190.019531 34.847656 C 189.730469 34.847656 189.441406 34.847656 189.152344 34.847656 C 189.152344 34.847656 183.9375 34.847656 183.648438 34.847656 C 170.332031 34.847656 124.882812 38.609375 103.457031 86.667969 C 96.222656 102.878906 97.957031 130.382812 99.40625 152.382812 C 99.695312 154.988281 99.695312 157.59375 99.984375 160.199219 C 98.828125 160.78125 96.800781 161.648438 93.617188 161.648438 C 89.273438 161.648438 84.351562 160.199219 78.5625 157.59375 C 77.113281 157.015625 75.375 156.4375 73.351562 156.4375 C 66.691406 156.4375 58.875 160.78125 57.429688 167.4375 C 56.558594 172.070312 58.585938 179.019531 73.640625 184.808594 C 75.085938 185.386719 76.535156 185.964844 78.273438 186.546875 C 84.351562 188.570312 93.90625 191.464844 96.511719 197.546875 C 97.957031 200.730469 97.378906 204.785156 95.0625 209.414062 C 95.0625 209.414062 95.0625 209.703125 94.773438 209.703125 C 93.90625 211.730469 73.929688 256.894531 29.925781 264.132812 C 26.453125 264.710938 24.136719 267.605469 24.425781 271.078125 C 24.425781 272.238281 24.714844 273.105469 25.003906 273.972656 C 28.1875 281.789062 42.375 287.289062 67.851562 291.34375 C 68.71875 292.5 69.585938 296.554688 70.164062 299.160156 C 70.746094 301.476562 71.324219 304.082031 71.902344 306.6875 C 72.769531 309.292969 74.796875 312.476562 79.71875 312.476562 C 81.746094 312.476562 84.351562 311.898438 86.957031 311.320312 C 91.300781 310.449219 97.089844 309.292969 104.328125 309.292969 C 108.378906 309.292969 112.433594 309.582031 116.777344 310.449219 C 124.882812 311.898438 131.828125 316.820312 139.933594 322.320312 C 151.515625 330.425781 164.542969 339.691406 184.519531 339.691406 C 185.097656 339.691406 185.675781 339.691406 186.253906 339.691406 C 186.835938 339.691406 187.703125 339.691406 188.570312 339.691406 C 208.546875 339.691406 221.574219 330.425781 233.15625 322.320312 C 241.261719 316.53125 248.207031 311.609375 256.3125 310.160156 C 260.65625 309.582031 264.710938 309.003906 268.761719 309.003906 C 275.710938 309.003906 281.210938 309.871094 286.132812 310.742188 C 289.316406 311.320312 291.632812 311.609375 293.371094 311.609375 L 293.949219 311.609375 C 297.714844 311.609375 300.320312 309.582031 301.476562 306.109375 C 302.34375 303.503906 302.925781 301.1875 303.214844 298.582031 C 303.792969 295.976562 304.660156 291.921875 305.53125 291.054688 C 331.003906 287 344.902344 281.5 348.375 273.683594 C 348.664062 272.816406 348.953125 271.65625 349.242188 270.5 C 349.535156 267.027344 346.929688 264.132812 343.742188 263.550781 C 299.449219 256.316406 279.765625 210.863281 278.894531 209.125 C 278.894531 209.125 278.894531 208.835938 278.605469 208.835938 C 276.289062 203.914062 275.710938 200.152344 277.160156 196.96875 C 279.765625 190.886719 289.027344 187.992188 295.398438 185.964844 C 297.132812 185.386719 298.871094 184.808594 300.027344 184.230469 C 311.03125 179.886719 316.53125 174.675781 316.53125 168.304688 C 316.53125 163.386719 312.765625 159.042969 306.6875 157.015625 C 304.660156 156.148438 302.34375 155.859375 300.027344 155.859375 C 298.292969 155.859375 295.976562 156.148438 293.949219 157.015625 C 288.738281 159.332031 284.105469 160.78125 280.054688 161.070312 C 277.449219 161.070312 275.710938 160.199219 274.554688 159.621094 C 274.554688 157.304688 274.84375 154.988281 274.84375 152.671875 L 274.84375 151.804688 C 276.289062 129.804688 278.027344 102.300781 270.789062 86.089844 C 249.078125 38.609375 203.625 34.847656 190.019531 34.847656 Z M 190.019531 34.847656 "/></g></svg>