<svg xmlns="http://www.w3.org/2000/svg" xmlns:xlink="http://www.w3.org/1999/xlink" width="500" zoomAndPan="magnify" viewBox="0 0 375 374.999991" height="500" preserveAspectRatio="xMidYMid meet" version="1.0"><defs><clipPath id="5be8a75372"><path d="M 40 58 L 335 58 L 335 352.429688 L 40 352.429688 Z M 40 58 " clip-rule="nonzero"/></clipPath><clipPath id="b982fc8944"><path d="M 128 22.429688 L 335.339844 22.429688 L 335.339844 235 L 128 235 Z M 128 22.429688 " clip-rule="nonzero"/></clipPath><clipPath id="dc9a3a539f"><path d="M 39.839844 177 L 248 177 L 248 352.429688 L 39.839844 352.429688 Z M 39.839844 177 " clip-rule="nonzero"/></clipPath><clipPath id="5830604175"><path d="M 158 45 L 335.339844 45 L 335.339844 264 L 158 264 Z M 158 45 " clip-rule="nonzero"/></clipPath><clipPath id="8bebbace75"><path d="M 39.839844 147 L 218 147 L 218 352.429688 L 39.839844 352.429688 Z M 39.839844 147 " clip-rule="nonzero"/></clipPath><clipPath id="0292dda2a5"><path d="M 161 141 L 335.339844 141 L 335.339844 352.429688 L 161 352.429688 Z M 161 141 " clip-rule="nonzero"/></clipPath><clipPath id="f4f71e3a04"><path d="M 39.839844 52 L 214 52 L 214 270 L 39.839844 270 Z M 39.839844 52 " clip-rule="nonzero"/></clipPath><clipPath id="0d8fd1d67e"><path d="M 129 176 L 335.339844 176 L 335.339844 352.429688 L 129 352.429688 Z M 129 176 " clip-rule="nonzero"/></clipPath><clipPath id="6399d54a52"><path d="M 39.839844 22.429688 L 246 22.429688 L 246 236 L 39.839844 236 Z M 39.839844 22.429688 " clip-rule="nonzero"/></clipPath><clipPath id="ebc436698a"><path d="M 39.839844 112 L 287 112 L 287 352.429688 L 39.839844 352.429688 Z M 39.839844 112 " clip-rule="nonzero"/></clipPath><clipPath id="d7f5dded22"><path d="M 159 22.429688 L 216 22.429688 L 216 44 L 159 44 Z M 159 22.429688 " clip-rule="nonzero"/></clipPath></defs><path fill="#88a6b3" d="M 249.609375 75.289062 L 261.097656 81.179688 L 269.339844 65.128906 L 257.851562 59.238281 L 249.609375 75.289062 " fill-opacity="1" fill-rule="nonzero"/><path fill="#9ec1cf" d="M 248.710938 55.046875 L 278.097656 70.085938 L 283.875 58.824219 L 254.488281 43.769531 L 248.710938 55.046875 " fill-opacity="1" fill-rule="nonzero"/><path fill="#88a6b3" d="M 130.726562 75.289062 L 119.238281 81.179688 L 110.996094 65.128906 L 122.503906 59.238281 L 130.726562 75.289062 " fill-opacity="1" fill-rule="nonzero"/><path fill="#9ec1cf" d="M 131.644531 55.046875 L 102.257812 70.085938 L 96.460938 58.824219 L 125.867188 43.769531 L 131.644531 55.046875 " fill-opacity="1" fill-rule="nonzero"/><path fill="#88a6b3" d="M 202.523438 73.210938 L 172.820312 73.210938 L 172.820312 42.941406 L 202.523438 42.941406 L 202.523438 73.210938 " fill-opacity="1" fill-rule="nonzero"/><g clip-path="url(#5be8a75372)"><path fill="#6796ab" d="M 334.625 205.644531 C 334.625 286.730469 268.824219 352.449219 187.671875 352.449219 C 106.519531 352.449219 40.71875 286.730469 40.71875 205.644531 C 40.71875 124.574219 106.519531 58.859375 187.671875 58.859375 C 268.824219 58.859375 334.625 124.574219 334.625 205.644531 " fill-opacity="1" fill-rule="nonzero"/></g><path fill="#ffffff" d="M 306.6875 205.644531 C 306.6875 271.3125 253.390625 324.554688 187.671875 324.554688 C 121.9375 324.554688 68.65625 271.3125 68.65625 205.644531 C 68.65625 139.992188 121.9375 86.75 187.671875 86.75 C 253.390625 86.75 306.6875 139.992188 306.6875 205.644531 " fill-opacity="1" fill-rule="nonzero"/><path stroke-linecap="butt" transform="matrix(0.166501, 0, 0, -0.166331, -166.310039, 541.050084)" fill="none" stroke-linejoin="miter" d="M 2126.001307 2650.308086 L 2126.001307 2548.00808 " stroke="#24537c" stroke-width="44.479" stroke-opacity="1" stroke-miterlimit="10"/><path stroke-linecap="butt" transform="matrix(0.166501, 0, 0, -0.166331, -166.310039, 541.050084)" fill="none" stroke-linejoin="miter" d="M 2126.001307 1484.895897 L 2126.001307 1382.595891 " stroke="#24537c" stroke-width="44.479" stroke-opacity="1" stroke-miterlimit="10"/><path stroke-linecap="butt" transform="matrix(0.166501, 0, 0, -0.166331, -166.310039, 541.050084)" fill="none" stroke-linejoin="miter" d="M 2759.79434 2016.498959 L 2657.505329 2016.498959 " stroke="#24537c" stroke-width="44.479" stroke-opacity="1" stroke-miterlimit="10"/><path stroke-linecap="butt" transform="matrix(0.166501, 0, 0, -0.166331, -166.310039, 541.050084)" fill="none" stroke-linejoin="miter" d="M 1594.497285 2016.498959 L 1492.208275 2016.498959 " stroke="#24537c" stroke-width="44.479" stroke-opacity="1" stroke-miterlimit="10"/><g clip-path="url(#b982fc8944)"><path stroke-linecap="butt" transform="matrix(0.166501, 0, 0, -0.166331, -166.310039, 541.050084)" fill="none" stroke-linejoin="miter" d="M 2449.009357 2561.793687 L 2396.90296 2473.795955 " stroke="#24537c" stroke-width="44.479" stroke-opacity="1" stroke-miterlimit="10"/></g><g clip-path="url(#dc9a3a539f)"><path stroke-linecap="butt" transform="matrix(0.166501, 0, 0, -0.166331, -166.310039, 541.050084)" fill="none" stroke-linejoin="miter" d="M 1855.193498 1559.108023 L 1802.993257 1471.11029 " stroke="#24537c" stroke-width="44.479" stroke-opacity="1" stroke-miterlimit="10"/></g><g clip-path="url(#5830604175)"><path stroke-linecap="butt" transform="matrix(0.166501, 0, 0, -0.166331, -166.310039, 541.050084)" fill="none" stroke-linejoin="miter" d="M 2664.003966 2351.510342 L 2577.199071 2297.401248 " stroke="#24537c" stroke-width="44.479" stroke-opacity="1" stroke-miterlimit="10"/></g><g clip-path="url(#8bebbace75)"><path stroke-linecap="butt" transform="matrix(0.166501, 0, 0, -0.166331, -166.310039, 541.050084)" fill="none" stroke-linejoin="miter" d="M 1674.803543 1735.50273 L 1587.998648 1681.393636 " stroke="#24537c" stroke-width="44.479" stroke-opacity="1" stroke-miterlimit="10"/></g><g clip-path="url(#0292dda2a5)"><path stroke-linecap="butt" transform="matrix(0.166501, 0, 0, -0.166331, -166.310039, 541.050084)" fill="none" stroke-linejoin="miter" d="M 2688.989699 1725.404245 L 2598.196472 1772.30349 " stroke="#24537c" stroke-width="44.479" stroke-opacity="1" stroke-miterlimit="10"/></g><g clip-path="url(#f4f71e3a04)"><path stroke-linecap="butt" transform="matrix(0.166501, 0, 0, -0.166331, -166.310039, 541.050084)" fill="none" stroke-linejoin="miter" d="M 1653.899986 2260.600488 L 1562.989455 2307.499733 " stroke="#24537c" stroke-width="44.479" stroke-opacity="1" stroke-miterlimit="10"/></g><g clip-path="url(#0d8fd1d67e)"><path stroke-linecap="butt" transform="matrix(0.166501, 0, 0, -0.166331, -166.310039, 541.050084)" fill="none" stroke-linejoin="miter" d="M 2459.097494 1477.192867 L 2405.30192 1564.204235 " stroke="#24537c" stroke-width="44.479" stroke-opacity="1" stroke-miterlimit="10"/></g><g clip-path="url(#6399d54a52)"><path stroke-linecap="butt" transform="matrix(0.166501, 0, 0, -0.166331, -166.310039, 541.050084)" fill="none" stroke-linejoin="miter" d="M 1846.700694 2468.605803 L 1792.905121 2555.711111 " stroke="#24537c" stroke-width="44.479" stroke-opacity="1" stroke-miterlimit="10"/></g><path stroke-linecap="butt" transform="matrix(0.166501, 0, 0, -0.166331, -166.310039, 541.050084)" fill="none" stroke-linejoin="miter" d="M 2126.001307 2413.205042 L 2126.001307 2094.304266 " stroke="#24537c" stroke-width="44.479" stroke-opacity="1" stroke-miterlimit="10"/><g clip-path="url(#ebc436698a)"><path stroke-linecap="butt" transform="matrix(0.166501, 0, 0, -0.166331, -166.310039, 541.050084)" fill="none" stroke-linejoin="miter" d="M 2092.006634 1946.490621 L 1792.905121 1652.60121 " stroke="#24537c" stroke-width="44.479" stroke-opacity="1" stroke-miterlimit="10"/></g><path stroke-linecap="butt" transform="matrix(0.166501, 0, 0, -0.166331, -166.310039, 541.050084)" fill="none" stroke-linejoin="miter" d="M 2203.797261 2016.498959 C 2203.797261 1973.404259 2169.004921 1938.599712 2126.001307 1938.599712 C 2082.997693 1938.599712 2048.205353 1973.404259 2048.205353 2016.498959 C 2048.205353 2059.405779 2082.997693 2094.304266 2126.001307 2094.304266 C 2169.004921 2094.304266 2203.797261 2059.405779 2203.797261 2016.498959 Z M 2203.797261 2016.498959 " stroke="#d7282f" stroke-width="44.479" stroke-opacity="1" stroke-miterlimit="10"/><g clip-path="url(#d7f5dded22)"><path fill="#9ec1cf" d="M 215.378906 43.65625 L 159.964844 43.65625 L 159.964844 22.414062 L 215.378906 22.414062 L 215.378906 43.65625 " fill-opacity="1" fill-rule="nonzero"/></g></svg>