<?xml version="1.0" encoding="UTF-8"?><svg xmlns="http://www.w3.org/2000/svg" xmlns:xlink="http://www.w3.org/1999/xlink" width="375pt" zoomAndPan="magnify" viewBox="0 0 375 374.999991" height="374.999991pt" preserveAspectRatio="xMidYMid meet" version="1.2"><defs><clipPath xml:id="clip1" id="clip1"><path d="M 62 77 L 313 77 L 313 327.976562 L 62 327.976562 Z M 62 77 "/></clipPath><clipPath xml:id="clip2" id="clip2"><path d="M 136 46.726562 L 313.570312 46.726562 L 313.570312 228 L 136 228 Z M 136 46.726562 "/></clipPath><clipPath xml:id="clip3" id="clip3"><path d="M 61.570312 178 L 239 178 L 239 327.976562 L 61.570312 327.976562 Z M 61.570312 178 "/></clipPath><clipPath xml:id="clip4" id="clip4"><path d="M 162 66 L 313.570312 66 L 313.570312 253 L 162 253 Z M 162 66 "/></clipPath><clipPath xml:id="clip5" id="clip5"><path d="M 61.570312 153 L 213 153 L 213 327.976562 L 61.570312 327.976562 Z M 61.570312 153 "/></clipPath><clipPath xml:id="clip6" id="clip6"><path d="M 165 148 L 313.570312 148 L 313.570312 327.976562 L 165 327.976562 Z M 165 148 "/></clipPath><clipPath xml:id="clip7" id="clip7"><path d="M 61.570312 72 L 210 72 L 210 258 L 61.570312 258 Z M 61.570312 72 "/></clipPath><clipPath xml:id="clip8" id="clip8"><path d="M 137 177 L 313.570312 177 L 313.570312 327.976562 L 137 327.976562 Z M 137 177 "/></clipPath><clipPath xml:id="clip9" id="clip9"><path d="M 61.570312 46.726562 L 238 46.726562 L 238 228 L 61.570312 228 Z M 61.570312 46.726562 "/></clipPath><clipPath xml:id="clip10" id="clip10"><path d="M 61.570312 123 L 273 123 L 273 327.976562 L 61.570312 327.976562 Z M 61.570312 123 "/></clipPath><clipPath xml:id="clip11" id="clip11"><path d="M 164 46.726562 L 212 46.726562 L 212 65 L 164 65 Z M 164 46.726562 "/></clipPath></defs><g xml:id="surface1" id="surface1"><path style=" stroke:none;fill-rule:nonzero;fill:rgb(53.329468%,65.098572%,70.199585%);fill-opacity:1;" d="M 240.464844 91.777344 L 250.261719 96.796875 L 257.289062 83.117188 L 247.492188 78.097656 L 240.464844 91.777344 "/><path style=" stroke:none;fill-rule:nonzero;fill:rgb(61.959839%,75.689697%,81.17981%);fill-opacity:1;" d="M 239.695312 74.523438 L 264.757812 87.339844 L 269.6875 77.742188 L 244.625 64.914062 L 239.695312 74.523438 "/><path style=" stroke:none;fill-rule:nonzero;fill:rgb(53.329468%,65.098572%,70.199585%);fill-opacity:1;" d="M 139.082031 91.777344 L 129.285156 96.796875 L 122.253906 83.117188 L 132.066406 78.097656 L 139.082031 91.777344 "/><path style=" stroke:none;fill-rule:nonzero;fill:rgb(61.959839%,75.689697%,81.17981%);fill-opacity:1;" d="M 139.863281 74.523438 L 114.800781 87.339844 L 109.859375 77.742188 L 134.933594 64.914062 L 139.863281 74.523438 "/><path style=" stroke:none;fill-rule:nonzero;fill:rgb(53.329468%,65.098572%,70.199585%);fill-opacity:1;" d="M 200.308594 90.003906 L 174.976562 90.003906 L 174.976562 64.203125 L 200.308594 64.203125 L 200.308594 90.003906 "/><g clip-rule="nonzero" clip-path="url(#clip1)"><path style=" stroke:none;fill-rule:nonzero;fill:rgb(40.388489%,58.81958%,67.059326%);fill-opacity:1;" d="M 312.964844 202.875 C 312.964844 271.980469 256.847656 327.988281 187.640625 327.988281 C 118.433594 327.988281 62.320312 271.980469 62.320312 202.875 C 62.320312 133.78125 118.433594 77.769531 187.640625 77.769531 C 256.847656 77.769531 312.964844 133.78125 312.964844 202.875 "/></g><path style=" stroke:none;fill-rule:nonzero;fill:rgb(100%,100%,100%);fill-opacity:1;" d="M 289.136719 202.875 C 289.136719 258.839844 243.6875 304.21875 187.640625 304.21875 C 131.582031 304.21875 86.144531 258.839844 86.144531 202.875 C 86.144531 146.921875 131.582031 101.542969 187.640625 101.542969 C 243.6875 101.542969 289.136719 146.921875 289.136719 202.875 "/><path style="fill:none;stroke-width:44.479;stroke-linecap:butt;stroke-linejoin:miter;stroke:rgb(14.118958%,32.548523%,48.629761%);stroke-opacity:1;stroke-miterlimit:10;" d="M 2125.988548 2650.295731 L 2125.988548 2548.009509 " transform="matrix(0.141993,0,0,-0.141759,-114.233959,488.730808)"/><path style="fill:none;stroke-width:44.479;stroke-linecap:butt;stroke-linejoin:miter;stroke:rgb(14.118958%,32.548523%,48.629761%);stroke-opacity:1;stroke-miterlimit:10;" d="M 2125.988548 1484.888618 L 2125.988548 1382.602395 " transform="matrix(0.141993,0,0,-0.141759,-114.233959,488.730808)"/><path style="fill:none;stroke-width:44.479;stroke-linecap:butt;stroke-linejoin:miter;stroke:rgb(14.118958%,32.548523%,48.629761%);stroke-opacity:1;stroke-miterlimit:10;" d="M 2759.797005 2016.490397 L 2657.486417 2016.490397 " transform="matrix(0.141993,0,0,-0.141759,-114.233959,488.730808)"/><path style="fill:none;stroke-width:44.479;stroke-linecap:butt;stroke-linejoin:miter;stroke:rgb(14.118958%,32.548523%,48.629761%);stroke-opacity:1;stroke-miterlimit:10;" d="M 1594.490679 2016.490397 L 1492.2076 2016.490397 " transform="matrix(0.141993,0,0,-0.141759,-114.233959,488.730808)"/><g clip-rule="nonzero" clip-path="url(#clip2)"><path style="fill:none;stroke-width:44.479;stroke-linecap:butt;stroke-linejoin:miter;stroke:rgb(14.118958%,32.548523%,48.629761%);stroke-opacity:1;stroke-miterlimit:10;" d="M 2448.986295 2561.787287 L 2396.909407 2473.802398 " transform="matrix(0.141993,0,0,-0.141759,-114.233959,488.730808)"/></g><g clip-rule="nonzero" clip-path="url(#clip3)"><path style="fill:none;stroke-width:44.479;stroke-linecap:butt;stroke-linejoin:miter;stroke:rgb(14.118958%,32.548523%,48.629761%);stroke-opacity:1;stroke-miterlimit:10;" d="M 1855.205239 1559.095729 L 1802.9908 1471.11084 " transform="matrix(0.141993,0,0,-0.141759,-114.233959,488.730808)"/></g><g clip-rule="nonzero" clip-path="url(#clip4)"><path style="fill:none;stroke-width:44.479;stroke-linecap:butt;stroke-linejoin:miter;stroke:rgb(14.118958%,32.548523%,48.629761%);stroke-opacity:1;stroke-miterlimit:10;" d="M 2664.006344 2351.510842 L 2577.211531 2297.391731 " transform="matrix(0.141993,0,0,-0.141759,-114.233959,488.730808)"/></g><g clip-rule="nonzero" clip-path="url(#clip5)"><path style="fill:none;stroke-width:44.479;stroke-linecap:butt;stroke-linejoin:miter;stroke:rgb(14.118958%,32.548523%,48.629761%);stroke-opacity:1;stroke-miterlimit:10;" d="M 1674.793074 1735.506396 L 1587.998262 1681.387285 " transform="matrix(0.141993,0,0,-0.141759,-114.233959,488.730808)"/></g><g clip-rule="nonzero" clip-path="url(#clip6)"><path style="fill:none;stroke-width:44.479;stroke-linecap:butt;stroke-linejoin:miter;stroke:rgb(14.118958%,32.548523%,48.629761%);stroke-opacity:1;stroke-miterlimit:10;" d="M 2689.013153 1725.393507 L 2598.201846 1772.293063 " transform="matrix(0.141993,0,0,-0.141759,-114.233959,488.730808)"/></g><g clip-rule="nonzero" clip-path="url(#clip7)"><path style="fill:none;stroke-width:44.479;stroke-linecap:butt;stroke-linejoin:miter;stroke:rgb(14.118958%,32.548523%,48.629761%);stroke-opacity:1;stroke-miterlimit:10;" d="M 1653.912801 2260.605064 L 1562.991452 2307.504619 " transform="matrix(0.141993,0,0,-0.141759,-114.233959,488.730808)"/></g><g clip-rule="nonzero" clip-path="url(#clip8)"><path style="fill:none;stroke-width:44.479;stroke-linecap:butt;stroke-linejoin:miter;stroke:rgb(14.118958%,32.548523%,48.629761%);stroke-opacity:1;stroke-miterlimit:10;" d="M 2459.110064 1477.200618 L 2405.300031 1564.193507 " transform="matrix(0.141993,0,0,-0.141759,-114.233959,488.730808)"/></g><g clip-rule="nonzero" clip-path="url(#clip9)"><path style="fill:none;stroke-width:44.479;stroke-linecap:butt;stroke-linejoin:miter;stroke:rgb(14.118958%,32.548523%,48.629761%);stroke-opacity:1;stroke-miterlimit:10;" d="M 1846.704574 2468.594398 L 1792.894541 2555.697509 " transform="matrix(0.141993,0,0,-0.141759,-114.233959,488.730808)"/></g><path style="fill:none;stroke-width:44.479;stroke-linecap:butt;stroke-linejoin:miter;stroke:rgb(14.118958%,32.548523%,48.629761%);stroke-opacity:1;stroke-miterlimit:10;" d="M 2125.988548 2413.207731 L 2125.988548 2094.307286 " transform="matrix(0.141993,0,0,-0.141759,-114.233959,488.730808)"/><g clip-rule="nonzero" clip-path="url(#clip10)"><path style="fill:none;stroke-width:44.479;stroke-linecap:butt;stroke-linejoin:miter;stroke:rgb(14.118958%,32.548523%,48.629761%);stroke-opacity:1;stroke-miterlimit:10;" d="M 2092.013399 1946.499285 L 1792.894541 1652.591729 " transform="matrix(0.141993,0,0,-0.141759,-114.233959,488.730808)"/></g><path style="fill:none;stroke-width:44.479;stroke-linecap:butt;stroke-linejoin:miter;stroke:rgb(84.309387%,15.689087%,18.429565%);stroke-opacity:1;stroke-miterlimit:10;" d="M 2203.787511 2016.490397 C 2203.787511 1973.393508 2168.987055 1938.590841 2125.988548 1938.590841 C 2082.99004 1938.590841 2048.189584 1973.393508 2048.189584 2016.490397 C 2048.189584 2059.394397 2082.99004 2094.307286 2125.988548 2094.307286 C 2168.987055 2094.307286 2203.787511 2059.394397 2203.787511 2016.490397 Z M 2203.787511 2016.490397 " transform="matrix(0.141993,0,0,-0.141759,-114.233959,488.730808)"/><g clip-rule="nonzero" clip-path="url(#clip11)"><path style=" stroke:none;fill-rule:nonzero;fill:rgb(61.959839%,75.689697%,81.17981%);fill-opacity:1;" d="M 211.269531 64.816406 L 164.015625 64.816406 L 164.015625 46.710938 L 211.269531 46.710938 L 211.269531 64.816406 "/></g></g></svg>